<?xml version="1.0" encoding="utf-8"?>
<!-- Generator: Adobe Illustrator 26.0.3, SVG Export Plug-In . SVG Version: 6.00 Build 0)  -->
<svg version="1.1" id="Слой_1" xmlns="http://www.w3.org/2000/svg" xmlns:xlink="http://www.w3.org/1999/xlink" x="0px" y="0px"
	 viewBox="0 0 1920 600.7" style="enable-background:new 0 0 1920 600.7;" xml:space="preserve">
<style type="text/css">
	.st0{fill:url(#SVGID_1_);}
	.st1{fill:url(#SVGID_00000057147142570542748870000017166332174071758262_);}
	.st2{fill:url(#SVGID_00000085953346231361629500000007673453971848263054_);}
	.st3{fill:url(#SVGID_00000038379910436998728530000009321413274045454214_);}
	.st4{fill:#E97B00;}
	.st5{fill:#6A4100;}
	.st6{fill:#AE5209;}
	.st7{fill:#080000;}
	.st8{fill:#7D350E;}
	.st9{fill:#CF0A0A;}
	.st10{clip-path:url(#SVGID_00000036952271932864912940000008607458974514272914_);fill:#970707;}
	
		.st11{opacity:0.36;clip-path:url(#SVGID_00000099634370939929822040000011567509550594634372_);fill:#FFFFFF;enable-background:new    ;}
	.st12{fill:#41270F;}
	.st13{fill:#4F7E06;}
	.st14{fill:#D00000;}
	.st15{clip-path:url(#SVGID_00000137116660747626760430000012955177767271191703_);fill:#980000;}
	
		.st16{opacity:0.36;clip-path:url(#SVGID_00000059290866046735844900000010432084179810429109_);fill:#FFFFFF;enable-background:new    ;}
	
		.st17{opacity:0.36;clip-path:url(#SVGID_00000153682870827040697870000001479872132206725022_);fill:#FFFFFF;enable-background:new    ;}
	.st18{fill:#42260D;}
	.st19{fill:#5F9D00;}
	.st20{fill:#EE0000;}
	.st21{clip-path:url(#SVGID_00000103970495540491566150000018161408359768485760_);fill:#B60000;}
	
		.st22{opacity:0.36;clip-path:url(#SVGID_00000002354715649816396400000008680774095680383655_);fill:#FFFFFF;enable-background:new    ;}
	
		.st23{opacity:0.36;clip-path:url(#SVGID_00000047039819165106143740000012607552493114744248_);fill:#FFFFFF;enable-background:new    ;}
	.st24{fill:#603813;}
	.st25{clip-path:url(#XMLID_00000155860754008732449700000010192583628992688548_);fill:#465F00;}
	.st26{fill:#5859B4;}
	.st27{clip-path:url(#SVGID_00000134954625670494822250000012962426181817424515_);fill:#384078;}
	.st28{clip-path:url(#SVGID_00000150101586783623063870000000787825739101046919_);fill:#384078;}
	.st29{fill:#91500E;}
	.st30{clip-path:url(#SVGID_00000147908020653176242190000011753060556498327215_);fill:#7D350E;}
	.st31{fill:#FFF1AA;}
	.st32{clip-path:url(#SVGID_00000129173463890222982450000010188901081334494361_);fill:#FFD38C;}
	.st33{clip-path:url(#SVGID_00000143605754679929215720000017616646296260489621_);fill:#B60000;}
	
		.st34{opacity:0.36;clip-path:url(#SVGID_00000158750618381897416190000009764362347256626867_);fill:#FFFFFF;enable-background:new    ;}
	
		.st35{opacity:0.36;clip-path:url(#SVGID_00000152985334960702307090000015160377135990955932_);fill:#FFFFFF;enable-background:new    ;}
	.st36{clip-path:url(#SVGID_00000082345861550573025530000016896186374276216204_);fill:#B60000;}
	
		.st37{opacity:0.36;clip-path:url(#SVGID_00000091003468389407237580000004960590818079968169_);fill:#FFFFFF;enable-background:new    ;}
	
		.st38{opacity:0.36;clip-path:url(#SVGID_00000076589093594667972030000002383992619021263004_);fill:#FFFFFF;enable-background:new    ;}
	.st39{clip-path:url(#SVGID_00000128487641312080152580000008111352807841481134_);fill:#B60000;}
	
		.st40{opacity:0.36;clip-path:url(#SVGID_00000013913132273935941120000007036507315653790888_);fill:#FFFFFF;enable-background:new    ;}
	
		.st41{opacity:0.36;clip-path:url(#SVGID_00000005972441185365892470000002416352766754909100_);fill:#FFFFFF;enable-background:new    ;}
	.st42{clip-path:url(#SVGID_00000052785068630725580730000016710586278027859093_);fill:#B60000;}
	
		.st43{opacity:0.36;clip-path:url(#SVGID_00000057831119777727549790000008327156690172349100_);fill:#FFFFFF;enable-background:new    ;}
	
		.st44{opacity:0.36;clip-path:url(#SVGID_00000111156242145361773570000004381383203367178385_);fill:#FFFFFF;enable-background:new    ;}
	.st45{fill:#8A6C00;}
	.st46{clip-path:url(#SVGID_00000155135447142926303860000018153525101518076312_);fill:#4D2500;}
	.st47{clip-path:url(#SVGID_00000150093036971461008370000002949166954664281278_);fill:#7D350E;}
	.st48{clip-path:url(#SVGID_00000122691075344428269460000018001566121201238183_);fill:#7D350E;}
	.st49{clip-path:url(#XMLID_00000004545944916233736680000010899562944596861315_);fill:#372100;}
	.st50{fill:#020100;}
	.st51{fill:#AD0000;}
	.st52{fill:#EE880E;}
	.st53{clip-path:url(#SVGID_00000095309551249845002180000014302242142802600882_);fill:#C4550D;}
	.st54{fill:#C25800;}
	.st55{clip-path:url(#SVGID_00000140730566375961034980000012417274462611198629_);fill:#C4550D;}
	.st56{clip-path:url(#SVGID_00000052790336082068626310000010166601307558027707_);fill:#C4550D;}
	.st57{fill:#7F440F;}
	.st58{fill:#E18A1C;}
	.st59{clip-path:url(#SVGID_00000051372221884768964380000001802889383564184961_);fill:#B35A1C;}
	.st60{clip-path:url(#SVGID_00000056386145560522461610000007124259352537113996_);fill:#B35A1C;}
</style>
<g>
	
		<linearGradient id="SVGID_1_" gradientUnits="userSpaceOnUse" x1="855.2" y1="931.7001" x2="1463.7003" y2="931.7001" gradientTransform="matrix(1 0 0 1 0 -478)">
		<stop  offset="0" style="stop-color:#FFD28F"/>
		<stop  offset="1" style="stop-color:#FCE791"/>
	</linearGradient>
	<path class="st0" d="M1415.8,468.9c-5.1-25.9-39.8-46-81.9-46c-11.9,0-23.3,1.6-33.5,4.5c0-41-49.4-74.2-110.4-74.2
		c-46.5,0-86.3,19.4-102.6,46.7c-24.2-9.5-54.1-15.1-86.5-15.1c-80.5,0-145.7,34.7-145.7,77.5s65.2,77.5,145.7,77.5
		c24.4,0,47.3-3.2,67.5-8.8c20.9,14,56.2,23.2,96.2,23.2c46.9,0,87.2-12.6,105.6-30.7c15,16.2,51,27.5,93,27.5
		c55.5,0,100.5-19.9,100.5-44.4C1463.8,490.7,1444.6,476.7,1415.8,468.9z"/>
	
		<linearGradient id="SVGID_00000031200029560990265220000003763173824397138097_" gradientUnits="userSpaceOnUse" x1="1218.1" y1="990.7001" x2="1826.6002" y2="990.7001" gradientTransform="matrix(1 0 0 1 0 -478)">
		<stop  offset="0" style="stop-color:#FFD28F"/>
		<stop  offset="1" style="stop-color:#FCE791"/>
	</linearGradient>
	<path style="fill:url(#SVGID_00000031200029560990265220000003763173824397138097_);" d="M1778.7,527.9c-5.1-25.9-39.8-46-81.9-46
		c-11.9,0-23.3,1.6-33.5,4.5c0-41-49.4-74.2-110.4-74.2c-46.5,0-86.3,19.4-102.6,46.7c-24.2-9.5-54.1-15.1-86.5-15.1
		c-80.5,0-145.7,34.7-145.7,77.5s65.2,77.5,145.7,77.5c24.4,0,47.3-3.2,67.5-8.8c20.9,14,56.2,23.2,96.2,23.2
		c46.9,0,87.2-12.6,105.6-30.7c15,16.2,51,27.5,93,27.5c55.5,0,100.5-19.9,100.5-44.4C1826.7,549.7,1807.5,535.7,1778.7,527.9z"/>
	
		<linearGradient id="SVGID_00000122719434491482505190000013559495771904629432_" gradientUnits="userSpaceOnUse" x1="773.491" y1="1014.7706" x2="1106.5153" y2="548.8594" gradientTransform="matrix(1 0 0 1 0 -478)">
		<stop  offset="0" style="stop-color:#FFD28F"/>
		<stop  offset="1" style="stop-color:#FCE791"/>
	</linearGradient>
	<path style="fill:url(#SVGID_00000122719434491482505190000013559495771904629432_);" d="M1096.4,408.9
		c-4.8-31.5-37.4-55.9-77-55.9c-11.2,0-21.9,2-31.5,5.5c0-49.9-46.5-90.3-103.9-90.3c-43.8,0-81.2,23.5-96.5,56.8
		c-22.8-11.6-50.9-18.4-81.4-18.4c-75.7,0-137.1,42.2-137.1,94.3s61.4,94.3,137.1,94.3c22.9,0,44.5-3.9,63.5-10.7
		c19.6,17,52.9,28.2,90.6,28.2c44.1,0,82.1-15.3,99.3-37.3c14.1,19.6,48,33.5,87.6,33.5c52.3,0,94.6-24.2,94.6-53.9
		C1141.6,435.5,1123.5,418.4,1096.4,408.9z"/>
	
		<linearGradient id="SVGID_00000143593249814755055360000003188702801083590065_" gradientUnits="userSpaceOnUse" x1="-65.6999" y1="872.9" x2="998.3" y2="872.9" gradientTransform="matrix(1 0 0 1 0 -478)">
		<stop  offset="0" style="stop-color:#FFD28F"/>
		<stop  offset="1" style="stop-color:#FCE791"/>
	</linearGradient>
	<path style="fill:url(#SVGID_00000143593249814755055360000003188702801083590065_);" d="M914.4,415.8
		c-8.9-35.7-69.5-63.4-143.1-63.4c-20.9,0-40.7,2.2-58.6,6.3c0-56.5-86.5-102.4-193.1-102.4c-81.3,0-150.9,26.7-179.3,64.5
		c-42.3-13.1-94.6-20.9-151.3-20.9c-140.7,0-254.7,47.9-254.7,106.9S48.4,513.7,189,513.7c42.6,0,82.7-4.4,118-12.2
		c36.5,19.3,98.2,32,168.3,32c82,0,152.5-17.4,184.5-42.4c26.3,22.3,89.2,38,162.7,38c97.1,0,175.8-27.4,175.8-61.2
		C998.3,445.9,964.7,426.5,914.4,415.8z"/>
</g>
<path class="st4" d="M1920,471.2c0,0-661.4,29.8-881.3,15.5C331.6,440.8,0,462.7,0,462.7v138h1920V471.2z"/>
<path class="st5" d="M1411.8,550.4c-1.5-8-11.8-14.2-24.4-14.2c-3.6,0-6.9,0.5-10,1.4c0-12.7-14.7-23-32.9-23
	c-13.9,0-25.7,6-30.5,14.5c-7.2-2.9-16.1-4.7-25.8-4.7c-24,0-43.4,10.7-43.4,24s181.2,21.3,181.2,13.7
	C1426.1,557.1,1420.4,552.8,1411.8,550.4z"/>
<path class="st5" d="M1988.1,556.1c-2-17.1-15.9-30.3-32.7-30.3c-4.8,0-9.3,1.1-13.4,3c0-27.1-19.7-49-44.1-49
	c-18.6,0-34.4,12.8-40.9,30.9c-9.7-6.3-21.6-10-34.5-10c-32.1,0-58.2,22.9-58.2,51.2s242.9,45.5,242.9,29.3
	C2007.3,570.5,1999.6,561.2,1988.1,556.1z"/>
<path class="st5" d="M125.2,502.3c-2-17.1-15.9-30.3-32.7-30.3c-4.8,0-9.3,1.1-13.4,3c0-27.1-19.7-49-44.1-49
	c-18.6,0-34.4,12.8-40.9,30.9c-9.7-6.3-21.6-10-34.5-10c-32.1,0-58.2,22.9-58.2,51.2s242.9,45.5,242.9,29.3
	C144.4,516.7,136.7,507.4,125.2,502.3z"/>
<path class="st6" d="M1971.4,588.7c-116.9,51.7-963.5,63.2-963.5,63.2S-156,637.4-157.9,586.4c-1.9-50.9-312-76.2,566-88.6
	c118.6-1.7,409.3,17.7,711.4,35.6C1676,566.5,2140.9,513.7,1971.4,588.7z"/>
<ellipse transform="matrix(0.9736 -0.2284 0.2284 0.9736 -119.5002 94.2144)" class="st7" cx="347.3" cy="563.4" rx="43.9" ry="23.9"/>
<ellipse transform="matrix(0.2156 -0.9765 0.9765 0.2156 -170.0021 899.2149)" class="st7" cx="474.7" cy="555.4" rx="23.9" ry="43.9"/>
<polygon class="st8" points="409.6,111.9 414.5,130.9 435.9,130.9 439.9,111.9 "/>
<g>
	<g>
		<g>
			<path id="XMLID_00000085950885036735414740000015742055956580783289_" class="st9" d="M1012.9,458.6c0,0-19.6-15.7-36.3-15
				c-16.8,0.7-64.5-1.6-72.3,80.7c-7.9,82.1,45.8,96.1,52.2,96.1c4.9,0,14.7,0.2,19.2,1.2c6.1,1,15,6.6,21,8.4
				c23.9,6.8,74.6-1,93.1-82.3s-45.4-87.9-45.4-87.9L1012.9,458.6z"/>
		</g>
		<g>
			<g>
				<g>
					<defs>
						<path id="SVGID_00000034807839128971191960000012029316960690309033_" d="M1012.9,458.6c0,0-19.6-15.7-36.3-15
							c-16.8,0.7-64.5-1.6-72.3,80.7c-7.9,82.1,45.8,96.1,52.2,96.1c4.9,0,14.7,0.2,19.2,1.2c6.1,1,15,6.6,21,8.4
							c23.9,6.8,74.6-1,93.1-82.3s-45.4-87.9-45.4-87.9L1012.9,458.6z"/>
					</defs>
					<clipPath id="SVGID_00000037679433922422243030000007703795454791773628_">
						<use xlink:href="#SVGID_00000034807839128971191960000012029316960690309033_"  style="overflow:visible;"/>
					</clipPath>
					<path style="clip-path:url(#SVGID_00000037679433922422243030000007703795454791773628_);fill:#970707;" d="M993.9,443.4
						c0,0,3.3,18.9,9.1,22.9c5.8,3.8,14.1-1.4,19-2.1c4.7-0.7,11.2-2.8,22,0.3c10.8,3.1,37.6,18.2,39,37.9
						c1.4,19.7-15,73.5-27.3,86.1c-12.2,12.9-60.8,20.8-73.4,20.8c-12.8,0-61.5-11-61.5-11l-25,48.6l230.8,11.4l32.7-203.7
						L993.9,443.4z"/>
				</g>
			</g>
		</g>
		<g>
			<g>
				<g>
					<defs>
						<path id="SVGID_00000020389630811518474760000014591128355416759453_" d="M1012.9,458.6c0,0-19.6-15.7-36.3-15
							c-16.8,0.7-64.5-1.6-72.3,80.7c-7.9,82.1,45.8,96.1,52.2,96.1c4.9,0,14.7,0.2,19.2,1.2c6.1,1,15,6.6,21,8.4
							c23.9,6.8,74.6-1,93.1-82.3s-45.4-87.9-45.4-87.9L1012.9,458.6z"/>
					</defs>
					<clipPath id="SVGID_00000036236140625361645310000000165101991010934962_">
						<use xlink:href="#SVGID_00000020389630811518474760000014591128355416759453_"  style="overflow:visible;"/>
					</clipPath>
					
						<path style="opacity:0.36;clip-path:url(#SVGID_00000036236140625361645310000000165101991010934962_);fill:#FFFFFF;enable-background:new    ;" d="
						M959.5,488.5c-7.3,11.5-15.7,30.4-22.4,26c-6.6-4.4-9.4-30.2-1.9-41.7c7.3-11.5,18.9-17.5,25.7-13.1
						C967.5,464.2,967,477.1,959.5,488.5z"/>
				</g>
			</g>
		</g>
	</g>
	<path class="st12" d="M999.8,407.2c0.2,0.7,2.8,4.2,4.9,10.8c2.1,5.9,5.1,43.7,5.1,43.7l3.1,0.7c0,0-4.4-30.6-5.2-45.1
		C1007,402.7,999.1,403.6,999.8,407.2z"/>
	<path class="st13" d="M1054,407.1c0,0-11.4,17.5-18.2,19.2c-6.6,1.7-26.4,10-26.4,10s10.1-26,17.5-31.1
		C1034,400.3,1054,407.1,1054,407.1z"/>
</g>
<g>
	<g>
		<g>
			<path id="XMLID_00000052806653593771889620000013472412435152253315_" class="st14" d="M716,519.4c0,0-9.2-3-15.2-0.4
				s-23.5,8.4-15,39.1c8.5,30.8,28.5,31.1,30.9,30.2c1.7-0.6,5.5-3.7,7.4-4.1c2.4-0.4,7.4-0.5,9.8-0.7c9.6-0.8,26.8-10.7,22.3-42.6
				s-28.6-25.5-28.6-25.5L716,519.4z"/>
		</g>
		<g>
			<g>
				<g>
					<defs>
						<path id="SVGID_00000157297834727620081040000002463199331298730377_" d="M716,519.4c0,0-9.2-3-15.2-0.4s-23.5,8.4-15,39.1
							c8.5,30.8,28.5,31.1,30.9,30.2c1.7-0.6,5.5-3.7,7.4-4.1c2.4-0.4,7.4-0.5,9.8-0.7c9.6-0.8,26.8-10.7,22.3-42.6
							s-28.6-25.5-28.6-25.5L716,519.4z"/>
					</defs>
					<clipPath id="SVGID_00000008844496760740976440000008156615156353243298_">
						<use xlink:href="#SVGID_00000157297834727620081040000002463199331298730377_"  style="overflow:visible;"/>
					</clipPath>
					<path style="clip-path:url(#SVGID_00000008844496760740976440000008156615156353243298_);fill:#980000;" d="M707.1,516.6
						c0,0,3.8,6.4,6.4,7c2.6,0.6,4.9-2.5,6.6-3.4c1.6-0.9,3.7-2.5,8-2.9c4.3-0.3,16.1,1.3,19.3,8.3c3.2,6.9,4.7,28.6,2.1,34.9
						c-2.6,6.3-19.1,15.9-23.7,17.6c-4.6,1.8-23.7,4.5-23.7,4.5l-2.4,21.1l85-27.8l-16.3-78.2L707.1,516.6z"/>
				</g>
			</g>
		</g>
		<g>
			<g>
				<g>
					<defs>
						<path id="SVGID_00000047053190274734939230000007858659840055021697_" d="M716,519.4c0,0-9.2-3-15.2-0.4s-23.5,8.4-15,39.1
							c8.5,30.8,28.5,31.1,30.9,30.2c1.7-0.6,5.5-3.7,7.4-4.1c2.4-0.4,7.4-0.5,9.8-0.7c9.6-0.8,26.8-10.7,22.3-42.6
							s-28.6-25.5-28.6-25.5L716,519.4z"/>
					</defs>
					<clipPath id="SVGID_00000149382416379967156690000008589926463219103416_">
						<use xlink:href="#SVGID_00000047053190274734939230000007858659840055021697_"  style="overflow:visible;"/>
					</clipPath>
					
						<path style="opacity:0.36;clip-path:url(#SVGID_00000149382416379967156690000008589926463219103416_);fill:#FFFFFF;enable-background:new    ;" d="
						M700,541.1c-1.5,3.6-2.9,9.2-4.8,8.4c-1.9-0.8-3.7-7.7-2.2-11.3s4.2-5.8,6.2-5C701.1,533.9,701.5,537.5,700,541.1z"/>
				</g>
			</g>
		</g>
		<g>
			<g>
				<g>
					<defs>
						<path id="SVGID_00000170989925879291475150000004697765237659703728_" d="M716,519.4c0,0-9.2-3-15.2-0.4s-23.5,8.4-15,39.1
							c8.5,30.8,28.5,31.1,30.9,30.2c1.7-0.6,5.5-3.7,7.4-4.1c2.4-0.4,7.4-0.5,9.8-0.7c9.6-0.8,26.8-10.7,22.3-42.6
							s-28.6-25.5-28.6-25.5L716,519.4z"/>
					</defs>
					<clipPath id="SVGID_00000071524803213185714780000017568766074703921549_">
						<use xlink:href="#SVGID_00000170989925879291475150000004697765237659703728_"  style="overflow:visible;"/>
					</clipPath>
					
						<path style="opacity:0.36;clip-path:url(#SVGID_00000071524803213185714780000017568766074703921549_);fill:#FFFFFF;enable-background:new    ;" d="
						M699.5,556c-0.6,0.1-1.4,0.8-1.6-0.6c-0.2-1.4,0.3-4.4,0.8-4.5c0.6-0.1,1.2,1,1.4,2.4C700.4,554.7,700.1,555.9,699.5,556z"/>
				</g>
			</g>
		</g>
	</g>
	<path class="st18" d="M726.7,499.6c-0.2,0.3-1.9,1.6-3.7,4.2c-1.6,2.3-6.5,16.9-6.5,16.9l-1.9,0.2c0,0,5-11.8,6.7-17.5
		S727.5,498.1,726.7,499.6z"/>
	<path class="st19" d="M742,499.9c0,0-7.1-1-10,0.9c-3,1.9-12.1,6.6-12.1,6.6s7.8,3.9,11.4,2.8S742,499.9,742,499.9z"/>
</g>
<g>
	<g>
		<g>
			<path id="XMLID_00000091017690886273474730000004683794767781391537_" class="st20" d="M1578,355.6c0,0-43.1-31.2-79.9-29.5
				s-141.2-2-156.2,162.1s102.5,191.1,116.9,191.1c10.5,0,31.9,0.3,42.3,2.1c13.6,2.2,32.9,13.1,46.2,16.5
				c52.4,13.3,163.1-3.4,201.4-165.8s-102.1-174.9-102.1-174.9L1578,355.6z"/>
		</g>
		<g>
			<g>
				<g>
					<defs>
						<path id="SVGID_00000093139067560634553180000005366137540984933520_" d="M1578,355.6c0,0-43.1-31.2-79.9-29.5
							s-141.2-2-156.2,162.1s102.5,191.1,116.9,191.1c10.5,0,31.9,0.3,42.3,2.1c13.6,2.2,32.9,13.1,46.2,16.5
							c52.4,13.3,163.1-3.4,201.4-165.8s-102.1-174.9-102.1-174.9L1578,355.6z"/>
					</defs>
					<clipPath id="SVGID_00000160909410980833744090000005985435615481971106_">
						<use xlink:href="#SVGID_00000093139067560634553180000005366137540984933520_"  style="overflow:visible;"/>
					</clipPath>
					<path style="clip-path:url(#SVGID_00000160909410980833744090000005985435615481971106_);fill:#B60000;" d="M1535.8,325.7
						c0,0,7.9,37.9,20.6,45.3c12.7,7.5,31.2-3.2,41.5-4.6s24.6-5.7,48.3,0.6c23.7,6.1,82.7,35.5,86.1,74.8
						c3.5,39.4-31,146.8-57.2,172.7S1542.8,656.8,1515,657s-134.7-21.2-134.7-21.2l-53.8,97.7l505.3,19L1898,345L1535.8,325.7z"/>
				</g>
			</g>
		</g>
		<g>
			<g>
				<g>
					<defs>
						<path id="SVGID_00000034086960138154377840000014067273059562155454_" d="M1578,355.6c0,0-43.1-31.2-79.9-29.5
							s-141.2-2-156.2,162.1s102.5,191.1,116.9,191.1c10.5,0,31.9,0.3,42.3,2.1c13.6,2.2,32.9,13.1,46.2,16.5
							c52.4,13.3,163.1-3.4,201.4-165.8s-102.1-174.9-102.1-174.9L1578,355.6z"/>
					</defs>
					<clipPath id="SVGID_00000023279847873990246920000015816369479646410902_">
						<use xlink:href="#SVGID_00000034086960138154377840000014067273059562155454_"  style="overflow:visible;"/>
					</clipPath>
					
						<path style="opacity:0.36;clip-path:url(#SVGID_00000023279847873990246920000015816369479646410902_);fill:#FFFFFF;enable-background:new    ;" d="
						M1450.6,431.3c-14.9,14.7-33.1,39.3-41.7,32c-8.7-7.3-4.5-43.9,10.4-58.5c14.9-14.7,34-20.6,42.5-13.3
						C1470.5,398.8,1465.4,416.6,1450.6,431.3z"/>
				</g>
			</g>
		</g>
		<g>
			<g>
				<g>
					<defs>
						<path id="SVGID_00000049943003502774679060000000048027162962608573_" d="M1578,355.6c0,0-43.1-31.2-79.9-29.5
							s-141.2-2-156.2,162.1s102.5,191.1,116.9,191.1c10.5,0,31.9,0.3,42.3,2.1c13.6,2.2,32.9,13.1,46.2,16.5
							c52.4,13.3,163.1-3.4,201.4-165.8s-102.1-174.9-102.1-174.9L1578,355.6z"/>
					</defs>
					<clipPath id="SVGID_00000083775894763689140310000011627570738287310485_">
						<use xlink:href="#SVGID_00000049943003502774679060000000048027162962608573_"  style="overflow:visible;"/>
					</clipPath>
					
						<path style="opacity:0.36;clip-path:url(#SVGID_00000083775894763689140310000011627570738287310485_);fill:#FFFFFF;enable-background:new    ;" d="
						M1418.7,502.5c-3.2-0.7-8.8,1.4-7.2-5.8s9.9-20.8,13.3-20.2c3.2,0.7,4.6,7.1,2.9,14.1C1426.1,497.9,1422.1,503.2,1418.7,502.5z
						"/>
				</g>
			</g>
		</g>
	</g>
	<path class="st24" d="M1673.4,278.7c-1.5,1.3-13.5,4.4-27.9,13.4c-13.1,8.2-67.7,70.2-67.7,70.2l-10.4-2.2c0,0,49.8-48.1,69.9-72.6
		C1657.6,263,1680.5,273,1673.4,278.7z"/>
	<g>
		<defs>
			<path id="XMLID_00000132782349993058868520000005032296531255508625_" d="M1513.1,219.2c0,0,12.8,42.8,30.9,53.3
				c18,10.5,66.9,46.5,66.9,46.5s1.3-56.3-14.5-72.9C1580.8,229.3,1513.1,219.2,1513.1,219.2z"/>
		</defs>
		<use xlink:href="#XMLID_00000132782349993058868520000005032296531255508625_"  style="overflow:visible;fill:#5F9D00;"/>
		<clipPath id="XMLID_00000137109687620769024480000012759090347639012283_">
			<use xlink:href="#XMLID_00000132782349993058868520000005032296531255508625_"  style="overflow:visible;"/>
		</clipPath>
		<path style="clip-path:url(#XMLID_00000137109687620769024480000012759090347639012283_);fill:#465F00;" d="M1508.4,209.4
			c0,0,27.5,40.6,39.6,51c12.1,10.5,50.7,33.6,56.8,46.1c6.1,12.5,6.2,23.2,6.2,23.2s-72.2-29.3-74.1-32.2
			c-1.9-2.9-49.9-80.3-49.9-80.3L1508.4,209.4z"/>
	</g>
</g>
<g>
	<g>
		<polygon id="XMLID_00000161624209840765887400000016240937727154374330_" class="st26" points="334.4,555.4 390,555.4 432.5,319 
			430.6,546.8 482.9,551.4 475.5,288.6 384.7,280.2 		"/>
	</g>
	<g>
		<g>
			<defs>
				<polygon id="SVGID_00000174584724861278585860000013909061595302309281_" points="334.4,555.4 390,555.4 432.5,319 430.6,546.8 
					482.9,551.4 475.5,288.6 384.7,280.2 				"/>
			</defs>
			<clipPath id="SVGID_00000021805007729650008060000017884328305799448455_">
				<use xlink:href="#SVGID_00000174584724861278585860000013909061595302309281_"  style="overflow:visible;"/>
			</clipPath>
			<polygon style="clip-path:url(#SVGID_00000021805007729650008060000017884328305799448455_);fill:#384078;" points="419.4,280.2 
				341.2,566.5 287,552.2 354.7,263.6 			"/>
		</g>
	</g>
	<g>
		<g>
			<defs>
				<polygon id="SVGID_00000075843557281932534070000016635124752644757180_" points="334.4,555.4 365.1,555.4 390,555.4 432.5,319 
					430.6,546.8 456,549 482.9,551.4 475.5,288.6 384.7,280.2 				"/>
			</defs>
			<clipPath id="SVGID_00000046319130921104268940000007301122619888748446_">
				<use xlink:href="#SVGID_00000075843557281932534070000016635124752644757180_"  style="overflow:visible;"/>
			</clipPath>
			<polygon style="clip-path:url(#SVGID_00000046319130921104268940000007301122619888748446_);fill:#384078;" points="431.3,311.1 
				463.9,606.1 408.3,612.7 422.8,425.1 			"/>
		</g>
	</g>
</g>
<g>
	<g>
		<path id="XMLID_00000003065350105111695220000000344922764282713481_" class="st29" d="M377.9,140.9c-11.7,14.9-6.7,31-2.2,77
			c5.9,42.8,6.4,85.9,6.4,85.9l93.3-15.2c0,0-8.4-39.3-6.2-76c0.6-10.1,3.3-21,4.9-30.1c3.4-18.9,8.4-31.3,5.3-37.4
			c-9.7-19.4-31.2-16.3-54.2-18.9C403.6,123.8,381.1,132.4,377.9,140.9z"/>
	</g>
	<g>
		<g>
			<defs>
				<path id="SVGID_00000116936802032461814650000001874940263956002723_" d="M377.9,140.9c-11.7,14.9-6.7,31-2.2,77
					c5.9,42.8,6.4,85.9,6.4,85.9l93.3-15.2c0,0-8.4-39.3-6.2-76c0.6-10.1,3.3-21,4.9-30.1c3.4-18.9,8.4-31.3,5.3-37.4
					c-9.7-19.4-31.2-16.3-54.2-18.9C403.6,123.8,381.1,132.4,377.9,140.9z"/>
			</defs>
			<clipPath id="SVGID_00000059301551023194158360000008584728275617111699_">
				<use xlink:href="#SVGID_00000116936802032461814650000001874940263956002723_"  style="overflow:visible;"/>
			</clipPath>
			<polygon style="clip-path:url(#SVGID_00000059301551023194158360000008584728275617111699_);fill:#7D350E;" points="382.3,181.1 
				411.8,251.8 410.5,319.9 371,316.5 368.6,188.4 375.6,168.3 			"/>
		</g>
	</g>
</g>
<g>
	<g>
		<path id="XMLID_00000158735839473163135540000003718315981233473723_" class="st31" d="M458.5,72c-3.9,25-9.3,51.8-33.7,51.8
			c-23.2,0-28.9-23.2-34.8-48.1C384.3,51.6,401.6,34,424.8,34C448,34,461.7,51.6,458.5,72z"/>
	</g>
	<g>
		<g>
			<defs>
				<path id="SVGID_00000154393453164016289710000001003006386920588976_" d="M458.5,72c-3.9,25-9.3,51.8-33.7,51.8
					c-23.2,0-28.9-23.2-34.8-48.1C384.3,51.6,401.6,34,424.8,34C448,34,461.7,51.6,458.5,72z"/>
			</defs>
			<clipPath id="SVGID_00000161609621233703811800000006262773180006062258_">
				<use xlink:href="#SVGID_00000154393453164016289710000001003006386920588976_"  style="overflow:visible;"/>
			</clipPath>
			<path style="clip-path:url(#SVGID_00000161609621233703811800000006262773180006062258_);fill:#FFD38C;" d="M382.4,52l25.5,4.3
				c0,0-9,19.3-8.3,28s4.8,20.2,11.7,27.8c6.9,7.6,28.6,8.4,28.6,8.4L405.7,150l-42.5-60.2L382.4,52z"/>
			<path style="clip-path:url(#SVGID_00000161609621233703811800000006262773180006062258_);fill:#FFD38C;" d="M423.1,99.5l-3.7-2
				l6-23.2L423.1,99.5z"/>
		</g>
	</g>
</g>
<g>
	<g>
		<g>
			<path id="XMLID_00000089556869162356274900000007607295113948972178_" class="st20" d="M376,215.1c0,0-5.5,0.2-8.2,2.7
				s-10.9,9-0.5,23.6c10.4,14.6,21.3,9.2,22.4,8.3c0.8-0.7,2.5-2,3.4-2.6c1.2-0.7,3.4-1,4.7-1.6c4.9-2.3,12.2-10.8,3.7-26.8
				s-20.1-7.9-20.1-7.9L376,215.1z"/>
		</g>
		<g>
			<g>
				<g>
					<defs>
						<path id="SVGID_00000003093809438997777410000008006562418274220933_" d="M376,215.1c0,0-5.5,0.2-8.2,2.7s-10.9,9-0.5,23.6
							c10.4,14.6,21.3,9.2,22.4,8.3c0.8-0.7,2.5-2,3.4-2.6c1.2-0.7,3.4-1,4.7-1.6c4.9-2.3,12.2-10.8,3.7-26.8s-20.1-7.9-20.1-7.9
							L376,215.1z"/>
					</defs>
					<clipPath id="SVGID_00000145751634472169571960000001699550890509258149_">
						<use xlink:href="#SVGID_00000003093809438997777410000008006562418274220933_"  style="overflow:visible;"/>
					</clipPath>
					<path style="clip-path:url(#SVGID_00000145751634472169571960000001699550890509258149_);fill:#B60000;" d="M370.7,215.4
						c0,0,3.3,2.6,4.8,2.4c1.5-0.2,2.1-2.3,2.8-3.1c0.7-0.8,1.5-2.1,3.7-3.1s8.8-2.4,11.8,0.6s8,14.2,7.8,18s-7.1,12.1-9.2,13.9
						c-2.1,1.8-11.8,7-11.8,7l2.8,11.6l39.9-31.1l-23.6-38.1L370.7,215.4z"/>
				</g>
			</g>
		</g>
		<g>
			<g>
				<g>
					<defs>
						<path id="SVGID_00000176045149624092610580000003942060014398410164_" d="M376,215.1c0,0-5.5,0.2-8.2,2.7s-10.9,9-0.5,23.6
							c10.4,14.6,21.3,9.2,22.4,8.3c0.8-0.7,2.5-2,3.4-2.6c1.2-0.7,3.4-1,4.7-1.6c4.9-2.3,12.2-10.8,3.7-26.8s-20.1-7.9-20.1-7.9
							L376,215.1z"/>
					</defs>
					<clipPath id="SVGID_00000049195111928325288050000014110141924658038933_">
						<use xlink:href="#SVGID_00000176045149624092610580000003942060014398410164_"  style="overflow:visible;"/>
					</clipPath>
					
						<path style="opacity:0.36;clip-path:url(#SVGID_00000049195111928325288050000014110141924658038933_);fill:#FFFFFF;enable-background:new    ;" d="
						M371.6,229.6c-0.1,2.2,0.2,5.4-0.9,5.4c-1.2,0-3.4-3.3-3.3-5.5s1.1-3.9,2.3-3.9C370.8,225.6,371.7,227.5,371.6,229.6z"/>
				</g>
			</g>
		</g>
		<g>
			<g>
				<g>
					<defs>
						<path id="SVGID_00000072984147698573578990000004586535853819747750_" d="M376,215.1c0,0-5.5,0.2-8.2,2.7s-10.9,9-0.5,23.6
							c10.4,14.6,21.3,9.2,22.4,8.3c0.8-0.7,2.5-2,3.4-2.6c1.2-0.7,3.4-1,4.7-1.6c4.9-2.3,12.2-10.8,3.7-26.8s-20.1-7.9-20.1-7.9
							L376,215.1z"/>
					</defs>
					<clipPath id="SVGID_00000072971950544847842490000009377448725510053530_">
						<use xlink:href="#SVGID_00000072984147698573578990000004586535853819747750_"  style="overflow:visible;"/>
					</clipPath>
					
						<path style="opacity:0.36;clip-path:url(#SVGID_00000072971950544847842490000009377448725510053530_);fill:#FFFFFF;enable-background:new    ;" d="
						M374.1,237.6c-0.3,0.2-0.6,0.7-1,0s-0.7-2.4-0.4-2.5c0.3-0.2,0.8,0.3,1.2,1C374.4,236.7,374.4,237.4,374.1,237.6z"/>
				</g>
			</g>
		</g>
	</g>
	<path class="st24" d="M377.9,202.5c0,0.2-0.7,1.2-1.2,2.9c-0.4,1.5-0.2,10.2-0.2,10.2l-0.9,0.5c0,0,0.4-7.2,0.2-10.6
		C375.5,202.3,378,201.6,377.9,202.5z"/>
	<path class="st19" d="M361.4,208c0,0,4,2.7,6.1,2.4s8.4-0.5,8.4-0.5s-3.9-4.8-6.2-5.1C367.3,204.4,361.4,208,361.4,208z"/>
</g>
<g>
	<g>
		<g>
			<path id="XMLID_00000167377654470680048570000015414642560894421164_" class="st20" d="M474.8,223.2c0,0-1.7-3.6-4.1-4.7
				s-9.1-4.8-15.9,6.3c-6.8,11-0.1,16.8,0.8,17.3c0.7,0.3,2.1,1.1,2.7,1.5c0.8,0.6,1.7,2,2.4,2.7c2.9,2.6,10.7,5.1,19-5.1
				c8.3-10.2-0.4-15.6-0.4-15.6L474.8,223.2z"/>
		</g>
		<g>
			<g>
				<g>
					<defs>
						<path id="SVGID_00000069398962826174779820000009684620769935881406_" d="M474.8,223.2c0,0-1.7-3.6-4.1-4.7s-9.1-4.8-15.9,6.3
							c-6.8,11-0.1,16.8,0.8,17.3c0.7,0.3,2.1,1.1,2.7,1.5c0.8,0.6,1.7,2,2.4,2.7c2.9,2.6,10.7,5.1,19-5.1
							c8.3-10.2-0.4-15.6-0.4-15.6L474.8,223.2z"/>
					</defs>
					<clipPath id="SVGID_00000088818836027621575970000016701194475681047948_">
						<use xlink:href="#SVGID_00000069398962826174779820000009684620769935881406_"  style="overflow:visible;"/>
					</clipPath>
					<path style="clip-path:url(#SVGID_00000088818836027621575970000016701194475681047948_);fill:#B60000;" d="M473.1,219.8
						c0,0-0.8,2.9-0.3,3.9c0.6,0.9,2.1,0.8,2.9,1c0.7,0.2,1.8,0.4,3.1,1.6c1.3,1.2,4.1,5.2,2.9,8.1c-1.2,2.9-7.2,9.3-9.9,10.3
						s-10.1-1.4-11.9-2.3c-1.8-0.9-8-5.9-8-5.9l-7,5.1l32.1,17.9l18.8-26.5L473.1,219.8z"/>
				</g>
			</g>
		</g>
		<g>
			<g>
				<g>
					<defs>
						<path id="SVGID_00000093881416881806583550000000266593331276865164_" d="M474.8,223.2c0,0-1.7-3.6-4.1-4.7s-9.1-4.8-15.9,6.3
							c-6.8,11-0.1,16.8,0.8,17.3c0.7,0.3,2.1,1.1,2.7,1.5c0.8,0.6,1.7,2,2.4,2.7c2.9,2.6,10.7,5.1,19-5.1
							c8.3-10.2-0.4-15.6-0.4-15.6L474.8,223.2z"/>
					</defs>
					<clipPath id="SVGID_00000015321594397914569410000017226872796720534926_">
						<use xlink:href="#SVGID_00000093881416881806583550000000266593331276865164_"  style="overflow:visible;"/>
					</clipPath>
					
						<path style="opacity:0.36;clip-path:url(#SVGID_00000015321594397914569410000017226872796720534926_);fill:#FFFFFF;enable-background:new    ;" d="
						M463.8,224.4c-1.5,0.5-3.5,1.7-3.9,0.9c-0.3-0.8,1.3-3.2,2.8-3.8c1.5-0.5,2.9-0.3,3.2,0.5C466.2,222.8,465.3,223.9,463.8,224.4
						z"/>
				</g>
			</g>
		</g>
		<g>
			<g>
				<g>
					<defs>
						<path id="SVGID_00000100372351859104868670000017845866185715689347_" d="M474.8,223.2c0,0-1.7-3.6-4.1-4.7s-9.1-4.8-15.9,6.3
							c-6.8,11-0.1,16.8,0.8,17.3c0.7,0.3,2.1,1.1,2.7,1.5c0.8,0.6,1.7,2,2.4,2.7c2.9,2.6,10.7,5.1,19-5.1
							c8.3-10.2-0.4-15.6-0.4-15.6L474.8,223.2z"/>
					</defs>
					<clipPath id="SVGID_00000093876015555372668120000004849700304905699727_">
						<use xlink:href="#SVGID_00000100372351859104868670000017845866185715689347_"  style="overflow:visible;"/>
					</clipPath>
					
						<path style="opacity:0.36;clip-path:url(#SVGID_00000093876015555372668120000004849700304905699727_);fill:#FFFFFF;enable-background:new    ;" d="
						M459.2,228.4c-0.2-0.2-0.6-0.2-0.3-0.6c0.4-0.4,1.4-1.1,1.6-1c0.2,0.2,0,0.6-0.3,1.1C459.8,228.3,459.4,228.5,459.2,228.4z"/>
				</g>
			</g>
		</g>
	</g>
	<path class="st24" d="M483.7,221c-0.1,0-1-0.1-2.3,0c-1.1,0.1-6.9,2.7-6.9,2.7l-0.6-0.5c0,0,4.9-1.8,7.1-2.8S484.4,220.8,483.7,221
		z"/>
	<path class="st19" d="M475.4,211.5c0,0-0.7,3.4,0.1,4.8c0.8,1.3,2.7,5.5,2.7,5.5s2.1-3.9,1.7-5.6
		C479.4,214.5,475.4,211.5,475.4,211.5z"/>
</g>
<g>
	<g>
		<g>
			<path id="XMLID_00000065058262433505537120000018382767791355202441_" class="st20" d="M419.9,239.3c0,0,3.4-2,4.3-4.5
				s3.9-9.5-7.7-15.3s-16.7,1.4-17.1,2.3c-0.3,0.7-0.9,2.1-1.3,2.8c-0.5,0.9-1.8,1.8-2.4,2.6c-2.4,3.2-4.1,11.1,6.7,18.5
				c10.9,7.3,15.5-1.8,15.5-1.8L419.9,239.3z"/>
		</g>
		<g>
			<g>
				<g>
					<defs>
						<path id="SVGID_00000116219499649398194520000014273478594524274070_" d="M419.9,239.3c0,0,3.4-2,4.3-4.5s3.9-9.5-7.7-15.3
							s-16.7,1.4-17.1,2.3c-0.3,0.7-0.9,2.1-1.3,2.8c-0.5,0.9-1.8,1.8-2.4,2.6c-2.4,3.2-4.1,11.1,6.7,18.5
							c10.9,7.3,15.5-1.8,15.5-1.8L419.9,239.3z"/>
					</defs>
					<clipPath id="SVGID_00000177478323794336258150000001109912572408830350_">
						<use xlink:href="#SVGID_00000116219499649398194520000014273478594524274070_"  style="overflow:visible;"/>
					</clipPath>
					<path style="clip-path:url(#SVGID_00000177478323794336258150000001109912572408830350_);fill:#B60000;" d="M423.2,237.3
						c0,0-3-0.6-3.9,0.1c-0.9,0.7-0.6,2.2-0.8,2.9s-0.2,1.8-1.3,3.2c-1.1,1.4-4.8,4.6-7.8,3.6s-9.9-6.4-11.1-8.9s0.4-10.2,1.2-12.1
						c0.7-1.9,5.2-8.5,5.2-8.5l-5.7-6.5l-15,33.8l28.1,16.4L423.2,237.3z"/>
				</g>
			</g>
		</g>
		<g>
			<g>
				<g>
					<defs>
						<path id="SVGID_00000097472891473610837420000011527413323009749377_" d="M419.9,239.3c0,0,3.4-2,4.3-4.5s3.9-9.5-7.7-15.3
							s-16.7,1.4-17.1,2.3c-0.3,0.7-0.9,2.1-1.3,2.8c-0.5,0.9-1.8,1.8-2.4,2.6c-2.4,3.2-4.1,11.1,6.7,18.5
							c10.9,7.3,15.5-1.8,15.5-1.8L419.9,239.3z"/>
					</defs>
					<clipPath id="SVGID_00000011013389549726613550000007738600233050187155_">
						<use xlink:href="#SVGID_00000097472891473610837420000011527413323009749377_"  style="overflow:visible;"/>
					</clipPath>
					
						<path style="opacity:0.36;clip-path:url(#SVGID_00000011013389549726613550000007738600233050187155_);fill:#FFFFFF;enable-background:new    ;" d="
						M417.7,228.5c-0.7-1.4-2-3.4-1.2-3.8c0.8-0.4,3.3,1,4,2.4s0.6,2.9-0.2,3.3C419.6,230.7,418.4,229.9,417.7,228.5z"/>
				</g>
			</g>
		</g>
		<g>
			<g>
				<g>
					<defs>
						<path id="SVGID_00000026842205167220702180000003882643502874912394_" d="M419.9,239.3c0,0,3.4-2,4.3-4.5s3.9-9.5-7.7-15.3
							s-16.7,1.4-17.1,2.3c-0.3,0.7-0.9,2.1-1.3,2.8c-0.5,0.9-1.8,1.8-2.4,2.6c-2.4,3.2-4.1,11.1,6.7,18.5
							c10.9,7.3,15.5-1.8,15.5-1.8L419.9,239.3z"/>
					</defs>
					<clipPath id="SVGID_00000056420156663284261120000001925761479440229783_">
						<use xlink:href="#SVGID_00000026842205167220702180000003882643502874912394_"  style="overflow:visible;"/>
					</clipPath>
					
						<path style="opacity:0.36;clip-path:url(#SVGID_00000056420156663284261120000001925761479440229783_);fill:#FFFFFF;enable-background:new    ;" d="
						M413.4,224.2c0.1-0.2,0.1-0.6,0.6-0.3s1.3,1.3,1.1,1.5s-0.6,0.1-1.1-0.2S413.2,224.4,413.4,224.2z"/>
				</g>
			</g>
		</g>
	</g>
	<path class="st24" d="M422.9,248c-0.1-0.1,0-1-0.2-2.3c-0.2-1.1-3.3-6.6-3.3-6.6l0.4-0.6c0,0,2.2,4.8,3.4,6.8
		S423.2,248.6,422.9,248z"/>
	<path class="st19" d="M431.6,238.9c0,0-3.5-0.4-4.7,0.5c-1.3,0.9-5.2,3.2-5.2,3.2s4.1,1.7,5.7,1.2
		C429,243.3,431.6,238.9,431.6,238.9z"/>
</g>
<g>
	<g>
		<g>
			<path id="XMLID_00000149383525749796239580000002401876452599992499_" class="st20" d="M447,244.8c0,0,3.4-2,4.3-4.5
				s3.9-9.5-7.7-15.3s-16.7,1.4-17.1,2.3c-0.3,0.7-0.9,2.1-1.3,2.8c-0.5,0.9-1.8,1.8-2.4,2.6c-2.4,3.2-4.1,11.1,6.7,18.5
				c10.9,7.3,15.5-1.8,15.5-1.8L447,244.8z"/>
		</g>
		<g>
			<g>
				<g>
					<defs>
						<path id="SVGID_00000152229749728964926550000015000547592637733509_" d="M447,244.8c0,0,3.4-2,4.3-4.5s3.9-9.5-7.7-15.3
							s-16.7,1.4-17.1,2.3c-0.3,0.7-0.9,2.1-1.3,2.8c-0.5,0.9-1.8,1.8-2.4,2.6c-2.4,3.2-4.1,11.1,6.7,18.5
							c10.9,7.3,15.5-1.8,15.5-1.8L447,244.8z"/>
					</defs>
					<clipPath id="SVGID_00000152946204436060421660000001750069561177763258_">
						<use xlink:href="#SVGID_00000152229749728964926550000015000547592637733509_"  style="overflow:visible;"/>
					</clipPath>
					<path style="clip-path:url(#SVGID_00000152946204436060421660000001750069561177763258_);fill:#B60000;" d="M450.3,242.9
						c0,0-3-0.6-3.9,0.1c-0.9,0.6-0.6,2.2-0.8,2.9c-0.2,0.7-0.2,1.8-1.3,3.2s-4.8,4.6-7.8,3.6s-9.9-6.4-11.1-8.9s0.4-10.2,1.2-12.1
						s5.2-8.5,5.2-8.5l-5.7-6.5l-14.9,33.6l28.1,16.4L450.3,242.9z"/>
				</g>
			</g>
		</g>
		<g>
			<g>
				<g>
					<defs>
						<path id="SVGID_00000143612590015681761210000009554342292795419543_" d="M447,244.8c0,0,3.4-2,4.3-4.5s3.9-9.5-7.7-15.3
							s-16.7,1.4-17.1,2.3c-0.3,0.7-0.9,2.1-1.3,2.8c-0.5,0.9-1.8,1.8-2.4,2.6c-2.4,3.2-4.1,11.1,6.7,18.5
							c10.9,7.3,15.5-1.8,15.5-1.8L447,244.8z"/>
					</defs>
					<clipPath id="SVGID_00000180360136976142752260000002222038355457403034_">
						<use xlink:href="#SVGID_00000143612590015681761210000009554342292795419543_"  style="overflow:visible;"/>
					</clipPath>
					
						<path style="opacity:0.36;clip-path:url(#SVGID_00000180360136976142752260000002222038355457403034_);fill:#FFFFFF;enable-background:new    ;" d="
						M444.9,234c-0.7-1.4-2-3.4-1.2-3.8c0.8-0.4,3.3,1,4,2.4s0.6,2.9-0.2,3.3C446.7,236.3,445.6,235.5,444.9,234z"/>
				</g>
			</g>
		</g>
		<g>
			<g>
				<g>
					<defs>
						<path id="SVGID_00000013189153768628985310000004002663229756118403_" d="M447,244.8c0,0,3.4-2,4.3-4.5s3.9-9.5-7.7-15.3
							s-16.7,1.4-17.1,2.3c-0.3,0.7-0.9,2.1-1.3,2.8c-0.5,0.9-1.8,1.8-2.4,2.6c-2.4,3.2-4.1,11.1,6.7,18.5
							c10.9,7.3,15.5-1.8,15.5-1.8L447,244.8z"/>
					</defs>
					<clipPath id="SVGID_00000145760357287672901890000001530795862478567592_">
						<use xlink:href="#SVGID_00000013189153768628985310000004002663229756118403_"  style="overflow:visible;"/>
					</clipPath>
					
						<path style="opacity:0.36;clip-path:url(#SVGID_00000145760357287672901890000001530795862478567592_);fill:#FFFFFF;enable-background:new    ;" d="
						M440.5,229.8c0.1-0.2,0.1-0.6,0.6-0.3s1.3,1.3,1.1,1.5c-0.1,0.2-0.6,0.1-1.1-0.2C440.7,230.4,440.4,230,440.5,229.8z"/>
				</g>
			</g>
		</g>
	</g>
	<path class="st24" d="M450.1,253.5c-0.1-0.1,0-1-0.2-2.3c-0.2-1.1-3.3-6.6-3.3-6.6l0.4-0.6c0,0,2.2,4.8,3.4,6.8
		S450.3,254.2,450.1,253.5z"/>
	<path class="st19" d="M458.7,244.4c0,0-3.5-0.4-4.7,0.5s-5.2,3.2-5.2,3.2s4.1,1.7,5.7,1.2S458.7,244.4,458.7,244.4z"/>
</g>
<g>
	<g>
		<path id="XMLID_00000150807300877045601920000015280030217655869058_" class="st45" d="M475.8,285.4
			c-24.4,24.4-79.5,19.9-103.9-4.5c-11.9-11.9-17.2-55.3-17.2-55.3h138C492.7,225.6,487.8,273.5,475.8,285.4z"/>
	</g>
	<g>
		<g>
			<defs>
				<path id="SVGID_00000128444111246665903660000017633208199603060148_" d="M475.8,285.4c-24.4,24.4-79.5,19.9-103.9-4.5
					c-11.9-11.9-17.2-55.3-17.2-55.3h138C492.7,225.6,487.8,273.5,475.8,285.4z"/>
			</defs>
			<clipPath id="SVGID_00000160155007824233845460000015701904062380283826_">
				<use xlink:href="#SVGID_00000128444111246665903660000017633208199603060148_"  style="overflow:visible;"/>
			</clipPath>
			<path style="clip-path:url(#SVGID_00000160155007824233845460000015701904062380283826_);fill:#4D2500;" d="M381.4,210.8
				c0,0,11,46.3,20.4,59.1s23.1,17.7,56.9,13.6c45.1-5.5,90-19.9,90-19.9S392,324.1,391.2,323.4s-78-64.2-78-64.2L381.4,210.8z"/>
		</g>
	</g>
</g>
<g>
	<g>
		<path id="XMLID_00000098213597517272585500000000645893828687679382_" class="st29" d="M373.3,185.1l-30.6,28l18.2,22.4l0.8,34.3
			c0,0-47.3-34.2-48.4-44.6c-3.5-32.8,67.4-88.3,67.4-88.3s-1.1,9.3-2.8,17.2c-0.6,3.2-1.7,8.4-2.3,14.2
			C374.8,175.8,373.3,185.1,373.3,185.1z"/>
	</g>
	<g>
		<g>
			<defs>
				<path id="SVGID_00000076588160853707451690000017234281370746871725_" d="M373.3,185.1l-30.6,28l18.2,22.4l0.8,34.3
					c0,0-47.3-34.2-48.4-44.6c-3.5-32.8,67.4-88.3,67.4-88.3s-1.1,9.3-2.8,17.2c-0.6,3.2-1.7,8.4-2.3,14.2
					C374.8,175.8,373.3,185.1,373.3,185.1z"/>
			</defs>
			<clipPath id="SVGID_00000021817086417890348680000012015503493510234247_">
				<use xlink:href="#SVGID_00000076588160853707451690000017234281370746871725_"  style="overflow:visible;"/>
			</clipPath>
			<path style="clip-path:url(#SVGID_00000021817086417890348680000012015503493510234247_);fill:#7D350E;" d="M382.7,161.6
				c0,0-19.1,17.6-25.5,25.7c-6.3,8.1-22.8,24.2-22.8,24.2l18.6,21.3l8.1,10.5l44.3-34.2L382.7,161.6z"/>
			<path style="clip-path:url(#SVGID_00000021817086417890348680000012015503493510234247_);fill:#7D350E;" d="M347.2,121.4
				c0,0-19.1,17.6-25.5,25.7c-6.3,8.1-22.8,24.2-22.8,24.2l18.6,21.3L301.1,237l84.4-106.1L347.2,121.4z"/>
		</g>
	</g>
</g>
<g>
	<g>
		<path id="XMLID_00000010303754861839748870000015483378219498648744_" class="st29" d="M470.8,180.5l34.3,37.9l-35.8,17.2
			l10.7,34.3c0,0,55.3-41.1,56.1-51.5c2.7-32.8-66.7-84.5-66.7-84.5L470.8,180.5z"/>
	</g>
	<g>
		<g>
			<defs>
				<path id="SVGID_00000034073856872852290870000012611017755359080841_" d="M470.8,180.5l34.3,37.9l-35.8,17.2l10.7,34.3
					c0,0,55.3-41.1,56.1-51.5c2.7-32.8-66.7-84.5-66.7-84.5L470.8,180.5z"/>
			</defs>
			<clipPath id="SVGID_00000106112309291573535250000000801979410987463085_">
				<use xlink:href="#SVGID_00000034073856872852290870000012611017755359080841_"  style="overflow:visible;"/>
			</clipPath>
			<path style="clip-path:url(#SVGID_00000106112309291573535250000000801979410987463085_);fill:#7D350E;" d="M473.9,164.9
				c0,0-6.3,23.3-12.7,31.4c-6.3,8.1-22.8,24.2-22.8,24.2l18.6,21.3l7.1,5.3l45.3-29L473.9,164.9z"/>
		</g>
	</g>
</g>
<g>
	<defs>
		<path id="XMLID_00000065752983870368876250000008635360987876549559_" d="M391.2,80.3c0,0,7.6-20.7,12.8-20.2s6.2,0,15.2-1.4
			s15.7-6.7,20.4-1c4.7,5.7,6.3,2.4,12.6,2.6c6.3,0.2,4.9,20,4.9,20s14.3-40.4-7.3-46.3c-5.7-1.6-14.2-6.9-25.9-6.9
			s-23.6,0-25.5,6.9s-12.4,9.7-12.8,16.4C385.2,57.1,391.2,80.3,391.2,80.3z"/>
	</defs>
	<use xlink:href="#XMLID_00000065752983870368876250000008635360987876549559_"  style="overflow:visible;fill:#612600;"/>
	<clipPath id="XMLID_00000086657118145625728950000016956805160767021449_">
		<use xlink:href="#XMLID_00000065752983870368876250000008635360987876549559_"  style="overflow:visible;"/>
	</clipPath>
	<path style="clip-path:url(#XMLID_00000086657118145625728950000016956805160767021449_);fill:#372100;" d="M441,21
		c0,0-17.9,7.7-26.5,17.3s-8.7,7.1-4.8,9.8c3.9,2.7,5.5,9.5-3.5,12.8c-15.6,5.7-20.6,27.3-21.3,27.8c-0.7,0.5-17.1-27.1-16.8-32.1
		c0.4-5,20.8-41.3,20.8-41.3L441,21z"/>
</g>
<ellipse class="st31" cx="455.3" cy="84.1" rx="3.6" ry="8.6"/>
<ellipse transform="matrix(0.9448 -0.3275 0.3275 0.9448 -57.8924 167.8036)" class="st31" cx="469.3" cy="255.8" rx="22.9" ry="17.8"/>
<ellipse transform="matrix(0.4146 -0.91 0.91 0.4146 -14.6325 488.8965)" class="st31" cx="372.7" cy="255.8" rx="17.8" ry="22.9"/>
<ellipse transform="matrix(0.9581 -0.2863 0.2863 0.9581 -8.0458 115.5716)" class="st31" cx="391.2" cy="85.3" rx="3.6" ry="8.6"/>
<path class="st50" d="M414.5,78.1c0,1.6-3.8,3.3-5.4,3.3s-2.9-1.3-2.9-2.9s1.3-2.9,2.9-2.9S414.5,76.5,414.5,78.1z"/>
<path class="st50" d="M443.9,78.5c0,1.6-1.3,2.9-2.9,2.9s-5.1-1.8-5.1-3.4s3.5-2.4,5.1-2.4S443.9,76.9,443.9,78.5z"/>
<path class="st51" d="M431.6,108.9c0,0.8-4.1,3-8.5,3s-9.2-3.2-9.2-4s4.8,1.1,9.2,1.1S431.6,108.1,431.6,108.9z"/>
<g>
	<g>
		<g>
			<path id="XMLID_00000129197290163604736320000002150115942167132854_" class="st52" d="M561.6,414.8c0,15.2,4.8,33-28.9,32.9
				c-26.6-0.1-24.1-17.7-24.1-32.9c0-15.2,11.9-27.6,26.5-27.6c3.7,0,7.1,0.8,10.3,2.2c1,0.4-2.9,7.4-1.7,7.7c0,0,4.8-5,6.1-5.2
				C560.4,389.9,561.6,405.2,561.6,414.8z"/>
		</g>
		<g>
			<g>
				<defs>
					<path id="SVGID_00000121237464240881556490000007829436495190889368_" d="M561.6,414.8c0,15.2,4.8,33-28.9,32.9
						c-26.6-0.1-24.1-17.7-24.1-32.9c0-15.2,11.9-27.6,26.5-27.6c3.7,0,7.1,0.8,10.3,2.2c1,0.4-2.9,7.4-1.7,7.7c0,0,4.8-5,6.1-5.2
						C560.4,389.9,561.6,405.2,561.6,414.8z"/>
				</defs>
				<clipPath id="SVGID_00000017506395464097413420000010468186990890598024_">
					<use xlink:href="#SVGID_00000121237464240881556490000007829436495190889368_"  style="overflow:visible;"/>
				</clipPath>
				
					<rect x="484.8" y="381.8" style="clip-path:url(#SVGID_00000017506395464097413420000010468186990890598024_);fill:#C4550D;" width="50.4" height="71.3"/>
			</g>
		</g>
	</g>
	<polygon class="st54" points="535.1,425.1 535.1,425.1 537.5,473.8 532.7,473.8 	"/>
</g>
<g>
	<g>
		<g>
			<path id="XMLID_00000069379287708487553390000004323509330919157148_" class="st52" d="M637.2,439.3c0,8.9,2.8,19.3-16.9,19.3
				c-15.6,0-14.1-10.3-14.1-19.3s6.9-16.1,15.5-16.1c2.1,0,4.2,0.5,6,1.3c0.6,0.3-1.7,4.4-1,4.5c0,0,2.8-2.9,3.6-3.1
				C636.5,424.7,637.2,433.7,637.2,439.3z"/>
		</g>
		<g>
			<g>
				<defs>
					<path id="SVGID_00000049202236907140805910000003450662751574988454_" d="M637.2,439.3c0,8.9,2.8,19.3-16.9,19.3
						c-15.6,0-14.1-10.3-14.1-19.3s6.9-16.1,15.5-16.1c2.1,0,4.2,0.5,6,1.3c0.6,0.3-1.7,4.4-1,4.5c0,0,2.8-2.9,3.6-3.1
						C636.5,424.7,637.2,433.7,637.2,439.3z"/>
				</defs>
				<clipPath id="SVGID_00000114056108603190028430000014832064189465904789_">
					<use xlink:href="#SVGID_00000049202236907140805910000003450662751574988454_"  style="overflow:visible;"/>
				</clipPath>
				
					<rect x="592.4" y="420" style="clip-path:url(#SVGID_00000114056108603190028430000014832064189465904789_);fill:#C4550D;" width="29.5" height="41.7"/>
			</g>
		</g>
	</g>
	<polygon class="st54" points="621.8,445.3 621.8,445.3 623.2,473.8 620.4,473.8 	"/>
</g>
<g>
	<g>
		<g>
			<path id="XMLID_00000044176672829609866460000002070977335865955749_" class="st52" d="M784.9,445.6c0,6.5,2,14-11.8,14
				c-10.9,0-9.8-7.5-9.8-14s4.8-11.7,10.8-11.7c1.5,0,2.9,0.3,4.2,0.9c0.4,0.2-1.2,3.2-0.7,3.3c0,0,2-2.1,2.5-2.2
				C784.4,435.1,784.9,441.6,784.9,445.6z"/>
		</g>
		<g>
			<g>
				<defs>
					<path id="SVGID_00000142893807148779169520000016394531747882432402_" d="M784.9,445.6c0,6.5,2,14-11.8,14
						c-10.9,0-9.8-7.5-9.8-14s4.8-11.7,10.8-11.7c1.5,0,2.9,0.3,4.2,0.9c0.4,0.2-1.2,3.2-0.7,3.3c0,0,2-2.1,2.5-2.2
						C784.4,435.1,784.9,441.6,784.9,445.6z"/>
				</defs>
				<clipPath id="SVGID_00000011715000636636555810000008935386147724129422_">
					<use xlink:href="#SVGID_00000142893807148779169520000016394531747882432402_"  style="overflow:visible;"/>
				</clipPath>
				
					<rect x="753.5" y="431.6" style="clip-path:url(#SVGID_00000011715000636636555810000008935386147724129422_);fill:#C4550D;" width="20.6" height="30.2"/>
			</g>
		</g>
	</g>
	<polygon class="st54" points="774,450 774,450 775,470.7 773.1,470.7 	"/>
</g>
<g>
	<rect x="1167.7" y="447.9" class="st57" width="3.5" height="50.4"/>
	<g>
		<g>
			<path id="XMLID_00000174576428407161650120000014247542492338853777_" class="st58" d="M1188.7,449c0,15.8,3.5,34.3-21,34.2
				c-19.4-0.1-17.5-18.3-17.5-34.2s8.6-28.7,19.3-28.7c2.7,0,5.2,0.8,7.5,2.3c0.7,0.4-2.1,7.7-1.2,8c0,0,3.5-5.2,4.4-5.4
				C1187.8,423.1,1188.7,439,1188.7,449z"/>
		</g>
		<g>
			<g>
				<defs>
					<path id="SVGID_00000106132584610991500570000016065855871900368780_" d="M1188.7,449c0,15.8,3.5,34.3-21,34.2
						c-19.4-0.1-17.5-18.3-17.5-34.2s8.6-28.7,19.3-28.7c2.7,0,5.2,0.8,7.5,2.3c0.7,0.4-2.1,7.7-1.2,8c0,0,3.5-5.2,4.4-5.4
						C1187.8,423.1,1188.7,439,1188.7,449z"/>
				</defs>
				<clipPath id="SVGID_00000100377645419993772680000003766319060117227650_">
					<use xlink:href="#SVGID_00000106132584610991500570000016065855871900368780_"  style="overflow:visible;"/>
				</clipPath>
				
					<rect x="1132.8" y="414.7" style="clip-path:url(#SVGID_00000100377645419993772680000003766319060117227650_);fill:#B35A1C;" width="36.7" height="74"/>
			</g>
		</g>
	</g>
</g>
<g>
	<rect x="1243.1" y="466.9" class="st57" width="1.9" height="27.4"/>
	<g>
		<g>
			<path id="XMLID_00000022553901144846355550000018311862407416496028_" class="st58" d="M1254.5,467.5c0,8.6,1.9,18.6-11.4,18.6
				c-10.5,0-9.5-10-9.5-18.6s4.7-15.6,10.5-15.6c1.4,0,2.8,0.4,4.1,1.2c0.4,0.2-1.1,4.2-0.7,4.4c0,0,1.9-2.8,2.4-2.9
				C1254,453.5,1254.5,462.1,1254.5,467.5z"/>
		</g>
		<g>
			<g>
				<defs>
					<path id="SVGID_00000057843272441290572240000006854678487339896741_" d="M1254.5,467.5c0,8.6,1.9,18.6-11.4,18.6
						c-10.5,0-9.5-10-9.5-18.6s4.7-15.6,10.5-15.6c1.4,0,2.8,0.4,4.1,1.2c0.4,0.2-1.1,4.2-0.7,4.4c0,0,1.9-2.8,2.4-2.9
						C1254,453.5,1254.5,462.1,1254.5,467.5z"/>
				</defs>
				<clipPath id="SVGID_00000028316186444756099590000014731775883266237848_">
					<use xlink:href="#SVGID_00000057843272441290572240000006854678487339896741_"  style="overflow:visible;"/>
				</clipPath>
				
					<rect x="1224.1" y="448.9" style="clip-path:url(#SVGID_00000028316186444756099590000014731775883266237848_);fill:#B35A1C;" width="19.9" height="40.2"/>
			</g>
		</g>
	</g>
</g>
</svg>
