<?xml version="1.0" encoding="utf-8"?>
<!-- Generator: Adobe Illustrator 26.0.3, SVG Export Plug-In . SVG Version: 6.00 Build 0)  -->
<svg version="1.1" id="Слой_1" xmlns="http://www.w3.org/2000/svg" xmlns:xlink="http://www.w3.org/1999/xlink" x="0px" y="0px"
	 viewBox="0 0 1920 529.3" style="enable-background:new 0 0 1920 529.3;" xml:space="preserve">
<style type="text/css">
	.st0{fill:url(#SVGID_1_);}
	.st1{fill:url(#SVGID_00000121980028290078447280000015372414492979361670_);}
	.st2{fill:url(#SVGID_00000031903759925978844490000010899421289641045132_);}
	.st3{fill:url(#SVGID_00000029005398471935328580000001494537710897150621_);}
	.st4{fill:#E97B00;}
	.st5{fill:#6A4100;}
	.st6{fill:#AE5209;}
	.st7{fill:#080000;}
	.st8{fill:#7D350E;}
	.st9{fill:#CF0A0A;}
	.st10{clip-path:url(#SVGID_00000137811651972510737390000014011476486703818684_);fill:#970707;}
	
		.st11{opacity:0.36;clip-path:url(#SVGID_00000038372220601068641290000017941747450429373825_);fill:#FFFFFF;enable-background:new    ;}
	.st12{fill:#41270F;}
	.st13{fill:#4F7E06;}
	.st14{fill:#D00000;}
	.st15{clip-path:url(#SVGID_00000108276060917731001580000012720428312509646739_);fill:#980000;}
	
		.st16{opacity:0.36;clip-path:url(#SVGID_00000052082541585428138440000016412991357339536817_);fill:#FFFFFF;enable-background:new    ;}
	
		.st17{opacity:0.36;clip-path:url(#SVGID_00000034053218104832410830000015763863322100516491_);fill:#FFFFFF;enable-background:new    ;}
	.st18{fill:#42260D;}
	.st19{fill:#5F9D00;}
	.st20{fill:#EE0000;}
	.st21{clip-path:url(#SVGID_00000152236107042058061110000012618196945057254538_);fill:#B60000;}
	
		.st22{opacity:0.36;clip-path:url(#SVGID_00000077288034442014440310000007613179876609013394_);fill:#FFFFFF;enable-background:new    ;}
	
		.st23{opacity:0.36;clip-path:url(#SVGID_00000106135647747449250280000000846721907650907303_);fill:#FFFFFF;enable-background:new    ;}
	.st24{fill:#603813;}
	.st25{clip-path:url(#SVGID_00000062876134919892565470000014206529967031314585_);fill:#465F00;}
	.st26{fill:#5859B4;}
	.st27{clip-path:url(#SVGID_00000124868784484169871450000008974169614379174557_);fill:#384078;}
	.st28{clip-path:url(#SVGID_00000170999604379823799150000014124932271836992151_);fill:#384078;}
	.st29{fill:#91500E;}
	.st30{clip-path:url(#SVGID_00000082332424394103554660000011300036188204970646_);fill:#7D350E;}
	.st31{fill:#FFF1AA;}
	.st32{clip-path:url(#SVGID_00000121262429971342519820000013896571166242683319_);fill:#FFD38C;}
	.st33{clip-path:url(#SVGID_00000047758606456297691070000013847673925929087895_);fill:#FFD38C;}
	.st34{clip-path:url(#SVGID_00000005984823986899658330000001627613683277795757_);fill:#B60000;}
	
		.st35{opacity:0.36;clip-path:url(#SVGID_00000103265239033449956150000005881007888443746970_);fill:#FFFFFF;enable-background:new    ;}
	
		.st36{opacity:0.36;clip-path:url(#SVGID_00000091695670791994243010000016952095548265510823_);fill:#FFFFFF;enable-background:new    ;}
	.st37{clip-path:url(#SVGID_00000111887444718282568270000006902919319773871757_);fill:#B60000;}
	
		.st38{opacity:0.36;clip-path:url(#SVGID_00000098923559824768334790000010384845959398057392_);fill:#FFFFFF;enable-background:new    ;}
	
		.st39{opacity:0.36;clip-path:url(#SVGID_00000010308353712670303840000012881158715263208074_);fill:#FFFFFF;enable-background:new    ;}
	.st40{clip-path:url(#SVGID_00000159439455694971210250000014595284956048925369_);fill:#B60000;}
	
		.st41{opacity:0.36;clip-path:url(#SVGID_00000041980004390676754210000015656753740631409307_);fill:#FFFFFF;enable-background:new    ;}
	
		.st42{opacity:0.36;clip-path:url(#SVGID_00000000944528159429619140000007652330495592848063_);fill:#FFFFFF;enable-background:new    ;}
	.st43{clip-path:url(#SVGID_00000098900790087992611470000006572544934662324381_);fill:#B60000;}
	
		.st44{opacity:0.36;clip-path:url(#SVGID_00000116192940347048402820000017759367165719065260_);fill:#FFFFFF;enable-background:new    ;}
	
		.st45{opacity:0.36;clip-path:url(#SVGID_00000152981164390180359850000014647632315210174398_);fill:#FFFFFF;enable-background:new    ;}
	.st46{fill:#8A6C00;}
	.st47{clip-path:url(#SVGID_00000167385549041330412270000006418102372774258308_);fill:#4D2500;}
	.st48{clip-path:url(#SVGID_00000129191087839010447590000004666795001193124269_);fill:#7D350E;}
	.st49{clip-path:url(#SVGID_00000045602506422304330990000012707033211740319119_);fill:#7D350E;}
	.st50{clip-path:url(#SVGID_00000028291079010578137500000012151961222663052935_);fill:#7D350E;}
	.st51{fill:#612600;}
	.st52{clip-path:url(#SVGID_00000018236216818513872210000012460197216781326470_);fill:#372100;}
	.st53{fill:#020100;}
	.st54{fill:#AD0000;}
	.st55{fill:#EE880E;}
	.st56{clip-path:url(#SVGID_00000128468816933845988100000014318002234235050138_);fill:#C4550D;}
	.st57{fill:#C25800;}
	.st58{clip-path:url(#SVGID_00000004523743985963085850000007460125337224828574_);fill:#C4550D;}
	.st59{clip-path:url(#SVGID_00000148627602483123272990000000026050691630848144_);fill:#C4550D;}
	.st60{fill:#7F440F;}
	.st61{fill:#E18A1C;}
	.st62{clip-path:url(#SVGID_00000106843624151836525840000007979920174079573907_);fill:#B35A1C;}
	.st63{clip-path:url(#SVGID_00000040537652375324745020000004678631905292150144_);fill:#B35A1C;}
</style>
<g>
	
		<linearGradient id="SVGID_1_" gradientUnits="userSpaceOnUse" x1="855.2" y1="-401.1217" x2="1463.7003" y2="-401.1217" gradientTransform="matrix(1 0 0 -1 0 -18.8433)">
		<stop  offset="0" style="stop-color:#FFD28F"/>
		<stop  offset="1" style="stop-color:#FCE791"/>
	</linearGradient>
	<path class="st0" d="M1415.8,397.5c-5.1-25.9-39.8-46-81.9-46c-11.9,0-23.3,1.6-33.5,4.5c0-41-49.4-74.2-110.4-74.2
		c-46.5,0-86.3,19.4-102.6,46.7c-24.2-9.5-54.1-15.1-86.5-15.1c-80.5,0-145.7,34.7-145.7,77.5s65.2,77.5,145.7,77.5
		c24.4,0,47.3-3.2,67.5-8.8c20.9,14,56.2,23.2,96.2,23.2c46.9,0,87.2-12.6,105.6-30.7c15,16.2,51,27.5,93,27.5
		c55.5,0,100.5-19.9,100.5-44.4C1463.8,419.3,1444.6,405.3,1415.8,397.5z"/>
	
		<linearGradient id="SVGID_00000067194609504109661390000007727505738846455967_" gradientUnits="userSpaceOnUse" x1="1218.1" y1="-460.1217" x2="1826.6002" y2="-460.1217" gradientTransform="matrix(1 0 0 -1 0 -18.8433)">
		<stop  offset="0" style="stop-color:#FFD28F"/>
		<stop  offset="1" style="stop-color:#FCE791"/>
	</linearGradient>
	<path style="fill:url(#SVGID_00000067194609504109661390000007727505738846455967_);" d="M1778.7,456.5c-5.1-25.9-39.8-46-81.9-46
		c-11.9,0-23.3,1.6-33.5,4.5c0-41-49.4-74.2-110.4-74.2c-46.5,0-86.3,19.4-102.6,46.7c-24.2-9.5-54.1-15.1-86.5-15.1
		c-80.5,0-145.7,34.7-145.7,77.5s65.2,77.5,145.7,77.5c24.4,0,47.3-3.2,67.5-8.8c20.9,14,56.2,23.2,96.2,23.2
		c46.9,0,87.2-12.6,105.6-30.7c15,16.2,51,27.5,93,27.5c55.5,0,100.5-19.9,100.5-44.4C1826.7,478.3,1807.5,464.3,1778.7,456.5z"/>
	
		<linearGradient id="SVGID_00000001650027357843927120000002911756799930023086_" gradientUnits="userSpaceOnUse" x1="773.491" y1="-484.1922" x2="1106.5153" y2="-18.281" gradientTransform="matrix(1 0 0 -1 0 -18.8433)">
		<stop  offset="0" style="stop-color:#FFD28F"/>
		<stop  offset="1" style="stop-color:#FCE791"/>
	</linearGradient>
	<path style="fill:url(#SVGID_00000001650027357843927120000002911756799930023086_);" d="M1096.4,337.5
		c-4.8-31.5-37.4-55.9-77-55.9c-11.2,0-21.9,2-31.5,5.5c0-49.9-46.5-90.3-103.9-90.3c-43.8,0-81.2,23.5-96.5,56.8
		c-22.8-11.6-50.9-18.4-81.4-18.4c-75.7,0-137.1,42.2-137.1,94.3s61.4,94.3,137.1,94.3c22.9,0,44.5-3.9,63.5-10.7
		c19.6,17,52.9,28.2,90.6,28.2c44.1,0,82.1-15.3,99.3-37.3c14.1,19.6,48,33.5,87.6,33.5c52.3,0,94.6-24.2,94.6-53.9
		C1141.6,364.1,1123.5,347,1096.4,337.5z"/>
	
		<linearGradient id="SVGID_00000096753700853788723350000003897895108797257124_" gradientUnits="userSpaceOnUse" x1="-65.6999" y1="-342.3216" x2="998.3" y2="-342.3216" gradientTransform="matrix(1 0 0 -1 0 -18.8433)">
		<stop  offset="0" style="stop-color:#FFD28F"/>
		<stop  offset="1" style="stop-color:#FCE791"/>
	</linearGradient>
	<path style="fill:url(#SVGID_00000096753700853788723350000003897895108797257124_);" d="M914.4,344.4
		c-8.9-35.7-69.5-63.4-143.1-63.4c-20.9,0-40.7,2.2-58.6,6.3c0-56.5-86.5-102.4-193.1-102.4c-81.3,0-150.9,26.7-179.3,64.5
		c-42.3-13.1-94.6-20.9-151.3-20.9c-140.7,0-254.7,47.9-254.7,106.9S48.4,442.3,189,442.3c42.6,0,82.7-4.4,118-12.2
		c36.5,19.3,98.2,32,168.3,32c82,0,152.5-17.4,184.5-42.4c26.3,22.3,89.2,38,162.7,38c97.1,0,175.8-27.4,175.8-61.2
		C998.3,374.5,964.7,355.1,914.4,344.4z"/>
</g>
<path class="st4" d="M1920,399.8c0,0-661.4,29.8-881.3,15.5C331.6,369.4,0,391.3,0,391.3v138h1920V399.8z"/>
<path class="st5" d="M1411.8,479c-1.5-8-11.8-14.2-24.4-14.2c-3.6,0-6.9,0.5-10,1.4c0-12.7-14.7-23-32.9-23
	c-13.9,0-25.7,6-30.5,14.5c-7.2-2.9-16.1-4.7-25.8-4.7c-24,0-43.4,10.7-43.4,24s181.2,21.3,181.2,13.7
	C1426.1,485.7,1420.4,481.4,1411.8,479z"/>
<path class="st5" d="M1988.1,484.7c-2-17.1-15.9-30.3-32.7-30.3c-4.8,0-9.3,1.1-13.4,3c0-27.1-19.7-49-44.1-49
	c-18.6,0-34.4,12.8-40.9,30.9c-9.7-6.3-21.6-10-34.5-10c-32.1,0-58.2,22.9-58.2,51.2s242.9,45.5,242.9,29.3
	C2007.3,499.1,1999.6,489.8,1988.1,484.7z"/>
<path class="st5" d="M125.2,430.9c-2-17.1-15.9-30.3-32.7-30.3c-4.8,0-9.3,1.1-13.4,3c0-27.1-19.7-49-44.1-49
	c-18.6,0-34.4,12.8-40.9,30.9c-9.7-6.3-21.6-10-34.5-10c-32.1,0-58.2,22.9-58.2,51.2s242.9,45.5,242.9,29.3
	C144.4,445.3,136.7,436,125.2,430.9z"/>
<path class="st6" d="M1971.4,517.3c-116.9,51.7-963.5,63.2-963.5,63.2S-156,566-157.9,515c-1.9-50.9-312-76.2,566-88.6
	c118.6-1.7,409.3,17.7,711.4,35.6C1676,495.1,2140.9,442.3,1971.4,517.3z"/>
<ellipse transform="matrix(0.9736 -0.2284 0.2284 0.9736 -103.7351 91.6036)" class="st7" cx="343.9" cy="494" rx="40.4" ry="22"/>
<ellipse transform="matrix(0.2156 -0.9765 0.9765 0.2156 -113.3826 832.102)" class="st7" cx="461.2" cy="486.6" rx="22" ry="40.4"/>
<polygon class="st8" points="401.3,78.1 405.8,95.6 425.5,95.6 429.2,78.1 "/>
<g>
	<g>
		<g>
			<path id="XMLID_00000085950885036735414740000015742055956580783289_" class="st9" d="M1012.9,387.2c0,0-19.6-15.7-36.3-15
				c-16.8,0.7-64.5-1.6-72.3,80.7c-7.9,82.1,45.8,96.1,52.2,96.1c4.9,0,14.7,0.2,19.2,1.2c6.1,1,15,6.6,21,8.4
				c23.9,6.8,74.6-1,93.1-82.3s-45.4-87.9-45.4-87.9L1012.9,387.2z"/>
		</g>
		<g>
			<g>
				<g>
					<g>
						<defs>
							<path id="SVGID_00000075868467228644249630000015806697044304606357_" d="M1012.9,387.2c0,0-19.6-15.7-36.3-15
								c-16.8,0.7-64.5-1.6-72.3,80.7c-7.9,82.1,45.8,96.1,52.2,96.1c4.9,0,14.7,0.2,19.2,1.2c6.1,1,15,6.6,21,8.4
								c23.9,6.8,74.6-1,93.1-82.3s-45.4-87.9-45.4-87.9L1012.9,387.2z"/>
						</defs>
						<clipPath id="SVGID_00000132803199230370773940000007345729475354458542_">
							<use xlink:href="#SVGID_00000075868467228644249630000015806697044304606357_"  style="overflow:visible;"/>
						</clipPath>
						<path style="clip-path:url(#SVGID_00000132803199230370773940000007345729475354458542_);fill:#970707;" d="M993.9,372
							c0,0,3.3,18.9,9.1,22.9c5.8,3.8,14.1-1.4,19-2.1c4.7-0.7,11.2-2.8,22,0.3c10.8,3.1,37.6,18.2,39,37.9
							c1.4,19.7-15,73.5-27.3,86.1c-12.2,12.9-60.8,20.8-73.4,20.8c-12.8,0-61.5-11-61.5-11l-25,48.6l230.8,11.4l32.7-203.7
							L993.9,372z"/>
					</g>
				</g>
			</g>
		</g>
		<g>
			<g>
				<g>
					<g>
						<defs>
							<path id="SVGID_00000039131104295951133610000008983174490155805630_" d="M1012.9,387.2c0,0-19.6-15.7-36.3-15
								c-16.8,0.7-64.5-1.6-72.3,80.7c-7.9,82.1,45.8,96.1,52.2,96.1c4.9,0,14.7,0.2,19.2,1.2c6.1,1,15,6.6,21,8.4
								c23.9,6.8,74.6-1,93.1-82.3s-45.4-87.9-45.4-87.9L1012.9,387.2z"/>
						</defs>
						<clipPath id="SVGID_00000101062410271938820580000015307579657573599160_">
							<use xlink:href="#SVGID_00000039131104295951133610000008983174490155805630_"  style="overflow:visible;"/>
						</clipPath>
						
							<path style="opacity:0.36;clip-path:url(#SVGID_00000101062410271938820580000015307579657573599160_);fill:#FFFFFF;enable-background:new    ;" d="
							M959.5,417.1c-7.3,11.5-15.7,30.4-22.4,26c-6.6-4.4-9.4-30.2-1.9-41.7c7.3-11.5,18.9-17.5,25.7-13.1
							C967.5,392.8,967,405.7,959.5,417.1z"/>
					</g>
				</g>
			</g>
		</g>
	</g>
	<path class="st12" d="M999.8,335.8c0.2,0.7,2.8,4.2,4.9,10.8c2.1,5.9,5.1,43.7,5.1,43.7l3.1,0.7c0,0-4.4-30.6-5.2-45.1
		C1007,331.3,999.1,332.2,999.8,335.8z"/>
	<path class="st13" d="M1054,335.7c0,0-11.4,17.5-18.2,19.2c-6.6,1.7-26.4,10-26.4,10s10.1-26,17.5-31.1
		C1034,328.9,1054,335.7,1054,335.7z"/>
</g>
<g>
	<g>
		<g>
			<path id="XMLID_00000052806653593771889620000013472412435152253315_" class="st14" d="M716,448c0,0-9.2-3-15.2-0.4
				s-23.5,8.4-15,39.1c8.5,30.8,28.5,31.1,30.9,30.2c1.7-0.6,5.5-3.7,7.4-4.1c2.4-0.4,7.4-0.5,9.8-0.7c9.6-0.8,26.8-10.7,22.3-42.6
				S727.6,444,727.6,444L716,448z"/>
		</g>
		<g>
			<g>
				<g>
					<g>
						<defs>
							<path id="SVGID_00000104704438267003520480000017210312299962343103_" d="M716,448c0,0-9.2-3-15.2-0.4s-23.5,8.4-15,39.1
								c8.5,30.8,28.5,31.1,30.9,30.2c1.7-0.6,5.5-3.7,7.4-4.1c2.4-0.4,7.4-0.5,9.8-0.7c9.6-0.8,26.8-10.7,22.3-42.6
								S727.6,444,727.6,444L716,448z"/>
						</defs>
						<clipPath id="SVGID_00000032622340004124586210000009783495002850989455_">
							<use xlink:href="#SVGID_00000104704438267003520480000017210312299962343103_"  style="overflow:visible;"/>
						</clipPath>
						<path style="clip-path:url(#SVGID_00000032622340004124586210000009783495002850989455_);fill:#980000;" d="M707.1,445.2
							c0,0,3.8,6.4,6.4,7c2.6,0.6,4.9-2.5,6.6-3.4c1.6-0.9,3.7-2.5,8-2.9c4.3-0.3,16.1,1.3,19.3,8.3c3.2,6.9,4.7,28.6,2.1,34.9
							c-2.6,6.3-19.1,15.9-23.7,17.6c-4.6,1.8-23.7,4.5-23.7,4.5l-2.4,21.1l85-27.8l-16.3-78.2L707.1,445.2z"/>
					</g>
				</g>
			</g>
		</g>
		<g>
			<g>
				<g>
					<g>
						<defs>
							<path id="SVGID_00000039824622960034676640000015132010589827518626_" d="M716,448c0,0-9.2-3-15.2-0.4s-23.5,8.4-15,39.1
								c8.5,30.8,28.5,31.1,30.9,30.2c1.7-0.6,5.5-3.7,7.4-4.1c2.4-0.4,7.4-0.5,9.8-0.7c9.6-0.8,26.8-10.7,22.3-42.6
								S727.6,444,727.6,444L716,448z"/>
						</defs>
						<clipPath id="SVGID_00000152265880008568493600000016909496245362984618_">
							<use xlink:href="#SVGID_00000039824622960034676640000015132010589827518626_"  style="overflow:visible;"/>
						</clipPath>
						
							<path style="opacity:0.36;clip-path:url(#SVGID_00000152265880008568493600000016909496245362984618_);fill:#FFFFFF;enable-background:new    ;" d="
							M700,469.7c-1.5,3.6-2.9,9.2-4.8,8.4c-1.9-0.8-3.7-7.7-2.2-11.3s4.2-5.8,6.2-5C701.1,462.5,701.5,466.1,700,469.7z"/>
					</g>
				</g>
			</g>
		</g>
		<g>
			<g>
				<g>
					<g>
						<defs>
							<path id="SVGID_00000180326785607398009320000007911438072831661978_" d="M716,448c0,0-9.2-3-15.2-0.4s-23.5,8.4-15,39.1
								c8.5,30.8,28.5,31.1,30.9,30.2c1.7-0.6,5.5-3.7,7.4-4.1c2.4-0.4,7.4-0.5,9.8-0.7c9.6-0.8,26.8-10.7,22.3-42.6
								S727.6,444,727.6,444L716,448z"/>
						</defs>
						<clipPath id="SVGID_00000088097431536241942150000012221148678352637338_">
							<use xlink:href="#SVGID_00000180326785607398009320000007911438072831661978_"  style="overflow:visible;"/>
						</clipPath>
						
							<path style="opacity:0.36;clip-path:url(#SVGID_00000088097431536241942150000012221148678352637338_);fill:#FFFFFF;enable-background:new    ;" d="
							M699.5,484.6c-0.6,0.1-1.4,0.8-1.6-0.6c-0.2-1.4,0.3-4.4,0.8-4.5c0.6-0.1,1.2,1,1.4,2.4C700.4,483.3,700.1,484.5,699.5,484.6z
							"/>
					</g>
				</g>
			</g>
		</g>
	</g>
	<path class="st18" d="M726.7,428.2c-0.2,0.3-1.9,1.6-3.7,4.2c-1.6,2.3-6.5,16.9-6.5,16.9l-1.9,0.2c0,0,5-11.8,6.7-17.5
		S727.5,426.7,726.7,428.2z"/>
	<path class="st19" d="M742,428.5c0,0-7.1-1-10,0.9c-3,1.9-12.1,6.6-12.1,6.6s7.8,3.9,11.4,2.8S742,428.5,742,428.5z"/>
</g>
<g>
	<g>
		<g>
			<path id="XMLID_00000091017690886273474730000004683794767781391537_" class="st20" d="M1578,284.2c0,0-43.1-31.2-79.9-29.5
				s-141.2-2-156.2,162.1s102.5,191.1,116.9,191.1c10.5,0,31.9,0.3,42.3,2.1c13.6,2.2,32.9,13.1,46.2,16.5
				c52.4,13.3,163.1-3.4,201.4-165.8s-102.1-174.9-102.1-174.9L1578,284.2z"/>
		</g>
		<g>
			<g>
				<g>
					<g>
						<defs>
							<path id="SVGID_00000005226652731457654150000008925224791488970633_" d="M1578,284.2c0,0-43.1-31.2-79.9-29.5
								s-141.2-2-156.2,162.1s102.5,191.1,116.9,191.1c10.5,0,31.9,0.3,42.3,2.1c13.6,2.2,32.9,13.1,46.2,16.5
								c52.4,13.3,163.1-3.4,201.4-165.8s-102.1-174.9-102.1-174.9L1578,284.2z"/>
						</defs>
						<clipPath id="SVGID_00000026853211774418149640000001911719692271029638_">
							<use xlink:href="#SVGID_00000005226652731457654150000008925224791488970633_"  style="overflow:visible;"/>
						</clipPath>
						<path style="clip-path:url(#SVGID_00000026853211774418149640000001911719692271029638_);fill:#B60000;" d="M1535.8,254.3
							c0,0,7.9,37.9,20.6,45.3c12.7,7.5,31.2-3.2,41.5-4.6s24.6-5.7,48.3,0.6c23.7,6.1,82.7,35.5,86.1,74.8
							c3.5,39.4-31,146.8-57.2,172.7s-132.3,42.3-160.1,42.5s-134.7-21.2-134.7-21.2l-53.8,97.7l505.3,19l66.2-407.5L1535.8,254.3z"
							/>
					</g>
				</g>
			</g>
		</g>
		<g>
			<g>
				<g>
					<g>
						<defs>
							<path id="SVGID_00000168811623709473241630000008233416983870074028_" d="M1578,284.2c0,0-43.1-31.2-79.9-29.5
								s-141.2-2-156.2,162.1s102.5,191.1,116.9,191.1c10.5,0,31.9,0.3,42.3,2.1c13.6,2.2,32.9,13.1,46.2,16.5
								c52.4,13.3,163.1-3.4,201.4-165.8s-102.1-174.9-102.1-174.9L1578,284.2z"/>
						</defs>
						<clipPath id="SVGID_00000008846400167369938410000006178417924082165933_">
							<use xlink:href="#SVGID_00000168811623709473241630000008233416983870074028_"  style="overflow:visible;"/>
						</clipPath>
						
							<path style="opacity:0.36;clip-path:url(#SVGID_00000008846400167369938410000006178417924082165933_);fill:#FFFFFF;enable-background:new    ;" d="
							M1450.6,359.9c-14.9,14.7-33.1,39.3-41.7,32c-8.7-7.3-4.5-43.9,10.4-58.5c14.9-14.7,34-20.6,42.5-13.3
							C1470.5,327.4,1465.4,345.2,1450.6,359.9z"/>
					</g>
				</g>
			</g>
		</g>
		<g>
			<g>
				<g>
					<g>
						<defs>
							<path id="SVGID_00000161596643786967551330000010555503506489685645_" d="M1578,284.2c0,0-43.1-31.2-79.9-29.5
								s-141.2-2-156.2,162.1s102.5,191.1,116.9,191.1c10.5,0,31.9,0.3,42.3,2.1c13.6,2.2,32.9,13.1,46.2,16.5
								c52.4,13.3,163.1-3.4,201.4-165.8s-102.1-174.9-102.1-174.9L1578,284.2z"/>
						</defs>
						<clipPath id="SVGID_00000040535514683356393000000014911303829932676284_">
							<use xlink:href="#SVGID_00000161596643786967551330000010555503506489685645_"  style="overflow:visible;"/>
						</clipPath>
						
							<path style="opacity:0.36;clip-path:url(#SVGID_00000040535514683356393000000014911303829932676284_);fill:#FFFFFF;enable-background:new    ;" d="
							M1418.7,431.1c-3.2-0.7-8.8,1.4-7.2-5.8s9.9-20.8,13.3-20.2c3.2,0.7,4.6,7.1,2.9,14.1C1426.1,426.5,1422.1,431.8,1418.7,431.1
							z"/>
					</g>
				</g>
			</g>
		</g>
	</g>
	<path class="st24" d="M1673.4,207.3c-1.5,1.3-13.5,4.4-27.9,13.4c-13.1,8.2-67.7,70.2-67.7,70.2l-10.4-2.2c0,0,49.8-48.1,69.9-72.6
		C1657.6,191.6,1680.5,201.6,1673.4,207.3z"/>
	<g>
		<g>
			<path id="XMLID_00000132782349993058868520000005032296531255508625_" class="st19" d="M1513.1,147.8c0,0,12.8,42.8,30.9,53.3
				c18,10.5,66.9,46.5,66.9,46.5s1.3-56.3-14.5-72.9C1580.8,157.9,1513.1,147.8,1513.1,147.8z"/>
		</g>
		<g>
			<defs>
				<path id="SVGID_00000058575912557209974700000004402848789927656320_" d="M1513.1,147.8c0,0,12.8,42.8,30.9,53.3
					c18,10.5,66.9,46.5,66.9,46.5s1.3-56.3-14.5-72.9C1580.8,157.9,1513.1,147.8,1513.1,147.8z"/>
			</defs>
			<clipPath id="SVGID_00000166663527897963881820000017246993633753528757_">
				<use xlink:href="#SVGID_00000058575912557209974700000004402848789927656320_"  style="overflow:visible;"/>
			</clipPath>
			<path style="clip-path:url(#SVGID_00000166663527897963881820000017246993633753528757_);fill:#465F00;" d="M1508.4,138
				c0,0,27.5,40.6,39.6,51c12.1,10.5,50.7,33.6,56.8,46.1c6.1,12.5,6.2,23.2,6.2,23.2s-72.2-29.3-74.1-32.2
				c-1.9-2.9-49.9-80.3-49.9-80.3L1508.4,138z"/>
		</g>
	</g>
</g>
<g>
	<g>
		<polygon id="XMLID_00000161624209840765887400000016240937727154374330_" class="st26" points="332,486.6 383.2,486.6 
			422.4,268.9 420.6,478.7 468.8,482.9 462,240.9 378.3,233.1 		"/>
	</g>
	<g>
		<g>
			<g>
				<defs>
					<polygon id="SVGID_00000056401184062263836680000004895224440025880724_" points="332,486.6 383.2,486.6 422.4,268.9 
						420.6,478.7 468.8,482.9 462,240.9 378.3,233.1 					"/>
				</defs>
				<clipPath id="SVGID_00000154383537733206579620000014592937343723941049_">
					<use xlink:href="#SVGID_00000056401184062263836680000004895224440025880724_"  style="overflow:visible;"/>
				</clipPath>
				<polygon style="clip-path:url(#SVGID_00000154383537733206579620000014592937343723941049_);fill:#384078;" points="
					410.3,233.1 338.3,496.8 288.4,483.7 350.7,217.8 				"/>
			</g>
		</g>
	</g>
	<g>
		<g>
			<g>
				<defs>
					<polygon id="SVGID_00000167372975637931974620000012567233602882878110_" points="332,486.6 360.3,486.6 383.2,486.6 
						422.4,268.9 420.6,478.7 444,480.7 468.8,482.9 462,240.9 378.3,233.1 					"/>
				</defs>
				<clipPath id="SVGID_00000101083802086880346540000011271227980320054936_">
					<use xlink:href="#SVGID_00000167372975637931974620000012567233602882878110_"  style="overflow:visible;"/>
				</clipPath>
				<polygon style="clip-path:url(#SVGID_00000101083802086880346540000011271227980320054936_);fill:#384078;" points="
					421.3,261.6 451.3,533.3 400.1,539.4 413.4,366.6 				"/>
			</g>
		</g>
	</g>
</g>
<g>
	<g>
		<path id="XMLID_00000003065350105111695220000000344922764282713481_" class="st29" d="M372.1,104.8c-10.8,13.7-6.2,28.6-2,70.9
			c5.4,39.4,5.9,79.1,5.9,79.1l85.9-14c0,0-7.7-36.2-5.7-70c0.6-9.3,3-19.3,4.5-27.7c3.1-17.4,7.7-28.8,4.9-34.4
			c-8.9-17.9-28.7-15-49.9-17.4C395.8,89.1,375,97,372.1,104.8z"/>
	</g>
	<g>
		<g>
			<g>
				<defs>
					<path id="SVGID_00000146472189935613084230000015364279330230985878_" d="M372.1,104.8c-10.8,13.7-6.2,28.6-2,70.9
						c5.4,39.4,5.9,79.1,5.9,79.1l85.9-14c0,0-7.7-36.2-5.7-70c0.6-9.3,3-19.3,4.5-27.7c3.1-17.4,7.7-28.8,4.9-34.4
						c-8.9-17.9-28.7-15-49.9-17.4C395.8,89.1,375,97,372.1,104.8z"/>
				</defs>
				<clipPath id="SVGID_00000127029573202131547210000018070359619146414744_">
					<use xlink:href="#SVGID_00000146472189935613084230000015364279330230985878_"  style="overflow:visible;"/>
				</clipPath>
				<polygon style="clip-path:url(#SVGID_00000127029573202131547210000018070359619146414744_);fill:#7D350E;" points="
					376.1,141.8 403.3,207 402.1,269.7 365.7,266.6 363.5,148.6 370,130.1 				"/>
			</g>
		</g>
	</g>
</g>
<g>
	<g>
		<path id="XMLID_00000158735839473163135540000003718315981233473723_" class="st31" d="M446.3,41.4c-3.6,23-8.6,47.7-31,47.7
			c-21.4,0-26.6-21.4-32.1-44.3C378,22.6,393.9,6.4,415.3,6.4C436.7,6.4,449.3,22.6,446.3,41.4z"/>
	</g>
	<g>
		<g>
			<g>
				<defs>
					<path id="SVGID_00000018222422857150847090000008303824032122264716_" d="M446.3,41.4c-3.6,23-8.6,47.7-31,47.7
						c-21.4,0-26.6-21.4-32.1-44.3C378,22.6,393.9,6.4,415.3,6.4C436.7,6.4,449.3,22.6,446.3,41.4z"/>
				</defs>
				<clipPath id="SVGID_00000121982642726776422830000004950426051736041616_">
					<use xlink:href="#SVGID_00000018222422857150847090000008303824032122264716_"  style="overflow:visible;"/>
				</clipPath>
				<path style="clip-path:url(#SVGID_00000121982642726776422830000004950426051736041616_);fill:#FFD38C;" d="M376.2,22.9l23.5,4
					c0,0-8.3,17.8-7.6,25.8s4.4,18.6,10.8,25.6c6.4,7,26.3,7.7,26.3,7.7l-31.5,27.2l-39.1-55.4L376.2,22.9z"/>
			</g>
			<g>
				<defs>
					<path id="SVGID_00000159443052822469228320000011472692515327998116_" d="M446.3,41.4c-3.6,23-8.6,47.7-31,47.7
						c-21.4,0-26.6-21.4-32.1-44.3C378,22.6,393.9,6.4,415.3,6.4C436.7,6.4,449.3,22.6,446.3,41.4z"/>
				</defs>
				<clipPath id="SVGID_00000106119913321723374580000009170680346783476923_">
					<use xlink:href="#SVGID_00000159443052822469228320000011472692515327998116_"  style="overflow:visible;"/>
				</clipPath>
				<path style="clip-path:url(#SVGID_00000106119913321723374580000009170680346783476923_);fill:#FFD38C;" d="M413.7,66.7
					l-3.4-1.8l5.5-21.4L413.7,66.7z"/>
			</g>
		</g>
	</g>
</g>
<g>
	<g>
		<g>
			<path id="XMLID_00000089556869162356274900000007607295113948972178_" class="st20" d="M370.3,173.2c0,0-5.1,0.2-7.6,2.5
				c-2.5,2.3-10,8.3-0.5,21.7c9.6,13.4,19.6,8.5,20.6,7.6c0.7-0.6,2.3-1.8,3.1-2.4c1.1-0.6,3.1-0.9,4.3-1.5
				c4.5-2.1,11.2-9.9,3.4-24.7s-18.5-7.3-18.5-7.3L370.3,173.2z"/>
		</g>
		<g>
			<g>
				<g>
					<g>
						<defs>
							<path id="SVGID_00000109004419327612199640000017624977401516817291_" d="M370.3,173.2c0,0-5.1,0.2-7.6,2.5
								c-2.5,2.3-10,8.3-0.5,21.7c9.6,13.4,19.6,8.5,20.6,7.6c0.7-0.6,2.3-1.8,3.1-2.4c1.1-0.6,3.1-0.9,4.3-1.5
								c4.5-2.1,11.2-9.9,3.4-24.7s-18.5-7.3-18.5-7.3L370.3,173.2z"/>
						</defs>
						<clipPath id="SVGID_00000067943707609687571310000005029651378706824837_">
							<use xlink:href="#SVGID_00000109004419327612199640000017624977401516817291_"  style="overflow:visible;"/>
						</clipPath>
						<path style="clip-path:url(#SVGID_00000067943707609687571310000005029651378706824837_);fill:#B60000;" d="M365.5,173.4
							c0,0,3,2.4,4.4,2.2c1.4-0.2,1.9-2.1,2.6-2.9c0.6-0.7,1.4-1.9,3.4-2.9c2-0.9,8.1-2.2,10.9,0.6c2.8,2.8,7.4,13.1,7.2,16.6
							s-6.5,11.1-8.5,12.8s-10.9,6.4-10.9,6.4l2.6,10.7l36.8-28.6l-21.7-35.1L365.5,173.4z"/>
					</g>
				</g>
			</g>
		</g>
		<g>
			<g>
				<g>
					<g>
						<defs>
							<path id="SVGID_00000014609822010205403180000010092277259572810664_" d="M370.3,173.2c0,0-5.1,0.2-7.6,2.5
								c-2.5,2.3-10,8.3-0.5,21.7c9.6,13.4,19.6,8.5,20.6,7.6c0.7-0.6,2.3-1.8,3.1-2.4c1.1-0.6,3.1-0.9,4.3-1.5
								c4.5-2.1,11.2-9.9,3.4-24.7s-18.5-7.3-18.5-7.3L370.3,173.2z"/>
						</defs>
						<clipPath id="SVGID_00000171715691869859644280000015895800324395393935_">
							<use xlink:href="#SVGID_00000014609822010205403180000010092277259572810664_"  style="overflow:visible;"/>
						</clipPath>
						
							<path style="opacity:0.36;clip-path:url(#SVGID_00000171715691869859644280000015895800324395393935_);fill:#FFFFFF;enable-background:new    ;" d="
							M366.3,186.5c-0.1,2,0.2,5-0.8,5c-1.1,0-3.1-3-3-5.1c0.1-2,1-3.6,2.1-3.6C365.5,182.8,366.4,184.6,366.3,186.5z"/>
					</g>
				</g>
			</g>
		</g>
		<g>
			<g>
				<g>
					<g>
						<defs>
							<path id="SVGID_00000051350252676955049380000015700687690325660549_" d="M370.3,173.2c0,0-5.1,0.2-7.6,2.5
								c-2.5,2.3-10,8.3-0.5,21.7c9.6,13.4,19.6,8.5,20.6,7.6c0.7-0.6,2.3-1.8,3.1-2.4c1.1-0.6,3.1-0.9,4.3-1.5
								c4.5-2.1,11.2-9.9,3.4-24.7s-18.5-7.3-18.5-7.3L370.3,173.2z"/>
						</defs>
						<clipPath id="SVGID_00000112618509844061434940000000136424252855929495_">
							<use xlink:href="#SVGID_00000051350252676955049380000015700687690325660549_"  style="overflow:visible;"/>
						</clipPath>
						
							<path style="opacity:0.36;clip-path:url(#SVGID_00000112618509844061434940000000136424252855929495_);fill:#FFFFFF;enable-background:new    ;" d="
							M368.6,193.9c-0.3,0.2-0.6,0.6-0.9,0c-0.4-0.6-0.6-2.2-0.4-2.3c0.3-0.2,0.7,0.3,1.1,0.9C368.9,193.1,368.9,193.7,368.6,193.9z
							"/>
					</g>
				</g>
			</g>
		</g>
	</g>
	<path class="st24" d="M372.1,161.6c0,0.2-0.6,1.1-1.1,2.7c-0.4,1.4-0.2,9.4-0.2,9.4l-0.8,0.5c0,0,0.4-6.6,0.2-9.8
		C369.9,161.4,372.2,160.7,372.1,161.6z"/>
	<path class="st19" d="M356.9,166.6c0,0,3.7,2.5,5.6,2.2c1.9-0.3,7.7-0.5,7.7-0.5s-3.6-4.4-5.7-4.7
		C362.3,163.3,356.9,166.6,356.9,166.6z"/>
</g>
<g>
	<g>
		<g>
			<path id="XMLID_00000167377654470680048570000015414642560894421164_" class="st20" d="M461.3,180.6c0,0-1.6-3.3-3.8-4.3
				c-2.2-1-8.4-4.4-14.6,5.8c-6.3,10.1-0.1,15.5,0.7,15.9c0.6,0.3,1.9,1,2.5,1.4c0.7,0.6,1.6,1.8,2.2,2.5c2.7,2.4,9.9,4.7,17.5-4.7
				c7.6-9.4-0.4-14.4-0.4-14.4L461.3,180.6z"/>
		</g>
		<g>
			<g>
				<g>
					<g>
						<defs>
							<path id="SVGID_00000142881363303717204540000000980100498338191253_" d="M461.3,180.6c0,0-1.6-3.3-3.8-4.3
								c-2.2-1-8.4-4.4-14.6,5.8c-6.3,10.1-0.1,15.5,0.7,15.9c0.6,0.3,1.9,1,2.5,1.4c0.7,0.6,1.6,1.8,2.2,2.5
								c2.7,2.4,9.9,4.7,17.5-4.7c7.6-9.4-0.4-14.4-0.4-14.4L461.3,180.6z"/>
						</defs>
						<clipPath id="SVGID_00000099625448603522134650000011189798955933201072_">
							<use xlink:href="#SVGID_00000142881363303717204540000000980100498338191253_"  style="overflow:visible;"/>
						</clipPath>
						<path style="clip-path:url(#SVGID_00000099625448603522134650000011189798955933201072_);fill:#B60000;" d="M459.8,177.5
							c0,0-0.7,2.7-0.3,3.6c0.6,0.8,1.9,0.7,2.7,0.9c0.6,0.2,1.7,0.4,2.9,1.5c1.2,1.1,3.8,4.8,2.7,7.5c-1.1,2.7-6.6,8.6-9.1,9.5
							c-2.5,0.9-9.3-1.3-11-2.1c-1.7-0.8-7.4-5.4-7.4-5.4l-6.4,4.7l29.6,16.5l17.3-24.4L459.8,177.5z"/>
					</g>
				</g>
			</g>
		</g>
		<g>
			<g>
				<g>
					<g>
						<defs>
							<path id="SVGID_00000024709803632295273040000010342627437710584509_" d="M461.3,180.6c0,0-1.6-3.3-3.8-4.3
								c-2.2-1-8.4-4.4-14.6,5.8c-6.3,10.1-0.1,15.5,0.7,15.9c0.6,0.3,1.9,1,2.5,1.4c0.7,0.6,1.6,1.8,2.2,2.5
								c2.7,2.4,9.9,4.7,17.5-4.7c7.6-9.4-0.4-14.4-0.4-14.4L461.3,180.6z"/>
						</defs>
						<clipPath id="SVGID_00000071549733316552775460000017553357469620813231_">
							<use xlink:href="#SVGID_00000024709803632295273040000010342627437710584509_"  style="overflow:visible;"/>
						</clipPath>
						
							<path style="opacity:0.36;clip-path:url(#SVGID_00000071549733316552775460000017553357469620813231_);fill:#FFFFFF;enable-background:new    ;" d="
							M451.2,181.7c-1.4,0.5-3.2,1.6-3.6,0.8c-0.3-0.7,1.2-2.9,2.6-3.5c1.4-0.5,2.7-0.3,2.9,0.5
							C453.4,180.3,452.6,181.3,451.2,181.7z"/>
					</g>
				</g>
			</g>
		</g>
		<g>
			<g>
				<g>
					<g>
						<defs>
							<path id="SVGID_00000137110022633017858130000007427790515274855856_" d="M461.3,180.6c0,0-1.6-3.3-3.8-4.3
								c-2.2-1-8.4-4.4-14.6,5.8c-6.3,10.1-0.1,15.5,0.7,15.9c0.6,0.3,1.9,1,2.5,1.4c0.7,0.6,1.6,1.8,2.2,2.5
								c2.7,2.4,9.9,4.7,17.5-4.7c7.6-9.4-0.4-14.4-0.4-14.4L461.3,180.6z"/>
						</defs>
						<clipPath id="SVGID_00000116217216012497745150000008252545622220345237_">
							<use xlink:href="#SVGID_00000137110022633017858130000007427790515274855856_"  style="overflow:visible;"/>
						</clipPath>
						
							<path style="opacity:0.36;clip-path:url(#SVGID_00000116217216012497745150000008252545622220345237_);fill:#FFFFFF;enable-background:new    ;" d="
							M447,185.4c-0.2-0.2-0.6-0.2-0.3-0.6c0.4-0.4,1.3-1,1.5-0.9c0.2,0.2,0,0.6-0.3,1C447.5,185.3,447.2,185.5,447,185.4z"/>
					</g>
				</g>
			</g>
		</g>
	</g>
	<path class="st24" d="M469.5,178.6c-0.1,0-0.9-0.1-2.1,0c-1,0.1-6.4,2.5-6.4,2.5l-0.6-0.5c0,0,4.5-1.7,6.5-2.6
		C469.1,177.1,470.2,178.4,469.5,178.6z"/>
	<path class="st19" d="M461.9,169.8c0,0-0.6,3.1,0.1,4.4c0.7,1.2,2.5,5.1,2.5,5.1s1.9-3.6,1.6-5.2
		C465.6,172.6,461.9,169.8,461.9,169.8z"/>
</g>
<g>
	<g>
		<g>
			<path id="XMLID_00000065058262433505537120000018382767791355202441_" class="st20" d="M410.8,195.5c0,0,3.1-1.8,4-4.1
				s3.6-8.8-7.1-14.1s-15.4,1.3-15.8,2.1c-0.3,0.6-0.8,1.9-1.2,2.6c-0.5,0.8-1.7,1.7-2.2,2.4c-2.2,2.9-3.8,10.2,6.2,17
				c10,6.7,14.3-1.7,14.3-1.7L410.8,195.5z"/>
		</g>
		<g>
			<g>
				<g>
					<g>
						<defs>
							<path id="SVGID_00000093155009804533739830000007766643849281561481_" d="M410.8,195.5c0,0,3.1-1.8,4-4.1s3.6-8.8-7.1-14.1
								s-15.4,1.3-15.8,2.1c-0.3,0.6-0.8,1.9-1.2,2.6c-0.5,0.8-1.7,1.7-2.2,2.4c-2.2,2.9-3.8,10.2,6.2,17c10,6.7,14.3-1.7,14.3-1.7
								L410.8,195.5z"/>
						</defs>
						<clipPath id="SVGID_00000143578525341866489770000013682585777620460215_">
							<use xlink:href="#SVGID_00000093155009804533739830000007766643849281561481_"  style="overflow:visible;"/>
						</clipPath>
						<path style="clip-path:url(#SVGID_00000143578525341866489770000013682585777620460215_);fill:#B60000;" d="M413.8,193.6
							c0,0-2.8-0.6-3.6,0.1c-0.8,0.6-0.6,2-0.7,2.7c-0.2,0.6-0.2,1.7-1.2,2.9c-1,1.3-4.4,4.2-7.2,3.3c-2.8-0.9-9.1-5.9-10.2-8.2
							s0.4-9.4,1.1-11.1c0.6-1.8,4.8-7.8,4.8-7.8l-5.3-6l-13.8,31.1l25.9,15.1L413.8,193.6z"/>
					</g>
				</g>
			</g>
		</g>
		<g>
			<g>
				<g>
					<g>
						<defs>
							<path id="SVGID_00000072973768348258143190000012118697739245297538_" d="M410.8,195.5c0,0,3.1-1.8,4-4.1s3.6-8.8-7.1-14.1
								s-15.4,1.3-15.8,2.1c-0.3,0.6-0.8,1.9-1.2,2.6c-0.5,0.8-1.7,1.7-2.2,2.4c-2.2,2.9-3.8,10.2,6.2,17c10,6.7,14.3-1.7,14.3-1.7
								L410.8,195.5z"/>
						</defs>
						<clipPath id="SVGID_00000176025410135722368770000017884169330406079901_">
							<use xlink:href="#SVGID_00000072973768348258143190000012118697739245297538_"  style="overflow:visible;"/>
						</clipPath>
						
							<path style="opacity:0.36;clip-path:url(#SVGID_00000176025410135722368770000017884169330406079901_);fill:#FFFFFF;enable-background:new    ;" d="
							M408.7,185.5c-0.6-1.3-1.8-3.1-1.1-3.5c0.7-0.4,3,0.9,3.7,2.2c0.6,1.3,0.6,2.7-0.2,3C410.5,187.5,409.4,186.8,408.7,185.5z"/>
					</g>
				</g>
			</g>
		</g>
		<g>
			<g>
				<g>
					<g>
						<defs>
							<path id="SVGID_00000135670276332707190920000010956176415062688184_" d="M410.8,195.5c0,0,3.1-1.8,4-4.1s3.6-8.8-7.1-14.1
								s-15.4,1.3-15.8,2.1c-0.3,0.6-0.8,1.9-1.2,2.6c-0.5,0.8-1.7,1.7-2.2,2.4c-2.2,2.9-3.8,10.2,6.2,17c10,6.7,14.3-1.7,14.3-1.7
								L410.8,195.5z"/>
						</defs>
						<clipPath id="SVGID_00000029724086454926719290000013127122663488030357_">
							<use xlink:href="#SVGID_00000135670276332707190920000010956176415062688184_"  style="overflow:visible;"/>
						</clipPath>
						
							<path style="opacity:0.36;clip-path:url(#SVGID_00000029724086454926719290000013127122663488030357_);fill:#FFFFFF;enable-background:new    ;" d="
							M404.8,181.5c0.1-0.2,0.1-0.6,0.6-0.3c0.5,0.3,1.2,1.2,1,1.4c-0.2,0.2-0.6,0.1-1-0.2C404.9,182.2,404.6,181.7,404.8,181.5z"/>
					</g>
				</g>
			</g>
		</g>
	</g>
	<path class="st24" d="M413.5,203.5c-0.1-0.1,0-0.9-0.2-2.1c-0.2-1-3-6.1-3-6.1l0.4-0.6c0,0,2,4.4,3.1,6.3S413.8,204,413.5,203.5z"
		/>
	<path class="st19" d="M421.5,195.1c0,0-3.2-0.4-4.3,0.5c-1.2,0.8-4.8,2.9-4.8,2.9s3.8,1.6,5.3,1.1
		C419.2,199.1,421.5,195.1,421.5,195.1z"/>
</g>
<g>
	<g>
		<g>
			<path id="XMLID_00000149383525749796239580000002401876452599992499_" class="st20" d="M435.7,200.5c0,0,3.1-1.8,4-4.1
				c0.8-2.3,3.6-8.8-7.1-14.1s-15.4,1.3-15.8,2.1c-0.3,0.6-0.8,1.9-1.2,2.6c-0.5,0.8-1.7,1.7-2.2,2.4c-2.2,2.9-3.8,10.2,6.2,17
				c10,6.7,14.3-1.7,14.3-1.7L435.7,200.5z"/>
		</g>
		<g>
			<g>
				<g>
					<g>
						<defs>
							<path id="SVGID_00000033351143333760901870000013365617521556692396_" d="M435.7,200.5c0,0,3.1-1.8,4-4.1
								c0.8-2.3,3.6-8.8-7.1-14.1s-15.4,1.3-15.8,2.1c-0.3,0.6-0.8,1.9-1.2,2.6c-0.5,0.8-1.7,1.7-2.2,2.4c-2.2,2.9-3.8,10.2,6.2,17
								c10,6.7,14.3-1.7,14.3-1.7L435.7,200.5z"/>
						</defs>
						<clipPath id="SVGID_00000127748331913616303760000000197244716780496309_">
							<use xlink:href="#SVGID_00000033351143333760901870000013365617521556692396_"  style="overflow:visible;"/>
						</clipPath>
						<path style="clip-path:url(#SVGID_00000127748331913616303760000000197244716780496309_);fill:#B60000;" d="M438.8,198.8
							c0,0-2.8-0.6-3.6,0.1c-0.8,0.6-0.6,2-0.7,2.7s-0.2,1.7-1.2,2.9s-4.4,4.2-7.2,3.3c-2.8-0.9-9.1-5.9-10.2-8.2s0.4-9.4,1.1-11.1
							s4.8-7.8,4.8-7.8l-5.3-6l-13.7,30.9l25.9,15.1L438.8,198.8z"/>
					</g>
				</g>
			</g>
		</g>
		<g>
			<g>
				<g>
					<g>
						<defs>
							<path id="SVGID_00000047050498100144864480000002252383339251903391_" d="M435.7,200.5c0,0,3.1-1.8,4-4.1
								c0.8-2.3,3.6-8.8-7.1-14.1s-15.4,1.3-15.8,2.1c-0.3,0.6-0.8,1.9-1.2,2.6c-0.5,0.8-1.7,1.7-2.2,2.4c-2.2,2.9-3.8,10.2,6.2,17
								c10,6.7,14.3-1.7,14.3-1.7L435.7,200.5z"/>
						</defs>
						<clipPath id="SVGID_00000107585870734690509360000017516309107044401034_">
							<use xlink:href="#SVGID_00000047050498100144864480000002252383339251903391_"  style="overflow:visible;"/>
						</clipPath>
						
							<path style="opacity:0.36;clip-path:url(#SVGID_00000107585870734690509360000017516309107044401034_);fill:#FFFFFF;enable-background:new    ;" d="
							M433.8,190.6c-0.6-1.3-1.8-3.1-1.1-3.5c0.7-0.4,3,0.9,3.7,2.2c0.6,1.3,0.6,2.7-0.2,3C435.5,192.7,434.4,192,433.8,190.6z"/>
					</g>
				</g>
			</g>
		</g>
		<g>
			<g>
				<g>
					<g>
						<defs>
							<path id="SVGID_00000106111287228517572460000013061908819814779325_" d="M435.7,200.5c0,0,3.1-1.8,4-4.1
								c0.8-2.3,3.6-8.8-7.1-14.1s-15.4,1.3-15.8,2.1c-0.3,0.6-0.8,1.9-1.2,2.6c-0.5,0.8-1.7,1.7-2.2,2.4c-2.2,2.9-3.8,10.2,6.2,17
								c10,6.7,14.3-1.7,14.3-1.7L435.7,200.5z"/>
						</defs>
						<clipPath id="SVGID_00000152248259154016976670000004165694960400384648_">
							<use xlink:href="#SVGID_00000106111287228517572460000013061908819814779325_"  style="overflow:visible;"/>
						</clipPath>
						
							<path style="opacity:0.36;clip-path:url(#SVGID_00000152248259154016976670000004165694960400384648_);fill:#FFFFFF;enable-background:new    ;" d="
							M429.7,186.7c0.1-0.2,0.1-0.6,0.6-0.3c0.5,0.3,1.2,1.2,1,1.4c-0.1,0.2-0.6,0.1-1-0.2C429.9,187.3,429.7,186.9,429.7,186.7z"/>
					</g>
				</g>
			</g>
		</g>
	</g>
	<path class="st24" d="M438.6,208.5c-0.1-0.1,0-0.9-0.2-2.1c-0.2-1-3-6.1-3-6.1l0.4-0.6c0,0,2,4.4,3.1,6.3S438.8,209.2,438.6,208.5z
		"/>
	<path class="st19" d="M446.5,200.2c0,0-3.2-0.4-4.3,0.5c-1.1,0.8-4.8,2.9-4.8,2.9s3.8,1.6,5.3,1.1
		C444.1,204.2,446.5,200.2,446.5,200.2z"/>
</g>
<g>
	<g>
		<path id="XMLID_00000150807300877045601920000015280030217655869058_" class="st46" d="M462.3,237.9
			c-22.5,22.5-73.2,18.3-95.7-4.1c-11-11-15.8-50.9-15.8-50.9h127.1C477.8,182.8,473.3,227,462.3,237.9z"/>
	</g>
	<g>
		<g>
			<g>
				<defs>
					<path id="SVGID_00000013164667124546779690000007239029975063157683_" d="M462.3,237.9c-22.5,22.5-73.2,18.3-95.7-4.1
						c-11-11-15.8-50.9-15.8-50.9h127.1C477.8,182.8,473.3,227,462.3,237.9z"/>
				</defs>
				<clipPath id="SVGID_00000047748203386646672650000017431904606669642117_">
					<use xlink:href="#SVGID_00000013164667124546779690000007239029975063157683_"  style="overflow:visible;"/>
				</clipPath>
				<path style="clip-path:url(#SVGID_00000047748203386646672650000017431904606669642117_);fill:#4D2500;" d="M375.3,169.2
					c0,0,10.1,42.6,18.8,54.4c8.7,11.8,21.3,16.3,52.4,12.5c41.5-5.1,82.9-18.3,82.9-18.3s-144.3,55.7-145.1,55.1
					c-0.7-0.6-71.8-59.1-71.8-59.1L375.3,169.2z"/>
			</g>
		</g>
	</g>
</g>
<g>
	<g>
		<path id="XMLID_00000098213597517272585500000000645893828687679382_" class="st29" d="M367.8,145.5l-28.2,25.8l16.8,20.6
			l0.7,31.6c0,0-43.6-31.5-44.6-41.1c-3.2-30.2,62.1-81.3,62.1-81.3s-1,8.6-2.6,15.8c-0.6,2.9-1.6,7.7-2.1,13.1
			C369.2,137,367.8,145.5,367.8,145.5z"/>
	</g>
	<g>
		<g>
			<g>
				<defs>
					<path id="SVGID_00000099628453213983352440000014157045470938518440_" d="M367.8,145.5l-28.2,25.8l16.8,20.6l0.7,31.6
						c0,0-43.6-31.5-44.6-41.1c-3.2-30.2,62.1-81.3,62.1-81.3s-1,8.6-2.6,15.8c-0.6,2.9-1.6,7.7-2.1,13.1
						C369.2,137,367.8,145.5,367.8,145.5z"/>
				</defs>
				<clipPath id="SVGID_00000017488214147244701530000017544434785057071527_">
					<use xlink:href="#SVGID_00000099628453213983352440000014157045470938518440_"  style="overflow:visible;"/>
				</clipPath>
				<path style="clip-path:url(#SVGID_00000017488214147244701530000017544434785057071527_);fill:#7D350E;" d="M376.5,123.9
					c0,0-17.6,16.2-23.5,23.7c-5.8,7.5-21,22.3-21,22.3l17.1,19.6l7.5,9.7l40.8-31.5L376.5,123.9z"/>
			</g>
			<g>
				<defs>
					<path id="SVGID_00000099644188451556375790000006746975046064084904_" d="M367.8,145.5l-28.2,25.8l16.8,20.6l0.7,31.6
						c0,0-43.6-31.5-44.6-41.1c-3.2-30.2,62.1-81.3,62.1-81.3s-1,8.6-2.6,15.8c-0.6,2.9-1.6,7.7-2.1,13.1
						C369.2,137,367.8,145.5,367.8,145.5z"/>
				</defs>
				<clipPath id="SVGID_00000175288105471917570150000000531491901977535640_">
					<use xlink:href="#SVGID_00000099644188451556375790000006746975046064084904_"  style="overflow:visible;"/>
				</clipPath>
				<path style="clip-path:url(#SVGID_00000175288105471917570150000000531491901977535640_);fill:#7D350E;" d="M343.8,86.9
					c0,0-17.6,16.2-23.5,23.7c-5.8,7.5-21,22.3-21,22.3l17.1,19.6l-15.1,40.9l77.7-97.7L343.8,86.9z"/>
			</g>
		</g>
	</g>
</g>
<g>
	<g>
		<path id="XMLID_00000010303754861839748870000015483378219498648744_" class="st29" d="M457.7,141.3l31.6,34.9l-33,15.8l9.9,31.6
			c0,0,50.9-37.9,51.7-47.4c2.5-30.2-61.4-77.8-61.4-77.8L457.7,141.3z"/>
	</g>
	<g>
		<g>
			<g>
				<defs>
					<path id="SVGID_00000089547115192891561700000000932273571639035286_" d="M457.7,141.3l31.6,34.9l-33,15.8l9.9,31.6
						c0,0,50.9-37.9,51.7-47.4c2.5-30.2-61.4-77.8-61.4-77.8L457.7,141.3z"/>
				</defs>
				<clipPath id="SVGID_00000176738295976131015720000003916855535833849745_">
					<use xlink:href="#SVGID_00000089547115192891561700000000932273571639035286_"  style="overflow:visible;"/>
				</clipPath>
				<path style="clip-path:url(#SVGID_00000176738295976131015720000003916855535833849745_);fill:#7D350E;" d="M460.5,126.9
					c0,0-5.8,21.5-11.7,28.9c-5.8,7.5-21,22.3-21,22.3l17.1,19.6l6.5,4.9l41.7-26.7L460.5,126.9z"/>
			</g>
		</g>
	</g>
</g>
<g>
	<g>
		<path id="XMLID_00000065752983870368876250000008635360987876549559_" class="st51" d="M384.3,49c0,0,7-19.1,11.8-18.6
			c4.8,0.5,5.7,0,14-1.3c8.3-1.3,14.5-6.2,18.8-0.9c4.3,5.3,5.8,2.2,11.6,2.4C446.3,30.8,445,49,445,49s13.2-37.2-6.7-42.6
			C433.1,4.9,425.2,0,414.5,0c-10.8,0-21.7,0-23.5,6.4s-11.4,8.9-11.8,15.1C378.8,27.6,384.3,49,384.3,49z"/>
	</g>
	<g>
		<defs>
			<path id="SVGID_00000064338266391293405690000009726211784300002188_" d="M384.3,49c0,0,7-19.1,11.8-18.6c4.8,0.5,5.7,0,14-1.3
				c8.3-1.3,14.5-6.2,18.8-0.9c4.3,5.3,5.8,2.2,11.6,2.4C446.3,30.8,445,49,445,49s13.2-37.2-6.7-42.6C433.1,4.9,425.2,0,414.5,0
				c-10.8,0-21.7,0-23.5,6.4s-11.4,8.9-11.8,15.1C378.8,27.6,384.3,49,384.3,49z"/>
		</defs>
		<clipPath id="SVGID_00000178914234717213602270000015682109389514307204_">
			<use xlink:href="#SVGID_00000064338266391293405690000009726211784300002188_"  style="overflow:visible;"/>
		</clipPath>
		<path style="clip-path:url(#SVGID_00000178914234717213602270000015682109389514307204_);fill:#372100;" d="M430.2-5.6
			c0,0-16.5,7.1-24.4,15.9s-8,6.5-4.4,9c3.6,2.5,5.1,8.8-3.2,11.8c-14.4,5.3-19,25.1-19.6,25.6c-0.6,0.5-15.8-25-15.5-29.6
			c0.4-4.6,19.2-38,19.2-38L430.2-5.6z"/>
	</g>
</g>
<ellipse class="st31" cx="443.4" cy="52.5" rx="3.3" ry="7.9"/>
<ellipse transform="matrix(0.9448 -0.3275 0.3275 0.9448 -43.8242 161.0475)" class="st31" cx="456.3" cy="210.6" rx="21.1" ry="16.4"/>
<ellipse transform="matrix(0.4146 -0.91 0.91 0.4146 23.3068 457.5256)" class="st31" cx="367.3" cy="210.6" rx="16.4" ry="21.1"/>
<ellipse transform="matrix(0.9581 -0.2863 0.2863 0.9581 0.7414 112.2796)" class="st31" cx="384.3" cy="53.6" rx="3.3" ry="7.9"/>
<path class="st53" d="M405.8,47c0,1.5-3.5,3-5,3c-1.5,0-2.7-1.2-2.7-2.7s1.2-2.7,2.7-2.7C402.3,44.7,405.8,45.5,405.8,47z"/>
<path class="st53" d="M432.9,47.3c0,1.5-1.2,2.7-2.7,2.7s-4.7-1.7-4.7-3.1s3.2-2.2,4.7-2.2S432.9,45.9,432.9,47.3z"/>
<path class="st54" d="M421.5,75.3c0,0.7-3.8,2.8-7.8,2.8c-4.1,0-8.5-2.9-8.5-3.7c0-0.7,4.4,1,8.5,1
	C417.8,75.4,421.5,74.6,421.5,75.3z"/>
<g>
	<g>
		<g>
			<path id="XMLID_00000129197290163604736320000002150115942167132854_" class="st55" d="M561.6,343.4c0,15.2,4.8,33-28.9,32.9
				c-26.6-0.1-24.1-17.7-24.1-32.9c0-15.2,11.9-27.6,26.5-27.6c3.7,0,7.1,0.8,10.3,2.2c1,0.4-2.9,7.4-1.7,7.7c0,0,4.8-5,6.1-5.2
				C560.4,318.5,561.6,333.8,561.6,343.4z"/>
		</g>
		<g>
			<g>
				<g>
					<defs>
						<path id="SVGID_00000059309600740062517320000005186718127791729301_" d="M561.6,343.4c0,15.2,4.8,33-28.9,32.9
							c-26.6-0.1-24.1-17.7-24.1-32.9c0-15.2,11.9-27.6,26.5-27.6c3.7,0,7.1,0.8,10.3,2.2c1,0.4-2.9,7.4-1.7,7.7c0,0,4.8-5,6.1-5.2
							C560.4,318.5,561.6,333.8,561.6,343.4z"/>
					</defs>
					<clipPath id="SVGID_00000008867211005840103940000003680974096387603098_">
						<use xlink:href="#SVGID_00000059309600740062517320000005186718127791729301_"  style="overflow:visible;"/>
					</clipPath>
					
						<rect x="484.8" y="310.4" style="clip-path:url(#SVGID_00000008867211005840103940000003680974096387603098_);fill:#C4550D;" width="50.4" height="71.3"/>
				</g>
			</g>
		</g>
	</g>
	<polygon class="st57" points="535.1,353.7 535.1,353.7 537.5,402.4 532.7,402.4 	"/>
</g>
<g>
	<g>
		<g>
			<path id="XMLID_00000069379287708487553390000004323509330919157148_" class="st55" d="M637.2,367.9c0,8.9,2.8,19.3-16.9,19.3
				c-15.6,0-14.1-10.3-14.1-19.3s6.9-16.1,15.5-16.1c2.1,0,4.2,0.5,6,1.3c0.6,0.3-1.7,4.4-1,4.5c0,0,2.8-2.9,3.6-3.1
				C636.5,353.3,637.2,362.3,637.2,367.9z"/>
		</g>
		<g>
			<g>
				<g>
					<defs>
						<path id="SVGID_00000011005556695718413400000011889023981607819192_" d="M637.2,367.9c0,8.9,2.8,19.3-16.9,19.3
							c-15.6,0-14.1-10.3-14.1-19.3s6.9-16.1,15.5-16.1c2.1,0,4.2,0.5,6,1.3c0.6,0.3-1.7,4.4-1,4.5c0,0,2.8-2.9,3.6-3.1
							C636.5,353.3,637.2,362.3,637.2,367.9z"/>
					</defs>
					<clipPath id="SVGID_00000150066437834602597390000016188203266381371295_">
						<use xlink:href="#SVGID_00000011005556695718413400000011889023981607819192_"  style="overflow:visible;"/>
					</clipPath>
					
						<rect x="592.4" y="348.6" style="clip-path:url(#SVGID_00000150066437834602597390000016188203266381371295_);fill:#C4550D;" width="29.5" height="41.7"/>
				</g>
			</g>
		</g>
	</g>
	<polygon class="st57" points="621.8,373.9 621.8,373.9 623.2,402.4 620.4,402.4 	"/>
</g>
<g>
	<g>
		<g>
			<path id="XMLID_00000044176672829609866460000002070977335865955749_" class="st55" d="M784.9,374.2c0,6.5,2,14-11.8,14
				c-10.9,0-9.8-7.5-9.8-14s4.8-11.7,10.8-11.7c1.5,0,2.9,0.3,4.2,0.9c0.4,0.2-1.2,3.2-0.7,3.3c0,0,2-2.1,2.5-2.2
				C784.4,363.7,784.9,370.2,784.9,374.2z"/>
		</g>
		<g>
			<g>
				<g>
					<defs>
						<path id="SVGID_00000085934937210436983910000013575360028455550593_" d="M784.9,374.2c0,6.5,2,14-11.8,14
							c-10.9,0-9.8-7.5-9.8-14s4.8-11.7,10.8-11.7c1.5,0,2.9,0.3,4.2,0.9c0.4,0.2-1.2,3.2-0.7,3.3c0,0,2-2.1,2.5-2.2
							C784.4,363.7,784.9,370.2,784.9,374.2z"/>
					</defs>
					<clipPath id="SVGID_00000013915052486470688410000014658242158439023550_">
						<use xlink:href="#SVGID_00000085934937210436983910000013575360028455550593_"  style="overflow:visible;"/>
					</clipPath>
					
						<rect x="753.5" y="360.2" style="clip-path:url(#SVGID_00000013915052486470688410000014658242158439023550_);fill:#C4550D;" width="20.6" height="30.2"/>
				</g>
			</g>
		</g>
	</g>
	<polygon class="st57" points="774,378.6 774,378.6 775,399.3 773.1,399.3 	"/>
</g>
<g>
	<rect x="1167.7" y="376.5" class="st60" width="3.5" height="50.4"/>
	<g>
		<g>
			<path id="XMLID_00000174576428407161650120000014247542492338853777_" class="st61" d="M1188.7,377.6c0,15.8,3.5,34.3-21,34.2
				c-19.4-0.1-17.5-18.3-17.5-34.2s8.6-28.7,19.3-28.7c2.7,0,5.2,0.8,7.5,2.3c0.7,0.4-2.1,7.7-1.2,8c0,0,3.5-5.2,4.4-5.4
				C1187.8,351.7,1188.7,367.6,1188.7,377.6z"/>
		</g>
		<g>
			<g>
				<g>
					<defs>
						<path id="SVGID_00000149340498186739079230000011153320214738185635_" d="M1188.7,377.6c0,15.8,3.5,34.3-21,34.2
							c-19.4-0.1-17.5-18.3-17.5-34.2s8.6-28.7,19.3-28.7c2.7,0,5.2,0.8,7.5,2.3c0.7,0.4-2.1,7.7-1.2,8c0,0,3.5-5.2,4.4-5.4
							C1187.8,351.7,1188.7,367.6,1188.7,377.6z"/>
					</defs>
					<clipPath id="SVGID_00000044875176052072341970000008705040753010082704_">
						<use xlink:href="#SVGID_00000149340498186739079230000011153320214738185635_"  style="overflow:visible;"/>
					</clipPath>
					
						<rect x="1132.8" y="343.3" style="clip-path:url(#SVGID_00000044875176052072341970000008705040753010082704_);fill:#B35A1C;" width="36.7" height="74"/>
				</g>
			</g>
		</g>
	</g>
</g>
<g>
	<rect x="1243.1" y="395.5" class="st60" width="1.9" height="27.4"/>
	<g>
		<g>
			<path id="XMLID_00000022553901144846355550000018311862407416496028_" class="st61" d="M1254.5,396.1c0,8.6,1.9,18.6-11.4,18.6
				c-10.5,0-9.5-10-9.5-18.6s4.7-15.6,10.5-15.6c1.4,0,2.8,0.4,4.1,1.2c0.4,0.2-1.1,4.2-0.7,4.4c0,0,1.9-2.8,2.4-2.9
				C1254,382.1,1254.5,390.7,1254.5,396.1z"/>
		</g>
		<g>
			<g>
				<g>
					<defs>
						<path id="SVGID_00000009552771178015056580000003030422569024231602_" d="M1254.5,396.1c0,8.6,1.9,18.6-11.4,18.6
							c-10.5,0-9.5-10-9.5-18.6s4.7-15.6,10.5-15.6c1.4,0,2.8,0.4,4.1,1.2c0.4,0.2-1.1,4.2-0.7,4.4c0,0,1.9-2.8,2.4-2.9
							C1254,382.1,1254.5,390.7,1254.5,396.1z"/>
					</defs>
					<clipPath id="SVGID_00000000209796090025734010000003347226812425050805_">
						<use xlink:href="#SVGID_00000009552771178015056580000003030422569024231602_"  style="overflow:visible;"/>
					</clipPath>
					
						<rect x="1224.1" y="377.5" style="clip-path:url(#SVGID_00000000209796090025734010000003347226812425050805_);fill:#B35A1C;" width="19.9" height="40.2"/>
				</g>
			</g>
		</g>
	</g>
</g>
</svg>
