<?xml version="1.0" encoding="utf-8"?>
<!-- Generator: Adobe Illustrator 26.0.3, SVG Export Plug-In . SVG Version: 6.00 Build 0)  -->
<svg version="1.1" id="Слой_1" xmlns="http://www.w3.org/2000/svg" xmlns:xlink="http://www.w3.org/1999/xlink" x="0px" y="0px"
	 viewBox="0 0 1920 600.7" style="enable-background:new 0 0 1920 600.7;" xml:space="preserve">
<style type="text/css">
	.st0{fill:url(#SVGID_1_);}
	.st1{fill:url(#SVGID_00000034049435177629657500000012624645235948332699_);}
	.st2{fill:url(#SVGID_00000179614619583087974230000011733393428924406711_);}
	.st3{fill:url(#SVGID_00000036964760879534844580000015257799523662719628_);}
	.st4{fill:#E97B00;}
	.st5{fill:#6A4100;}
	.st6{fill:#AE5209;}
	.st7{fill:#080000;}
	.st8{fill:#7D350E;}
	.st9{fill:#CF0A0A;}
	.st10{clip-path:url(#SVGID_00000000186711762078184300000008330759451137650105_);fill:#970707;}
	
		.st11{opacity:0.36;clip-path:url(#SVGID_00000171687905946881515880000002705451676745417108_);fill:#FFFFFF;enable-background:new    ;}
	.st12{fill:#41270F;}
	.st13{fill:#4F7E06;}
	.st14{fill:#D00000;}
	.st15{clip-path:url(#SVGID_00000167396188452234713370000006527160661239594127_);fill:#980000;}
	
		.st16{opacity:0.36;clip-path:url(#SVGID_00000133490800872266625960000013622965916537295240_);fill:#FFFFFF;enable-background:new    ;}
	
		.st17{opacity:0.36;clip-path:url(#SVGID_00000009575675473167756430000008300487134423482792_);fill:#FFFFFF;enable-background:new    ;}
	.st18{fill:#42260D;}
	.st19{fill:#5F9D00;}
	.st20{fill:#EE0000;}
	.st21{clip-path:url(#SVGID_00000145052513318022138800000017987529758241600917_);fill:#B60000;}
	
		.st22{opacity:0.36;clip-path:url(#SVGID_00000067212969616868753870000009987392441641926789_);fill:#FFFFFF;enable-background:new    ;}
	
		.st23{opacity:0.36;clip-path:url(#SVGID_00000057850649635314761590000018097554464489378982_);fill:#FFFFFF;enable-background:new    ;}
	.st24{fill:#603813;}
	.st25{clip-path:url(#XMLID_00000035491881675245349340000017623570970094563968_);fill:#384078;}
	.st26{clip-path:url(#XMLID_00000067952379328838614530000017069728387435597995_);fill:#7D350E;}
	.st27{fill:#FFF1AA;}
	.st28{clip-path:url(#SVGID_00000052067854831589884450000009392807711886355860_);fill:#B60000;}
	
		.st29{opacity:0.36;clip-path:url(#SVGID_00000047048805301222695530000004351008555661674909_);fill:#FFFFFF;enable-background:new    ;}
	
		.st30{opacity:0.36;clip-path:url(#SVGID_00000161631109894455771390000010497928685119224224_);fill:#FFFFFF;enable-background:new    ;}
	.st31{clip-path:url(#SVGID_00000060745064798093550310000012181657909728435865_);fill:#B60000;}
	
		.st32{opacity:0.36;clip-path:url(#SVGID_00000145759370665742609650000017020855460236557959_);fill:#FFFFFF;enable-background:new    ;}
	
		.st33{opacity:0.36;clip-path:url(#SVGID_00000165940795129594295430000005866678823577515145_);fill:#FFFFFF;enable-background:new    ;}
	.st34{clip-path:url(#SVGID_00000046332113251593971740000014148213326548407171_);fill:#B60000;}
	
		.st35{opacity:0.36;clip-path:url(#SVGID_00000056406136748179597670000007918958489715378109_);fill:#FFFFFF;enable-background:new    ;}
	
		.st36{opacity:0.36;clip-path:url(#SVGID_00000183944851731579593960000005432827568529949855_);fill:#FFFFFF;enable-background:new    ;}
	.st37{clip-path:url(#SVGID_00000147926943223930633070000012182479136143534265_);fill:#B60000;}
	
		.st38{opacity:0.36;clip-path:url(#SVGID_00000048487717896491026080000017103378034919057543_);fill:#FFFFFF;enable-background:new    ;}
	
		.st39{opacity:0.36;clip-path:url(#SVGID_00000182499078790321720290000003931796897613840278_);fill:#FFFFFF;enable-background:new    ;}
	.st40{clip-path:url(#XMLID_00000101090709957624878370000016919537297883655869_);fill:#4D2500;}
	.st41{clip-path:url(#XMLID_00000057871096613499591570000000207586324293840569_);fill:#7D350E;}
	.st42{clip-path:url(#XMLID_00000094586775056022468150000009379501680308027805_);fill:#7D350E;}
	.st43{fill:#612600;}
	.st44{fill:#020100;}
	.st45{fill:#AD0000;}
	.st46{clip-path:url(#XMLID_00000013880710587100292850000006166831156943463061_);fill:#C4550D;}
	.st47{fill:#C25800;}
	.st48{clip-path:url(#XMLID_00000037661621430958051760000006439475332283112127_);fill:#C4550D;}
	.st49{clip-path:url(#XMLID_00000031166592571261850890000015609326102693678267_);fill:#C4550D;}
	.st50{fill:#7F440F;}
	.st51{clip-path:url(#XMLID_00000015347197812097939080000001253177054182144690_);fill:#B35A1C;}
	.st52{clip-path:url(#XMLID_00000047060142936092868570000010287344900126518975_);fill:#B35A1C;}
</style>
<g>
	<linearGradient id="SVGID_1_" gradientUnits="userSpaceOnUse" x1="855.2287" y1="453.7288" x2="1463.814" y2="453.7288">
		<stop  offset="0" style="stop-color:#FFD28F"/>
		<stop  offset="1" style="stop-color:#FCE791"/>
	</linearGradient>
	<path class="st0" d="M1415.8,468.9c-5.1-25.9-39.8-46-81.9-46c-11.9,0-23.3,1.6-33.5,4.5c0-41-49.4-74.2-110.4-74.2
		c-46.5,0-86.3,19.4-102.6,46.7c-24.2-9.5-54.1-15.1-86.5-15.1c-80.5,0-145.7,34.7-145.7,77.5s65.2,77.5,145.7,77.5
		c24.4,0,47.3-3.2,67.5-8.8c20.9,14,56.2,23.2,96.2,23.2c46.9,0,87.2-12.6,105.6-30.7c15,16.2,51,27.5,93,27.5
		c55.5,0,100.5-19.9,100.5-44.4C1463.8,490.7,1444.6,476.7,1415.8,468.9z"/>
	
		<linearGradient id="SVGID_00000006690329898356726540000018154490872050085803_" gradientUnits="userSpaceOnUse" x1="1218.135" y1="512.749" x2="1826.7202" y2="512.749">
		<stop  offset="0" style="stop-color:#FFD28F"/>
		<stop  offset="1" style="stop-color:#FCE791"/>
	</linearGradient>
	<path style="fill:url(#SVGID_00000006690329898356726540000018154490872050085803_);" d="M1778.7,527.9c-5.1-25.9-39.8-46-81.9-46
		c-11.9,0-23.3,1.6-33.5,4.5c0-41-49.4-74.2-110.4-74.2c-46.5,0-86.3,19.4-102.6,46.7c-24.2-9.5-54.1-15.1-86.5-15.1
		c-80.5,0-145.7,34.7-145.7,77.5s65.2,77.5,145.7,77.5c24.4,0,47.3-3.2,67.5-8.8c20.9,14,56.2,23.2,96.2,23.2
		c46.9,0,87.2-12.6,105.6-30.7c15,16.2,51,27.5,93,27.5c55.5,0,100.5-19.9,100.5-44.4C1826.7,549.7,1807.5,535.7,1778.7,527.9z"/>
	
		<linearGradient id="SVGID_00000121979606981066731260000000855288332206567853_" gradientUnits="userSpaceOnUse" x1="773.4301" y1="536.7271" x2="1106.4545" y2="70.816">
		<stop  offset="0" style="stop-color:#FFD28F"/>
		<stop  offset="1" style="stop-color:#FCE791"/>
	</linearGradient>
	<path style="fill:url(#SVGID_00000121979606981066731260000000855288332206567853_);" d="M1096.4,408.9
		c-4.8-31.5-37.4-55.9-77-55.9c-11.2,0-21.9,2-31.5,5.5c0-49.9-46.5-90.3-103.9-90.3c-43.8,0-81.2,23.5-96.5,56.8
		c-22.8-11.6-50.9-18.4-81.4-18.4c-75.7,0-137.1,42.2-137.1,94.3s61.4,94.3,137.1,94.3c22.9,0,44.5-3.9,63.5-10.7
		c19.6,17,52.9,28.2,90.6,28.2c44.1,0,82.1-15.3,99.3-37.3c14.1,19.6,48,33.5,87.6,33.5c52.3,0,94.6-24.2,94.6-53.9
		C1141.6,435.5,1123.5,418.4,1096.4,408.9z"/>
	
		<linearGradient id="SVGID_00000037657680450434445970000017087712001988053938_" gradientUnits="userSpaceOnUse" x1="-65.681" y1="394.8559" x2="998.2977" y2="394.8559">
		<stop  offset="0" style="stop-color:#FFD28F"/>
		<stop  offset="1" style="stop-color:#FCE791"/>
	</linearGradient>
	<path style="fill:url(#SVGID_00000037657680450434445970000017087712001988053938_);" d="M914.4,415.8
		c-8.9-35.7-69.5-63.4-143.1-63.4c-20.9,0-40.7,2.2-58.6,6.3c0-56.5-86.5-102.4-193.1-102.4c-81.3,0-150.9,26.7-179.3,64.5
		c-42.3-13.1-94.6-20.9-151.3-20.9c-140.7,0-254.7,47.9-254.7,106.9S48.4,513.7,189,513.7c42.6,0,82.7-4.4,118-12.2
		c36.5,19.3,98.2,32,168.3,32c82,0,152.5-17.4,184.5-42.4c26.3,22.3,89.2,38,162.7,38c97.1,0,175.8-27.4,175.8-61.2
		C998.3,445.9,964.7,426.5,914.4,415.8z"/>
</g>
<path class="st4" d="M1920,471.2c0,0-661.4,29.8-881.3,15.5C331.6,440.8,0,462.7,0,462.7v138h1920V471.2z"/>
<path class="st5" d="M1411.8,550.4c-1.5-8-11.8-14.2-24.4-14.2c-3.6,0-6.9,0.5-10,1.4c0-12.7-14.7-23-32.9-23
	c-13.9,0-25.7,6-30.5,14.5c-7.2-2.9-16.1-4.7-25.8-4.7c-24,0-43.4,10.7-43.4,24c0,13.3,181.2,21.3,181.2,13.7
	C1426.1,557.1,1420.4,552.8,1411.8,550.4z"/>
<path class="st5" d="M1988.1,556.1c-2-17.1-15.9-30.3-32.7-30.3c-4.8,0-9.3,1.1-13.4,3c0-27.1-19.7-49-44.1-49
	c-18.6,0-34.4,12.8-40.9,30.9c-9.7-6.3-21.6-10-34.5-10c-32.1,0-58.2,22.9-58.2,51.2s242.9,45.5,242.9,29.3
	C2007.3,570.5,1999.6,561.2,1988.1,556.1z"/>
<path class="st5" d="M125.2,502.3c-2-17.1-15.9-30.3-32.7-30.3c-4.8,0-9.3,1.1-13.4,3c0-27.1-19.7-49-44.1-49
	c-18.6,0-34.4,12.8-40.9,30.9c-9.7-6.3-21.6-10-34.5-10c-32.1,0-58.2,22.9-58.2,51.2c0,28.3,242.9,45.5,242.9,29.3
	C144.4,516.7,136.7,507.4,125.2,502.3z"/>
<path class="st6" d="M1971.9,588.7c-116.9,51.7-963.5,63.2-963.5,63.2s-1163.9-14.5-1165.8-65.5c-1.9-50.9-312-76.2,566-88.6
	c118.6-1.7,409.3,17.7,711.4,35.6C1676.5,566.5,2141.4,513.7,1971.9,588.7z"/>
<ellipse transform="matrix(0.9736 -0.2284 0.2284 0.9736 -124.5316 50.8273)" class="st7" cx="157.3" cy="563.4" rx="43.9" ry="23.9"/>
<ellipse transform="matrix(0.2156 -0.9765 0.9765 0.2156 -319.0157 713.6852)" class="st7" cx="284.7" cy="555.4" rx="23.9" ry="43.9"/>
<polygon class="st8" points="219.6,111.9 224.5,130.9 245.9,130.9 249.9,111.9 "/>
<g>
	<g>
		<g>
			<path id="XMLID_00000085950885036735414740000015742055956580783289_" class="st9" d="M969.2,512.6c0,0-11.2-9-20.8-8.6
				c-9.6,0.4-36.9-0.9-41.4,46.2c-4.5,47,26.2,55,29.9,55c2.8,0,8.4,0.1,11,0.7c3.5,0.6,8.6,3.8,12,4.8c13.7,3.9,42.7-0.6,53.3-47.1
				c10.6-46.5-26-50.3-26-50.3L969.2,512.6z"/>
		</g>
		<g>
			<defs>
				<path id="SVGID_00000128452318602509643170000012864350601904119948_" d="M969.2,512.6c0,0-11.2-9-20.8-8.6
					c-9.6,0.4-36.9-0.9-41.4,46.2c-4.5,47,26.2,55,29.9,55c2.8,0,8.4,0.1,11,0.7c3.5,0.6,8.6,3.8,12,4.8
					c13.7,3.9,42.7-0.6,53.3-47.1c10.6-46.5-26-50.3-26-50.3L969.2,512.6z"/>
			</defs>
			<clipPath id="SVGID_00000033337936825728243980000005363276894135924397_">
				<use xlink:href="#SVGID_00000128452318602509643170000012864350601904119948_"  style="overflow:visible;"/>
			</clipPath>
			<path style="clip-path:url(#SVGID_00000033337936825728243980000005363276894135924397_);fill:#970707;" d="M958.3,503.9
				c0,0,1.9,10.8,5.2,13.1c3.3,2.2,8.1-0.8,10.9-1.2c2.7-0.4,6.4-1.6,12.6,0.2c6.2,1.8,21.5,10.4,22.3,21.7
				c0.8,11.3-8.6,42.1-15.6,49.3c-7,7.4-34.8,11.9-42,11.9c-7.3,0-35.2-6.3-35.2-6.3l-14.3,27.8l132.1,6.5l18.7-116.6L958.3,503.9z"
				/>
		</g>
		<g>
			<defs>
				<path id="SVGID_00000183941865238560257820000004324915652025899942_" d="M969.2,512.6c0,0-11.2-9-20.8-8.6
					c-9.6,0.4-36.9-0.9-41.4,46.2c-4.5,47,26.2,55,29.9,55c2.8,0,8.4,0.1,11,0.7c3.5,0.6,8.6,3.8,12,4.8
					c13.7,3.9,42.7-0.6,53.3-47.1c10.6-46.5-26-50.3-26-50.3L969.2,512.6z"/>
			</defs>
			<clipPath id="SVGID_00000161615279634829620930000016286381792799223456_">
				<use xlink:href="#SVGID_00000183941865238560257820000004324915652025899942_"  style="overflow:visible;"/>
			</clipPath>
			
				<path style="opacity:0.36;clip-path:url(#SVGID_00000161615279634829620930000016286381792799223456_);fill:#FFFFFF;enable-background:new    ;" d="
				M938.6,529.7c-4.2,6.6-9,17.4-12.8,14.9s-5.4-17.3-1.1-23.9c4.2-6.6,10.8-10,14.7-7.5C943.2,515.8,942.9,523.2,938.6,529.7z"/>
		</g>
	</g>
	<path class="st12" d="M961.7,483.2c0.1,0.4,1.6,2.4,2.8,6.2c1.2,3.4,2.9,25,2.9,25l1.8,0.4c0,0-2.5-17.5-3-25.8
		C965.8,480.6,961.3,481.1,961.7,483.2z"/>
	<path class="st13" d="M992.7,483.1c0,0-6.5,10-10.4,11c-3.8,1-15.1,5.7-15.1,5.7s5.8-14.9,10-17.8
		C981.3,479.2,992.7,483.1,992.7,483.1z"/>
</g>
<g>
	<g>
		<g>
			<path id="XMLID_00000052806653593771889620000013472412435152253315_" class="st14" d="M716,519.4c0,0-9.2-3-15.2-0.4
				c-6,2.6-23.5,8.4-15,39.1c8.5,30.8,28.5,31.1,30.9,30.2c1.7-0.6,5.5-3.7,7.4-4.1c2.4-0.4,7.4-0.5,9.8-0.7
				c9.6-0.8,26.8-10.7,22.3-42.6s-28.6-25.5-28.6-25.5L716,519.4z"/>
		</g>
		<g>
			<defs>
				<path id="SVGID_00000074423523183257235300000016267283676423404191_" d="M716,519.4c0,0-9.2-3-15.2-0.4
					c-6,2.6-23.5,8.4-15,39.1c8.5,30.8,28.5,31.1,30.9,30.2c1.7-0.6,5.5-3.7,7.4-4.1c2.4-0.4,7.4-0.5,9.8-0.7
					c9.6-0.8,26.8-10.7,22.3-42.6s-28.6-25.5-28.6-25.5L716,519.4z"/>
			</defs>
			<clipPath id="SVGID_00000052087448584440346910000013352828957919200955_">
				<use xlink:href="#SVGID_00000074423523183257235300000016267283676423404191_"  style="overflow:visible;"/>
			</clipPath>
			<path style="clip-path:url(#SVGID_00000052087448584440346910000013352828957919200955_);fill:#980000;" d="M707.1,516.6
				c0,0,3.8,6.4,6.4,7c2.6,0.6,4.9-2.5,6.6-3.4c1.6-0.9,3.7-2.5,8-2.9c4.3-0.3,16.1,1.3,19.3,8.3c3.2,6.9,4.7,28.6,2.1,34.9
				c-2.6,6.3-19.1,15.9-23.7,17.6c-4.6,1.8-23.7,4.5-23.7,4.5l-2.4,21.1l85-27.8l-16.3-78.2L707.1,516.6z"/>
		</g>
		<g>
			<defs>
				<path id="SVGID_00000182502197299760993530000014073748746730210434_" d="M716,519.4c0,0-9.2-3-15.2-0.4
					c-6,2.6-23.5,8.4-15,39.1c8.5,30.8,28.5,31.1,30.9,30.2c1.7-0.6,5.5-3.7,7.4-4.1c2.4-0.4,7.4-0.5,9.8-0.7
					c9.6-0.8,26.8-10.7,22.3-42.6s-28.6-25.5-28.6-25.5L716,519.4z"/>
			</defs>
			<clipPath id="SVGID_00000120537530551503373890000003441252647263267007_">
				<use xlink:href="#SVGID_00000182502197299760993530000014073748746730210434_"  style="overflow:visible;"/>
			</clipPath>
			
				<path style="opacity:0.36;clip-path:url(#SVGID_00000120537530551503373890000003441252647263267007_);fill:#FFFFFF;enable-background:new    ;" d="
				M700,541.1c-1.5,3.6-2.9,9.2-4.8,8.4c-1.9-0.8-3.7-7.7-2.2-11.3s4.2-5.8,6.2-5C701.1,533.9,701.5,537.5,700,541.1z"/>
		</g>
		<g>
			<defs>
				<path id="SVGID_00000179631532181916285600000002454171267473362088_" d="M716,519.4c0,0-9.2-3-15.2-0.4
					c-6,2.6-23.5,8.4-15,39.1c8.5,30.8,28.5,31.1,30.9,30.2c1.7-0.6,5.5-3.7,7.4-4.1c2.4-0.4,7.4-0.5,9.8-0.7
					c9.6-0.8,26.8-10.7,22.3-42.6s-28.6-25.5-28.6-25.5L716,519.4z"/>
			</defs>
			<clipPath id="SVGID_00000132077414356947013890000016349244336590599344_">
				<use xlink:href="#SVGID_00000179631532181916285600000002454171267473362088_"  style="overflow:visible;"/>
			</clipPath>
			
				<path style="opacity:0.36;clip-path:url(#SVGID_00000132077414356947013890000016349244336590599344_);fill:#FFFFFF;enable-background:new    ;" d="
				M699.5,556c-0.6,0.1-1.4,0.8-1.6-0.6c-0.2-1.4,0.3-4.4,0.8-4.5c0.6-0.1,1.2,1,1.4,2.4C700.4,554.7,700.1,555.9,699.5,556z"/>
		</g>
	</g>
	<path class="st18" d="M726.7,499.6c-0.2,0.3-1.9,1.6-3.7,4.2c-1.6,2.3-6.5,16.9-6.5,16.9l-1.9,0.2c0,0,5-11.8,6.7-17.5
		C723,497.7,727.5,498.1,726.7,499.6z"/>
	<path class="st19" d="M742,499.9c0,0-7.1-1-10,0.9c-3,1.9-12.1,6.6-12.1,6.6s7.8,3.9,11.4,2.8S742,499.9,742,499.9z"/>
</g>
<g>
	<g>
		<g>
			<path id="XMLID_00000091017690886273474730000004683794767781391537_" class="st20" d="M1638,355.6c0,0-43.1-31.2-79.9-29.5
				c-36.8,1.7-141.2-2-156.2,162.1s102.5,191.1,116.9,191.1c10.5,0,31.9,0.3,42.3,2.1c13.6,2.2,32.9,13.1,46.2,16.5
				c52.4,13.3,163.1-3.4,201.4-165.8c38.3-162.4-102.1-174.9-102.1-174.9L1638,355.6z"/>
		</g>
		<g>
			<defs>
				<path id="SVGID_00000045593848144565093070000009535320738819452072_" d="M1638,355.6c0,0-43.1-31.2-79.9-29.5
					c-36.8,1.7-141.2-2-156.2,162.1s102.5,191.1,116.9,191.1c10.5,0,31.9,0.3,42.3,2.1c13.6,2.2,32.9,13.1,46.2,16.5
					c52.4,13.3,163.1-3.4,201.4-165.8c38.3-162.4-102.1-174.9-102.1-174.9L1638,355.6z"/>
			</defs>
			<clipPath id="SVGID_00000092419544832639632590000006448917709382839960_">
				<use xlink:href="#SVGID_00000045593848144565093070000009535320738819452072_"  style="overflow:visible;"/>
			</clipPath>
			<path style="clip-path:url(#SVGID_00000092419544832639632590000006448917709382839960_);fill:#B60000;" d="M1595.8,325.7
				c0,0,7.9,37.9,20.6,45.3c12.7,7.5,31.2-3.2,41.5-4.6c10.3-1.4,24.6-5.7,48.3,0.6c23.7,6.1,82.7,35.5,86.1,74.8
				c3.5,39.4-31,146.8-57.2,172.7s-132.3,42.3-160.1,42.5s-134.7-21.2-134.7-21.2l-53.8,97.7l505.3,19L1958,345L1595.8,325.7z"/>
		</g>
		<g>
			<defs>
				<path id="SVGID_00000106852544181086626160000009384316715264293019_" d="M1638,355.6c0,0-43.1-31.2-79.9-29.5
					c-36.8,1.7-141.2-2-156.2,162.1s102.5,191.1,116.9,191.1c10.5,0,31.9,0.3,42.3,2.1c13.6,2.2,32.9,13.1,46.2,16.5
					c52.4,13.3,163.1-3.4,201.4-165.8c38.3-162.4-102.1-174.9-102.1-174.9L1638,355.6z"/>
			</defs>
			<clipPath id="SVGID_00000114054869607251300430000008221740397311853980_">
				<use xlink:href="#SVGID_00000106852544181086626160000009384316715264293019_"  style="overflow:visible;"/>
			</clipPath>
			
				<path style="opacity:0.36;clip-path:url(#SVGID_00000114054869607251300430000008221740397311853980_);fill:#FFFFFF;enable-background:new    ;" d="
				M1510.6,431.3c-14.9,14.7-33.1,39.3-41.7,32c-8.7-7.3-4.5-43.9,10.4-58.5c14.9-14.7,34-20.6,42.5-13.3
				C1530.5,398.8,1525.4,416.6,1510.6,431.3z"/>
		</g>
		<g>
			<defs>
				<path id="SVGID_00000156578519861466890480000013584545480396353422_" d="M1638,355.6c0,0-43.1-31.2-79.9-29.5
					c-36.8,1.7-141.2-2-156.2,162.1s102.5,191.1,116.9,191.1c10.5,0,31.9,0.3,42.3,2.1c13.6,2.2,32.9,13.1,46.2,16.5
					c52.4,13.3,163.1-3.4,201.4-165.8c38.3-162.4-102.1-174.9-102.1-174.9L1638,355.6z"/>
			</defs>
			<clipPath id="SVGID_00000126315674152780423720000012545195117282839689_">
				<use xlink:href="#SVGID_00000156578519861466890480000013584545480396353422_"  style="overflow:visible;"/>
			</clipPath>
			
				<path style="opacity:0.36;clip-path:url(#SVGID_00000126315674152780423720000012545195117282839689_);fill:#FFFFFF;enable-background:new    ;" d="
				M1478.7,502.5c-3.2-0.7-8.8,1.4-7.2-5.8s9.9-20.8,13.3-20.2c3.2,0.7,4.6,7.1,2.9,14.1C1486.1,497.9,1482.1,503.2,1478.7,502.5z"
				/>
		</g>
	</g>
	<path class="st24" d="M1733.4,278.7c-1.5,1.3-13.5,4.4-27.9,13.4c-13.1,8.2-67.7,70.2-67.7,70.2l-10.4-2.2c0,0,49.8-48.1,69.9-72.6
		C1717.6,263,1740.5,273,1733.4,278.7z"/>
	<path class="st19" d="M1573.1,219.2c0,0,12.8,42.8,30.9,53.3c18,10.5,66.9,46.5,66.9,46.5s1.3-56.3-14.5-72.9
		C1640.8,229.3,1573.1,219.2,1573.1,219.2z"/>
</g>
<g>
	<defs>
		<polygon id="XMLID_00000161624209840765887400000016240937727154374330_" points="144.4,555.4 200,555.4 242.5,319 240.6,546.8 
			292.9,551.4 285.5,288.6 194.7,280.2 		"/>
	</defs>
	<use xlink:href="#XMLID_00000161624209840765887400000016240937727154374330_"  style="overflow:visible;fill:#5859B4;"/>
	<clipPath id="XMLID_00000142881652595456001070000007364619044119556252_">
		<use xlink:href="#XMLID_00000161624209840765887400000016240937727154374330_"  style="overflow:visible;"/>
	</clipPath>
	<polygon style="clip-path:url(#XMLID_00000142881652595456001070000007364619044119556252_);fill:#384078;" points="229.4,280.2 
		151.2,566.5 97,552.2 164.7,263.6 	"/>
	<polygon style="clip-path:url(#XMLID_00000142881652595456001070000007364619044119556252_);fill:#384078;" points="241.3,311.1 
		273.9,606.1 218.3,612.7 232.8,425.1 	"/>
</g>
<g>
	<defs>
		<path id="XMLID_00000003065350105111695220000000344922764282713481_" d="M187.9,140.9c-11.7,14.9-6.7,31-2.2,77
			c5.9,42.8,6.4,85.9,6.4,85.9l93.3-15.2c0,0-8.4-39.3-6.2-76c0.6-10.1,3.3-21,4.9-30.1c3.4-18.9,8.4-31.3,5.3-37.4
			c-9.7-19.4-31.2-16.3-54.2-18.9C213.6,123.8,191.1,132.4,187.9,140.9z"/>
	</defs>
	<use xlink:href="#XMLID_00000003065350105111695220000000344922764282713481_"  style="overflow:visible;fill:#91500E;"/>
	<clipPath id="XMLID_00000070113279786172553240000011964329211979137424_">
		<use xlink:href="#XMLID_00000003065350105111695220000000344922764282713481_"  style="overflow:visible;"/>
	</clipPath>
	<polygon style="clip-path:url(#XMLID_00000070113279786172553240000011964329211979137424_);fill:#7D350E;" points="192.3,181.1 
		221.8,251.8 220.5,319.9 181,316.5 178.6,188.4 185.6,168.3 	"/>
</g>
<path class="st27" d="M268.5,72c-3.9,25-9.3,51.8-33.7,51.8c-23.2,0-28.9-23.2-34.8-48.1C194.3,51.6,211.6,34,234.8,34
	S271.7,51.6,268.5,72z"/>
<g>
	<g>
		<g>
			<path id="XMLID_00000089556869162356274900000007607295113948972178_" class="st20" d="M186,215.1c0,0-5.5,0.2-8.2,2.7
				s-10.9,9-0.5,23.6c10.4,14.6,21.3,9.2,22.4,8.3c0.8-0.7,2.5-2,3.4-2.6c1.2-0.7,3.4-1,4.7-1.6c4.9-2.3,12.2-10.8,3.7-26.8
				s-20.1-7.9-20.1-7.9L186,215.1z"/>
		</g>
		<g>
			<defs>
				<path id="SVGID_00000139999921566999958230000001583165696004996507_" d="M186,215.1c0,0-5.5,0.2-8.2,2.7s-10.9,9-0.5,23.6
					c10.4,14.6,21.3,9.2,22.4,8.3c0.8-0.7,2.5-2,3.4-2.6c1.2-0.7,3.4-1,4.7-1.6c4.9-2.3,12.2-10.8,3.7-26.8s-20.1-7.9-20.1-7.9
					L186,215.1z"/>
			</defs>
			<clipPath id="SVGID_00000138560224878430989640000003744595082978090640_">
				<use xlink:href="#SVGID_00000139999921566999958230000001583165696004996507_"  style="overflow:visible;"/>
			</clipPath>
			<path style="clip-path:url(#SVGID_00000138560224878430989640000003744595082978090640_);fill:#B60000;" d="M180.7,215.4
				c0,0,3.3,2.6,4.8,2.4c1.5-0.2,2.1-2.3,2.8-3.1s1.5-2.1,3.7-3.1s8.8-2.4,11.8,0.6s8,14.2,7.8,18s-7.1,12.1-9.2,13.9
				s-11.8,7-11.8,7l2.8,11.6l39.9-31.1l-23.6-38.1L180.7,215.4z"/>
		</g>
		<g>
			<defs>
				<path id="SVGID_00000170961036264735595870000009895842132519284888_" d="M186,215.1c0,0-5.5,0.2-8.2,2.7s-10.9,9-0.5,23.6
					c10.4,14.6,21.3,9.2,22.4,8.3c0.8-0.7,2.5-2,3.4-2.6c1.2-0.7,3.4-1,4.7-1.6c4.9-2.3,12.2-10.8,3.7-26.8s-20.1-7.9-20.1-7.9
					L186,215.1z"/>
			</defs>
			<clipPath id="SVGID_00000160894184880028112090000018281811859953810567_">
				<use xlink:href="#SVGID_00000170961036264735595870000009895842132519284888_"  style="overflow:visible;"/>
			</clipPath>
			
				<path style="opacity:0.36;clip-path:url(#SVGID_00000160894184880028112090000018281811859953810567_);fill:#FFFFFF;enable-background:new    ;" d="
				M181.6,229.6c-0.1,2.2,0.2,5.4-0.9,5.4c-1.2,0-3.4-3.3-3.3-5.5c0.1-2.2,1.1-3.9,2.3-3.9C180.8,225.6,181.7,227.5,181.6,229.6z"/>
		</g>
		<g>
			<defs>
				<path id="SVGID_00000065056917347805061150000000193560372315600556_" d="M186,215.1c0,0-5.5,0.2-8.2,2.7s-10.9,9-0.5,23.6
					c10.4,14.6,21.3,9.2,22.4,8.3c0.8-0.7,2.5-2,3.4-2.6c1.2-0.7,3.4-1,4.7-1.6c4.9-2.3,12.2-10.8,3.7-26.8s-20.1-7.9-20.1-7.9
					L186,215.1z"/>
			</defs>
			<clipPath id="SVGID_00000151518102703965601720000000157222313836864662_">
				<use xlink:href="#SVGID_00000065056917347805061150000000193560372315600556_"  style="overflow:visible;"/>
			</clipPath>
			
				<path style="opacity:0.36;clip-path:url(#SVGID_00000151518102703965601720000000157222313836864662_);fill:#FFFFFF;enable-background:new    ;" d="
				M184.1,237.6c-0.3,0.2-0.6,0.7-1,0s-0.7-2.4-0.4-2.5c0.3-0.2,0.8,0.3,1.2,1C184.4,236.7,184.4,237.4,184.1,237.6z"/>
		</g>
	</g>
	<path class="st24" d="M187.9,202.5c0,0.2-0.7,1.2-1.2,2.9c-0.4,1.5-0.2,10.2-0.2,10.2l-0.9,0.5c0,0,0.4-7.2,0.2-10.6
		C185.5,202.3,188,201.6,187.9,202.5z"/>
	<path class="st19" d="M171.4,208c0,0,4,2.7,6.1,2.4s8.4-0.5,8.4-0.5s-3.9-4.8-6.2-5.1C177.3,204.4,171.4,208,171.4,208z"/>
</g>
<g>
	<g>
		<g>
			<path id="XMLID_00000167377654470680048570000015414642560894421164_" class="st20" d="M284.8,223.2c0,0-1.7-3.6-4.1-4.7
				s-9.1-4.8-15.9,6.3c-6.8,11-0.1,16.8,0.8,17.3c0.7,0.3,2.1,1.1,2.7,1.5c0.8,0.6,1.7,2,2.4,2.7c2.9,2.6,10.7,5.1,19-5.1
				c8.3-10.2-0.4-15.6-0.4-15.6L284.8,223.2z"/>
		</g>
		<g>
			<defs>
				<path id="SVGID_00000031186450342929178880000007733448708678293693_" d="M284.8,223.2c0,0-1.7-3.6-4.1-4.7s-9.1-4.8-15.9,6.3
					c-6.8,11-0.1,16.8,0.8,17.3c0.7,0.3,2.1,1.1,2.7,1.5c0.8,0.6,1.7,2,2.4,2.7c2.9,2.6,10.7,5.1,19-5.1c8.3-10.2-0.4-15.6-0.4-15.6
					L284.8,223.2z"/>
			</defs>
			<clipPath id="SVGID_00000062914700637457823780000001323422016459096970_">
				<use xlink:href="#SVGID_00000031186450342929178880000007733448708678293693_"  style="overflow:visible;"/>
			</clipPath>
			<path style="clip-path:url(#SVGID_00000062914700637457823780000001323422016459096970_);fill:#B60000;" d="M283.1,219.8
				c0,0-0.8,2.9-0.3,3.9c0.6,0.9,2.1,0.8,2.9,1c0.7,0.2,1.8,0.4,3.1,1.6c1.3,1.2,4.1,5.2,2.9,8.1c-1.2,2.9-7.2,9.3-9.9,10.3
				s-10.1-1.4-11.9-2.3c-1.8-0.9-8-5.9-8-5.9l-7,5.1l32.1,17.9l18.8-26.5L283.1,219.8z"/>
		</g>
		<g>
			<defs>
				<path id="SVGID_00000036230884028248944060000013139512097121425282_" d="M284.8,223.2c0,0-1.7-3.6-4.1-4.7s-9.1-4.8-15.9,6.3
					c-6.8,11-0.1,16.8,0.8,17.3c0.7,0.3,2.1,1.1,2.7,1.5c0.8,0.6,1.7,2,2.4,2.7c2.9,2.6,10.7,5.1,19-5.1c8.3-10.2-0.4-15.6-0.4-15.6
					L284.8,223.2z"/>
			</defs>
			<clipPath id="SVGID_00000152956873467791383870000002379911126608127380_">
				<use xlink:href="#SVGID_00000036230884028248944060000013139512097121425282_"  style="overflow:visible;"/>
			</clipPath>
			
				<path style="opacity:0.36;clip-path:url(#SVGID_00000152956873467791383870000002379911126608127380_);fill:#FFFFFF;enable-background:new    ;" d="
				M273.8,224.4c-1.5,0.5-3.5,1.7-3.9,0.9c-0.3-0.8,1.3-3.2,2.8-3.8c1.5-0.5,2.9-0.3,3.2,0.5C276.2,222.8,275.3,223.9,273.8,224.4z"
				/>
		</g>
		<g>
			<defs>
				<path id="SVGID_00000047023927497289590720000003170586254593595307_" d="M284.8,223.2c0,0-1.7-3.6-4.1-4.7s-9.1-4.8-15.9,6.3
					c-6.8,11-0.1,16.8,0.8,17.3c0.7,0.3,2.1,1.1,2.7,1.5c0.8,0.6,1.7,2,2.4,2.7c2.9,2.6,10.7,5.1,19-5.1c8.3-10.2-0.4-15.6-0.4-15.6
					L284.8,223.2z"/>
			</defs>
			<clipPath id="SVGID_00000018227957700839975570000005829129450421297840_">
				<use xlink:href="#SVGID_00000047023927497289590720000003170586254593595307_"  style="overflow:visible;"/>
			</clipPath>
			
				<path style="opacity:0.36;clip-path:url(#SVGID_00000018227957700839975570000005829129450421297840_);fill:#FFFFFF;enable-background:new    ;" d="
				M269.2,228.4c-0.2-0.2-0.6-0.2-0.3-0.6c0.4-0.4,1.4-1.1,1.6-1c0.2,0.2,0,0.6-0.3,1.1C269.8,228.3,269.4,228.5,269.2,228.4z"/>
		</g>
	</g>
	<path class="st24" d="M293.7,221c-0.1,0-1-0.1-2.3,0c-1.1,0.1-6.9,2.7-6.9,2.7l-0.6-0.5c0,0,4.9-1.8,7.1-2.8S294.4,220.8,293.7,221
		z"/>
	<path class="st19" d="M285.4,211.5c0,0-0.7,3.4,0.1,4.8c0.8,1.3,2.7,5.5,2.7,5.5s2.1-3.9,1.7-5.6
		C289.4,214.5,285.4,211.5,285.4,211.5z"/>
</g>
<g>
	<g>
		<g>
			<path id="XMLID_00000065058262433505537120000018382767791355202441_" class="st20" d="M229.9,239.3c0,0,3.4-2,4.3-4.5
				s3.9-9.5-7.7-15.3s-16.7,1.4-17.1,2.3c-0.3,0.7-0.9,2.1-1.3,2.8c-0.5,0.9-1.8,1.8-2.4,2.6c-2.4,3.2-4.1,11.1,6.7,18.5
				c10.9,7.3,15.5-1.8,15.5-1.8L229.9,239.3z"/>
		</g>
		<g>
			<defs>
				<path id="SVGID_00000121986961692972542740000008902425539872739728_" d="M229.9,239.3c0,0,3.4-2,4.3-4.5s3.9-9.5-7.7-15.3
					s-16.7,1.4-17.1,2.3c-0.3,0.7-0.9,2.1-1.3,2.8c-0.5,0.9-1.8,1.8-2.4,2.6c-2.4,3.2-4.1,11.1,6.7,18.5c10.9,7.3,15.5-1.8,15.5-1.8
					L229.9,239.3z"/>
			</defs>
			<clipPath id="SVGID_00000122711146055330394360000013127034414508205218_">
				<use xlink:href="#SVGID_00000121986961692972542740000008902425539872739728_"  style="overflow:visible;"/>
			</clipPath>
			<path style="clip-path:url(#SVGID_00000122711146055330394360000013127034414508205218_);fill:#B60000;" d="M233.2,237.3
				c0,0-3-0.6-3.9,0.1s-0.6,2.2-0.8,2.9s-0.2,1.8-1.3,3.2s-4.8,4.6-7.8,3.6s-9.9-6.4-11.1-8.9s0.4-10.2,1.2-12.1
				c0.7-1.9,5.2-8.5,5.2-8.5l-5.7-6.5l-15,33.8l28.1,16.4L233.2,237.3z"/>
		</g>
		<g>
			<defs>
				<path id="SVGID_00000076563618545682660370000009690173977158136961_" d="M229.9,239.3c0,0,3.4-2,4.3-4.5s3.9-9.5-7.7-15.3
					s-16.7,1.4-17.1,2.3c-0.3,0.7-0.9,2.1-1.3,2.8c-0.5,0.9-1.8,1.8-2.4,2.6c-2.4,3.2-4.1,11.1,6.7,18.5c10.9,7.3,15.5-1.8,15.5-1.8
					L229.9,239.3z"/>
			</defs>
			<clipPath id="SVGID_00000142169295135431466350000008793454538167707056_">
				<use xlink:href="#SVGID_00000076563618545682660370000009690173977158136961_"  style="overflow:visible;"/>
			</clipPath>
			
				<path style="opacity:0.36;clip-path:url(#SVGID_00000142169295135431466350000008793454538167707056_);fill:#FFFFFF;enable-background:new    ;" d="
				M227.7,228.5c-0.7-1.4-2-3.4-1.2-3.8c0.8-0.4,3.3,1,4,2.4s0.6,2.9-0.2,3.3C229.6,230.7,228.4,229.9,227.7,228.5z"/>
		</g>
		<g>
			<defs>
				<path id="SVGID_00000163754464686734929330000004716031390226139540_" d="M229.9,239.3c0,0,3.4-2,4.3-4.5s3.9-9.5-7.7-15.3
					s-16.7,1.4-17.1,2.3c-0.3,0.7-0.9,2.1-1.3,2.8c-0.5,0.9-1.8,1.8-2.4,2.6c-2.4,3.2-4.1,11.1,6.7,18.5c10.9,7.3,15.5-1.8,15.5-1.8
					L229.9,239.3z"/>
			</defs>
			<clipPath id="SVGID_00000181066829016455283540000001462186663592165298_">
				<use xlink:href="#SVGID_00000163754464686734929330000004716031390226139540_"  style="overflow:visible;"/>
			</clipPath>
			
				<path style="opacity:0.36;clip-path:url(#SVGID_00000181066829016455283540000001462186663592165298_);fill:#FFFFFF;enable-background:new    ;" d="
				M223.4,224.2c0.1-0.2,0.1-0.6,0.6-0.3s1.3,1.3,1.1,1.5s-0.6,0.1-1.1-0.2S223.2,224.4,223.4,224.2z"/>
		</g>
	</g>
	<path class="st24" d="M232.9,248c-0.1-0.1,0-1-0.2-2.3c-0.2-1.1-3.3-6.6-3.3-6.6l0.4-0.6c0,0,2.2,4.8,3.4,6.8
		S233.2,248.6,232.9,248z"/>
	<path class="st19" d="M241.6,238.9c0,0-3.5-0.4-4.7,0.5c-1.3,0.9-5.2,3.2-5.2,3.2s4.1,1.7,5.7,1.2S241.6,238.9,241.6,238.9z"/>
</g>
<g>
	<g>
		<g>
			<path id="XMLID_00000149383525749796239580000002401876452599992499_" class="st20" d="M257,244.8c0,0,3.4-2,4.3-4.5
				s3.9-9.5-7.7-15.3c-11.6-5.8-16.7,1.4-17.1,2.3c-0.3,0.7-0.9,2.1-1.3,2.8c-0.5,0.9-1.8,1.8-2.4,2.6c-2.4,3.2-4.1,11.1,6.7,18.5
				c10.9,7.3,15.5-1.8,15.5-1.8L257,244.8z"/>
		</g>
		<g>
			<defs>
				<path id="SVGID_00000092414578035708594920000002856579416882861961_" d="M257,244.8c0,0,3.4-2,4.3-4.5s3.9-9.5-7.7-15.3
					c-11.6-5.8-16.7,1.4-17.1,2.3c-0.3,0.7-0.9,2.1-1.3,2.8c-0.5,0.9-1.8,1.8-2.4,2.6c-2.4,3.2-4.1,11.1,6.7,18.5
					c10.9,7.3,15.5-1.8,15.5-1.8L257,244.8z"/>
			</defs>
			<clipPath id="SVGID_00000082352701322344068010000004500853543272690330_">
				<use xlink:href="#SVGID_00000092414578035708594920000002856579416882861961_"  style="overflow:visible;"/>
			</clipPath>
			<path style="clip-path:url(#SVGID_00000082352701322344068010000004500853543272690330_);fill:#B60000;" d="M260.3,242.9
				c0,0-3-0.6-3.9,0.1c-0.9,0.6-0.6,2.2-0.8,2.9s-0.2,1.8-1.3,3.2s-4.8,4.6-7.8,3.6s-9.9-6.4-11.1-8.9s0.4-10.2,1.2-12.1
				s5.2-8.5,5.2-8.5l-5.7-6.5l-14.9,33.6l28.1,16.4L260.3,242.9z"/>
		</g>
		<g>
			<defs>
				<path id="SVGID_00000170263080298363891110000014866876643635474329_" d="M257,244.8c0,0,3.4-2,4.3-4.5s3.9-9.5-7.7-15.3
					c-11.6-5.8-16.7,1.4-17.1,2.3c-0.3,0.7-0.9,2.1-1.3,2.8c-0.5,0.9-1.8,1.8-2.4,2.6c-2.4,3.2-4.1,11.1,6.7,18.5
					c10.9,7.3,15.5-1.8,15.5-1.8L257,244.8z"/>
			</defs>
			<clipPath id="SVGID_00000158722997057085257990000007994818498060016516_">
				<use xlink:href="#SVGID_00000170263080298363891110000014866876643635474329_"  style="overflow:visible;"/>
			</clipPath>
			
				<path style="opacity:0.36;clip-path:url(#SVGID_00000158722997057085257990000007994818498060016516_);fill:#FFFFFF;enable-background:new    ;" d="
				M254.9,234c-0.7-1.4-2-3.4-1.2-3.8c0.8-0.4,3.3,1,4,2.4s0.6,2.9-0.2,3.3C256.7,236.3,255.6,235.5,254.9,234z"/>
		</g>
		<g>
			<defs>
				<path id="SVGID_00000116230095570708652520000013368033851496316830_" d="M257,244.8c0,0,3.4-2,4.3-4.5s3.9-9.5-7.7-15.3
					c-11.6-5.8-16.7,1.4-17.1,2.3c-0.3,0.7-0.9,2.1-1.3,2.8c-0.5,0.9-1.8,1.8-2.4,2.6c-2.4,3.2-4.1,11.1,6.7,18.5
					c10.9,7.3,15.5-1.8,15.5-1.8L257,244.8z"/>
			</defs>
			<clipPath id="SVGID_00000137131417816299315230000014493137125240005763_">
				<use xlink:href="#SVGID_00000116230095570708652520000013368033851496316830_"  style="overflow:visible;"/>
			</clipPath>
			
				<path style="opacity:0.36;clip-path:url(#SVGID_00000137131417816299315230000014493137125240005763_);fill:#FFFFFF;enable-background:new    ;" d="
				M250.5,229.8c0.1-0.2,0.1-0.6,0.6-0.3s1.3,1.3,1.1,1.5c-0.1,0.2-0.6,0.1-1.1-0.2C250.7,230.4,250.4,230,250.5,229.8z"/>
		</g>
	</g>
	<path class="st24" d="M260.1,253.5c-0.1-0.1,0-1-0.2-2.3c-0.2-1.1-3.3-6.6-3.3-6.6l0.4-0.6c0,0,2.2,4.8,3.4,6.8
		S260.3,254.2,260.1,253.5z"/>
	<path class="st19" d="M268.7,244.4c0,0-3.5-0.4-4.7,0.5s-5.2,3.2-5.2,3.2s4.1,1.7,5.7,1.2S268.7,244.4,268.7,244.4z"/>
</g>
<g>
	<defs>
		<path id="XMLID_00000150807300877045601920000015280030217655869058_" d="M285.8,285.4c-24.4,24.4-79.5,19.9-103.9-4.5
			c-11.9-11.9-17.2-55.3-17.2-55.3h138C302.7,225.6,297.8,273.5,285.8,285.4z"/>
	</defs>
	<use xlink:href="#XMLID_00000150807300877045601920000015280030217655869058_"  style="overflow:visible;fill:#8A6C00;"/>
	<clipPath id="XMLID_00000075150007520229195940000015137358562032702392_">
		<use xlink:href="#XMLID_00000150807300877045601920000015280030217655869058_"  style="overflow:visible;"/>
	</clipPath>
	<path style="clip-path:url(#XMLID_00000075150007520229195940000015137358562032702392_);fill:#4D2500;" d="M191.4,210.8
		c0,0,11,46.3,20.4,59.1s23.1,17.7,56.9,13.6c45.1-5.5,90-19.9,90-19.9S202,324.1,201.2,323.4c-0.8-0.7-78-64.2-78-64.2L191.4,210.8
		z"/>
</g>
<g>
	<defs>
		<path id="XMLID_00000098213597517272585500000000645893828687679382_" d="M183.3,185.1l-30.6,28l18.2,22.4l0.8,34.3
			c0,0-47.3-34.2-48.4-44.6c-3.5-32.8,67.4-88.3,67.4-88.3s-1.1,9.3-2.8,17.2c-0.6,3.2-1.7,8.4-2.3,14.2
			C184.8,175.8,183.3,185.1,183.3,185.1z"/>
	</defs>
	<use xlink:href="#XMLID_00000098213597517272585500000000645893828687679382_"  style="overflow:visible;fill:#91500E;"/>
	<clipPath id="XMLID_00000106112813982004528460000008742302234143091898_">
		<use xlink:href="#XMLID_00000098213597517272585500000000645893828687679382_"  style="overflow:visible;"/>
	</clipPath>
	<path style="clip-path:url(#XMLID_00000106112813982004528460000008742302234143091898_);fill:#7D350E;" d="M192.7,161.6
		c0,0-19.1,17.6-25.5,25.7c-6.3,8.1-22.8,24.2-22.8,24.2l18.6,21.3l8.1,10.5l44.3-34.2L192.7,161.6z"/>
</g>
<g>
	<defs>
		<path id="XMLID_00000010303754861839748870000015483378219498648744_" d="M280.8,180.5l34.3,37.9l-35.8,17.2l10.7,34.3
			c0,0,55.3-41.1,56.1-51.5c2.7-32.8-66.7-84.5-66.7-84.5L280.8,180.5z"/>
	</defs>
	<use xlink:href="#XMLID_00000010303754861839748870000015483378219498648744_"  style="overflow:visible;fill:#91500E;"/>
	<clipPath id="XMLID_00000055679262116909647000000016617594287711776176_">
		<use xlink:href="#XMLID_00000010303754861839748870000015483378219498648744_"  style="overflow:visible;"/>
	</clipPath>
	<path style="clip-path:url(#XMLID_00000055679262116909647000000016617594287711776176_);fill:#7D350E;" d="M283.9,164.9
		c0,0-6.3,23.3-12.7,31.4c-6.3,8.1-22.8,24.2-22.8,24.2l18.6,21.3l7.1,5.3l45.3-29L283.9,164.9z"/>
</g>
<path class="st43" d="M201.2,80.3c0,0,7.6-20.7,12.8-20.2s6.2,0,15.2-1.4s15.7-6.7,20.4-1s6.3,2.4,12.6,2.6c6.3,0.2,4.9,20,4.9,20
	s14.3-40.4-7.3-46.3c-5.7-1.6-14.2-6.9-25.9-6.9s-23.6,0-25.5,6.9s-12.4,9.7-12.8,16.4S201.2,80.3,201.2,80.3z"/>
<ellipse class="st27" cx="265.3" cy="84.1" rx="3.6" ry="8.6"/>
<ellipse transform="matrix(0.9448 -0.3275 0.3275 0.9448 -68.3743 105.5795)" class="st27" cx="279.3" cy="255.8" rx="22.9" ry="17.8"/>
<ellipse transform="matrix(0.4146 -0.91 0.91 0.4146 -125.8193 316.028)" class="st27" cx="182.7" cy="255.8" rx="17.8" ry="22.9"/>
<ellipse transform="matrix(0.9581 -0.2863 0.2863 0.9581 -15.997 61.1744)" class="st27" cx="201.2" cy="85.3" rx="3.6" ry="8.6"/>
<path class="st44" d="M224.5,78.1c0,1.6-3.8,3.3-5.4,3.3s-2.9-1.3-2.9-2.9s1.3-2.9,2.9-2.9S224.5,76.5,224.5,78.1z"/>
<path class="st44" d="M253.9,78.5c0,1.6-1.3,2.9-2.9,2.9s-5.1-1.8-5.1-3.4s3.5-2.4,5.1-2.4S253.9,76.9,253.9,78.5z"/>
<path class="st45" d="M241.6,108.9c0,0.8-4.1,3-8.5,3s-9.2-3.2-9.2-4s4.8,1.1,9.2,1.1S241.6,108.1,241.6,108.9z"/>
<g>
	<g>
		<defs>
			<path id="XMLID_00000129197290163604736320000002150115942167132854_" d="M561.6,414.8c0,15.2,4.8,33-28.9,32.9
				c-26.6-0.1-24.1-17.7-24.1-32.9c0-15.2,11.9-27.6,26.5-27.6c3.7,0,7.1,0.8,10.3,2.2c1,0.4-2.9,7.4-1.7,7.7c0,0,4.8-5,6.1-5.2
				C560.4,389.9,561.6,405.2,561.6,414.8z"/>
		</defs>
		<use xlink:href="#XMLID_00000129197290163604736320000002150115942167132854_"  style="overflow:visible;fill:#EE880E;"/>
		<clipPath id="XMLID_00000146473525925752759580000007699905454983946937_">
			<use xlink:href="#XMLID_00000129197290163604736320000002150115942167132854_"  style="overflow:visible;"/>
		</clipPath>
		
			<rect x="484.8" y="381.8" style="clip-path:url(#XMLID_00000146473525925752759580000007699905454983946937_);fill:#C4550D;" width="50.4" height="71.3"/>
	</g>
	<polygon class="st47" points="535.1,425.1 535.1,425.1 537.5,473.8 532.7,473.8 	"/>
</g>
<g>
	<g>
		<defs>
			<path id="XMLID_00000069379287708487553390000004323509330919157148_" d="M637.2,439.3c0,8.9,2.8,19.3-16.9,19.3
				c-15.6,0-14.1-10.3-14.1-19.3s6.9-16.1,15.5-16.1c2.1,0,4.2,0.5,6,1.3c0.6,0.3-1.7,4.4-1,4.5c0,0,2.8-2.9,3.6-3.1
				C636.5,424.7,637.2,433.7,637.2,439.3z"/>
		</defs>
		<use xlink:href="#XMLID_00000069379287708487553390000004323509330919157148_"  style="overflow:visible;fill:#EE880E;"/>
		<clipPath id="XMLID_00000088855180952673815360000011533757945057966984_">
			<use xlink:href="#XMLID_00000069379287708487553390000004323509330919157148_"  style="overflow:visible;"/>
		</clipPath>
		
			<rect x="592.4" y="420" style="clip-path:url(#XMLID_00000088855180952673815360000011533757945057966984_);fill:#C4550D;" width="29.5" height="41.7"/>
	</g>
	<polygon class="st47" points="621.8,445.3 621.8,445.3 623.2,473.8 620.4,473.8 	"/>
</g>
<g>
	<g>
		<defs>
			<path id="XMLID_00000044176672829609866460000002070977335865955749_" d="M784.9,445.6c0,6.5,2,14-11.8,14
				c-10.9,0-9.8-7.5-9.8-14c0-6.5,4.8-11.7,10.8-11.7c1.5,0,2.9,0.3,4.2,0.9c0.4,0.2-1.2,3.2-0.7,3.3c0,0,2-2.1,2.5-2.2
				C784.4,435.1,784.9,441.6,784.9,445.6z"/>
		</defs>
		<use xlink:href="#XMLID_00000044176672829609866460000002070977335865955749_"  style="overflow:visible;fill:#EE880E;"/>
		<clipPath id="XMLID_00000029006966432951130220000014483665614149351358_">
			<use xlink:href="#XMLID_00000044176672829609866460000002070977335865955749_"  style="overflow:visible;"/>
		</clipPath>
		
			<rect x="753.5" y="431.6" style="clip-path:url(#XMLID_00000029006966432951130220000014483665614149351358_);fill:#C4550D;" width="20.6" height="30.2"/>
	</g>
	<polygon class="st47" points="774,450 774,450 775,470.7 773.1,470.7 	"/>
</g>
<g>
	<rect x="1167.7" y="447.9" class="st50" width="3.5" height="50.4"/>
	<g>
		<defs>
			<path id="XMLID_00000174576428407161650120000014247542492338853777_" d="M1188.7,449c0,15.8,3.5,34.3-21,34.2
				c-19.4-0.1-17.5-18.3-17.5-34.2s8.6-28.7,19.3-28.7c2.7,0,5.2,0.8,7.5,2.3c0.7,0.4-2.1,7.7-1.2,8c0,0,3.5-5.2,4.4-5.4
				C1187.8,423.1,1188.7,439,1188.7,449z"/>
		</defs>
		<use xlink:href="#XMLID_00000174576428407161650120000014247542492338853777_"  style="overflow:visible;fill:#E18A1C;"/>
		<clipPath id="XMLID_00000007386944873375940060000008552732143927935917_">
			<use xlink:href="#XMLID_00000174576428407161650120000014247542492338853777_"  style="overflow:visible;"/>
		</clipPath>
		
			<rect x="1132.8" y="414.7" style="clip-path:url(#XMLID_00000007386944873375940060000008552732143927935917_);fill:#B35A1C;" width="36.7" height="74"/>
	</g>
</g>
<g>
	<rect x="1243.1" y="466.9" class="st50" width="1.9" height="27.4"/>
	<g>
		<defs>
			<path id="XMLID_00000022553901144846355550000018311862407416496028_" d="M1254.5,467.5c0,8.6,1.9,18.6-11.4,18.6
				c-10.5,0-9.5-10-9.5-18.6c0-8.6,4.7-15.6,10.5-15.6c1.4,0,2.8,0.4,4.1,1.2c0.4,0.2-1.1,4.2-0.7,4.4c0,0,1.9-2.8,2.4-2.9
				C1254,453.5,1254.5,462.1,1254.5,467.5z"/>
		</defs>
		<use xlink:href="#XMLID_00000022553901144846355550000018311862407416496028_"  style="overflow:visible;fill:#E18A1C;"/>
		<clipPath id="XMLID_00000129198446812505556550000006929698978499819911_">
			<use xlink:href="#XMLID_00000022553901144846355550000018311862407416496028_"  style="overflow:visible;"/>
		</clipPath>
		
			<rect x="1224.1" y="448.9" style="clip-path:url(#XMLID_00000129198446812505556550000006929698978499819911_);fill:#B35A1C;" width="19.9" height="40.2"/>
	</g>
</g>
</svg>
