<?xml version="1.0" encoding="utf-8"?>
<!-- Generator: Adobe Illustrator 26.0.3, SVG Export Plug-In . SVG Version: 6.00 Build 0)  -->
<svg version="1.1" id="Слой_1" xmlns="http://www.w3.org/2000/svg" xmlns:xlink="http://www.w3.org/1999/xlink" x="0px" y="0px"
	 viewBox="0 0 1920 600.7" style="enable-background:new 0 0 1920 600.7;" xml:space="preserve">
<style type="text/css">
	.st0{fill:url(#SVGID_1_);}
	.st1{fill:url(#SVGID_00000110442702796306481720000003594527752570384319_);}
	.st2{fill:url(#SVGID_00000169549339044581734780000012130686903465410210_);}
	.st3{fill:url(#SVGID_00000122701734599890073140000002170646267114904735_);}
	.st4{fill:#E97B00;}
	.st5{fill:#6A4100;}
	.st6{fill:#AE5209;}
	.st7{fill:#080000;}
	.st8{fill:#7D350E;}
	.st9{fill:#CF0A0A;}
	.st10{clip-path:url(#SVGID_00000165194417893375160740000018363098657158344889_);fill:#970707;}
	
		.st11{opacity:0.36;clip-path:url(#SVGID_00000107561830376931596280000017828225239363642280_);fill:#FFFFFF;enable-background:new    ;}
	.st12{fill:#41270F;}
	.st13{fill:#4F7E06;}
	.st14{fill:#D00000;}
	.st15{clip-path:url(#SVGID_00000137831343502759660940000009579625138456016016_);fill:#980000;}
	
		.st16{opacity:0.36;clip-path:url(#SVGID_00000150089818478861647280000010304735303689617041_);fill:#FFFFFF;enable-background:new    ;}
	
		.st17{opacity:0.36;clip-path:url(#SVGID_00000047059133881896937660000016524203959109845384_);fill:#FFFFFF;enable-background:new    ;}
	.st18{fill:#42260D;}
	.st19{fill:#5F9D00;}
	.st20{fill:#EE0000;}
	.st21{clip-path:url(#SVGID_00000173877377995854837490000002905531048737056141_);fill:#B60000;}
	
		.st22{opacity:0.36;clip-path:url(#SVGID_00000065060378161329853740000014732915515930277048_);fill:#FFFFFF;enable-background:new    ;}
	
		.st23{opacity:0.36;clip-path:url(#SVGID_00000014621414647311817030000007239601335859899816_);fill:#FFFFFF;enable-background:new    ;}
	.st24{fill:#603813;}
	.st25{clip-path:url(#XMLID_00000158728969185565821220000002949034868168350375_);fill:#384078;}
	.st26{clip-path:url(#XMLID_00000101813955810734749260000017526223369478533034_);fill:#7D350E;}
	.st27{clip-path:url(#XMLID_00000016049244858544067220000007168066772197495180_);fill:#FFD38C;}
	.st28{clip-path:url(#SVGID_00000116957443803521337230000014029048305798812313_);fill:#B60000;}
	
		.st29{opacity:0.36;clip-path:url(#SVGID_00000057855207333259119130000008517351791683327420_);fill:#FFFFFF;enable-background:new    ;}
	
		.st30{opacity:0.36;clip-path:url(#SVGID_00000072238140616105475820000003175635525461004438_);fill:#FFFFFF;enable-background:new    ;}
	.st31{clip-path:url(#SVGID_00000046324037906133244170000009451673943554344363_);fill:#B60000;}
	
		.st32{opacity:0.36;clip-path:url(#SVGID_00000052800200195830239360000014311130963565556126_);fill:#FFFFFF;enable-background:new    ;}
	
		.st33{opacity:0.36;clip-path:url(#SVGID_00000182511474697461071690000005868876798241626044_);fill:#FFFFFF;enable-background:new    ;}
	.st34{clip-path:url(#SVGID_00000042731739335618678090000016309353586869199243_);fill:#B60000;}
	
		.st35{opacity:0.36;clip-path:url(#SVGID_00000109030635032499734630000012888758309986393219_);fill:#FFFFFF;enable-background:new    ;}
	
		.st36{opacity:0.36;clip-path:url(#SVGID_00000025405100010301101340000016399934427574418366_);fill:#FFFFFF;enable-background:new    ;}
	.st37{clip-path:url(#SVGID_00000181790604294640184010000006408320054683103886_);fill:#B60000;}
	
		.st38{opacity:0.36;clip-path:url(#SVGID_00000064346320298818044740000017965380403546529700_);fill:#FFFFFF;enable-background:new    ;}
	
		.st39{opacity:0.36;clip-path:url(#SVGID_00000145750863065422071640000000019056797494195339_);fill:#FFFFFF;enable-background:new    ;}
	.st40{clip-path:url(#XMLID_00000129899388064149088790000001292051139279913884_);fill:#4D2500;}
	.st41{clip-path:url(#XMLID_00000007418304010809985590000010535472318270761398_);fill:#7D350E;}
	.st42{clip-path:url(#XMLID_00000183236009149862304770000012295832435727015300_);fill:#7D350E;}
	.st43{fill:#612600;}
	.st44{fill:#FFF1AA;}
	.st45{fill:#020100;}
	.st46{fill:#AD0000;}
	.st47{clip-path:url(#XMLID_00000056415371459643643020000007888525898797659276_);fill:#C4550D;}
	.st48{fill:#C25800;}
	.st49{clip-path:url(#XMLID_00000127024575689355502320000016705568458990930048_);fill:#C4550D;}
	.st50{clip-path:url(#XMLID_00000152964732599928984740000006016357902239243408_);fill:#C4550D;}
	.st51{fill:#7F440F;}
	.st52{clip-path:url(#XMLID_00000158750588645546445500000014863386758839001993_);fill:#B35A1C;}
	.st53{clip-path:url(#XMLID_00000049916355041892454650000009364525202442792605_);fill:#B35A1C;}
</style>
<g>
	<linearGradient id="SVGID_1_" gradientUnits="userSpaceOnUse" x1="855.2287" y1="453.7288" x2="1463.814" y2="453.7288">
		<stop  offset="0" style="stop-color:#FFD28F"/>
		<stop  offset="1" style="stop-color:#FCE791"/>
	</linearGradient>
	<path class="st0" d="M1415.8,468.9c-5.1-25.9-39.8-46-81.9-46c-11.9,0-23.3,1.6-33.5,4.5c0-41-49.4-74.2-110.4-74.2
		c-46.5,0-86.3,19.4-102.6,46.7c-24.2-9.5-54.1-15.1-86.5-15.1c-80.5,0-145.7,34.7-145.7,77.5s65.2,77.5,145.7,77.5
		c24.4,0,47.3-3.2,67.5-8.8c20.9,14,56.2,23.2,96.2,23.2c46.9,0,87.2-12.6,105.6-30.7c15,16.2,51,27.5,93,27.5
		c55.5,0,100.5-19.9,100.5-44.4C1463.8,490.7,1444.6,476.7,1415.8,468.9z"/>
	
		<linearGradient id="SVGID_00000072255867240590683060000009312915243779572617_" gradientUnits="userSpaceOnUse" x1="1218.135" y1="512.749" x2="1826.7202" y2="512.749">
		<stop  offset="0" style="stop-color:#FFD28F"/>
		<stop  offset="1" style="stop-color:#FCE791"/>
	</linearGradient>
	<path style="fill:url(#SVGID_00000072255867240590683060000009312915243779572617_);" d="M1778.7,527.9c-5.1-25.9-39.8-46-81.9-46
		c-11.9,0-23.3,1.6-33.5,4.5c0-41-49.4-74.2-110.4-74.2c-46.5,0-86.3,19.4-102.6,46.7c-24.2-9.5-54.1-15.1-86.5-15.1
		c-80.5,0-145.7,34.7-145.7,77.5s65.2,77.5,145.7,77.5c24.4,0,47.3-3.2,67.5-8.8c20.9,14,56.2,23.2,96.2,23.2
		c46.9,0,87.2-12.6,105.6-30.7c15,16.2,51,27.5,93,27.5c55.5,0,100.5-19.9,100.5-44.4C1826.7,549.7,1807.5,535.7,1778.7,527.9z"/>
	
		<linearGradient id="SVGID_00000178887358762049028840000012998172436443656086_" gradientUnits="userSpaceOnUse" x1="773.4301" y1="536.7271" x2="1106.4545" y2="70.816">
		<stop  offset="0" style="stop-color:#FFD28F"/>
		<stop  offset="1" style="stop-color:#FCE791"/>
	</linearGradient>
	<path style="fill:url(#SVGID_00000178887358762049028840000012998172436443656086_);" d="M1096.4,408.9
		c-4.8-31.5-37.4-55.9-77-55.9c-11.2,0-21.9,2-31.5,5.5c0-49.9-46.5-90.3-103.9-90.3c-43.8,0-81.2,23.5-96.5,56.8
		c-22.8-11.6-50.9-18.4-81.4-18.4c-75.7,0-137.1,42.2-137.1,94.3s61.4,94.3,137.1,94.3c22.9,0,44.5-3.9,63.5-10.7
		c19.6,17,52.9,28.2,90.6,28.2c44.1,0,82.1-15.3,99.3-37.3c14.1,19.6,48,33.5,87.6,33.5c52.3,0,94.6-24.2,94.6-53.9
		C1141.6,435.5,1123.5,418.4,1096.4,408.9z"/>
	
		<linearGradient id="SVGID_00000139284178844314239300000011277458074114229397_" gradientUnits="userSpaceOnUse" x1="-65.681" y1="394.8559" x2="998.2977" y2="394.8559">
		<stop  offset="0" style="stop-color:#FFD28F"/>
		<stop  offset="1" style="stop-color:#FCE791"/>
	</linearGradient>
	<path style="fill:url(#SVGID_00000139284178844314239300000011277458074114229397_);" d="M914.4,415.8
		c-8.9-35.7-69.5-63.4-143.1-63.4c-20.9,0-40.7,2.2-58.6,6.3c0-56.5-86.5-102.4-193.1-102.4c-81.3,0-150.9,26.7-179.3,64.5
		c-42.3-13.1-94.6-20.9-151.3-20.9c-140.7,0-254.7,47.9-254.7,106.9S48.4,513.7,189,513.7c42.6,0,82.7-4.4,118-12.2
		c36.5,19.3,98.2,32,168.3,32c82,0,152.5-17.4,184.5-42.4c26.3,22.3,89.2,38,162.7,38c97.1,0,175.8-27.4,175.8-61.2
		C998.3,445.9,964.7,426.5,914.4,415.8z"/>
</g>
<path class="st4" d="M1920,471.2c0,0-661.4,29.8-881.3,15.5C331.6,440.8,0,462.7,0,462.7v138h1920V471.2z"/>
<path class="st5" d="M1411.8,550.4c-1.5-8-11.8-14.2-24.4-14.2c-3.6,0-6.9,0.5-10,1.4c0-12.7-14.7-23-32.9-23
	c-13.9,0-25.7,6-30.5,14.5c-7.2-2.9-16.1-4.7-25.8-4.7c-24,0-43.4,10.7-43.4,24c0,13.3,181.2,21.3,181.2,13.7
	C1426.1,557.1,1420.4,552.8,1411.8,550.4z"/>
<path class="st5" d="M1988.1,556.1c-2-17.1-15.9-30.3-32.7-30.3c-4.8,0-9.3,1.1-13.4,3c0-27.1-19.7-49-44.1-49
	c-18.6,0-34.4,12.8-40.9,30.9c-9.7-6.3-21.6-10-34.5-10c-32.1,0-58.2,22.9-58.2,51.2s242.9,45.5,242.9,29.3
	C2007.3,570.5,1999.6,561.2,1988.1,556.1z"/>
<path class="st5" d="M125.2,502.3c-2-17.1-15.9-30.3-32.7-30.3c-4.8,0-9.3,1.1-13.4,3c0-27.1-19.7-49-44.1-49
	c-18.6,0-34.4,12.8-40.9,30.9c-9.7-6.3-21.6-10-34.5-10c-32.1,0-58.2,22.9-58.2,51.2c0,28.3,242.9,45.5,242.9,29.3
	C144.4,516.7,136.7,507.4,125.2,502.3z"/>
<path class="st6" d="M1971.9,588.7c-116.9,51.7-963.5,63.2-963.5,63.2s-1163.9-14.5-1165.8-65.5c-1.9-50.9-312-76.2,566-88.6
	c118.6-1.7,409.3,17.7,711.4,35.6C1676.5,566.5,2141.4,513.7,1971.9,588.7z"/>
<ellipse transform="matrix(0.9736 -0.2284 0.2284 0.9736 -124.5316 50.8273)" class="st7" cx="157.3" cy="563.4" rx="43.9" ry="23.9"/>
<ellipse transform="matrix(0.2156 -0.9765 0.9765 0.2156 -319.0157 713.6852)" class="st7" cx="284.7" cy="555.4" rx="23.9" ry="43.9"/>
<polygon class="st8" points="219.6,111.9 224.5,130.9 245.9,130.9 249.9,111.9 "/>
<g>
	<g>
		<g>
			<path id="XMLID_00000085950885036735414740000015742055956580783289_" class="st9" d="M969.2,512.6c0,0-11.2-9-20.8-8.6
				c-9.6,0.4-36.9-0.9-41.4,46.2c-4.5,47,26.2,55,29.9,55c2.8,0,8.4,0.1,11,0.7c3.5,0.6,8.6,3.8,12,4.8c13.7,3.9,42.7-0.6,53.3-47.1
				c10.6-46.5-26-50.3-26-50.3L969.2,512.6z"/>
		</g>
		<g>
			<defs>
				<path id="SVGID_00000132053900876350170080000010433548486131667381_" d="M969.2,512.6c0,0-11.2-9-20.8-8.6
					c-9.6,0.4-36.9-0.9-41.4,46.2c-4.5,47,26.2,55,29.9,55c2.8,0,8.4,0.1,11,0.7c3.5,0.6,8.6,3.8,12,4.8
					c13.7,3.9,42.7-0.6,53.3-47.1c10.6-46.5-26-50.3-26-50.3L969.2,512.6z"/>
			</defs>
			<clipPath id="SVGID_00000096031064551894928300000006701213388988474024_">
				<use xlink:href="#SVGID_00000132053900876350170080000010433548486131667381_"  style="overflow:visible;"/>
			</clipPath>
			<path style="clip-path:url(#SVGID_00000096031064551894928300000006701213388988474024_);fill:#970707;" d="M958.3,503.9
				c0,0,1.9,10.8,5.2,13.1c3.3,2.2,8.1-0.8,10.9-1.2c2.7-0.4,6.4-1.6,12.6,0.2c6.2,1.8,21.5,10.4,22.3,21.7
				c0.8,11.3-8.6,42.1-15.6,49.3c-7,7.4-34.8,11.9-42,11.9c-7.3,0-35.2-6.3-35.2-6.3l-14.3,27.8l132.1,6.5l18.7-116.6L958.3,503.9z"
				/>
		</g>
		<g>
			<defs>
				<path id="SVGID_00000155839393421461065500000015153771725243307136_" d="M969.2,512.6c0,0-11.2-9-20.8-8.6
					c-9.6,0.4-36.9-0.9-41.4,46.2c-4.5,47,26.2,55,29.9,55c2.8,0,8.4,0.1,11,0.7c3.5,0.6,8.6,3.8,12,4.8
					c13.7,3.9,42.7-0.6,53.3-47.1c10.6-46.5-26-50.3-26-50.3L969.2,512.6z"/>
			</defs>
			<clipPath id="SVGID_00000172398586404654658660000005926207659413856946_">
				<use xlink:href="#SVGID_00000155839393421461065500000015153771725243307136_"  style="overflow:visible;"/>
			</clipPath>
			
				<path style="opacity:0.36;clip-path:url(#SVGID_00000172398586404654658660000005926207659413856946_);fill:#FFFFFF;enable-background:new    ;" d="
				M938.6,529.7c-4.2,6.6-9,17.4-12.8,14.9s-5.4-17.3-1.1-23.9c4.2-6.6,10.8-10,14.7-7.5C943.2,515.8,942.9,523.2,938.6,529.7z"/>
		</g>
	</g>
	<path class="st12" d="M961.7,483.2c0.1,0.4,1.6,2.4,2.8,6.2c1.2,3.4,2.9,25,2.9,25l1.8,0.4c0,0-2.5-17.5-3-25.8
		C965.8,480.6,961.3,481.1,961.7,483.2z"/>
	<path class="st13" d="M992.7,483.1c0,0-6.5,10-10.4,11c-3.8,1-15.1,5.7-15.1,5.7s5.8-14.9,10-17.8
		C981.3,479.2,992.7,483.1,992.7,483.1z"/>
</g>
<g>
	<g>
		<g>
			<path id="XMLID_00000052806653593771889620000013472412435152253315_" class="st14" d="M716,519.4c0,0-9.2-3-15.2-0.4
				c-6,2.6-23.5,8.4-15,39.1c8.5,30.8,28.5,31.1,30.9,30.2c1.7-0.6,5.5-3.7,7.4-4.1c2.4-0.4,7.4-0.5,9.8-0.7
				c9.6-0.8,26.8-10.7,22.3-42.6s-28.6-25.5-28.6-25.5L716,519.4z"/>
		</g>
		<g>
			<defs>
				<path id="SVGID_00000041279603579914857010000011867247757578997178_" d="M716,519.4c0,0-9.2-3-15.2-0.4
					c-6,2.6-23.5,8.4-15,39.1c8.5,30.8,28.5,31.1,30.9,30.2c1.7-0.6,5.5-3.7,7.4-4.1c2.4-0.4,7.4-0.5,9.8-0.7
					c9.6-0.8,26.8-10.7,22.3-42.6s-28.6-25.5-28.6-25.5L716,519.4z"/>
			</defs>
			<clipPath id="SVGID_00000011709557321505249720000010768239483734952622_">
				<use xlink:href="#SVGID_00000041279603579914857010000011867247757578997178_"  style="overflow:visible;"/>
			</clipPath>
			<path style="clip-path:url(#SVGID_00000011709557321505249720000010768239483734952622_);fill:#980000;" d="M707.1,516.6
				c0,0,3.8,6.4,6.4,7c2.6,0.6,4.9-2.5,6.6-3.4c1.6-0.9,3.7-2.5,8-2.9c4.3-0.3,16.1,1.3,19.3,8.3c3.2,6.9,4.7,28.6,2.1,34.9
				c-2.6,6.3-19.1,15.9-23.7,17.6c-4.6,1.8-23.7,4.5-23.7,4.5l-2.4,21.1l85-27.8l-16.3-78.2L707.1,516.6z"/>
		</g>
		<g>
			<defs>
				<path id="SVGID_00000165196036477797003530000014462828584464333233_" d="M716,519.4c0,0-9.2-3-15.2-0.4
					c-6,2.6-23.5,8.4-15,39.1c8.5,30.8,28.5,31.1,30.9,30.2c1.7-0.6,5.5-3.7,7.4-4.1c2.4-0.4,7.4-0.5,9.8-0.7
					c9.6-0.8,26.8-10.7,22.3-42.6s-28.6-25.5-28.6-25.5L716,519.4z"/>
			</defs>
			<clipPath id="SVGID_00000170996168677369600130000000468886996331086723_">
				<use xlink:href="#SVGID_00000165196036477797003530000014462828584464333233_"  style="overflow:visible;"/>
			</clipPath>
			
				<path style="opacity:0.36;clip-path:url(#SVGID_00000170996168677369600130000000468886996331086723_);fill:#FFFFFF;enable-background:new    ;" d="
				M700,541.1c-1.5,3.6-2.9,9.2-4.8,8.4c-1.9-0.8-3.7-7.7-2.2-11.3s4.2-5.8,6.2-5C701.1,533.9,701.5,537.5,700,541.1z"/>
		</g>
		<g>
			<defs>
				<path id="SVGID_00000027581237204776198260000005064706768502243201_" d="M716,519.4c0,0-9.2-3-15.2-0.4
					c-6,2.6-23.5,8.4-15,39.1c8.5,30.8,28.5,31.1,30.9,30.2c1.7-0.6,5.5-3.7,7.4-4.1c2.4-0.4,7.4-0.5,9.8-0.7
					c9.6-0.8,26.8-10.7,22.3-42.6s-28.6-25.5-28.6-25.5L716,519.4z"/>
			</defs>
			<clipPath id="SVGID_00000022542920228940592220000007364544763633858457_">
				<use xlink:href="#SVGID_00000027581237204776198260000005064706768502243201_"  style="overflow:visible;"/>
			</clipPath>
			
				<path style="opacity:0.36;clip-path:url(#SVGID_00000022542920228940592220000007364544763633858457_);fill:#FFFFFF;enable-background:new    ;" d="
				M699.5,556c-0.6,0.1-1.4,0.8-1.6-0.6c-0.2-1.4,0.3-4.4,0.8-4.5c0.6-0.1,1.2,1,1.4,2.4C700.4,554.7,700.1,555.9,699.5,556z"/>
		</g>
	</g>
	<path class="st18" d="M726.7,499.6c-0.2,0.3-1.9,1.6-3.7,4.2c-1.6,2.3-6.5,16.9-6.5,16.9l-1.9,0.2c0,0,5-11.8,6.7-17.5
		C723,497.7,727.5,498.1,726.7,499.6z"/>
	<path class="st19" d="M742,499.9c0,0-7.1-1-10,0.9c-3,1.9-12.1,6.6-12.1,6.6s7.8,3.9,11.4,2.8S742,499.9,742,499.9z"/>
</g>
<g>
	<g>
		<g>
			<path id="XMLID_00000091017690886273474730000004683794767781391537_" class="st20" d="M1638,355.6c0,0-43.1-31.2-79.9-29.5
				c-36.8,1.7-141.2-2-156.2,162.1s102.5,191.1,116.9,191.1c10.5,0,31.9,0.3,42.3,2.1c13.6,2.2,32.9,13.1,46.2,16.5
				c52.4,13.3,163.1-3.4,201.4-165.8c38.3-162.4-102.1-174.9-102.1-174.9L1638,355.6z"/>
		</g>
		<g>
			<defs>
				<path id="SVGID_00000103982315068852493290000003543600431365670841_" d="M1638,355.6c0,0-43.1-31.2-79.9-29.5
					c-36.8,1.7-141.2-2-156.2,162.1s102.5,191.1,116.9,191.1c10.5,0,31.9,0.3,42.3,2.1c13.6,2.2,32.9,13.1,46.2,16.5
					c52.4,13.3,163.1-3.4,201.4-165.8c38.3-162.4-102.1-174.9-102.1-174.9L1638,355.6z"/>
			</defs>
			<clipPath id="SVGID_00000132790566627620674470000015516370619669909634_">
				<use xlink:href="#SVGID_00000103982315068852493290000003543600431365670841_"  style="overflow:visible;"/>
			</clipPath>
			<path style="clip-path:url(#SVGID_00000132790566627620674470000015516370619669909634_);fill:#B60000;" d="M1595.8,325.7
				c0,0,7.9,37.9,20.6,45.3c12.7,7.5,31.2-3.2,41.5-4.6c10.3-1.4,24.6-5.7,48.3,0.6c23.7,6.1,82.7,35.5,86.1,74.8
				c3.5,39.4-31,146.8-57.2,172.7s-132.3,42.3-160.1,42.5s-134.7-21.2-134.7-21.2l-53.8,97.7l505.3,19L1958,345L1595.8,325.7z"/>
		</g>
		<g>
			<defs>
				<path id="SVGID_00000143617091233426872250000008374826060407182259_" d="M1638,355.6c0,0-43.1-31.2-79.9-29.5
					c-36.8,1.7-141.2-2-156.2,162.1s102.5,191.1,116.9,191.1c10.5,0,31.9,0.3,42.3,2.1c13.6,2.2,32.9,13.1,46.2,16.5
					c52.4,13.3,163.1-3.4,201.4-165.8c38.3-162.4-102.1-174.9-102.1-174.9L1638,355.6z"/>
			</defs>
			<clipPath id="SVGID_00000002361007378263787440000007192936159254048945_">
				<use xlink:href="#SVGID_00000143617091233426872250000008374826060407182259_"  style="overflow:visible;"/>
			</clipPath>
			
				<path style="opacity:0.36;clip-path:url(#SVGID_00000002361007378263787440000007192936159254048945_);fill:#FFFFFF;enable-background:new    ;" d="
				M1510.6,431.3c-14.9,14.7-33.1,39.3-41.7,32c-8.7-7.3-4.5-43.9,10.4-58.5c14.9-14.7,34-20.6,42.5-13.3
				C1530.5,398.8,1525.4,416.6,1510.6,431.3z"/>
		</g>
		<g>
			<defs>
				<path id="SVGID_00000132084786596463877680000017301758662750104767_" d="M1638,355.6c0,0-43.1-31.2-79.9-29.5
					c-36.8,1.7-141.2-2-156.2,162.1s102.5,191.1,116.9,191.1c10.5,0,31.9,0.3,42.3,2.1c13.6,2.2,32.9,13.1,46.2,16.5
					c52.4,13.3,163.1-3.4,201.4-165.8c38.3-162.4-102.1-174.9-102.1-174.9L1638,355.6z"/>
			</defs>
			<clipPath id="SVGID_00000174562190362534268560000011420105942100167062_">
				<use xlink:href="#SVGID_00000132084786596463877680000017301758662750104767_"  style="overflow:visible;"/>
			</clipPath>
			
				<path style="opacity:0.36;clip-path:url(#SVGID_00000174562190362534268560000011420105942100167062_);fill:#FFFFFF;enable-background:new    ;" d="
				M1478.7,502.5c-3.2-0.7-8.8,1.4-7.2-5.8s9.9-20.8,13.3-20.2c3.2,0.7,4.6,7.1,2.9,14.1C1486.1,497.9,1482.1,503.2,1478.7,502.5z"
				/>
		</g>
	</g>
	<path class="st24" d="M1733.4,278.7c-1.5,1.3-13.5,4.4-27.9,13.4c-13.1,8.2-67.7,70.2-67.7,70.2l-10.4-2.2c0,0,49.8-48.1,69.9-72.6
		C1717.6,263,1740.5,273,1733.4,278.7z"/>
	<path class="st19" d="M1573.1,219.2c0,0,12.8,42.8,30.9,53.3c18,10.5,66.9,46.5,66.9,46.5s1.3-56.3-14.5-72.9
		C1640.8,229.3,1573.1,219.2,1573.1,219.2z"/>
</g>
<g>
	<defs>
		<polygon id="XMLID_00000161624209840765887400000016240937727154374330_" points="144.4,555.4 200,555.4 242.5,319 240.6,546.8 
			292.9,551.4 285.5,288.6 194.7,280.2 		"/>
	</defs>
	<use xlink:href="#XMLID_00000161624209840765887400000016240937727154374330_"  style="overflow:visible;fill:#5859B4;"/>
	<clipPath id="XMLID_00000128457846873167320000000003815001348086829238_">
		<use xlink:href="#XMLID_00000161624209840765887400000016240937727154374330_"  style="overflow:visible;"/>
	</clipPath>
	<polygon style="clip-path:url(#XMLID_00000128457846873167320000000003815001348086829238_);fill:#384078;" points="229.4,280.2 
		151.2,566.5 97,552.2 164.7,263.6 	"/>
	<polygon style="clip-path:url(#XMLID_00000128457846873167320000000003815001348086829238_);fill:#384078;" points="241.3,311.1 
		273.9,606.1 218.3,612.7 232.8,425.1 	"/>
</g>
<g>
	<defs>
		<path id="XMLID_00000003065350105111695220000000344922764282713481_" d="M187.9,140.9c-11.7,14.9-6.7,31-2.2,77
			c5.9,42.8,6.4,85.9,6.4,85.9l93.3-15.2c0,0-8.4-39.3-6.2-76c0.6-10.1,3.3-21,4.9-30.1c3.4-18.9,8.4-31.3,5.3-37.4
			c-9.7-19.4-31.2-16.3-54.2-18.9C213.6,123.8,191.1,132.4,187.9,140.9z"/>
	</defs>
	<use xlink:href="#XMLID_00000003065350105111695220000000344922764282713481_"  style="overflow:visible;fill:#91500E;"/>
	<clipPath id="XMLID_00000103232327820498027180000009782824509336694182_">
		<use xlink:href="#XMLID_00000003065350105111695220000000344922764282713481_"  style="overflow:visible;"/>
	</clipPath>
	<polygon style="clip-path:url(#XMLID_00000103232327820498027180000009782824509336694182_);fill:#7D350E;" points="192.3,181.1 
		221.8,251.8 220.5,319.9 181,316.5 178.6,188.4 185.6,168.3 	"/>
</g>
<g>
	<defs>
		<path id="XMLID_00000158735839473163135540000003718315981233473723_" d="M268.5,72c-3.9,25-9.3,51.8-33.7,51.8
			c-23.2,0-28.9-23.2-34.8-48.1C194.3,51.6,211.6,34,234.8,34S271.7,51.6,268.5,72z"/>
	</defs>
	<use xlink:href="#XMLID_00000158735839473163135540000003718315981233473723_"  style="overflow:visible;fill:#FFF1AA;"/>
	<clipPath id="XMLID_00000166656402964235033160000014239475484759381670_">
		<use xlink:href="#XMLID_00000158735839473163135540000003718315981233473723_"  style="overflow:visible;"/>
	</clipPath>
	<path style="clip-path:url(#XMLID_00000166656402964235033160000014239475484759381670_);fill:#FFD38C;" d="M190.7,51.8l25.5,4.3
		c0,0-9,19.3-8.3,28c0.7,8.7,4.8,20.2,11.7,27.8c6.9,7.6,28.6,8.4,28.6,8.4l-34.2,29.5l-42.5-60.2L190.7,51.8z"/>
</g>
<g>
	<g>
		<g>
			<path id="XMLID_00000089556869162356274900000007607295113948972178_" class="st20" d="M186,215.1c0,0-5.5,0.2-8.2,2.7
				s-10.9,9-0.5,23.6c10.4,14.6,21.3,9.2,22.4,8.3c0.8-0.7,2.5-2,3.4-2.6c1.2-0.7,3.4-1,4.7-1.6c4.9-2.3,12.2-10.8,3.7-26.8
				s-20.1-7.9-20.1-7.9L186,215.1z"/>
		</g>
		<g>
			<defs>
				<path id="SVGID_00000113313903009782495060000014138450986953983678_" d="M186,215.1c0,0-5.5,0.2-8.2,2.7s-10.9,9-0.5,23.6
					c10.4,14.6,21.3,9.2,22.4,8.3c0.8-0.7,2.5-2,3.4-2.6c1.2-0.7,3.4-1,4.7-1.6c4.9-2.3,12.2-10.8,3.7-26.8s-20.1-7.9-20.1-7.9
					L186,215.1z"/>
			</defs>
			<clipPath id="SVGID_00000088845361639033797450000004679371130656199074_">
				<use xlink:href="#SVGID_00000113313903009782495060000014138450986953983678_"  style="overflow:visible;"/>
			</clipPath>
			<path style="clip-path:url(#SVGID_00000088845361639033797450000004679371130656199074_);fill:#B60000;" d="M180.7,215.4
				c0,0,3.3,2.6,4.8,2.4c1.5-0.2,2.1-2.3,2.8-3.1s1.5-2.1,3.7-3.1s8.8-2.4,11.8,0.6s8,14.2,7.8,18s-7.1,12.1-9.2,13.9
				s-11.8,7-11.8,7l2.8,11.6l39.9-31.1l-23.6-38.1L180.7,215.4z"/>
		</g>
		<g>
			<defs>
				<path id="SVGID_00000044169610648641768900000007855989336416918915_" d="M186,215.1c0,0-5.5,0.2-8.2,2.7s-10.9,9-0.5,23.6
					c10.4,14.6,21.3,9.2,22.4,8.3c0.8-0.7,2.5-2,3.4-2.6c1.2-0.7,3.4-1,4.7-1.6c4.9-2.3,12.2-10.8,3.7-26.8s-20.1-7.9-20.1-7.9
					L186,215.1z"/>
			</defs>
			<clipPath id="SVGID_00000133498235471255726810000012864997397730301849_">
				<use xlink:href="#SVGID_00000044169610648641768900000007855989336416918915_"  style="overflow:visible;"/>
			</clipPath>
			
				<path style="opacity:0.36;clip-path:url(#SVGID_00000133498235471255726810000012864997397730301849_);fill:#FFFFFF;enable-background:new    ;" d="
				M181.6,229.6c-0.1,2.2,0.2,5.4-0.9,5.4c-1.2,0-3.4-3.3-3.3-5.5c0.1-2.2,1.1-3.9,2.3-3.9C180.8,225.6,181.7,227.5,181.6,229.6z"/>
		</g>
		<g>
			<defs>
				<path id="SVGID_00000110472718465749499650000013906611448554054307_" d="M186,215.1c0,0-5.5,0.2-8.2,2.7s-10.9,9-0.5,23.6
					c10.4,14.6,21.3,9.2,22.4,8.3c0.8-0.7,2.5-2,3.4-2.6c1.2-0.7,3.4-1,4.7-1.6c4.9-2.3,12.2-10.8,3.7-26.8s-20.1-7.9-20.1-7.9
					L186,215.1z"/>
			</defs>
			<clipPath id="SVGID_00000000906469508508650620000017417283960479893659_">
				<use xlink:href="#SVGID_00000110472718465749499650000013906611448554054307_"  style="overflow:visible;"/>
			</clipPath>
			
				<path style="opacity:0.36;clip-path:url(#SVGID_00000000906469508508650620000017417283960479893659_);fill:#FFFFFF;enable-background:new    ;" d="
				M184.1,237.6c-0.3,0.2-0.6,0.7-1,0s-0.7-2.4-0.4-2.5c0.3-0.2,0.8,0.3,1.2,1C184.4,236.7,184.4,237.4,184.1,237.6z"/>
		</g>
	</g>
	<path class="st24" d="M187.9,202.5c0,0.2-0.7,1.2-1.2,2.9c-0.4,1.5-0.2,10.2-0.2,10.2l-0.9,0.5c0,0,0.4-7.2,0.2-10.6
		C185.5,202.3,188,201.6,187.9,202.5z"/>
	<path class="st19" d="M171.4,208c0,0,4,2.7,6.1,2.4s8.4-0.5,8.4-0.5s-3.9-4.8-6.2-5.1C177.3,204.4,171.4,208,171.4,208z"/>
</g>
<g>
	<g>
		<g>
			<path id="XMLID_00000167377654470680048570000015414642560894421164_" class="st20" d="M284.8,223.2c0,0-1.7-3.6-4.1-4.7
				s-9.1-4.8-15.9,6.3c-6.8,11-0.1,16.8,0.8,17.3c0.7,0.3,2.1,1.1,2.7,1.5c0.8,0.6,1.7,2,2.4,2.7c2.9,2.6,10.7,5.1,19-5.1
				c8.3-10.2-0.4-15.6-0.4-15.6L284.8,223.2z"/>
		</g>
		<g>
			<defs>
				<path id="SVGID_00000020368892865556051990000006069206534750632099_" d="M284.8,223.2c0,0-1.7-3.6-4.1-4.7s-9.1-4.8-15.9,6.3
					c-6.8,11-0.1,16.8,0.8,17.3c0.7,0.3,2.1,1.1,2.7,1.5c0.8,0.6,1.7,2,2.4,2.7c2.9,2.6,10.7,5.1,19-5.1c8.3-10.2-0.4-15.6-0.4-15.6
					L284.8,223.2z"/>
			</defs>
			<clipPath id="SVGID_00000161627558676555087660000005816988262161051581_">
				<use xlink:href="#SVGID_00000020368892865556051990000006069206534750632099_"  style="overflow:visible;"/>
			</clipPath>
			<path style="clip-path:url(#SVGID_00000161627558676555087660000005816988262161051581_);fill:#B60000;" d="M283.1,219.8
				c0,0-0.8,2.9-0.3,3.9c0.6,0.9,2.1,0.8,2.9,1c0.7,0.2,1.8,0.4,3.1,1.6c1.3,1.2,4.1,5.2,2.9,8.1c-1.2,2.9-7.2,9.3-9.9,10.3
				s-10.1-1.4-11.9-2.3c-1.8-0.9-8-5.9-8-5.9l-7,5.1l32.1,17.9l18.8-26.5L283.1,219.8z"/>
		</g>
		<g>
			<defs>
				<path id="SVGID_00000179620436969089047570000017955126484470188449_" d="M284.8,223.2c0,0-1.7-3.6-4.1-4.7s-9.1-4.8-15.9,6.3
					c-6.8,11-0.1,16.8,0.8,17.3c0.7,0.3,2.1,1.1,2.7,1.5c0.8,0.6,1.7,2,2.4,2.7c2.9,2.6,10.7,5.1,19-5.1c8.3-10.2-0.4-15.6-0.4-15.6
					L284.8,223.2z"/>
			</defs>
			<clipPath id="SVGID_00000093879108965748632110000010336009829614024346_">
				<use xlink:href="#SVGID_00000179620436969089047570000017955126484470188449_"  style="overflow:visible;"/>
			</clipPath>
			
				<path style="opacity:0.36;clip-path:url(#SVGID_00000093879108965748632110000010336009829614024346_);fill:#FFFFFF;enable-background:new    ;" d="
				M273.8,224.4c-1.5,0.5-3.5,1.7-3.9,0.9c-0.3-0.8,1.3-3.2,2.8-3.8c1.5-0.5,2.9-0.3,3.2,0.5C276.2,222.8,275.3,223.9,273.8,224.4z"
				/>
		</g>
		<g>
			<defs>
				<path id="SVGID_00000047756092615360955760000012422815968599128233_" d="M284.8,223.2c0,0-1.7-3.6-4.1-4.7s-9.1-4.8-15.9,6.3
					c-6.8,11-0.1,16.8,0.8,17.3c0.7,0.3,2.1,1.1,2.7,1.5c0.8,0.6,1.7,2,2.4,2.7c2.9,2.6,10.7,5.1,19-5.1c8.3-10.2-0.4-15.6-0.4-15.6
					L284.8,223.2z"/>
			</defs>
			<clipPath id="SVGID_00000133489045886476641890000018201317097040996538_">
				<use xlink:href="#SVGID_00000047756092615360955760000012422815968599128233_"  style="overflow:visible;"/>
			</clipPath>
			
				<path style="opacity:0.36;clip-path:url(#SVGID_00000133489045886476641890000018201317097040996538_);fill:#FFFFFF;enable-background:new    ;" d="
				M269.2,228.4c-0.2-0.2-0.6-0.2-0.3-0.6c0.4-0.4,1.4-1.1,1.6-1c0.2,0.2,0,0.6-0.3,1.1C269.8,228.3,269.4,228.5,269.2,228.4z"/>
		</g>
	</g>
	<path class="st24" d="M293.7,221c-0.1,0-1-0.1-2.3,0c-1.1,0.1-6.9,2.7-6.9,2.7l-0.6-0.5c0,0,4.9-1.8,7.1-2.8S294.4,220.8,293.7,221
		z"/>
	<path class="st19" d="M285.4,211.5c0,0-0.7,3.4,0.1,4.8c0.8,1.3,2.7,5.5,2.7,5.5s2.1-3.9,1.7-5.6
		C289.4,214.5,285.4,211.5,285.4,211.5z"/>
</g>
<g>
	<g>
		<g>
			<path id="XMLID_00000065058262433505537120000018382767791355202441_" class="st20" d="M229.9,239.3c0,0,3.4-2,4.3-4.5
				s3.9-9.5-7.7-15.3s-16.7,1.4-17.1,2.3c-0.3,0.7-0.9,2.1-1.3,2.8c-0.5,0.9-1.8,1.8-2.4,2.6c-2.4,3.2-4.1,11.1,6.7,18.5
				c10.9,7.3,15.5-1.8,15.5-1.8L229.9,239.3z"/>
		</g>
		<g>
			<defs>
				<path id="SVGID_00000038393256047185270620000017381505002894038973_" d="M229.9,239.3c0,0,3.4-2,4.3-4.5s3.9-9.5-7.7-15.3
					s-16.7,1.4-17.1,2.3c-0.3,0.7-0.9,2.1-1.3,2.8c-0.5,0.9-1.8,1.8-2.4,2.6c-2.4,3.2-4.1,11.1,6.7,18.5c10.9,7.3,15.5-1.8,15.5-1.8
					L229.9,239.3z"/>
			</defs>
			<clipPath id="SVGID_00000105426483429920986590000009745689416564852648_">
				<use xlink:href="#SVGID_00000038393256047185270620000017381505002894038973_"  style="overflow:visible;"/>
			</clipPath>
			<path style="clip-path:url(#SVGID_00000105426483429920986590000009745689416564852648_);fill:#B60000;" d="M233.2,237.3
				c0,0-3-0.6-3.9,0.1s-0.6,2.2-0.8,2.9s-0.2,1.8-1.3,3.2s-4.8,4.6-7.8,3.6s-9.9-6.4-11.1-8.9s0.4-10.2,1.2-12.1
				c0.7-1.9,5.2-8.5,5.2-8.5l-5.7-6.5l-15,33.8l28.1,16.4L233.2,237.3z"/>
		</g>
		<g>
			<defs>
				<path id="SVGID_00000018922445638146597770000008370059380288814989_" d="M229.9,239.3c0,0,3.4-2,4.3-4.5s3.9-9.5-7.7-15.3
					s-16.7,1.4-17.1,2.3c-0.3,0.7-0.9,2.1-1.3,2.8c-0.5,0.9-1.8,1.8-2.4,2.6c-2.4,3.2-4.1,11.1,6.7,18.5c10.9,7.3,15.5-1.8,15.5-1.8
					L229.9,239.3z"/>
			</defs>
			<clipPath id="SVGID_00000008871676912635829720000014394417667113519770_">
				<use xlink:href="#SVGID_00000018922445638146597770000008370059380288814989_"  style="overflow:visible;"/>
			</clipPath>
			
				<path style="opacity:0.36;clip-path:url(#SVGID_00000008871676912635829720000014394417667113519770_);fill:#FFFFFF;enable-background:new    ;" d="
				M227.7,228.5c-0.7-1.4-2-3.4-1.2-3.8c0.8-0.4,3.3,1,4,2.4s0.6,2.9-0.2,3.3C229.6,230.7,228.4,229.9,227.7,228.5z"/>
		</g>
		<g>
			<defs>
				<path id="SVGID_00000116194893664447008870000013417717930635487115_" d="M229.9,239.3c0,0,3.4-2,4.3-4.5s3.9-9.5-7.7-15.3
					s-16.7,1.4-17.1,2.3c-0.3,0.7-0.9,2.1-1.3,2.8c-0.5,0.9-1.8,1.8-2.4,2.6c-2.4,3.2-4.1,11.1,6.7,18.5c10.9,7.3,15.5-1.8,15.5-1.8
					L229.9,239.3z"/>
			</defs>
			<clipPath id="SVGID_00000153682892153905021240000011040878222793883271_">
				<use xlink:href="#SVGID_00000116194893664447008870000013417717930635487115_"  style="overflow:visible;"/>
			</clipPath>
			
				<path style="opacity:0.36;clip-path:url(#SVGID_00000153682892153905021240000011040878222793883271_);fill:#FFFFFF;enable-background:new    ;" d="
				M223.4,224.2c0.1-0.2,0.1-0.6,0.6-0.3s1.3,1.3,1.1,1.5s-0.6,0.1-1.1-0.2S223.2,224.4,223.4,224.2z"/>
		</g>
	</g>
	<path class="st24" d="M232.9,248c-0.1-0.1,0-1-0.2-2.3c-0.2-1.1-3.3-6.6-3.3-6.6l0.4-0.6c0,0,2.2,4.8,3.4,6.8
		S233.2,248.6,232.9,248z"/>
	<path class="st19" d="M241.6,238.9c0,0-3.5-0.4-4.7,0.5c-1.3,0.9-5.2,3.2-5.2,3.2s4.1,1.7,5.7,1.2S241.6,238.9,241.6,238.9z"/>
</g>
<g>
	<g>
		<g>
			<path id="XMLID_00000149383525749796239580000002401876452599992499_" class="st20" d="M257,244.8c0,0,3.4-2,4.3-4.5
				s3.9-9.5-7.7-15.3c-11.6-5.8-16.7,1.4-17.1,2.3c-0.3,0.7-0.9,2.1-1.3,2.8c-0.5,0.9-1.8,1.8-2.4,2.6c-2.4,3.2-4.1,11.1,6.7,18.5
				c10.9,7.3,15.5-1.8,15.5-1.8L257,244.8z"/>
		</g>
		<g>
			<defs>
				<path id="SVGID_00000111151133103392021080000013527842063063383959_" d="M257,244.8c0,0,3.4-2,4.3-4.5s3.9-9.5-7.7-15.3
					c-11.6-5.8-16.7,1.4-17.1,2.3c-0.3,0.7-0.9,2.1-1.3,2.8c-0.5,0.9-1.8,1.8-2.4,2.6c-2.4,3.2-4.1,11.1,6.7,18.5
					c10.9,7.3,15.5-1.8,15.5-1.8L257,244.8z"/>
			</defs>
			<clipPath id="SVGID_00000052106165295015931550000006266530739423892110_">
				<use xlink:href="#SVGID_00000111151133103392021080000013527842063063383959_"  style="overflow:visible;"/>
			</clipPath>
			<path style="clip-path:url(#SVGID_00000052106165295015931550000006266530739423892110_);fill:#B60000;" d="M260.3,242.9
				c0,0-3-0.6-3.9,0.1c-0.9,0.6-0.6,2.2-0.8,2.9s-0.2,1.8-1.3,3.2s-4.8,4.6-7.8,3.6s-9.9-6.4-11.1-8.9s0.4-10.2,1.2-12.1
				s5.2-8.5,5.2-8.5l-5.7-6.5l-14.9,33.6l28.1,16.4L260.3,242.9z"/>
		</g>
		<g>
			<defs>
				<path id="SVGID_00000136395717052841252680000013286316497443521175_" d="M257,244.8c0,0,3.4-2,4.3-4.5s3.9-9.5-7.7-15.3
					c-11.6-5.8-16.7,1.4-17.1,2.3c-0.3,0.7-0.9,2.1-1.3,2.8c-0.5,0.9-1.8,1.8-2.4,2.6c-2.4,3.2-4.1,11.1,6.7,18.5
					c10.9,7.3,15.5-1.8,15.5-1.8L257,244.8z"/>
			</defs>
			<clipPath id="SVGID_00000058549179868880005350000007176276745424640694_">
				<use xlink:href="#SVGID_00000136395717052841252680000013286316497443521175_"  style="overflow:visible;"/>
			</clipPath>
			
				<path style="opacity:0.36;clip-path:url(#SVGID_00000058549179868880005350000007176276745424640694_);fill:#FFFFFF;enable-background:new    ;" d="
				M254.9,234c-0.7-1.4-2-3.4-1.2-3.8c0.8-0.4,3.3,1,4,2.4s0.6,2.9-0.2,3.3C256.7,236.3,255.6,235.5,254.9,234z"/>
		</g>
		<g>
			<defs>
				<path id="SVGID_00000080193589970033767940000011742785358218689458_" d="M257,244.8c0,0,3.4-2,4.3-4.5s3.9-9.5-7.7-15.3
					c-11.6-5.8-16.7,1.4-17.1,2.3c-0.3,0.7-0.9,2.1-1.3,2.8c-0.5,0.9-1.8,1.8-2.4,2.6c-2.4,3.2-4.1,11.1,6.7,18.5
					c10.9,7.3,15.5-1.8,15.5-1.8L257,244.8z"/>
			</defs>
			<clipPath id="SVGID_00000000943686516824198470000015698670650657178284_">
				<use xlink:href="#SVGID_00000080193589970033767940000011742785358218689458_"  style="overflow:visible;"/>
			</clipPath>
			
				<path style="opacity:0.36;clip-path:url(#SVGID_00000000943686516824198470000015698670650657178284_);fill:#FFFFFF;enable-background:new    ;" d="
				M250.5,229.8c0.1-0.2,0.1-0.6,0.6-0.3s1.3,1.3,1.1,1.5c-0.1,0.2-0.6,0.1-1.1-0.2C250.7,230.4,250.4,230,250.5,229.8z"/>
		</g>
	</g>
	<path class="st24" d="M260.1,253.5c-0.1-0.1,0-1-0.2-2.3c-0.2-1.1-3.3-6.6-3.3-6.6l0.4-0.6c0,0,2.2,4.8,3.4,6.8
		S260.3,254.2,260.1,253.5z"/>
	<path class="st19" d="M268.7,244.4c0,0-3.5-0.4-4.7,0.5s-5.2,3.2-5.2,3.2s4.1,1.7,5.7,1.2S268.7,244.4,268.7,244.4z"/>
</g>
<g>
	<defs>
		<path id="XMLID_00000150807300877045601920000015280030217655869058_" d="M285.8,285.4c-24.4,24.4-79.5,19.9-103.9-4.5
			c-11.9-11.9-17.2-55.3-17.2-55.3h138C302.7,225.6,297.8,273.5,285.8,285.4z"/>
	</defs>
	<use xlink:href="#XMLID_00000150807300877045601920000015280030217655869058_"  style="overflow:visible;fill:#8A6C00;"/>
	<clipPath id="XMLID_00000137848178567553699960000006041121446876023705_">
		<use xlink:href="#XMLID_00000150807300877045601920000015280030217655869058_"  style="overflow:visible;"/>
	</clipPath>
	<path style="clip-path:url(#XMLID_00000137848178567553699960000006041121446876023705_);fill:#4D2500;" d="M191.4,210.8
		c0,0,11,46.3,20.4,59.1s23.1,17.7,56.9,13.6c45.1-5.5,90-19.9,90-19.9S202,324.1,201.2,323.4c-0.8-0.7-78-64.2-78-64.2L191.4,210.8
		z"/>
</g>
<g>
	<defs>
		<path id="XMLID_00000098213597517272585500000000645893828687679382_" d="M183.3,185.1l-30.6,28l18.2,22.4l0.8,34.3
			c0,0-47.3-34.2-48.4-44.6c-3.5-32.8,67.4-88.3,67.4-88.3s-1.1,9.3-2.8,17.2c-0.6,3.2-1.7,8.4-2.3,14.2
			C184.8,175.8,183.3,185.1,183.3,185.1z"/>
	</defs>
	<use xlink:href="#XMLID_00000098213597517272585500000000645893828687679382_"  style="overflow:visible;fill:#91500E;"/>
	<clipPath id="XMLID_00000151543428037864645260000017819717039434878881_">
		<use xlink:href="#XMLID_00000098213597517272585500000000645893828687679382_"  style="overflow:visible;"/>
	</clipPath>
	<path style="clip-path:url(#XMLID_00000151543428037864645260000017819717039434878881_);fill:#7D350E;" d="M192.7,161.6
		c0,0-19.1,17.6-25.5,25.7c-6.3,8.1-22.8,24.2-22.8,24.2l18.6,21.3l8.1,10.5l44.3-34.2L192.7,161.6z"/>
</g>
<g>
	<defs>
		<path id="XMLID_00000010303754861839748870000015483378219498648744_" d="M280.8,180.5l34.3,37.9l-35.8,17.2l10.7,34.3
			c0,0,55.3-41.1,56.1-51.5c2.7-32.8-66.7-84.5-66.7-84.5L280.8,180.5z"/>
	</defs>
	<use xlink:href="#XMLID_00000010303754861839748870000015483378219498648744_"  style="overflow:visible;fill:#91500E;"/>
	<clipPath id="XMLID_00000090255439161648559380000009638191847625895849_">
		<use xlink:href="#XMLID_00000010303754861839748870000015483378219498648744_"  style="overflow:visible;"/>
	</clipPath>
	<path style="clip-path:url(#XMLID_00000090255439161648559380000009638191847625895849_);fill:#7D350E;" d="M283.9,164.9
		c0,0-6.3,23.3-12.7,31.4c-6.3,8.1-22.8,24.2-22.8,24.2l18.6,21.3l7.1,5.3l45.3-29L283.9,164.9z"/>
</g>
<path class="st43" d="M201.2,80.3c0,0,7.6-20.7,12.8-20.2s6.2,0,15.2-1.4s15.7-6.7,20.4-1s6.3,2.4,12.6,2.6c6.3,0.2,4.9,20,4.9,20
	s14.3-40.4-7.3-46.3c-5.7-1.6-14.2-6.9-25.9-6.9s-23.6,0-25.5,6.9s-12.4,9.7-12.8,16.4S201.2,80.3,201.2,80.3z"/>
<ellipse class="st44" cx="265.3" cy="84.1" rx="3.6" ry="8.6"/>
<ellipse transform="matrix(0.9448 -0.3275 0.3275 0.9448 -68.3743 105.5795)" class="st44" cx="279.3" cy="255.8" rx="22.9" ry="17.8"/>
<ellipse transform="matrix(0.4146 -0.91 0.91 0.4146 -125.8193 316.028)" class="st44" cx="182.7" cy="255.8" rx="17.8" ry="22.9"/>
<ellipse transform="matrix(0.9581 -0.2863 0.2863 0.9581 -15.997 61.1744)" class="st44" cx="201.2" cy="85.3" rx="3.6" ry="8.6"/>
<path class="st45" d="M224.5,78.1c0,1.6-3.8,3.3-5.4,3.3s-2.9-1.3-2.9-2.9s1.3-2.9,2.9-2.9S224.5,76.5,224.5,78.1z"/>
<path class="st45" d="M253.9,78.5c0,1.6-1.3,2.9-2.9,2.9s-5.1-1.8-5.1-3.4s3.5-2.4,5.1-2.4S253.9,76.9,253.9,78.5z"/>
<path class="st46" d="M241.6,108.9c0,0.8-4.1,3-8.5,3s-9.2-3.2-9.2-4s4.8,1.1,9.2,1.1S241.6,108.1,241.6,108.9z"/>
<g>
	<g>
		<defs>
			<path id="XMLID_00000129197290163604736320000002150115942167132854_" d="M561.6,414.8c0,15.2,4.8,33-28.9,32.9
				c-26.6-0.1-24.1-17.7-24.1-32.9c0-15.2,11.9-27.6,26.5-27.6c3.7,0,7.1,0.8,10.3,2.2c1,0.4-2.9,7.4-1.7,7.7c0,0,4.8-5,6.1-5.2
				C560.4,389.9,561.6,405.2,561.6,414.8z"/>
		</defs>
		<use xlink:href="#XMLID_00000129197290163604736320000002150115942167132854_"  style="overflow:visible;fill:#EE880E;"/>
		<clipPath id="XMLID_00000178180247113711199580000000772702981771451522_">
			<use xlink:href="#XMLID_00000129197290163604736320000002150115942167132854_"  style="overflow:visible;"/>
		</clipPath>
		
			<rect x="484.8" y="381.8" style="clip-path:url(#XMLID_00000178180247113711199580000000772702981771451522_);fill:#C4550D;" width="50.4" height="71.3"/>
	</g>
	<polygon class="st48" points="535.1,425.1 535.1,425.1 537.5,473.8 532.7,473.8 	"/>
</g>
<g>
	<g>
		<defs>
			<path id="XMLID_00000069379287708487553390000004323509330919157148_" d="M637.2,439.3c0,8.9,2.8,19.3-16.9,19.3
				c-15.6,0-14.1-10.3-14.1-19.3s6.9-16.1,15.5-16.1c2.1,0,4.2,0.5,6,1.3c0.6,0.3-1.7,4.4-1,4.5c0,0,2.8-2.9,3.6-3.1
				C636.5,424.7,637.2,433.7,637.2,439.3z"/>
		</defs>
		<use xlink:href="#XMLID_00000069379287708487553390000004323509330919157148_"  style="overflow:visible;fill:#EE880E;"/>
		<clipPath id="XMLID_00000132787048301819106180000003756730755416521370_">
			<use xlink:href="#XMLID_00000069379287708487553390000004323509330919157148_"  style="overflow:visible;"/>
		</clipPath>
		
			<rect x="592.4" y="420" style="clip-path:url(#XMLID_00000132787048301819106180000003756730755416521370_);fill:#C4550D;" width="29.5" height="41.7"/>
	</g>
	<polygon class="st48" points="621.8,445.3 621.8,445.3 623.2,473.8 620.4,473.8 	"/>
</g>
<g>
	<g>
		<defs>
			<path id="XMLID_00000044176672829609866460000002070977335865955749_" d="M784.9,445.6c0,6.5,2,14-11.8,14
				c-10.9,0-9.8-7.5-9.8-14c0-6.5,4.8-11.7,10.8-11.7c1.5,0,2.9,0.3,4.2,0.9c0.4,0.2-1.2,3.2-0.7,3.3c0,0,2-2.1,2.5-2.2
				C784.4,435.1,784.9,441.6,784.9,445.6z"/>
		</defs>
		<use xlink:href="#XMLID_00000044176672829609866460000002070977335865955749_"  style="overflow:visible;fill:#EE880E;"/>
		<clipPath id="XMLID_00000028296436291680488570000006111922293058425532_">
			<use xlink:href="#XMLID_00000044176672829609866460000002070977335865955749_"  style="overflow:visible;"/>
		</clipPath>
		
			<rect x="753.5" y="431.6" style="clip-path:url(#XMLID_00000028296436291680488570000006111922293058425532_);fill:#C4550D;" width="20.6" height="30.2"/>
	</g>
	<polygon class="st48" points="774,450 774,450 775,470.7 773.1,470.7 	"/>
</g>
<g>
	<rect x="1167.7" y="447.9" class="st51" width="3.5" height="50.4"/>
	<g>
		<defs>
			<path id="XMLID_00000174576428407161650120000014247542492338853777_" d="M1188.7,449c0,15.8,3.5,34.3-21,34.2
				c-19.4-0.1-17.5-18.3-17.5-34.2s8.6-28.7,19.3-28.7c2.7,0,5.2,0.8,7.5,2.3c0.7,0.4-2.1,7.7-1.2,8c0,0,3.5-5.2,4.4-5.4
				C1187.8,423.1,1188.7,439,1188.7,449z"/>
		</defs>
		<use xlink:href="#XMLID_00000174576428407161650120000014247542492338853777_"  style="overflow:visible;fill:#E18A1C;"/>
		<clipPath id="XMLID_00000183230156721262924960000010667132511842542992_">
			<use xlink:href="#XMLID_00000174576428407161650120000014247542492338853777_"  style="overflow:visible;"/>
		</clipPath>
		
			<rect x="1132.8" y="414.7" style="clip-path:url(#XMLID_00000183230156721262924960000010667132511842542992_);fill:#B35A1C;" width="36.7" height="74"/>
	</g>
</g>
<g>
	<rect x="1243.1" y="466.9" class="st51" width="1.9" height="27.4"/>
	<g>
		<defs>
			<path id="XMLID_00000022553901144846355550000018311862407416496028_" d="M1254.5,467.5c0,8.6,1.9,18.6-11.4,18.6
				c-10.5,0-9.5-10-9.5-18.6c0-8.6,4.7-15.6,10.5-15.6c1.4,0,2.8,0.4,4.1,1.2c0.4,0.2-1.1,4.2-0.7,4.4c0,0,1.9-2.8,2.4-2.9
				C1254,453.5,1254.5,462.1,1254.5,467.5z"/>
		</defs>
		<use xlink:href="#XMLID_00000022553901144846355550000018311862407416496028_"  style="overflow:visible;fill:#E18A1C;"/>
		<clipPath id="XMLID_00000116922799502077627460000003938435843844541323_">
			<use xlink:href="#XMLID_00000022553901144846355550000018311862407416496028_"  style="overflow:visible;"/>
		</clipPath>
		
			<rect x="1224.1" y="448.9" style="clip-path:url(#XMLID_00000116922799502077627460000003938435843844541323_);fill:#B35A1C;" width="19.9" height="40.2"/>
	</g>
</g>
</svg>
