<?xml version="1.0" encoding="utf-8"?>
<!-- Generator: Adobe Illustrator 26.0.3, SVG Export Plug-In . SVG Version: 6.00 Build 0)  -->
<svg version="1.1" id="Слой_1" xmlns="http://www.w3.org/2000/svg" xmlns:xlink="http://www.w3.org/1999/xlink" x="0px" y="0px"
	 viewBox="0 0 1920 386" enable-background="new 0 0 1920 386" xml:space="preserve">
<rect x="336.2" fill="#35A192" width="1368.5" height="386"/>
<polygon fill="#5CA192" points="960,-0.1 1208.6,0 1629.8,386 1381.5,386 "/>
<polygon fill="#5CA192" points="305.8,-1 336.2,0 765.6,386 728.2,386 "/>
<polygon fill="#5CA192" points="891.5,0 919.6,0 1340.9,386 1307,386 "/>
<polygon fill="#5CA192" points="240,7.2 246.5,0 667.8,386 653.5,386 "/>
<g>
	<g>
		<polygon id="XMLID_00000085967404304223860300000000919213326279606965_" fill="#ECDCA2" points="919.1,152.2 923.5,201.7 
			960.3,201.7 960.3,152.2 		"/>
	</g>
	<g>
		<g>
			<g>
				<defs>
					<polygon id="SVGID_1_" points="919.1,152.2 923.5,201.7 960.3,201.7 960.3,152.2 					"/>
				</defs>
				<clipPath id="SVGID_00000151536308791889135070000012653647127955277703_">
					<use xlink:href="#SVGID_1_"  overflow="visible"/>
				</clipPath>
				<path clip-path="url(#SVGID_00000151536308791889135070000012653647127955277703_)" fill="#CAB287" d="M931.8,142.6v41.7
					l-34.9-3.3c0,0-1.1-38,0-38.3C897.9,142.3,931.8,142.6,931.8,142.6z"/>
			</g>
		</g>
	</g>
</g>
<g>
	<g>
		<path id="XMLID_00000154427834788791435610000009539882508643633553_" fill="#FBFFA2" d="M991.3,82.4c-3.3,39.4-19,74.5-51.6,74.5
			s-45.4-28.8-52.5-70.5c-4.5-26.5,6.3-49.4,24-61.2c8.3-5.6,18.1-8.7,28.5-8.7C972.3,16.4,994.7,41.8,991.3,82.4z"/>
	</g>
	<g>
		<g>
			<g>
				<defs>
					<path id="SVGID_00000134230124351290390530000000241708380161434003_" d="M991.3,82.4c-3.3,39.4-19,74.5-51.6,74.5
						s-45.4-28.8-52.5-70.5c-4.5-26.5,6.3-49.4,24-61.2c8.3-5.6,18.1-8.7,28.5-8.7C972.3,16.4,994.7,41.8,991.3,82.4z"/>
				</defs>
				<clipPath id="SVGID_00000010993387449759400430000001642953184559730611_">
					<use xlink:href="#SVGID_00000134230124351290390530000000241708380161434003_"  overflow="visible"/>
				</clipPath>
				<path clip-path="url(#SVGID_00000010993387449759400430000001642953184559730611_)" fill="#E0E587" d="M915.9,4.2
					c0,0-15.4,52.8-18.7,66.1s0.5,32.8,6.2,47.8s10,20.8,22.3,31.7c12.4,10.9,64.5-3.9,64.5-3.9l-88.5,26.2l-91-78.7L915.9,4.2z"/>
			</g>
		</g>
	</g>
</g>
<g>
	<g>
		<path id="XMLID_00000173125944405010043740000015611537120328202917_" fill="#EBFF20" d="M919.4,164.3c0,0-54,6.7-71.2,19.4
			C821,204,764,302.2,764,302.2l-92.6-10.8l-17.6,28.8c0,0,101.8,33.6,135.1,20.8c24.3-9.4,66.7-76.7,66.7-76.7l2.1,121.7h185.2
			l-5.1-127c0,0,45.7,48.2,67.5,52.7c41.5,8.6,156.1-49.8,156.1-49.8l-28.8-30.4l-107.1,27.2c0,0-57.4-60.5-81.3-73.3
			c-19.5-10.5-83.8-21-83.8-21h-41L919.4,164.3L919.4,164.3z"/>
	</g>
	<g>
		<g>
			<g>
				<defs>
					<path id="SVGID_00000178901259685956036900000004063271792289549954_" d="M919.4,164.3c0,0-54,6.7-71.2,19.4
						C821,204,764,302.2,764,302.2l-92.6-10.8l-17.6,28.8c0,0,101.8,33.6,135.1,20.8c24.3-9.4,66.7-76.7,66.7-76.7l2.3,131.8h185.4
						l-5.5-137.1c0,0,45.7,48.2,67.5,52.7c41.5,8.6,156.1-49.8,156.1-49.8l-28.8-30.4l-107.1,27.2c0,0-57.4-60.5-81.3-73.3
						c-19.5-10.5-83.8-21-83.8-21h-41L919.4,164.3L919.4,164.3z"/>
				</defs>
				<clipPath id="SVGID_00000134953052562206019220000007253597982285728169_">
					<use xlink:href="#SVGID_00000178901259685956036900000004063271792289549954_"  overflow="visible"/>
				</clipPath>
				<path clip-path="url(#SVGID_00000134953052562206019220000007253597982285728169_)" fill="#ECDCA2" d="M896.9,164.3
					c0,0,8,17.1,25.7,27.2c17.7,10.2,71.9-27.2,71.9-27.2l-93.4-7.4L896.9,164.3z"/>
			</g>
		</g>
	</g>
	<g>
		<g>
			<g>
				<defs>
					<path id="SVGID_00000052072906893621474910000011831656242906711463_" d="M919.4,164.3c0,0-54,6.7-71.2,19.4
						C821,204,764,302.2,764,302.2l-92.6-10.8l-17.6,28.8c0,0,101.8,33.6,135.1,20.8c24.3-9.4,66.7-76.7,66.7-76.7l2.3,131.8h185.4
						l-5.5-137.1c0,0,45.7,48.2,67.5,52.7c41.5,8.6,156.1-49.8,156.1-49.8l-28.8-30.4l-107.1,27.2c0,0-57.4-60.5-81.3-73.3
						c-19.5-10.5-83.8-21-83.8-21h-41L919.4,164.3L919.4,164.3z"/>
				</defs>
				<clipPath id="SVGID_00000080889278136349860410000007328576693584763542_">
					<use xlink:href="#SVGID_00000052072906893621474910000011831656242906711463_"  overflow="visible"/>
				</clipPath>
				<path clip-path="url(#SVGID_00000080889278136349860410000007328576693584763542_)" fill="#C3C720" d="M863.2,241.4
					c0,0-35,59.5-71.8,82.5c-34.4,21.5-133-16.3-143.3,0C600.4,399.1,896,386,896,386L863.2,241.4z"/>
			</g>
		</g>
	</g>
	<g>
		<g>
			<g>
				<defs>
					<path id="SVGID_00000088853984972617632610000003878026479514305467_" d="M919.4,164.3c0,0-54,6.7-71.2,19.4
						C821,204,764,302.2,764,302.2l-92.6-10.8l-17.6,28.8c0,0,101.8,33.6,135.1,20.8c24.3-9.4,66.7-76.7,66.7-76.7l2.3,131.8h185.4
						l-5.5-137.1c0,0,45.7,48.2,67.5,52.7c41.5,8.6,156.1-49.8,156.1-49.8l-28.8-30.4l-107.1,27.2c0,0-57.4-60.5-81.3-73.3
						c-19.5-10.5-83.8-21-83.8-21h-41L919.4,164.3L919.4,164.3z"/>
				</defs>
				<clipPath id="SVGID_00000047046390782453191940000004719324418098031028_">
					<use xlink:href="#SVGID_00000088853984972617632610000003878026479514305467_"  overflow="visible"/>
				</clipPath>
				<path clip-path="url(#SVGID_00000047046390782453191940000004719324418098031028_)" fill="#C3C720" d="M1035.2,248.6
					c0,0,40.1,30.4,77,53.4c34.4,21.5,132.3-54.8,142.6-38.5c47.7,75.2-219.3,122.5-219.3,122.5L1035.2,248.6z"/>
			</g>
		</g>
	</g>
</g>
<g>
	<g>
		<path id="XMLID_00000101095389341857598430000002537215217017270156_" fill="#FBFFA2" d="M665.2,297c2,11.8-10.3,23.8-27.5,26.7
			c-17.2,2.9-63.5-23-65.5-34.9c-2-11.8,41.1-5.1,58.3-8C647.7,277.9,663.2,285.1,665.2,297z"/>
	</g>
	<g>
		<g>
			<g>
				<defs>
					<path id="SVGID_00000124141108176151797460000010396697410851481789_" d="M665.2,297c2,11.8-10.3,23.8-27.5,26.7
						c-17.2,2.9-63.5-23-65.5-34.9c-2-11.8,41.1-5.1,58.3-8C647.7,277.9,663.2,285.1,665.2,297z"/>
				</defs>
				<clipPath id="SVGID_00000111153499600562568580000003139479458883982780_">
					<use xlink:href="#SVGID_00000124141108176151797460000010396697410851481789_"  overflow="visible"/>
				</clipPath>
				<path clip-path="url(#SVGID_00000111153499600562568580000003139479458883982780_)" fill="#DBC670" d="M566.8,271.3
					c0,0,36.9,39.2,52,41.3s50-1.4,50-1.4l-15.2,28.5l-105.3-27.1L566.8,271.3z"/>
			</g>
		</g>
	</g>
</g>
<g>
	<g>
		<path id="XMLID_00000011007255722747268250000002178250262267193259_" fill="#FBFFA2" d="M1241.1,237.3
			c-2,11.8,10.3,23.8,27.5,26.7s63.5-23,65.5-34.9s-41.1-5.1-58.3-8C1258.7,218.2,1243.1,225.5,1241.1,237.3z"/>
	</g>
	<g>
		<g>
			<g>
				<defs>
					<path id="SVGID_00000078753927831372201700000008613963285030046137_" d="M1241.1,237.3c-2,11.8,10.3,23.8,27.5,26.7
						s63.5-23,65.5-34.9s-41.1-5.1-58.3-8C1258.7,218.2,1243.1,225.5,1241.1,237.3z"/>
				</defs>
				<clipPath id="SVGID_00000044142845112177184080000005562363957645647253_">
					<use xlink:href="#SVGID_00000078753927831372201700000008613963285030046137_"  overflow="visible"/>
				</clipPath>
				<path clip-path="url(#SVGID_00000044142845112177184080000005562363957645647253_)" fill="#DBC670" d="M1339.5,211.6
					c0,0-36.9,39.2-52,41.3s-50-1.4-50-1.4l15.2,28.5l105.3-27L1339.5,211.6z"/>
			</g>
		</g>
	</g>
</g>
<g>
	<g>
		<path id="XMLID_00000101789288463735706810000017772206226139370943_" fill="#CA631D" d="M886.1,67.6c0,0,10.1-21.3,17.6-17.1
			c7.5,4.3,13.3-11.2,24-4.8s6.7,22.9,23.1,21.8c16.3-1.1,23.3-24,28.1-20.2c4.8,3.7,12.5,35,12.5,35s11-65.9-21-65.9
			c-7.1,0-32.2-6.9-37.8-6.4c-15.9,1.5-30.5,10.1-37.3,17.1C880.1,42.3,886.1,67.6,886.1,67.6z"/>
	</g>
	<g>
		<g>
			<g>
				<defs>
					<path id="SVGID_00000141456054145255864140000004347118385727653783_" d="M886.1,67.6c0,0,10.1-21.3,17.6-17.1
						c7.5,4.3,13.3-11.2,24-4.8s6.7,22.9,23.1,21.8c16.3-1.1,23.3-24,28.1-20.2c4.8,3.7,12.5,35,12.5,35s11-65.9-21-65.9
						c-7.1,0-32.2-6.9-37.8-6.4c-15.9,1.5-30.5,10.1-37.3,17.1C880.1,42.3,886.1,67.6,886.1,67.6z"/>
				</defs>
				<clipPath id="SVGID_00000160905962455532489520000011170837203829611174_">
					<use xlink:href="#SVGID_00000141456054145255864140000004347118385727653783_"  overflow="visible"/>
				</clipPath>
				<path clip-path="url(#SVGID_00000160905962455532489520000011170837203829611174_)" fill="#75631D" d="M952.8-14.6
					c0,0-27.6,42.8-30.7,44.2s-6.2,25.7-6.2,25.7c-24,14-44.4,16.9-44.4,16.9L856.7,4.7L952.8-14.6z"/>
			</g>
		</g>
	</g>
</g>
<g>
	<path fill="#FFFFFF" d="M579,219c0-19.5,11.7-33.3,30.7-41.4l-0.2-0.7c-17.1-8.1-24.5-21.4-24.5-34.8c0-24.5,20.7-41.2,47.8-41.2
		c30,0,45,18.8,45,38.1c0,13.1-6.4,27.1-25.5,36.2v0.7c19.3,7.6,31.2,21.2,31.2,40c0,26.9-23.1,45-52.6,45
		C598.5,260.9,579,241.6,579,219z M662.3,218c0-18.8-13.1-27.9-34-33.8c-18.1,5.2-27.9,17.1-27.9,31.9
		c-0.7,15.7,11.2,29.5,30.9,29.5C650.2,245.7,662.3,234,662.3,218z M604.7,140.7c0,15.5,11.7,23.8,29.5,28.6
		c13.3-4.5,23.6-14,23.6-28.1c0-12.4-7.4-25.2-26.2-25.2C614.3,115.9,604.7,127.3,604.7,140.7z"/>
</g>
<g>
	<path fill="#89C220" d="M574.7,226.1c0-19.5,11.7-33.3,30.7-41.4l-0.2-0.7c-17.1-8.1-24.5-21.4-24.5-34.8
		c0-24.5,20.7-41.2,47.8-41.2c30,0,45,18.8,45,38.1c0,13.1-6.4,27.1-25.5,36.2v0.7c19.3,7.6,31.2,21.2,31.2,40
		c0,26.9-23.1,45-52.6,45C594.3,268,574.7,248.7,574.7,226.1z M658.1,225.2c0-18.8-13.1-27.9-34-33.8c-18.1,5.2-27.9,17.1-27.9,31.9
		c-0.7,15.7,11.2,29.5,30.9,29.5C645.9,252.8,658.1,241.1,658.1,225.2z M600.5,147.8c0,15.5,11.7,23.8,29.5,28.6
		c13.3-4.5,23.6-14,23.6-28.1c0-12.4-7.4-25.2-26.2-25.2C610,123.1,600.5,134.5,600.5,147.8z"/>
</g>
<g>
	<path fill="#004A00" d="M1308.4,217.6V191h-44.7v-8.7l42.9-62.5h14.1v60.8h13.5V191h-13.5v26.6H1308.4z M1308.4,180.5v-32.7
		c0-5.1,0.1-10.2,0.4-15.4h-0.4c-3,5.7-5.3,9.9-8,14.5l-23.5,33.3v0.3L1308.4,180.5L1308.4,180.5z"/>
</g>
<path d="M915.9,82.3c-0.6,2.8,3.6,5.1,5.4,5.4s3.6-1.6,4.2-4.4c0.6-2.8-0.4-5.3-2.2-5.7C921.5,77.3,916.5,79.5,915.9,82.3z"/>
<path d="M952.8,83.1c-0.6,2.8,3.6,5.1,5.4,5.4s3.6-1.6,4.2-4.4c0.6-2.8-0.4-5.3-2.2-5.7S953.4,80.3,952.8,83.1z"/>
<path opacity="0.72" fill="#7E0000" enable-background="new    " d="M922.1,126.3c0,0,12.8,8,21.9,6.7c9.1-1.2,20.9-15,20.9-15
	s-17.1,9.8-23.5,10.7C936.7,129.4,922.1,126.3,922.1,126.3z"/>
<path fill="#D6D793" d="M937.1,78.4c-0.8,0.3-5.2,35.6-5.2,35.6h6.4L937.1,78.4z"/>
<ellipse transform="matrix(0.9797 -0.2004 0.2004 0.9797 -0.7414 179.469)" fill="#E0E587" cx="886.1" cy="93.4" rx="7.4" ry="15.3"/>
<ellipse transform="matrix(0.2495 -0.9684 0.9684 0.2495 645.4417 1034.4523)" fill="#FBFFA2" cx="990.1" cy="100.8" rx="15.3" ry="7.4"/>
</svg>
