<?xml version="1.0" encoding="utf-8"?>
<!-- Generator: Adobe Illustrator 26.0.3, SVG Export Plug-In . SVG Version: 6.00 Build 0)  -->
<svg version="1.1" id="Слой_1" xmlns="http://www.w3.org/2000/svg" xmlns:xlink="http://www.w3.org/1999/xlink" x="0px" y="0px"
	 viewBox="0 0 1920 386" style="enable-background:new 0 0 1920 386;" xml:space="preserve">
<style type="text/css">
	.st0{fill:#35A192;}
	.st1{fill:#ECDCA2;}
	.st2{fill:#FBFFA2;}
	.st3{fill:#EBFF20;}
	.st4{fill:#251900;}
	.st5{font-family:'MyriadPro-Regular';}
	.st6{font-size:186.1897px;}
	.st7{font-size:150.5656px;}
</style>
<rect x="336.2" class="st0" width="1368.5" height="386"/>
<polygon class="st1" points="919.1,142.2 923.5,191.7 960.3,191.7 960.3,142.2 "/>
<path class="st2" d="M991.3,72.4c-3.3,39.4-19,74.5-51.6,74.5s-45.4-28.8-52.5-70.5c-6.7-39,19.9-69.9,52.5-69.9
	S994.7,31.8,991.3,72.4z"/>
<path class="st3" d="M919.4,154.3c0,0-54,6.7-71.2,19.4C821,194,764,292.2,764,292.2l-92.6-10.8l-17.6,28.8
	c0,0,101.8,33.6,135.1,20.8c24.3-9.4,66.7-76.7,66.7-76.7l2.3,131.8h185.4l-5.5-137.1c0,0,45.7,48.2,67.5,52.7
	c41.5,8.6,156.1-49.8,156.1-49.8l-28.8-30.4l-107.1,27.2c0,0-57.4-60.5-81.3-73.3c-19.5-10.5-83.8-21-83.8-21H919.4z"/>
<path class="st2" d="M665.2,287c2,11.8-10.3,23.8-27.5,26.7c-17.2,2.9-63.5-23-65.5-34.9c-2-11.8,41.1-5.1,58.3-8
	C647.7,267.9,663.2,275.1,665.2,287z"/>
<path class="st2" d="M1234.7,231.2c-2.6,12.7,12.1,26.5,32.9,30.8c20.8,4.3,77.5-20.7,80.2-33.4s-49.8-8.3-70.6-12.7
	S1237.3,218.5,1234.7,231.2z"/>
<path class="st4" d="M886.1,57.6c0,0,10.1-21.3,17.6-17.1c7.5,4.3,13.3-11.2,24-4.8s6.7,22.9,23.1,21.8c16.3-1.1,23.3-24,28.1-20.2
	c4.8,3.7,12.5,35,12.5,35s11-65.9-21-65.9c-7.1,0-32.2-6.9-37.8-6.4c-15.9,1.5-30.5,10.1-37.3,17.1
	C880.1,32.3,886.1,57.6,886.1,57.6z"/>
<text transform="matrix(1 0 0 1 572.1349 248.8516)" class="st5 st6">8</text>
<text transform="matrix(0.9828 0 0 1 1261.5333 207.582)" class="st5 st7">4</text>
</svg>
