<?xml version="1.0" encoding="utf-8"?>
<!-- Generator: Adobe Illustrator 26.0.3, SVG Export Plug-In . SVG Version: 6.00 Build 0)  -->
<svg version="1.1" id="Слой_1" xmlns="http://www.w3.org/2000/svg" xmlns:xlink="http://www.w3.org/1999/xlink" x="0px" y="0px"
	 viewBox="0 0 1920 386" enable-background="new 0 0 1920 386" xml:space="preserve">
<rect x="336.2" fill="#8AA377" width="1368.5" height="386"/>
<rect x="1179.8" y="-321.4" transform="matrix(0.6755 -0.7373 0.7373 0.6755 288.8185 985.0654)" fill="#75A36E" width="167.8" height="971.5"/>
<rect x="618.6" y="-205.6" transform="matrix(0.6755 -0.7373 0.7373 0.6755 -1.7284 556.3786)" fill="#75A36E" width="25.3" height="971.5"/>
<rect x="1194" y="-205.5" transform="matrix(0.6755 -0.7373 0.7373 0.6755 184.8984 980.6202)" fill="#75A36E" width="25.3" height="971.5"/>
<rect x="596.6" y="-154" transform="matrix(0.6755 -0.7373 0.7373 0.6755 -49.4492 551.0911)" fill="#75A36E" width="9.7" height="971.5"/>
<path fill="#FCBE00" d="M960,193l-0.7,150.5C877,343.2,809.5,275.3,809.5,193c0-82.6,68-150.5,150.5-150.5s150.5,68,150.5,150.5H960
	z"/>
<g>
	<g>
		<path id="XMLID_00000039855736104651849950000013783993662423836292_" fill="#FCDE81" d="M960,193l-0.6,124.9
			c-68.3-0.3-124.3-56.6-124.3-124.9c0-68.5,56.4-124.9,124.9-124.9s124.9,56.4,124.9,124.9H960z"/>
	</g>
	<g>
		<defs>
			<path id="SVGID_1_" d="M960,193l-0.6,124.9c-68.3-0.3-124.3-56.6-124.3-124.9c0-68.5,56.4-124.9,124.9-124.9
				s124.9,56.4,124.9,124.9H960z"/>
		</defs>
		<clipPath id="SVGID_00000000204636495912160420000011050413191057308318_">
			<use xlink:href="#SVGID_1_"  overflow="visible"/>
		</clipPath>
		<path clip-path="url(#SVGID_00000000204636495912160420000011050413191057308318_)" fill="#F3B881" d="M977.9-63.9
			c0,0,38.3,36.1-0.1,76S928.2,27.2,939.7,61s18.3,30.2-7.2,69.7s-41.6,53.3-26.4,74.5c15.2,21.2,9.1,59.5,28.8,3.7
			s-17.4-78.9,56.7-76.6s105.1,18.4,100.6-39.8c-4.6-58.2-51.6-70.9-24-118.3c27.6-47.3,50.9-57.2,24-62.9
			C1065.3-94.3,977.9-63.9,977.9-63.9z"/>
	</g>
	<g>
		<defs>
			<path id="SVGID_00000085968594441801608620000000956310199721017001_" d="M960,193l-0.6,124.9c-68.3-0.3-124.3-56.6-124.3-124.9
				c0-68.5,56.4-124.9,124.9-124.9s124.9,56.4,124.9,124.9H960z"/>
		</defs>
		<clipPath id="SVGID_00000124130508414234606240000007241281516841656211_">
			<use xlink:href="#SVGID_00000085968594441801608620000000956310199721017001_"  overflow="visible"/>
		</clipPath>
		<path clip-path="url(#SVGID_00000124130508414234606240000007241281516841656211_)" fill="#F3B881" d="M810.9,296.7
			c0,0,38.3,36.1-0.1,76s-49.6,15.1-38.1,48.9s18.3,30.2-7.2,69.7s-41.6,53.3-26.4,74.5c15.2,21.2,9.1,59.5,28.8,3.7
			s-17.4-78.9,56.7-76.6s105.1,18.4,100.6-39.8s-51.6-70.9-24-118.3s50.9-57.2,24-62.9C898.3,266.3,810.9,296.7,810.9,296.7z"/>
	</g>
</g>
<ellipse fill="#A20016" cx="931.8" cy="146.6" rx="17.1" ry="13.2"/>
<ellipse fill="#A20016" cx="904.7" cy="105.7" rx="17.1" ry="13.2"/>
<ellipse fill="#A20016" cx="875.1" cy="157" rx="17.1" ry="13.2"/>
<ellipse fill="#A20016" cx="921.8" cy="213.4" rx="17.1" ry="13.2"/>
<ellipse fill="#A20016" cx="1023" cy="118.9" rx="17.1" ry="13.2"/>
<circle fill="#69254C" cx="671.3" cy="63" r="24.1"/>
<circle fill="#69254C" cx="674" cy="164.4" r="24.1"/>
<ellipse fill="#A20016" cx="992.9" cy="164.4" rx="17.1" ry="13.2"/>
<ellipse fill="#A20016" cx="1040.2" cy="170.2" rx="17.1" ry="13.2"/>
<ellipse fill="#A20016" cx="938.9" cy="280.2" rx="17.1" ry="13.2"/>
<ellipse fill="#A20016" cx="880.5" cy="244.5" rx="17.1" ry="13.2"/>
<path fill="#FCBE00" d="M1041,226.6v148.8c81.6,0,148.8-67.2,148.8-148.8c0-0.3,0-0.7,0-1L1041,226.6z"/>
<path fill="#FCDE81" d="M1040.7,226.6l124.9,1.2c-0.3,33-13.7,64.6-37.2,87.7c-23.5,23.2-55.2,36.1-88.2,35.9L1040.7,226.6z"/>
<ellipse fill="#A20016" cx="1119.1" cy="293.4" rx="17.1" ry="13.2"/>
<ellipse fill="#A20016" cx="1074.4" cy="318.5" rx="17.1" ry="13.2"/>
<ellipse fill="#A20016" cx="1062.6" cy="257.7" rx="17.1" ry="13.2"/>
<g>
	<polygon fill="#B9FF20" points="1682.5,460.2 1271.8,322.1 1241.9,370.4 1578.7,528.7 	"/>
	<path fill="#FBFFC0" d="M1220.1,361.1c0,0-55-7.3-52.7-15.3c1.8-5.9,34.9-2.3,34.9-2.3s-46.3-21.7-44.2-30.2
		c1.7-6.6,48.5,15,48.5,15s-51.7-38.7-42.4-44.9c2.1-1.4,50.6,31.6,50.6,31.6s-39.9-42.4-29.8-50.9c5-4.2,48.7,39.7,48.7,39.7
		l12.5-4c0,0-9.5-34.2-0.4-33.5c15,1.2,29.9,58,29.9,58l-29.9,48.3L1220.1,361.1z"/>
</g>
<g>
	<polygon fill="#0062D9" points="1491.6,-298.6 1191.6,13.8 1222.5,61.5 1509.3,-175.6 	"/>
	<path fill="#FBE79B" d="M1204.7,77.3c0,0-30.1,46.7-36.3,41.1c-4.6-4.1,12.9-32.6,12.9-32.6s-39.4,32.6-46.1,27.1
		c-5.3-4.3,34.2-37.5,34.2-37.5s-57,30.2-58.7,19.2c-0.4-2.5,50.1-32.3,50.1-32.3s-55.3,18-58.8,5.2c-1.7-6.3,56.7-27.1,56.7-27.1
		l1.7-13c0,0-35-6-30.4-14c7.5-13.1,65.2-2.4,65.2-2.4l30.9,47.7L1204.7,77.3z"/>
</g>
<g>
	<polygon fill="#740027" points="361.5,591.2 695.5,315.2 670.3,264.3 358.1,466.9 	"/>
	<path fill="#EFDD93" d="M689.7,250.7c0,0,35.3-42.9,40.8-36.7c4.1,4.6-16.5,30.9-16.5,30.9s42.9-27.9,49-21.6
		c4.7,4.9-38.3,33.3-38.3,33.3s60.1-23.5,60.5-12.3c0.1,2.5-53,30-53,30s64.2-11.8,58.4-2.1c-3.3,5.6-59.4,20.4-59.4,20.4l-3.2,12.7
		c0,0,34,10,28.6,17.4c-8.9,12.2-65-5.2-65-5.2l-25.2-50.9L689.7,250.7z"/>
</g>
<g>
	<circle fill="#FFE9D0" cx="906.4" cy="106.7" r="1.7"/>
	<circle fill="#FFE9D0" cx="902.6" cy="113.2" r="1.7"/>
	<circle fill="#FFE9D0" cx="897" cy="109" r="1.1"/>
	<circle fill="#FFE9D0" cx="901.2" cy="98.2" r="1.1"/>
	<circle fill="#FFE9D0" cx="915.6" cy="106.5" r="1.1"/>
</g>
<g>
	<circle fill="#FFE9D0" cx="875.1" cy="157.8" r="1.7"/>
	<circle fill="#FFE9D0" cx="871.3" cy="164.2" r="1.7"/>
	<circle fill="#FFE9D0" cx="865.8" cy="160" r="1.1"/>
	<circle fill="#FFE9D0" cx="870" cy="149.3" r="1.1"/>
	<circle fill="#FFE9D0" cx="884.4" cy="157.5" r="1.1"/>
</g>
<g>
	<circle fill="#FFE9D0" cx="933.4" cy="147.4" r="1.7"/>
	<circle fill="#FFE9D0" cx="929.6" cy="153.8" r="1.7"/>
	<circle fill="#FFE9D0" cx="924" cy="149.6" r="1.1"/>
	<circle fill="#FFE9D0" cx="928.2" cy="138.9" r="1.1"/>
	<circle fill="#FFE9D0" cx="942.6" cy="147.1" r="1.1"/>
</g>
<g>
	<circle fill="#FFE9D0" cx="1020.5" cy="119.6" r="1.7"/>
	<circle fill="#FFE9D0" cx="1016.7" cy="126" r="1.7"/>
	<circle fill="#FFE9D0" cx="1011.1" cy="121.9" r="1.1"/>
	<circle fill="#FFE9D0" cx="1015.3" cy="111.1" r="1.1"/>
	<circle fill="#FFE9D0" cx="1029.8" cy="119.3" r="1.1"/>
</g>
<g>
	<circle fill="#FFE9D0" cx="992.9" cy="164.4" r="1.7"/>
	<circle fill="#FFE9D0" cx="989.1" cy="170.8" r="1.7"/>
	<circle fill="#FFE9D0" cx="983.6" cy="166.6" r="1.1"/>
	<circle fill="#FFE9D0" cx="987.8" cy="155.8" r="1.1"/>
	<circle fill="#FFE9D0" cx="1002.2" cy="164.1" r="1.1"/>
</g>
<g>
	<circle fill="#FFE9D0" cx="1040.2" cy="169.9" r="1.7"/>
	<circle fill="#FFE9D0" cx="1036.4" cy="176.3" r="1.7"/>
	<circle fill="#FFE9D0" cx="1030.8" cy="172.1" r="1.1"/>
	<circle fill="#FFE9D0" cx="1035.1" cy="161.4" r="1.1"/>
	<circle fill="#FFE9D0" cx="1049.5" cy="169.6" r="1.1"/>
</g>
<g>
	<circle fill="#FFE9D0" cx="1062.7" cy="258.5" r="1.7"/>
	<circle fill="#FFE9D0" cx="1058.9" cy="264.9" r="1.7"/>
	<circle fill="#FFE9D0" cx="1053.3" cy="260.7" r="1.1"/>
	<circle fill="#FFE9D0" cx="1057.5" cy="250" r="1.1"/>
	<circle fill="#FFE9D0" cx="1071.9" cy="258.2" r="1.1"/>
</g>
<g>
	<circle fill="#FFE9D0" cx="1075.2" cy="319.3" r="1.7"/>
	<circle fill="#FFE9D0" cx="1071.4" cy="325.7" r="1.7"/>
	<circle fill="#FFE9D0" cx="1065.9" cy="321.5" r="1.1"/>
	<circle fill="#FFE9D0" cx="1070.1" cy="310.8" r="1.1"/>
	<circle fill="#FFE9D0" cx="1084.5" cy="319" r="1.1"/>
</g>
<g>
	<circle fill="#FFE9D0" cx="1119.2" cy="294.1" r="1.7"/>
	<circle fill="#FFE9D0" cx="1115.3" cy="300.5" r="1.7"/>
	<circle fill="#FFE9D0" cx="1109.8" cy="296.4" r="1.1"/>
	<circle fill="#FFE9D0" cx="1114" cy="285.6" r="1.1"/>
	<circle fill="#FFE9D0" cx="1128.4" cy="293.9" r="1.1"/>
</g>
<g>
	<circle fill="#FFE9D0" cx="939" cy="280.9" r="1.7"/>
	<circle fill="#FFE9D0" cx="935.2" cy="287.4" r="1.7"/>
	<circle fill="#FFE9D0" cx="929.6" cy="283.2" r="1.1"/>
	<circle fill="#FFE9D0" cx="933.8" cy="272.4" r="1.1"/>
	<circle fill="#FFE9D0" cx="948.2" cy="280.7" r="1.1"/>
</g>
<g>
	<circle fill="#FFE9D0" cx="880.6" cy="245.3" r="1.7"/>
	<circle fill="#FFE9D0" cx="876.7" cy="251.7" r="1.7"/>
	<circle fill="#FFE9D0" cx="871.2" cy="247.5" r="1.1"/>
	<circle fill="#FFE9D0" cx="875.4" cy="236.8" r="1.1"/>
	<circle fill="#FFE9D0" cx="889.8" cy="245" r="1.1"/>
</g>
<g>
	<circle fill="#FFE9D0" cx="924.1" cy="214.6" r="1.7"/>
	<circle fill="#FFE9D0" cx="920.3" cy="221" r="1.7"/>
	<circle fill="#FFE9D0" cx="914.7" cy="216.8" r="1.1"/>
	<circle fill="#FFE9D0" cx="918.9" cy="206.1" r="1.1"/>
	<circle fill="#FFE9D0" cx="933.3" cy="214.3" r="1.1"/>
</g>
</svg>
