<?xml version="1.0" encoding="utf-8"?>
<!-- Generator: Adobe Illustrator 26.0.3, SVG Export Plug-In . SVG Version: 6.00 Build 0)  -->
<svg version="1.1" id="Слой_1" xmlns="http://www.w3.org/2000/svg" xmlns:xlink="http://www.w3.org/1999/xlink" x="0px" y="0px"
	 viewBox="0 0 1920 529.3" style="enable-background:new 0 0 1920 529.3;" xml:space="preserve">
<style type="text/css">
	.st0{fill:#8C604E;}
	.st1{fill:#DE8800;}
	.st2{clip-path:url(#SVGID_00000163773922184790717130000005098429169968466871_);fill:#C36800;}
	.st3{fill:#FFFCE6;}
	.st4{fill:#C01000;}
	.st5{clip-path:url(#SVGID_00000127745717618982084490000000995268212592794752_);fill:#FBFFC3;}
	.st6{clip-path:url(#SVGID_00000046319158971316074550000016720208637408056493_);fill:#FBFFC3;}
	.st7{clip-path:url(#SVGID_00000077317847655816666800000001491062724135575979_);fill:#FBFFC3;}
	.st8{fill:#CEFF3F;}
	.st9{fill:#B37200;}
	.st10{fill:#7F16FF;}
	.st11{fill:#004964;}
	.st12{clip-path:url(#SVGID_00000002361078397607383880000007227555738489655712_);fill:#534964;}
	.st13{fill:#54B800;}
	.st14{fill:#00063C;}
	.st15{fill:#00E600;}
	.st16{fill:#009200;}
	.st17{fill:#007400;}
	.st18{fill:#004C00;}
</style>
<rect x="341" y="291.5" class="st0" width="1238.1" height="145.8"/>
<g>
	<g>
		<g>
			<path id="XMLID_00000062165301448942784280000012332559302885620128_" class="st1" d="M493.6,251.4c0-86.9-40.1-157.3-89.6-157.3
				s-89.6,70.4-89.6,157.3H493.6z"/>
		</g>
		<g>
			<g>
				<g>
					<defs>
						<path id="SVGID_1_" d="M493.6,251.4c0-86.9-40.1-157.3-89.6-157.3s-89.6,70.4-89.6,157.3H493.6z"/>
					</defs>
					<clipPath id="SVGID_00000180331607824114850300000015808497184605532578_">
						<use xlink:href="#SVGID_1_"  style="overflow:visible;"/>
					</clipPath>
					<path style="clip-path:url(#SVGID_00000180331607824114850300000015808497184605532578_);fill:#C36800;" d="M297.7,106.2
						l-13.9,173.9c0,0,87.4-28.7,87.4-37.3s9.5-40.7,18.5-50.6c9-10,12.5-28.1,9.6-42.5s-9.1-11.7-11.5-23.9s11.4-24.2,26.1-43.1
						L297.7,106.2z"/>
				</g>
			</g>
		</g>
	</g>
	<circle class="st3" cx="434.4" cy="159.2" r="25.1"/>
	<circle class="st3" cx="368" cy="155.1" r="21.6"/>
	<g>
		<g>
			<path id="XMLID_00000011742463554499203880000015212842669988366216_" class="st4" d="M400.5,241.6
				c-38.8-9.1-40.1-41.1-40.1-41.1s42.5,21.5,61.5,16c6.4-1.9,12.6-3.9,18-5.7c10.7-3.6,18.4-6.6,18.4-6.6S439.4,250.7,400.5,241.6z
				"/>
		</g>
		<g>
			<g>
				<g>
					<g>
						<defs>
							<path id="SVGID_00000053504200971498549210000006812380372559856515_" d="M400.5,241.6c-38.8-9.1-40.1-41.1-40.1-41.1
								s42.5,21.5,61.5,16c6.4-1.9,12.6-3.9,18-5.7c10.7-3.6,18.4-6.6,18.4-6.6S439.4,250.7,400.5,241.6z"/>
						</defs>
						<clipPath id="SVGID_00000145757263420880666990000010971545136790137991_">
							<use xlink:href="#SVGID_00000053504200971498549210000006812380372559856515_"  style="overflow:visible;"/>
						</clipPath>
						<polyline style="clip-path:url(#SVGID_00000145757263420880666990000010971545136790137991_);fill:#FBFFC3;" points="
							439.9,208.3 432.2,212.5 430.6,221.6 439.9,221.6 						"/>
					</g>
				</g>
			</g>
			<g>
				<g>
					<g>
						<defs>
							<path id="SVGID_00000066492527093452890310000014231767631036728978_" d="M400.5,241.6c-38.8-9.1-40.1-41.1-40.1-41.1
								s42.5,21.5,61.5,16c6.4-1.9,12.6-3.9,18-5.7c10.7-3.6,18.4-6.6,18.4-6.6S439.4,250.7,400.5,241.6z"/>
						</defs>
						<clipPath id="SVGID_00000097493097532802362440000018379648414960505989_">
							<use xlink:href="#SVGID_00000066492527093452890310000014231767631036728978_"  style="overflow:visible;"/>
						</clipPath>
						<polyline style="clip-path:url(#SVGID_00000097493097532802362440000018379648414960505989_);fill:#FBFFC3;" points="
							375.8,238 384.3,235.5 387.8,226.9 378.7,224.9 						"/>
					</g>
				</g>
			</g>
			<g>
				<g>
					<g>
						<defs>
							<path id="SVGID_00000011033462682060359160000011558430807303791034_" d="M400.5,241.6c-38.8-9.1-40.1-41.1-40.1-41.1
								s42.5,21.5,61.5,16c6.4-1.9,12.6-3.9,18-5.7c10.7-3.6,18.4-6.6,18.4-6.6S439.4,250.7,400.5,241.6z"/>
						</defs>
						<clipPath id="SVGID_00000129927102809419302310000002369104261166603156_">
							<use xlink:href="#SVGID_00000011033462682060359160000011558430807303791034_"  style="overflow:visible;"/>
						</clipPath>
						<polyline style="clip-path:url(#SVGID_00000129927102809419302310000002369104261166603156_);fill:#FBFFC3;" points="
							365.1,234.7 373.6,232.2 377.1,223.6 368,221.6 						"/>
					</g>
				</g>
			</g>
		</g>
	</g>
	<polygon class="st1" points="345,138.1 348.5,135.6 334.4,95.3 	"/>
	<polygon class="st1" points="381.8,251.4 375.4,286.9 381.8,298.3 373.3,298.3 360.4,293.4 373.3,251.4 	"/>
	
		<rect x="512.3" y="108.4" transform="matrix(0.9924 0.1231 -0.1231 0.9924 20.9524 -62.1942)" class="st8" width="3.1" height="60.3"/>
	<polygon class="st1" points="429.3,248.6 433.8,284.5 443.3,293.5 435.1,296 421.4,295.1 421.2,251.2 	"/>
	<ellipse class="st1" cx="334.4" cy="95.7" rx="14" ry="10.2"/>
	<ellipse class="st9" cx="334.4" cy="95.3" rx="10.1" ry="7.3"/>
	<polygon class="st1" points="451.6,133.7 455.9,133.7 467.9,92.7 	"/>
	<ellipse transform="matrix(0.5814 -0.8136 0.8136 0.5814 120.0614 419.4496)" class="st1" cx="467.7" cy="93" rx="10.2" ry="14"/>
	
		<ellipse transform="matrix(0.5814 -0.8136 0.8136 0.5814 120.3287 419.5764)" class="st9" cx="467.9" cy="92.8" rx="7.3" ry="10.1"/>
	<circle class="st10" cx="429.6" cy="157.5" r="9.2"/>
	<circle class="st10" cx="368" cy="155.6" r="9.2"/>
	<polygon class="st1" points="485.2,184.3 506.3,174.1 506.6,165.1 483,176.7 	"/>
	<rect x="506.5" y="157.5" class="st1" width="11.6" height="19.1"/>
	<polygon class="st1" points="327.6,197.1 306.9,208.1 299.5,203 322.8,190.8 	"/>
	
		<rect x="292.1" y="199.4" transform="matrix(0.5891 -0.808 0.808 0.5891 -46.4521 326.575)" class="st1" width="11.6" height="19.1"/>
	<g>
		<g>
			
				<rect id="XMLID_00000016043823093394449270000009189175112191339441_" x="311.5" y="248.6" class="st11" width="184.9" height="13.4"/>
		</g>
		<g>
			<g>
				<g>
					<defs>
						<rect id="SVGID_00000088119253759124611830000018318952770013627269_" x="311.5" y="248.6" width="184.9" height="13.4"/>
					</defs>
					<clipPath id="SVGID_00000023999322474207381630000014279225231919377074_">
						<use xlink:href="#SVGID_00000088119253759124611830000018318952770013627269_"  style="overflow:visible;"/>
					</clipPath>
					<path style="clip-path:url(#SVGID_00000023999322474207381630000014279225231919377074_);fill:#534964;" d="M504,266.7
						l-208.5-1.1l4-6.4c0,0,93.3-4.6,109.8-3.8c16.5,0.8,91.6,5.2,91.6,5.2L504,266.7z"/>
				</g>
			</g>
		</g>
	</g>
	<circle class="st13" cx="518.1" cy="101.2" r="15.3"/>
</g>
<g>
	<path class="st14" d="M403.9,387.4v-12.3h-21v-4l20.2-28.9h6.6v28.1h6.3v4.8h-6.3v12.3H403.9z M403.9,370.3v-15.1
		c0-2.4,0.1-4.7,0.2-7.1h-0.2c-1.4,2.6-2.5,4.6-3.8,6.7l-11.1,15.4v0.1H403.9z"/>
	<path class="st14" d="M420.2,375.9c0-5.7,3.4-9.8,9-12.1l-0.1-0.2c-5-2.4-7.2-6.3-7.2-10.2c0-7.2,6.1-12.1,14-12.1
		c8.8,0,13.2,5.5,13.2,11.1c0,3.8-1.9,7.9-7.5,10.6v0.2c5.6,2.2,9.1,6.2,9.1,11.7c0,7.9-6.8,13.2-15.4,13.2
		C425.9,388.2,420.2,382.6,420.2,375.9z M444.5,375.7c0-5.5-3.8-8.2-10-9.9c-5.3,1.5-8.2,5-8.2,9.3c-0.2,4.6,3.3,8.6,9.1,8.6
		C441,383.7,444.5,380.3,444.5,375.7z M427.7,353c0,4.5,3.4,7,8.6,8.4c3.9-1.3,6.9-4.1,6.9-8.2c0-3.6-2.2-7.4-7.7-7.4
		C430.5,345.8,427.7,349.1,427.7,353z"/>
	<path class="st14" d="M471.7,359.3c0-2.6,1.7-4.4,4.2-4.4s4,1.8,4.1,4.4c0,2.4-1.6,4.3-4.2,4.3
		C473.4,363.6,471.7,361.7,471.7,359.3z M471.7,383.9c0-2.6,1.7-4.4,4.2-4.4s4,1.8,4.1,4.4c0,2.4-1.6,4.3-4.2,4.3
		C473.4,388.2,471.7,386.3,471.7,383.9z"/>
	<path class="st14" d="M526.3,346.5c-1.3-0.1-2.9,0-4.6,0.3c-9.6,1.6-14.7,8.6-15.7,16.1h0.2c2.2-2.9,5.9-5.2,10.9-5.2
		c8,0,13.7,5.8,13.7,14.6c0,8.3-5.6,16-15,16c-9.7,0-16-7.5-16-19.3c0-8.9,3.2-16,7.7-20.4c3.8-3.7,8.8-6,14.5-6.7
		c1.8-0.3,3.3-0.3,4.5-0.3V346.5z M524.5,372.6c0-6.5-3.7-10.4-9.3-10.4c-3.7,0-7.1,2.3-8.8,5.6c-0.4,0.7-0.7,1.6-0.7,2.7
		c0.1,7.5,3.6,13,10,13C521,383.5,524.5,379.1,524.5,372.6z"/>
	<path class="st14" d="M550.6,364v-4.2h36v4.2H550.6z M550.6,377.6v-4.2h36v4.2H550.6z"/>
</g>
<g>
	<path class="st14" d="M783.8,375.9c0-5.7,3.4-9.8,9-12.1l-0.1-0.2c-5-2.4-7.2-6.3-7.2-10.2c0-7.2,6.1-12.1,14-12.1
		c8.8,0,13.2,5.5,13.2,11.1c0,3.8-1.9,7.9-7.5,10.6v0.2c5.6,2.2,9.1,6.2,9.1,11.7c0,7.9-6.8,13.2-15.4,13.2
		C789.5,388.2,783.8,382.6,783.8,375.9z M808.2,375.7c0-5.5-3.8-8.2-10-9.9c-5.3,1.5-8.2,5-8.2,9.3c-0.2,4.6,3.3,8.6,9.1,8.6
		C804.6,383.7,808.2,380.3,808.2,375.7z M791.3,353c0,4.5,3.4,7,8.6,8.4c3.9-1.3,6.9-4.1,6.9-8.2c0-3.6-2.2-7.4-7.7-7.4
		C794.1,345.8,791.3,349.1,791.3,353z"/>
	<path class="st14" d="M845.9,346.5c-1.3-0.1-2.9,0-4.6,0.3c-9.6,1.6-14.7,8.6-15.7,16.1h0.2c2.2-2.9,5.9-5.2,10.9-5.2
		c8,0,13.7,5.8,13.7,14.6c0,8.3-5.6,16-15,16c-9.7,0-16-7.5-16-19.3c0-8.9,3.2-16,7.7-20.4c3.8-3.7,8.8-6,14.5-6.7
		c1.8-0.3,3.3-0.3,4.5-0.3V346.5z M844.2,372.6c0-6.5-3.7-10.4-9.3-10.4c-3.7,0-7.1,2.3-8.8,5.6c-0.4,0.7-0.7,1.6-0.7,2.7
		c0.1,7.5,3.6,13,10,13C840.6,383.5,844.2,379.1,844.2,372.6z"/>
	<path class="st14" d="M871.1,359.3c0-2.6,1.7-4.4,4.2-4.4s4,1.8,4.1,4.4c0,2.4-1.6,4.3-4.2,4.3
		C872.8,363.6,871.1,361.7,871.1,359.3z M871.1,383.9c0-2.6,1.7-4.4,4.2-4.4s4,1.8,4.1,4.4c0,2.4-1.6,4.3-4.2,4.3
		C872.8,388.2,871.1,386.3,871.1,383.9z"/>
	<path class="st14" d="M899.8,387.4v-3.8l4.8-4.7c11.6-11,16.8-16.9,16.9-23.7c0-4.6-2.2-8.8-9-8.8c-4.1,0-7.5,2.1-9.6,3.8l-2-4.3
		c3.1-2.6,7.6-4.6,12.8-4.6c9.8,0,13.9,6.7,13.9,13.2c0,8.4-6.1,15.1-15.6,24.3l-3.6,3.3v0.1h20.3v5.1H899.8z"/>
	<path class="st14" d="M950,364v-4.2h36v4.2H950z M950,377.6v-4.2h36v4.2H950z"/>
</g>
<g>
	<path class="st14" d="M1190.1,347.9h-0.1l-7.9,4.2l-1.2-4.7l9.9-5.3h5.2v45.3h-5.9V347.9z"/>
	<path class="st14" d="M1212.5,387.4v-3.8l4.8-4.7c11.6-11,16.8-16.9,16.9-23.7c0-4.6-2.2-8.8-9-8.8c-4.1,0-7.5,2.1-9.6,3.8l-2-4.3
		c3.1-2.6,7.6-4.6,12.8-4.6c9.8,0,13.9,6.7,13.9,13.2c0,8.4-6.1,15.1-15.6,24.3l-3.6,3.3v0.1h20.3v5.1H1212.5z"/>
	<path class="st14" d="M1299.2,359.3c0-2.6,1.7-4.4,4.2-4.4c2.4,0,4,1.8,4.1,4.4c0,2.4-1.6,4.3-4.2,4.3
		C1300.9,363.6,1299.2,361.7,1299.2,359.3z M1299.2,383.9c0-2.6,1.7-4.4,4.2-4.4c2.4,0,4,1.8,4.1,4.4c0,2.4-1.6,4.3-4.2,4.3
		C1300.9,388.2,1299.2,386.3,1299.2,383.9z"/>
	<path class="st14" d="M1355,347.3h-17.3l-1.7,11.6c1-0.1,2-0.3,3.7-0.3c3.5,0,7,0.8,9.8,2.4c3.6,2,6.5,5.9,6.5,11.6
		c0,8.8-7,15.5-16.9,15.5c-4.9,0-9.1-1.4-11.3-2.8l1.5-4.7c1.9,1.1,5.6,2.5,9.7,2.5c5.8,0,10.7-3.8,10.7-9.8c-0.1-5.9-4-10-13-10
		c-2.6,0-4.6,0.3-6.3,0.5l2.9-21.7h21.7V347.3z"/>
	<path class="st14" d="M1278.8,347.9h-17.3l-1.7,11.6c1-0.1,2-0.3,3.7-0.3c3.5,0,7,0.8,9.8,2.4c3.6,2,6.5,5.9,6.5,11.6
		c0,8.8-7,15.5-16.9,15.5c-4.9,0-9.1-1.4-11.3-2.8l1.5-4.7c1.9,1.1,5.6,2.5,9.7,2.5c5.8,0,10.7-3.8,10.7-9.8c-0.1-5.9-4-10-13-10
		c-2.6,0-4.6,0.3-6.3,0.5l2.9-21.7h21.7V347.9z"/>
	<path class="st14" d="M1378.1,364v-4.2h36v4.2H1378.1z M1378.1,377.6v-4.2h36v4.2H1378.1z"/>
</g>
<rect x="617.6" y="291.5" width="145.8" height="145.8"/>
<rect x="1016.6" y="291.5" width="145.8" height="145.8"/>
<rect x="1433.3" y="291.5" width="145.8" height="145.8"/>
<ellipse class="st15" cx="1578.6" cy="149.3" rx="37.3" ry="125.6"/>
<ellipse class="st16" cx="1582.9" cy="153.7" rx="30.4" ry="102.2"/>
<ellipse class="st17" cx="1586.5" cy="153.7" rx="21.9" ry="73.7"/>
<ellipse class="st18" cx="1593.9" cy="153.7" rx="11" ry="36.9"/>
</svg>
