<?xml version="1.0" encoding="utf-8"?>
<!-- Generator: Adobe Illustrator 26.0.3, SVG Export Plug-In . SVG Version: 6.00 Build 0)  -->
<svg version="1.1" id="Слой_1" xmlns="http://www.w3.org/2000/svg" xmlns:xlink="http://www.w3.org/1999/xlink" x="0px" y="0px"
	 viewBox="0 0 1920 386" style="enable-background:new 0 0 1920 386;" xml:space="preserve">
<style type="text/css">
	.st0{fill:#AA7A92;}
	.st1{clip-path:url(#XMLID_00000183212774079991519380000015244111862763689885_);fill:#FFDD8A;}
	.st2{clip-path:url(#XMLID_00000183212774079991519380000015244111862763689885_);fill:#FFB78A;}
	.st3{clip-path:url(#XMLID_00000183212774079991519380000015244111862763689885_);fill:#FFD5AA;}
	.st4{clip-path:url(#XMLID_00000183212774079991519380000015244111862763689885_);fill:#FFEFFA;}
	.st5{clip-path:url(#XMLID_00000075164286956561940250000010436625600864369819_);fill:#2E0810;}
	.st6{clip-path:url(#XMLID_00000098181713643491886930000015903290382128643751_);fill:#AE0092;}
	.st7{fill:#943F76;}
	.st8{opacity:0.48;clip-path:url(#XMLID_00000134230555587524647090000002055427393639990680_);fill:#FFFFFF;}
	.st9{clip-path:url(#XMLID_00000005948850301106788280000015154285649822770820_);fill:#FFE5AA;}
	.st10{fill:#6E3F6E;}
	.st11{clip-path:url(#XMLID_00000070838769454139530220000001735849773777332608_);fill:#B40092;}
</style>
<rect x="336.2" class="st0" width="1368.5" height="386"/>
<g>
	<defs>
		<path id="XMLID_00000021824223989123530530000006934351658370012075_" d="M662.4,231.2c0,0-9.6,43.7,0,47.8s88.7,20.5,88.7,20.5
			l-8.2-57.3c0,0,21.1,4.8,45.1-4.1c9-3.3,24.3-73,16.1-89.4s-33.8-72.4-33.8-72.4L617.4,187.9L662.4,231.2z"/>
	</defs>
	<use xlink:href="#XMLID_00000021824223989123530530000006934351658370012075_"  style="overflow:visible;fill:#FFFDAA;"/>
	<clipPath id="XMLID_00000034811320788393500320000013331470931489508778_">
		<use xlink:href="#XMLID_00000021824223989123530530000006934351658370012075_"  style="overflow:visible;"/>
	</clipPath>
	<path style="clip-path:url(#XMLID_00000034811320788393500320000013331470931489508778_);fill:#FFDD8A;" d="M664.5,204.4
		c2.6,0.9,78.4,37.8,78.4,37.8l38.7,48.5l-19.7,47.5l-141.3-25.5l32.3-84.7"/>
	<path style="clip-path:url(#XMLID_00000034811320788393500320000013331470931489508778_);fill:#FFB78A;" d="M711.9,326.3
		C709.3,327,626,340,626,340l-59.5-17.7L555.6,272l130.5-59.7l21.8,88"/>
	<path style="clip-path:url(#XMLID_00000034811320788393500320000013331470931489508778_);fill:#FFD5AA;" d="M772.3,62.9
		c0,0-26.5,65.7-36.4,70.1c-9.9,4.4-41.1,27.1-37.1,35.5s2.8,44.3-9.1,57.9c-11.9,13.6-52.7-44-52.7-44l42.1-69.7L772.3,62.9z"/>
	<path style="clip-path:url(#XMLID_00000034811320788393500320000013331470931489508778_);fill:#FFEFFA;" d="M804.2,280
		c0,0-19.6-139.2-29.3-145.1c-9.7-5.8-32.2-46.8-33.5-67.6C740.2,46.5,817.2,78,817.2,78l21.3,94.9L804.2,280z"/>
</g>
<g>
	<defs>
		<path id="XMLID_00000126297598370364269870000007182118575162683792_" d="M569.6,76.3c3.8-34.5,69.6-78.5,121.5-67.6
			s86,15,87.4,30s9.6,6.8-8.2,37.5c4,59.8-103.4,64.8-94.7,90.8c47.1,66.5-5,66.5-5,66.5s-81-24.4-91.9-61.3
			C569.6,167.2,565.5,113,569.6,76.3z"/>
	</defs>
	<use xlink:href="#XMLID_00000126297598370364269870000007182118575162683792_"  style="overflow:visible;fill:#441636;"/>
	<clipPath id="XMLID_00000047756748370982405100000016043651091180066970_">
		<use xlink:href="#XMLID_00000126297598370364269870000007182118575162683792_"  style="overflow:visible;"/>
	</clipPath>
	<path style="clip-path:url(#XMLID_00000047756748370982405100000016043651091180066970_);fill:#2E0810;" d="M734-22.9
		c0,0-35.2,68.2-65.9,79.7c-30.6,11.5-59.7,15.3-62,49.8c-2.3,34.5-1.5,41.6,0.8,81.3c2.3,39.7-62,54.3-74.3,55.8
		c-12.3,1.5,4.6-98,15.3-118S577.7,8.3,586.9,0S734-22.9,734-22.9z"/>
</g>
<g>
	<defs>
		<polygon id="XMLID_00000026872543511519496700000012415597222964509337_" points="591.9,386 650.1,271.3 765,299.5 832.4,347.9 
			843.2,386 755.8,458.2 		"/>
	</defs>
	<use xlink:href="#XMLID_00000026872543511519496700000012415597222964509337_"  style="overflow:visible;fill:#D40092;"/>
	<clipPath id="XMLID_00000075849134198408869310000003485497738352142976_">
		<use xlink:href="#XMLID_00000026872543511519496700000012415597222964509337_"  style="overflow:visible;"/>
	</clipPath>
	<path style="clip-path:url(#XMLID_00000075849134198408869310000003485497738352142976_);fill:#AE0092;" d="M743.7,291.7
		c0,0-71,12.8-83.2,22.5c-12.3,9.7-31.1,23-36.3,42.9c-5.1,19.9-3.8,51.1-6.8,53.6s-60.1-13.3-60.1-13.3l10.8-88.3l64.3-64.9
		L743.7,291.7z"/>
</g>
<ellipse class="st7" cx="1102.8" cy="92.7" rx="40.6" ry="59.1"/>
<rect x="1097.5" y="84.4" class="st7" width="10.7" height="119.5"/>
<g>
	<defs>
		<ellipse id="XMLID_00000050639415612705210450000006212164875799712659_" cx="1099.8" cy="92.7" rx="32" ry="46.5"/>
	</defs>
	<use xlink:href="#XMLID_00000050639415612705210450000006212164875799712659_"  style="overflow:visible;fill:#9468BA;"/>
	<clipPath id="XMLID_00000081635126890448796230000006980106453355920819_">
		<use xlink:href="#XMLID_00000050639415612705210450000006212164875799712659_"  style="overflow:visible;"/>
	</clipPath>
	<polygon style="opacity:0.48;clip-path:url(#XMLID_00000081635126890448796230000006980106453355920819_);fill:#FFFFFF;" points="
		1099.8,35 1097.5,72.5 1106.7,39.4 1105.1,105.1 1116.9,50.3 1118.6,84.4 1129.4,36.4 	"/>
	<polygon style="opacity:0.48;clip-path:url(#XMLID_00000081635126890448796230000006980106453355920819_);fill:#FFFFFF;" points="
		1084.7,139.2 1087.8,101.8 1077.9,134.7 1080.9,69 1067.9,123.5 1066.9,89.5 1055.1,137.2 	"/>
</g>
<g>
	<defs>
		<path id="XMLID_00000176002932357830355430000011421719084001128103_" d="M1090.9,160.9c19.4,19.6,34.7,13.2,34.2,34.5
			c-0.6,24-15.3,51.4-30.3,52.3s-28.1-17.9-29.1-41.9S1079.7,149.6,1090.9,160.9z"/>
	</defs>
	<use xlink:href="#XMLID_00000176002932357830355430000011421719084001128103_"  style="overflow:visible;fill:#FFFDAA;"/>
	<clipPath id="XMLID_00000172424767238797676910000013429678823383161742_">
		<use xlink:href="#XMLID_00000176002932357830355430000011421719084001128103_"  style="overflow:visible;"/>
	</clipPath>
	<path style="clip-path:url(#XMLID_00000172424767238797676910000013429678823383161742_);fill:#FFE5AA;" d="M1082.2,151.8
		c0,0,12.3,10.7,10.2,20.9s-6.1,14.3-8.7,25.5c-2.6,11.2-1.5,20.7-1.5,23.4s-33.2,21.6-33.2,21.6s-7.1-54.6-5.1-58.2
		C1046,181.4,1082.2,151.8,1082.2,151.8z"/>
</g>
<g>
	<path class="st10" d="M1280.7,100.2l-0.3-3.4c-0.8-7,1.6-14.6,8-22.4c5.8-6.9,9.1-11.9,9.1-17.7c0-6.6-4.1-11-12.3-11.1
		c-4.7,0-9.8,1.6-13.1,4l-3.1-8.2c4.3-3.1,11.6-5.2,18.5-5.2c14.9,0,21.6,9.2,21.6,19c0,8.8-4.9,15.1-11.1,22.5
		c-5.7,6.7-7.8,12.4-7.4,19l0.1,3.4H1280.7z M1277.9,118.3c0-4.8,3.2-8.2,7.8-8.2c4.5,0,7.6,3.4,7.6,8.2c0,4.5-3,8-7.8,8
		C1281,126.3,1277.9,122.8,1277.9,118.3z"/>
</g>
<g>
	<path class="st10" d="M1219.5,281.4l-0.5-6.3c-1.5-13.1,2.9-27.3,15-41.9c10.9-12.8,16.9-22.3,16.9-33.2c0-12.3-7.7-20.6-23-20.8
		c-8.7,0-18.4,2.9-24.4,7.5l-5.8-15.2c8-5.8,21.8-9.7,34.6-9.7c27.8,0,40.4,17.2,40.4,35.6c0,16.5-9.2,28.3-20.8,42.1
		c-10.6,12.6-14.5,23.2-13.8,35.6l0.2,6.3H1219.5z M1214.2,315.3c0-9,6-15.2,14.5-15.2c8.5,0,14.3,6.3,14.3,15.2
		c0,8.5-5.6,15-14.5,15C1220,330.3,1214.2,323.8,1214.2,315.3z"/>
</g>
<g>
	<path class="st10" d="M1324.4,188.4l-0.2-2.6c-0.6-5.4,1.2-11.2,6.2-17.2c4.5-5.3,7-9.2,7-13.6c0-5.1-3.2-8.5-9.5-8.6
		c-3.6,0-7.6,1.2-10.1,3.1l-2.4-6.3c3.3-2.4,9-4,14.2-4c11.4,0,16.6,7.1,16.6,14.6c0,6.8-3.8,11.6-8.6,17.3c-4.4,5.2-6,9.6-5.7,14.6
		l0.1,2.6H1324.4z M1322.2,202.3c0-3.7,2.5-6.3,6-6.3c3.5,0,5.9,2.6,5.9,6.3c0,3.5-2.3,6.2-6,6.2
		C1324.6,208.5,1322.2,205.8,1322.2,202.3z"/>
</g>
<g>
	<defs>
		<path id="XMLID_00000032643140336880703880000017214168628289811587_" d="M832.4,347.9l79.7-4.6l155.7-125.7
			c0,0,16.9-0.5,22.2,2.3c20.5,10.8,15.1,29.9,15.1,29.9L968.8,409.1l-281.9,73.6L832.4,347.9z"/>
	</defs>
	<use xlink:href="#XMLID_00000032643140336880703880000017214168628289811587_"  style="overflow:visible;fill:#D40092;"/>
	<clipPath id="XMLID_00000080183540995264259650000017240849731670683326_">
		<use xlink:href="#XMLID_00000032643140336880703880000017214168628289811587_"  style="overflow:visible;"/>
	</clipPath>
	<path style="clip-path:url(#XMLID_00000080183540995264259650000017240849731670683326_);fill:#B40092;" d="M1089.4,202.3
		c0,0-33.7,41.4-41.4,52.1c-7.7,10.7-88,69.7-88,69.7s-17.7,32.9-53.7,32.2s-75.8-6.9-82.5-6.2c-6.7,0.7,68.9-21.2,68.9-21.2
		l56.4-36.3L1089.4,202.3z"/>
</g>
</svg>
