<?xml version="1.0" encoding="utf-8"?>
<!-- Generator: Adobe Illustrator 26.0.3, SVG Export Plug-In . SVG Version: 6.00 Build 0)  -->
<svg version="1.1" id="Слой_1" xmlns="http://www.w3.org/2000/svg" xmlns:xlink="http://www.w3.org/1999/xlink" x="0px" y="0px"
	 viewBox="0 0 1920 386" enable-background="new 0 0 1920 386" xml:space="preserve">
<rect x="336.2" fill="#AA7A92" width="1368.5" height="386"/>
<rect x="505.4" y="-39.3" transform="matrix(0.7432 -0.669 0.669 0.7432 -55.9138 509.5076)" opacity="7.000000e-02" fill="#FFFFFF" stroke="#000000" stroke-width="1" stroke-miterlimit="9.9995" enable-background="new    " width="260.9" height="733.8"/>
<rect x="1382.6" y="-309.2" transform="matrix(0.7432 -0.669 0.669 0.7432 349.8807 1027.1093)" opacity="7.000000e-02" fill="#FFFFFF" stroke="#000000" stroke-width="1" stroke-miterlimit="9.9995" enable-background="new    " width="260.9" height="733.8"/>
<rect x="851.8" y="-185.4" transform="matrix(0.7432 -0.669 0.669 0.7432 101.826 628.297)" opacity="7.000000e-02" fill="#FFFFFF" stroke="#000000" stroke-width="1" stroke-miterlimit="9.9995" enable-background="new    " width="35.3" height="733.8"/>
<rect x="935.1" y="-236.5" transform="matrix(0.7432 -0.669 0.669 0.7432 155.1602 664.9846)" opacity="7.000000e-02" fill="#FFFFFF" stroke="#000000" stroke-width="1" stroke-miterlimit="9.9995" enable-background="new    " width="17.6" height="733.8"/>
<g>
	<g>
		<path id="XMLID_00000021824223989123530530000006934351658370012075_" fill="#FFFDAA" d="M662.4,231.2c0,0-9.6,43.7,0,47.8
			s88.7,20.5,88.7,20.5l-8.2-57.3c0,0,21.1,4.8,45.1-4.1c9-3.3,24.3-73,16.1-89.4s-33.8-72.4-33.8-72.4L617.4,187.9L662.4,231.2z"/>
	</g>
	<g>
		<g>
			<defs>
				<path id="SVGID_1_" d="M662.4,231.2c0,0-9.6,43.7,0,47.8s88.7,20.5,88.7,20.5l-8.2-57.3c0,0,21.1,4.8,45.1-4.1
					c9-3.3,24.3-73,16.1-89.4s-33.8-72.4-33.8-72.4L617.4,187.9L662.4,231.2z"/>
			</defs>
			<clipPath id="SVGID_00000147203308026621443170000004716501925328622502_">
				<use xlink:href="#SVGID_1_"  overflow="visible"/>
			</clipPath>
			<path clip-path="url(#SVGID_00000147203308026621443170000004716501925328622502_)" fill="#FFDD8A" d="M664.5,204.4
				c2.6,0.9,78.4,37.8,78.4,37.8l38.7,48.5l-19.7,47.5l-141.3-25.5l32.3-84.7"/>
		</g>
	</g>
	<g>
		<g>
			<defs>
				<path id="SVGID_00000085246641807468388990000013867262047349633439_" d="M662.4,231.2c0,0-9.6,43.7,0,47.8s88.7,20.5,88.7,20.5
					l-8.2-57.3c0,0,21.1,4.8,45.1-4.1c9-3.3,24.3-73,16.1-89.4s-33.8-72.4-33.8-72.4L617.4,187.9L662.4,231.2z"/>
			</defs>
			<clipPath id="SVGID_00000124135005663857053970000017724815333806865339_">
				<use xlink:href="#SVGID_00000085246641807468388990000013867262047349633439_"  overflow="visible"/>
			</clipPath>
			<path clip-path="url(#SVGID_00000124135005663857053970000017724815333806865339_)" fill="#FFB78A" d="M711.9,326.3
				C709.3,327,626,340,626,340l-59.5-17.7L555.6,272l130.5-59.7l21.8,88"/>
		</g>
	</g>
	<g>
		<g>
			<defs>
				<path id="SVGID_00000071545651195385891600000003922847250442132637_" d="M662.4,231.2c0,0-9.6,43.7,0,47.8s88.7,20.5,88.7,20.5
					l-8.2-57.3c0,0,21.1,4.8,45.1-4.1c9-3.3,24.3-73,16.1-89.4s-33.8-72.4-33.8-72.4L617.4,187.9L662.4,231.2z"/>
			</defs>
			<clipPath id="SVGID_00000046312184212160432130000002800336315123297963_">
				<use xlink:href="#SVGID_00000071545651195385891600000003922847250442132637_"  overflow="visible"/>
			</clipPath>
			<path clip-path="url(#SVGID_00000046312184212160432130000002800336315123297963_)" fill="#FFD5AA" d="M772.3,62.9
				c0,0-26.5,65.7-36.4,70.1s-41.1,27.1-37.1,35.5s2.8,44.3-9.1,57.9c-11.9,13.6-52.7-44-52.7-44l42.1-69.7L772.3,62.9z"/>
		</g>
	</g>
	<g>
		<g>
			<defs>
				<path id="SVGID_00000074439738973204483670000000637797389256117417_" d="M662.4,231.2c0,0-9.6,43.7,0,47.8s88.7,20.5,88.7,20.5
					l-8.2-57.3c0,0,21.1,4.8,45.1-4.1c9-3.3,24.3-73,16.1-89.4s-33.8-72.4-33.8-72.4L617.4,187.9L662.4,231.2z"/>
			</defs>
			<clipPath id="SVGID_00000011711606455463243820000011182265109509852300_">
				<use xlink:href="#SVGID_00000074439738973204483670000000637797389256117417_"  overflow="visible"/>
			</clipPath>
			<path clip-path="url(#SVGID_00000011711606455463243820000011182265109509852300_)" fill="#FFEFFA" d="M804.2,280
				c0,0-19.6-139.2-29.3-145.1c-9.7-5.8-32.2-46.8-33.5-67.6C740.2,46.5,817.2,78,817.2,78l21.3,94.9L804.2,280z"/>
		</g>
	</g>
</g>
<g>
	<g>
		<path id="XMLID_00000126297598370364269870000007182118575162683792_" fill="#441636" d="M569.6,76.3
			c3.8-34.5,69.6-78.5,121.5-67.6s86,15,87.4,30s9.6,6.8-8.2,37.5c4,59.8-103.4,64.8-94.7,90.8c47.1,66.5-5,66.5-5,66.5
			s-81-24.4-91.9-61.3C569.6,167.2,565.5,113,569.6,76.3z"/>
	</g>
	<g>
		<g>
			<defs>
				<path id="SVGID_00000126299747379199952410000003816107266662342821_" d="M569.6,76.3c3.8-34.5,69.6-78.5,121.5-67.6
					s86,15,87.4,30s9.6,6.8-8.2,37.5c4,59.8-103.4,64.8-94.7,90.8c47.1,66.5-5,66.5-5,66.5s-81-24.4-91.9-61.3
					C569.6,167.2,565.5,113,569.6,76.3z"/>
			</defs>
			<clipPath id="SVGID_00000080903097351529285580000010382856038640385695_">
				<use xlink:href="#SVGID_00000126299747379199952410000003816107266662342821_"  overflow="visible"/>
			</clipPath>
			<path clip-path="url(#SVGID_00000080903097351529285580000010382856038640385695_)" fill="#2E0810" d="M734-22.9
				c0,0-35.2,68.2-65.9,79.7c-30.6,11.5-59.7,15.3-62,49.8s-1.5,41.6,0.8,81.3s-62,54.3-74.3,55.8s4.6-98,15.3-118
				S577.7,8.3,586.9,0S734-22.9,734-22.9z"/>
		</g>
	</g>
</g>
<g>
	<g>
		<polygon id="XMLID_00000026872543511519496700000012415597222964509337_" fill="#D40092" points="591.9,386 650.1,271.3 
			765,299.5 832.4,347.9 843.2,386 755.8,458.2 		"/>
	</g>
	<g>
		<g>
			<defs>
				<polygon id="SVGID_00000013178821604424853840000015910529258995045564_" points="591.9,386 650.1,271.3 765,299.5 832.4,347.9 
					843.2,386 755.8,458.2 				"/>
			</defs>
			<clipPath id="SVGID_00000014593130998833407620000009057214324068365201_">
				<use xlink:href="#SVGID_00000013178821604424853840000015910529258995045564_"  overflow="visible"/>
			</clipPath>
			<path clip-path="url(#SVGID_00000014593130998833407620000009057214324068365201_)" fill="#AE0092" d="M743.7,291.7
				c0,0-71,12.8-83.2,22.5c-12.3,9.7-31.1,23-36.3,42.9c-5.1,19.9-3.8,51.1-6.8,53.6s-60.1-13.3-60.1-13.3l10.8-88.3l64.3-64.9
				L743.7,291.7z"/>
		</g>
	</g>
</g>
<ellipse fill="#943F76" cx="1102.8" cy="92.7" rx="40.6" ry="59.1"/>
<rect x="1097.5" y="84.4" fill="#943F76" width="10.7" height="119.5"/>
<g>
	<g>
		
			<ellipse id="XMLID_00000050639415612705210450000006212164875799712659_" fill="#9468BA" cx="1099.8" cy="92.7" rx="32" ry="46.5"/>
	</g>
	<g>
		<g>
			<defs>
				<ellipse id="SVGID_00000020400037742516048080000015223920690324691356_" cx="1099.8" cy="92.7" rx="32" ry="46.5"/>
			</defs>
			<clipPath id="SVGID_00000000940525753962824000000008501509576463978388_">
				<use xlink:href="#SVGID_00000020400037742516048080000015223920690324691356_"  overflow="visible"/>
			</clipPath>
			
				<polygon opacity="0.48" clip-path="url(#SVGID_00000000940525753962824000000008501509576463978388_)" fill="#FFFFFF" enable-background="new    " points="
				1099.8,35 1097.5,72.5 1106.7,39.4 1105.1,105.1 1116.9,50.3 1118.6,84.4 1129.4,36.4 			"/>
		</g>
	</g>
	<g>
		<g>
			<defs>
				<ellipse id="SVGID_00000092442864394570163430000000259942426263004093_" cx="1099.8" cy="92.7" rx="32" ry="46.5"/>
			</defs>
			<clipPath id="SVGID_00000061446004668321395320000012948602063685166010_">
				<use xlink:href="#SVGID_00000092442864394570163430000000259942426263004093_"  overflow="visible"/>
			</clipPath>
			
				<polygon opacity="0.48" clip-path="url(#SVGID_00000061446004668321395320000012948602063685166010_)" fill="#FFFFFF" enable-background="new    " points="
				1084.7,139.2 1087.8,101.8 1077.9,134.7 1080.9,69 1067.9,123.5 1066.9,89.5 1055.1,137.2 			"/>
		</g>
	</g>
</g>
<g>
	<g>
		<path id="XMLID_00000176002932357830355430000011421719084001128103_" fill="#FFFDAA" d="M1090.9,160.9
			c19.4,19.6,34.7,13.2,34.2,34.5c-0.6,24-15.3,51.4-30.3,52.3s-28.1-17.9-29.1-41.9S1079.7,149.6,1090.9,160.9z"/>
	</g>
	<g>
		<g>
			<defs>
				<path id="SVGID_00000183942563632397488450000016675966634696612515_" d="M1090.9,160.9c19.4,19.6,34.7,13.2,34.2,34.5
					c-0.6,24-15.3,51.4-30.3,52.3s-28.1-17.9-29.1-41.9S1079.7,149.6,1090.9,160.9z"/>
			</defs>
			<clipPath id="SVGID_00000148653498681802704210000011949327603142708123_">
				<use xlink:href="#SVGID_00000183942563632397488450000016675966634696612515_"  overflow="visible"/>
			</clipPath>
			<path clip-path="url(#SVGID_00000148653498681802704210000011949327603142708123_)" fill="#FFE5AA" d="M1082.2,151.8
				c0,0,12.3,10.7,10.2,20.9s-6.1,14.3-8.7,25.5s-1.5,20.7-1.5,23.4s-33.2,21.6-33.2,21.6s-7.1-54.6-5.1-58.2
				C1046,181.4,1082.2,151.8,1082.2,151.8z"/>
		</g>
	</g>
</g>
<g>
	<path fill="#6E3F6E" d="M1280.7,100.2l-0.3-3.4c-0.8-7,1.6-14.6,8-22.4c5.8-6.9,9.1-11.9,9.1-17.7c0-6.6-4.1-11-12.3-11.1
		c-4.7,0-9.8,1.6-13.1,4l-3.1-8.2c4.3-3.1,11.6-5.2,18.5-5.2c14.9,0,21.6,9.2,21.6,19c0,8.8-4.9,15.1-11.1,22.5
		c-5.7,6.7-7.8,12.4-7.4,19l0.1,3.4h-10L1280.7,100.2L1280.7,100.2z M1277.9,118.3c0-4.8,3.2-8.2,7.8-8.2c4.5,0,7.6,3.4,7.6,8.2
		c0,4.5-3,8-7.8,8C1281,126.3,1277.9,122.8,1277.9,118.3z"/>
</g>
<g>
	<path fill="#6E3F6E" d="M1219.5,281.4l-0.5-6.3c-1.5-13.1,2.9-27.3,15-41.9c10.9-12.8,16.9-22.3,16.9-33.2c0-12.3-7.7-20.6-23-20.8
		c-8.7,0-18.4,2.9-24.4,7.5l-5.8-15.2c8-5.8,21.8-9.7,34.6-9.7c27.8,0,40.4,17.2,40.4,35.6c0,16.5-9.2,28.3-20.8,42.1
		c-10.6,12.6-14.5,23.2-13.8,35.6l0.2,6.3L1219.5,281.4L1219.5,281.4z M1214.2,315.3c0-9,6-15.2,14.5-15.2s14.3,6.3,14.3,15.2
		c0,8.5-5.6,15-14.5,15C1220,330.3,1214.2,323.8,1214.2,315.3z"/>
</g>
<g>
	<path fill="#6E3F6E" d="M1324.4,188.4l-0.2-2.6c-0.6-5.4,1.2-11.2,6.2-17.2c4.5-5.3,7-9.2,7-13.6c0-5.1-3.2-8.5-9.5-8.6
		c-3.6,0-7.6,1.2-10.1,3.1l-2.4-6.3c3.3-2.4,9-4,14.2-4c11.4,0,16.6,7.1,16.6,14.6c0,6.8-3.8,11.6-8.6,17.3c-4.4,5.2-6,9.6-5.7,14.6
		l0.1,2.6L1324.4,188.4L1324.4,188.4z M1322.2,202.3c0-3.7,2.5-6.3,6-6.3s5.9,2.6,5.9,6.3c0,3.5-2.3,6.2-6,6.2
		C1324.6,208.5,1322.2,205.8,1322.2,202.3z"/>
</g>
<g>
	<g>
		<path id="XMLID_00000032643140336880703880000017214168628289811587_" fill="#D40092" d="M832.4,347.9l79.7-4.6l155.7-125.7
			c0,0,16.9-0.5,22.2,2.3c20.5,10.8,15.1,29.9,15.1,29.9L968.8,409.1l-281.9,73.6L832.4,347.9z"/>
	</g>
	<g>
		<g>
			<defs>
				<path id="SVGID_00000015345263220714074620000005283589671879459765_" d="M832.4,347.9l79.7-4.6l155.7-125.7
					c0,0,16.9-0.5,22.2,2.3c20.5,10.8,15.1,29.9,15.1,29.9L968.8,409.1l-281.9,73.6L832.4,347.9z"/>
			</defs>
			<clipPath id="SVGID_00000072971328946784831720000008753018948583035057_">
				<use xlink:href="#SVGID_00000015345263220714074620000005283589671879459765_"  overflow="visible"/>
			</clipPath>
			<path clip-path="url(#SVGID_00000072971328946784831720000008753018948583035057_)" fill="#B40092" d="M1089.4,202.3
				c0,0-33.7,41.4-41.4,52.1c-7.7,10.7-88,69.7-88,69.7s-17.7,32.9-53.7,32.2s-75.8-6.9-82.5-6.2c-6.7,0.7,68.9-21.2,68.9-21.2
				l56.4-36.3L1089.4,202.3z"/>
		</g>
	</g>
</g>
</svg>
