<?xml version="1.0" encoding="utf-8"?>
<!-- Generator: Adobe Illustrator 26.0.3, SVG Export Plug-In . SVG Version: 6.00 Build 0)  -->
<svg version="1.1" id="Слой_1" xmlns="http://www.w3.org/2000/svg" xmlns:xlink="http://www.w3.org/1999/xlink" x="0px" y="0px"
	 viewBox="0 0 1920 386" style="enable-background:new 0 0 1920 386;" xml:space="preserve">
<style type="text/css">
	.st0{fill:#CF0A0A;}
	.st1{clip-path:url(#SVGID_00000095311802331305936860000001135810575220596131_);fill:#970707;}
	
		.st2{opacity:0.36;clip-path:url(#SVGID_00000181776337100631225360000006055791457593619870_);fill:#FFFFFF;enable-background:new    ;}
	.st3{fill:#41270F;}
	.st4{fill:#4F7E06;}
	.st5{fill:#D00000;}
	.st6{clip-path:url(#SVGID_00000055683743216520840800000009271045722295253913_);fill:#980000;}
	
		.st7{opacity:0.36;clip-path:url(#SVGID_00000020376379602516058140000008934356029595096704_);fill:#FFFFFF;enable-background:new    ;}
	
		.st8{opacity:0.36;clip-path:url(#SVGID_00000159435909494725434650000014790737595954294463_);fill:#FFFFFF;enable-background:new    ;}
	.st9{fill:#42260D;}
	.st10{fill:#5F9D00;}
	.st11{fill:#EE0000;}
	.st12{clip-path:url(#SVGID_00000013913216986694592400000003586783706196741533_);fill:#B60000;}
	
		.st13{opacity:0.36;clip-path:url(#SVGID_00000042704808289052731680000001912817256540396682_);fill:#FFFFFF;enable-background:new    ;}
	
		.st14{opacity:0.36;clip-path:url(#SVGID_00000106852351238536193370000012573456473519862187_);fill:#FFFFFF;enable-background:new    ;}
	.st15{fill:#603813;}
</style>
<g id="фон">
</g>
<g id="Слой_1_00000037669356819251724510000000430858841767555985_">
	<g>
		<g>
			<g>
				<path id="XMLID_00000085950885036735414740000015742055956580783289_" class="st0" d="M803.5,116.3c0,0-36-17.2-61.7-9.9
					c-25.7,7.3-100.3,21.4-82.3,151.3s106,131.7,116.2,129.5c7.4-1.7,22.6-4.9,30.3-5.3c10.1-0.5,25.5,4.8,35.6,5.3
					c39.4,1.9,114.9-29.1,113.6-161.6c-1.3-132.4-102.9-119.1-102.9-119.1L803.5,116.3z"/>
			</g>
			<g>
				<g>
					<g>
						<defs>
							<path id="SVGID_1_" d="M803.5,116.3c0,0-36-17.2-61.7-9.9c-25.7,7.3-100.3,21.4-82.3,151.3s106,131.7,116.2,129.5
								c7.4-1.7,22.6-4.9,30.3-5.3c10.1-0.5,25.5,4.8,35.6,5.3c39.4,1.9,114.9-29.1,113.6-161.6c-1.3-132.4-102.9-119.1-102.9-119.1
								L803.5,116.3z"/>
						</defs>
						<clipPath id="SVGID_00000070809037265896851190000009940172432062988167_">
							<use xlink:href="#SVGID_1_"  style="overflow:visible;"/>
						</clipPath>
						<path style="clip-path:url(#SVGID_00000070809037265896851190000009940172432062988167_);fill:#970707;" d="M768.5,100
							c0,0,12.2,28.2,22.5,31.9s21.4-7.7,28.6-10.3c7-2.8,16.4-8.3,34.3-7.4c17.9,0.9,64.7,14,74.1,44.1s3.7,119.1-10.3,143.5
							s-86.3,54.4-106,59s-99.1,5.4-99.1,5.4l-20.9,84.6l361.1-67.5l-24.5-327.2L768.5,100z"/>
					</g>
				</g>
			</g>
			<g>
				<g>
					<g>
						<defs>
							<path id="SVGID_00000183955266016780091090000010414439519275567289_" d="M803.5,116.3c0,0-36-17.2-61.7-9.9
								c-25.7,7.3-100.3,21.4-82.3,151.3s106,131.7,116.2,129.5c7.4-1.7,22.6-4.9,30.3-5.3c10.1-0.5,25.5,4.8,35.6,5.3
								c39.4,1.9,114.9-29.1,113.6-161.6c-1.3-132.4-102.9-119.1-102.9-119.1L803.5,116.3z"/>
						</defs>
						<clipPath id="SVGID_00000171707556536099899930000001990027052266604444_">
							<use xlink:href="#SVGID_00000183955266016780091090000010414439519275567289_"  style="overflow:visible;"/>
						</clipPath>
						
							<path style="opacity:0.36;clip-path:url(#SVGID_00000171707556536099899930000001990027052266604444_);fill:#FFFFFF;enable-background:new    ;" d="
							M731.8,182.6c-7.3,20.7-13,52.8-24.9,48.6s-25.7-43.3-18.4-63.9c7.3-20.7,22.9-33.9,34.8-29.7
							C735.2,141.9,739.1,162,731.8,182.6z"/>
					</g>
				</g>
			</g>
		</g>
		<path class="st3" d="M764.5,41.9c0.5,1.2,6,5.7,11.6,15c5.3,8.5,24,65.5,24,65.5h5.2c0,0-18-45.4-24.8-67.8
			C773.9,32.3,761.8,36.4,764.5,41.9z"/>
		<path class="st4" d="M847.9,21.7c0,0-11.1,31.1-21,36.4c-9.8,5.2-37.3,25.3-37.3,25.3s6-43.9,15.5-54.3
			C814.5,18.8,847.9,21.7,847.9,21.7z"/>
	</g>
	<g>
		<g>
			<g>
				<path id="XMLID_00000052806653593771889620000013472412435152253315_" class="st5" d="M1164.6,185.3c0,0-24-16.7-43.4-14.3
					c-19.5,2.3-74.8,3.8-76.9,99.7c-2.1,95.7,55.3,114,62.9,113.4c5.6-0.4,19.2-6,24.8-5.4c7.3,0.8,21.6,4.9,28.7,6.5
					c28.2,5.8,86.3-7.7,100.7-103.4c14.4-95.7-60.4-98-60.4-98L1164.6,185.3z"/>
			</g>
			<g>
				<g>
					<g>
						<defs>
							<path id="SVGID_00000084500822423203457850000011040826007808684932_" d="M1164.6,185.3c0,0-24-16.7-43.4-14.3
								c-19.5,2.3-74.8,3.8-76.9,99.7c-2.1,95.7,55.3,114,62.9,113.4c5.6-0.4,19.2-6,24.8-5.4c7.3,0.8,21.6,4.9,28.7,6.5
								c28.2,5.8,86.3-7.7,100.7-103.4c14.4-95.7-60.4-98-60.4-98L1164.6,185.3z"/>
						</defs>
						<clipPath id="SVGID_00000177469412130591096180000000037949873148986778_">
							<use xlink:href="#SVGID_00000084500822423203457850000011040826007808684932_"  style="overflow:visible;"/>
						</clipPath>
						<path style="clip-path:url(#SVGID_00000177469412130591096180000000037949873148986778_);fill:#980000;" d="M1141.3,169.5
							c0,0,5.6,21.7,12.6,25.7c7,3.8,16.4-3,21.8-4.2s12.8-4.1,25.5-1.5s45,17.6,48.3,40.4s-11.1,86.3-24.1,102.3
							s-68.6,29.3-83.3,30.3S1070,355,1070,355l-24.9,58.6l268.3-6.8l20.4-238.9L1141.3,169.5z"/>
					</g>
				</g>
			</g>
			<g>
				<g>
					<g>
						<defs>
							<path id="SVGID_00000076578474281840910150000007394107477935604908_" d="M1164.6,185.3c0,0-24-16.7-43.4-14.3
								c-19.5,2.3-74.8,3.8-76.9,99.7c-2.1,95.7,55.3,114,62.9,113.4c5.6-0.4,19.2-6,24.8-5.4c7.3,0.8,21.6,4.9,28.7,6.5
								c28.2,5.8,86.3-7.7,100.7-103.4c14.4-95.7-60.4-98-60.4-98L1164.6,185.3z"/>
						</defs>
						<clipPath id="SVGID_00000008119037623281643790000017361754015547779750_">
							<use xlink:href="#SVGID_00000076578474281840910150000007394107477935604908_"  style="overflow:visible;"/>
						</clipPath>
						
							<path style="opacity:0.36;clip-path:url(#SVGID_00000008119037623281643790000017361754015547779750_);fill:#FFFFFF;enable-background:new    ;" d="
							M1099.9,233.7c-7.3,9-16.1,24-20.9,20c-4.9-4-4-25.3,3.4-34.3s17.2-13.1,22.1-9.1C1109.3,214.2,1107.3,224.7,1099.9,233.7z"/>
					</g>
				</g>
			</g>
			<g>
				<g>
					<g>
						<defs>
							<path id="SVGID_00000086651898830433908320000014619373006642814137_" d="M1164.6,185.3c0,0-24-16.7-43.4-14.3
								c-19.5,2.3-74.8,3.8-76.9,99.7c-2.1,95.7,55.3,114,62.9,113.4c5.6-0.4,19.2-6,24.8-5.4c7.3,0.8,21.6,4.9,28.7,6.5
								c28.2,5.8,86.3-7.7,100.7-103.4c14.4-95.7-60.4-98-60.4-98L1164.6,185.3z"/>
						</defs>
						<clipPath id="SVGID_00000000207115957205140020000005561329023363505309_">
							<use xlink:href="#SVGID_00000086651898830433908320000014619373006642814137_"  style="overflow:visible;"/>
						</clipPath>
						
							<path style="opacity:0.36;clip-path:url(#SVGID_00000000207115957205140020000005561329023363505309_);fill:#FFFFFF;enable-background:new    ;" d="
							M1085.6,276.2c-1.7-0.3-4.6,1.2-4-3c0.7-4.2,4.5-12.4,6.4-12.2c1.7,0.3,2.6,3.8,2,8.1S1087.5,276.5,1085.6,276.2z"/>
					</g>
				</g>
			</g>
		</g>
		<path class="st9" d="M1212.4,137.3c-0.8,0.8-7,3-14.3,8.7c-6.6,5.2-33.4,43.2-33.4,43.2l-5.6-0.9c0,0,24.6-29.7,34.4-44.6
			C1203.4,128.7,1216,133.8,1212.4,137.3z"/>
		<path class="st10" d="M1256.4,151.4c0,0-19.5-8.9-29.7-6s-40.5,8.6-40.5,8.6s18.9,18,30.4,17.7
			C1228.2,171.5,1256.4,151.4,1256.4,151.4z"/>
	</g>
	<g>
		<g>
			<g>
				<path id="XMLID_00000091017690886273474730000004683794767781391537_" class="st11" d="M997.6,116.8c0,0-36.1-17.1-62-9.8
					c-25.8,7.3-100.7,21.3-82.6,150.4S959.6,388.3,969.8,386c7.4-1.7,22.8-4.9,30.4-5.3c10.1-0.5,25.7,4.8,35.7,5.3
					c39.6,1.7,115.4-29,114.1-160.6S1046.8,107,1046.8,107L997.6,116.8z"/>
			</g>
			<g>
				<g>
					<g>
						<defs>
							<path id="SVGID_00000092419140360619295060000016793484491436358834_" d="M997.6,116.8c0,0-36.1-17.1-62-9.8
								c-25.8,7.3-100.7,21.3-82.6,150.4S959.6,388.3,969.8,386c7.4-1.7,22.8-4.9,30.4-5.3c10.1-0.5,25.7,4.8,35.7,5.3
								c39.6,1.7,115.4-29,114.1-160.6S1046.8,107,1046.8,107L997.6,116.8z"/>
						</defs>
						<clipPath id="SVGID_00000031907970593807722970000013954836105255228549_">
							<use xlink:href="#SVGID_00000092419140360619295060000016793484491436358834_"  style="overflow:visible;"/>
						</clipPath>
						<path style="clip-path:url(#SVGID_00000031907970593807722970000013954836105255228549_);fill:#B60000;" d="M962.4,100.6
							c0,0,12.3,27.9,22.6,31.6s21.6-7.5,28.7-10.3s16.5-8.3,34.4-7.4s65,14,74.4,43.8s3.7,118.3-10.3,142.6
							c-14.2,24.2-86.7,54-106.4,58.8c-19.7,4.8-99.5,5.4-99.5,5.4l-21,84.1l362.7-67.1L1223.4,57L962.4,100.6z"/>
					</g>
				</g>
			</g>
			<g>
				<g>
					<g>
						<defs>
							<path id="SVGID_00000029044933148851701990000007245883576799568811_" d="M997.6,116.8c0,0-36.1-17.1-62-9.8
								c-25.8,7.3-100.7,21.3-82.6,150.4S959.6,388.3,969.8,386c7.4-1.7,22.8-4.9,30.4-5.3c10.1-0.5,25.7,4.8,35.7,5.3
								c39.6,1.7,115.4-29,114.1-160.6S1046.8,107,1046.8,107L997.6,116.8z"/>
						</defs>
						<clipPath id="SVGID_00000135660948180240520710000012655264008956132234_">
							<use xlink:href="#SVGID_00000029044933148851701990000007245883576799568811_"  style="overflow:visible;"/>
						</clipPath>
						
							<path style="opacity:0.36;clip-path:url(#SVGID_00000135660948180240520710000012655264008956132234_);fill:#FFFFFF;enable-background:new    ;" d="
							M920.3,195.8c-7.9,13.8-16.7,35.7-24.1,31.5c-7.4-4.2-10.9-33.1-2.9-46.9c7.9-13.8,20.5-21.3,27.9-17.1
							C928.8,167.6,928.2,182.2,920.3,195.8z"/>
					</g>
				</g>
			</g>
			<g>
				<g>
					<g>
						<defs>
							<path id="SVGID_00000120558681835946935760000010104434571187304096_" d="M997.6,116.8c0,0-36.1-17.1-62-9.8
								c-25.8,7.3-100.7,21.3-82.6,150.4S959.6,388.3,969.8,386c7.4-1.7,22.8-4.9,30.4-5.3c10.1-0.5,25.7,4.8,35.7,5.3
								c39.6,1.7,115.4-29,114.1-160.6S1046.8,107,1046.8,107L997.6,116.8z"/>
						</defs>
						<clipPath id="SVGID_00000012469462918338302440000016900135349976536485_">
							<use xlink:href="#SVGID_00000120558681835946935760000010104434571187304096_"  style="overflow:visible;"/>
						</clipPath>
						
							<path style="opacity:0.36;clip-path:url(#SVGID_00000012469462918338302440000016900135349976536485_);fill:#FFFFFF;enable-background:new    ;" d="
							M910.1,256c-2.5,0-6.1,2.5-6.1-3.3s3.4-17.7,5.8-17.7c2.5,0,4.5,4.6,4.5,10.5C914.5,251.3,912.6,256,910.1,256z"/>
					</g>
				</g>
			</g>
		</g>
		<path class="st15" d="M1052,42c-0.9,1.2-8.9,5.6-17.5,14.8c-7.8,8.5-35.9,65.1-35.9,65.1h-7.8c0,0,27-45.1,37.1-67.4
			C1038,32.2,1056,36.5,1052,42z"/>
		<path class="st10" d="M927.4,22c0,0,16.7,31,31.4,36.1c14.7,5.2,55.7,25,55.7,25s-9-43.7-23-54S927.4,22,927.4,22z"/>
	</g>
</g>
</svg>
