<?xml version="1.0" encoding="utf-8"?>
<!-- Generator: Adobe Illustrator 26.0.3, SVG Export Plug-In . SVG Version: 6.00 Build 0)  -->
<svg version="1.1" id="Слой_1" xmlns="http://www.w3.org/2000/svg" xmlns:xlink="http://www.w3.org/1999/xlink" x="0px" y="0px"
	 viewBox="0 0 1920 386" style="enable-background:new 0 0 1920 386;" xml:space="preserve">
<style type="text/css">
	.st0{clip-path:url(#XMLID_00000149348606756351002010000009152696825853739709_);fill:#897B08;}
	.st1{opacity:0.46;clip-path:url(#XMLID_00000149348606756351002010000009152696825853739709_);fill:#FFFFFF;}
	.st2{fill:#512107;}
	.st3{clip-path:url(#SVGID_00000034799416607682751860000015429004619274937729_);fill:#AA980A;}
	.st4{opacity:0.46;clip-path:url(#SVGID_00000034799416607682751860000015429004619274937729_);fill:#FFFFFF;}
	.st5{fill:#722E0A;}
	.st6{clip-path:url(#SVGID_00000053510894573371690960000012803232514396186250_);fill:#AA980A;}
	.st7{opacity:0.46;clip-path:url(#SVGID_00000053510894573371690960000012803232514396186250_);fill:#FFFFFF;}
	.st8{clip-path:url(#XMLID_00000096055523915515069500000009942683608363357843_);fill:#C1AD0B;}
	.st9{opacity:0.46;clip-path:url(#XMLID_00000096055523915515069500000009942683608363357843_);fill:#FFFFFF;}
	.st10{fill:#983D0D;}
</style>
<g id="фон">
</g>
<g>
	<g>
		<g>
			<defs>
				<path id="XMLID_00000098219590588566617590000000585763384823272621_" d="M975.3,65.7c0,0-35.9-4.8-44.9,5S900.6,123,887,134.1
					c-13.6,11.1-73.6,55-74.9,102s6.8,68.3,30.2,92.2c23.3,23.9,43.3,55.6,91.1,58.7s102.9-5.1,115.6-15.5s85-81.4,63.2-145.1
					c-21.7-63.7-40.3-37-57.3-72.5c-16.9-35.4-10.5-57.4-27.4-72.1C1010.6,67.2,975.3,65.7,975.3,65.7z"/>
			</defs>
			<use xlink:href="#XMLID_00000098219590588566617590000000585763384823272621_"  style="overflow:visible;fill:#999D08;"/>
			<clipPath id="XMLID_00000103248236306745369110000005235823316406836385_">
				<use xlink:href="#XMLID_00000098219590588566617590000000585763384823272621_"  style="overflow:visible;"/>
			</clipPath>
			<path style="clip-path:url(#XMLID_00000103248236306745369110000005235823316406836385_);fill:#897B08;" d="M929.4,59
				c0,0,13.3,26.1,28.7,28.8c15.4,2.7,23.5-10.8,36.8-8.1c13.3,2.7,13.3,5.4,21.5,14.4c8.2,9-6.1,45.1,20.5,65.8
				c26.6,20.7,40.9,61.3,38.9,94.6c-2,33.3-34.8,102.7-50.2,113.5c-15.4,10.8-88,20.6-88,20.6l-2,27.1c0,0,232.3-33.3,242.6-32.4
				s31.7-197.3,31.7-200c0-2.7-115.7-193.7-115.7-193.7L929.4,59z"/>
			<path style="opacity:0.46;clip-path:url(#XMLID_00000103248236306745369110000005235823316406836385_);fill:#FFFFFF;" d="
				M886.6,161.4c-5.6,11.1-28.2,26.6-20.7,29.5c7.5,2.9,42.3-7.9,47.9-19c5.6-11.1,1.1-29.9-6.4-32.8
				C899.9,136.2,892.2,150.3,886.6,161.4z"/>
			<path style="opacity:0.46;clip-path:url(#XMLID_00000103248236306745369110000005235823316406836385_);fill:#FFFFFF;" d="
				M841.5,210.2c-2.2,4.5-9.2,11.5-7.5,12.2c1.7,0.7,11.4-5.3,13.6-9.8c2.2-4.5,2.5-11.2,0.8-11.9
				C846.7,200,843.7,205.7,841.5,210.2z"/>
		</g>
		<g>
			<path class="st2" d="M971.8,77.1c-9.9-10.4-19.2-21.5-26.4-34c-7.3-13.1-4.9-29.2,0.1-42.6c0,0,2.2,0.9,2.2,0.9
				c-2.3,6.5-3.7,13.5-3.9,20.4c-0.4,12.1,3.5,18.9,10.4,28.3c6.3,8.4,13.3,16.4,20.8,23.7C975,73.8,971.8,77.1,971.8,77.1
				L971.8,77.1z"/>
		</g>
	</g>
	<g>
		<g>
			<defs>
				<path id="SVGID_1_" d="M791.1,108.7c0,0-30.8-4.1-38.5,4.3s-25.6,44.9-37.3,54.4s-63.2,47.2-64.3,87.5
					c-1.1,40.3,5.9,58.6,25.9,79.1c20,20.5,37.1,47.7,78.1,50.4c41,2.7,88.3-4.4,99.1-13.3c10.9-8.9,72.9-69.8,54.2-124.5
					s-34.6-31.7-49.1-62.2s-9-49.2-23.5-61.8C821.4,110,791.1,108.7,791.1,108.7z"/>
			</defs>
			<use xlink:href="#SVGID_1_"  style="overflow:visible;fill:#B9BE0A;"/>
			<clipPath id="SVGID_00000061459172672076236030000004715728816199874688_">
				<use xlink:href="#SVGID_1_"  style="overflow:visible;"/>
			</clipPath>
			<path style="clip-path:url(#SVGID_00000061459172672076236030000004715728816199874688_);fill:#AA980A;" d="M751.7,102.9
				c0,0,11.4,22.4,24.6,24.7c13.2,2.3,20.2-9.3,31.6-7c11.4,2.3,11.4,4.6,18.4,12.4c7,7.7-5.3,38.7,17.6,56.4
				c22.8,17.8,35.1,52.6,33.4,81.2s-29.9,88.1-43,97.4c-13.2,9.3-75.5,17.7-75.5,17.7L757,409c0,0,199.3-28.6,208.1-27.8
				c8.8,0.8,27.2-169.3,27.2-171.6S893.1,43.4,893.1,43.4L751.7,102.9z"/>
			<path style="opacity:0.46;clip-path:url(#SVGID_00000061459172672076236030000004715728816199874688_);fill:#FFFFFF;" d="
				M715,190.8c-4.8,9.5-24.2,22.8-17.8,25.3c6.4,2.5,36.3-6.7,41.1-16.3c4.8-9.5,0.9-25.7-5.5-28.2
				C726.4,169.2,719.8,181.3,715,190.8z"/>
			<path style="opacity:0.46;clip-path:url(#SVGID_00000061459172672076236030000004715728816199874688_);fill:#FFFFFF;" d="
				M676.3,232.6c-1.9,3.8-7.9,9.9-6.4,10.5c1.5,0.6,9.8-4.6,11.7-8.4c1.9-3.8,2.1-9.6,0.7-10.2C680.8,223.9,678.2,228.8,676.3,232.6
				z"/>
		</g>
		<g>
			<path class="st5" d="M787.7,115.6c3.7-4.4,7.3-9,10.7-13.7c3.3-4.8,6.5-9.7,9-14.8c2.4-5.1,3.1-10.8,3-16.5
				c-0.2-5.7-1.1-11.5-2.7-17l2.3-0.8c3.6,11.3,5.4,24.5,0.7,35.7c-5.1,10.9-11.9,20.7-19.3,30.1
				C791.2,118.6,787.7,115.6,787.7,115.6L787.7,115.6z"/>
		</g>
	</g>
	<g>
		<g>
			<defs>
				<path id="SVGID_00000139281968232715860580000002358721520460645303_" d="M1133.1,152.1c0,0-24.5-1.8-30.1,5.8
					c-5.5,7.6-17.2,39.6-25.9,48.3s-46.7,43.6-44.9,78c1.8,34.4,8.5,49.6,25.6,65.9c17.1,16.4,32.4,38.5,64.9,38.6
					s69.3-8.6,77.3-16.8c8-8.1,52.9-63.5,34.6-109c-18.3-45.5-29.4-25.1-42.8-50.2c-13.4-25.1-10.3-41.4-22.6-51.4
					C1157.1,151.5,1133.1,152.1,1133.1,152.1z"/>
			</defs>
			<use xlink:href="#SVGID_00000139281968232715860580000002358721520460645303_"  style="overflow:visible;fill:#B9BE0A;"/>
			<clipPath id="SVGID_00000114033890388970185930000002499412916926210225_">
				<use xlink:href="#SVGID_00000139281968232715860580000002358721520460645303_"  style="overflow:visible;"/>
			</clipPath>
			<path style="clip-path:url(#SVGID_00000114033890388970185930000002499412916926210225_);fill:#AA980A;" d="M1101.7,149.3
				c0,0,10.5,18.5,21,19.7s15.3-9,24.5-7.7c9.2,1.3,9.3,3.3,15.4,9.5c6,6.2-1.6,33.2,17.6,47.1c19.2,13.9,31.2,42.8,31.7,67.3
				c0.5,24.5-17.7,76.7-27.5,85.3c-9.8,8.6-58.4,19.2-58.4,19.2l0.1,19.9c0,0,155.3-35.3,162.2-35.2c7,0.2,10.3-145.7,10.2-147.6
				c-0.2-2-89.2-136.1-89.2-136.1L1101.7,149.3z"/>
			<path style="opacity:0.46;clip-path:url(#SVGID_00000114033890388970185930000002499412916926210225_);fill:#FFFFFF;" d="
				M1078.6,226.2c-3.1,8.4-17.6,20.8-12.3,22.6s28.2-7.7,31.3-16.1c3.1-8.4-1-21.9-6.2-23.7S1081.7,217.8,1078.6,226.2z"/>
			<path style="opacity:0.46;clip-path:url(#SVGID_00000114033890388970185930000002499412916926210225_);fill:#FFFFFF;" d="
				M1050.8,263.9c-1.3,3.4-5.5,8.9-4.4,9.3s7.4-4.4,8.7-7.8c1.3-3.4,1-8.3-0.1-8.7C1053.7,256.3,1052,260.6,1050.8,263.9z"/>
		</g>
		<g>
			<path class="st5" d="M1130.5,158c4.1-6,7.9-12.4,11-19c1-2.2,2-4.5,2.8-6.7c1.5-4.3,1.7-9.2,1.2-14c-0.5-4.8-1.6-9.6-3.2-14.1
				c0,0,2.2-0.9,2.2-0.9c3.6,9.6,5.9,19.9,3.1,30.1c-0.8,2.5-1.7,4.8-2.7,7.1c-3,7-6.6,13.5-10.6,20
				C1134.3,160.6,1130.5,158,1130.5,158L1130.5,158z"/>
		</g>
	</g>
	<g>
		<g>
			<defs>
				<path id="XMLID_00000164473200414129671270000015995207133219294102_" d="M937.7,241.3c0,0-19.3-4.8-24.8-1
					c-5.5,3.8-19.6,21.7-27.8,25.8c-8.1,4.1-43.7,19.8-47.4,41.1c-3.7,21.4-0.6,31.7,10.6,44.3s20.1,28.5,45.9,33.4
					c25.9,4.9,56.5,5.1,64,1.3s51.5-31,43.7-61.6c-7.8-30.6-19.7-19.8-26.6-37.2c-7-17.4-2.1-26.9-10.3-34.9
					C956.8,244.6,937.7,241.3,937.7,241.3z"/>
			</defs>
			<use xlink:href="#XMLID_00000164473200414129671270000015995207133219294102_"  style="overflow:visible;fill:#CAD00B;"/>
			<clipPath id="XMLID_00000057135238325275681090000015007371819304125850_">
				<use xlink:href="#XMLID_00000164473200414129671270000015995207133219294102_"  style="overflow:visible;"/>
			</clipPath>
			<path style="clip-path:url(#XMLID_00000057135238325275681090000015007371819304125850_);fill:#C1AD0B;" d="M913.1,234.9
				c0,0,5.6,12.9,13.8,15.2c8.2,2.3,13.5-3.2,20.6-1c7.1,2.2,6.9,3.4,10.8,8.1c3.9,4.7-6.2,20.1,7,31.5s18.4,30.9,15.2,46
				c-3.2,15.1-25.5,44.3-34.6,48.2s-49.3,3-49.3,3l-2.8,12.2c0,0,128.9,1.6,134.4,2.8c5.5,1.2,29.9-87.7,30.1-89
				c0.2-1.2-50.8-96.8-50.8-96.8L913.1,234.9z"/>
			<path style="opacity:0.46;clip-path:url(#XMLID_00000057135238325275681090000015007371819304125850_);fill:#FFFFFF;" d="
				M883.2,278.6c-3.8,4.7-17.1,10.1-13.2,12c3.9,1.9,23.6-0.5,27.3-5.2c3.8-4.7,2.5-13.6-1.4-15.4C892,268.1,887,273.9,883.2,278.6z
				"/>
			<path style="opacity:0.46;clip-path:url(#XMLID_00000057135238325275681090000015007371819304125850_);fill:#FFFFFF;" d="
				M855.5,297.6c-1.5,1.9-5.7,4.6-4.9,5c0.9,0.4,6.6-1.6,8.1-3.5c1.5-1.9,2.1-4.9,1.2-5.4C859,293.3,857,295.7,855.5,297.6z"/>
		</g>
		<g>
			<path class="st10" d="M933.7,245.7c0.3-11.6,1.6-23.1,4.6-34.3c0,0,2.3,0.5,2.3,0.5c-1.6,8.4-2.6,16.7-2.4,25.2
				c0,2.8,0,5.7,0.1,8.5L933.7,245.7L933.7,245.7z"/>
		</g>
	</g>
</g>
</svg>
