<?xml version="1.0" encoding="utf-8"?>
<!-- Generator: Adobe Illustrator 26.0.3, SVG Export Plug-In . SVG Version: 6.00 Build 0)  -->
<svg version="1.1" id="Слой_1" xmlns="http://www.w3.org/2000/svg" xmlns:xlink="http://www.w3.org/1999/xlink" x="0px" y="0px"
	 viewBox="0 0 1920 529.3" style="enable-background:new 0 0 1920 529.3;" xml:space="preserve">
<style type="text/css">
	.st0{fill:#DE8800;}
	.st1{clip-path:url(#SVGID_00000115489718196539730280000005844901324479413436_);fill:#C36800;}
	.st2{fill:#FFFCE6;}
	.st3{fill:#C01000;}
	.st4{clip-path:url(#SVGID_00000085247721998532263760000003235061327340972208_);fill:#FBFFC3;}
	.st5{clip-path:url(#SVGID_00000031886528881274522710000004027743265076697267_);fill:#FBFFC3;}
	.st6{clip-path:url(#SVGID_00000161616474337054019980000012974840243758646927_);fill:#FBFFC3;}
	.st7{fill:#B37200;}
	.st8{fill:#7F16FF;}
	.st9{fill:#541200;}
	.st10{fill:#72D47C;}
	.st11{fill:#004964;}
	.st12{clip-path:url(#SVGID_00000181050743238438991440000012313350690498714542_);fill:#534964;}
	.st13{fill:#30C2FF;}
	.st14{fill:#AA5600;}
	.st15{clip-path:url(#SVGID_00000144336206093071980560000012711782578376372395_);fill:#C36800;}
	.st16{fill:#52C800;}
	.st17{fill:#7F4964;}
	.st18{clip-path:url(#SVGID_00000000214367300632772960000009957911372787518350_);fill:#FBFFC3;}
	.st19{clip-path:url(#SVGID_00000127731453071830804630000004108307713594839457_);fill:#FBFFC3;}
</style>
<g>
	<g>
		<path id="XMLID_00000062165301448942784280000012332559302885620128_" class="st0" d="M960,348.4c0-86.9-40.1-157.3-89.6-157.3
			s-89.6,70.4-89.6,157.3H960z"/>
	</g>
	<g>
		<g>
			<defs>
				<path id="SVGID_1_" d="M960,348.4c0-86.9-40.1-157.3-89.6-157.3s-89.6,70.4-89.6,157.3H960z"/>
			</defs>
			<clipPath id="SVGID_00000040569316231092944620000005445735015344012984_">
				<use xlink:href="#SVGID_1_"  style="overflow:visible;"/>
			</clipPath>
			<path style="clip-path:url(#SVGID_00000040569316231092944620000005445735015344012984_);fill:#C36800;" d="M860.5,179.7
				c14.7,18.9,28.5,30.9,26.1,43.1s-8.6,9.5-11.5,23.9s0.6,32.5,9.6,42.5c9,9.9,18.5,42,18.5,50.6s87.4,37.3,87.4,37.3l-13.9-173.9
				L860.5,179.7z"/>
		</g>
	</g>
</g>
<circle class="st2" cx="840" cy="256.2" r="25.1"/>
<circle class="st2" cx="906.4" cy="252.1" r="21.6"/>
<g>
	<g>
		<path id="XMLID_00000011742463554499203880000015212842669988366216_" class="st3" d="M816.1,301.2c0,0,7.7,3,18.4,6.6
			c5.4,1.8,11.6,3.8,18,5.7c19,5.5,61.5-16,61.5-16s-1.3,32-40.1,41.1C835,347.7,816.1,301.2,816.1,301.2z"/>
	</g>
	<g>
		<g>
			<g>
				<defs>
					<path id="SVGID_00000019658212616479865930000016576359054924555920_" d="M816.1,301.2c0,0,7.7,3,18.4,6.6
						c5.4,1.8,11.6,3.8,18,5.7c19,5.5,61.5-16,61.5-16s-1.3,32-40.1,41.1C835,347.7,816.1,301.2,816.1,301.2z"/>
				</defs>
				<clipPath id="SVGID_00000082345602861333509080000017255493794221779627_">
					<use xlink:href="#SVGID_00000019658212616479865930000016576359054924555920_"  style="overflow:visible;"/>
				</clipPath>
				<polyline style="clip-path:url(#SVGID_00000082345602861333509080000017255493794221779627_);fill:#FBFFC3;" points="
					834.5,318.6 843.8,318.6 842.2,309.5 834.5,305.3 				"/>
			</g>
		</g>
		<g>
			<g>
				<defs>
					<path id="SVGID_00000090294655736790898530000017404614214311739274_" d="M816.1,301.2c0,0,7.7,3,18.4,6.6
						c5.4,1.8,11.6,3.8,18,5.7c19,5.5,61.5-16,61.5-16s-1.3,32-40.1,41.1C835,347.7,816.1,301.2,816.1,301.2z"/>
				</defs>
				<clipPath id="SVGID_00000018958686396590104700000005010137129950897280_">
					<use xlink:href="#SVGID_00000090294655736790898530000017404614214311739274_"  style="overflow:visible;"/>
				</clipPath>
				<polyline style="clip-path:url(#SVGID_00000018958686396590104700000005010137129950897280_);fill:#FBFFC3;" points="
					895.7,321.9 886.6,323.9 890.1,332.5 898.6,335 				"/>
			</g>
		</g>
		<g>
			<g>
				<defs>
					<path id="SVGID_00000080203581319407085410000009585658993742108812_" d="M816.1,301.2c0,0,7.7,3,18.4,6.6
						c5.4,1.8,11.6,3.8,18,5.7c19,5.5,61.5-16,61.5-16s-1.3,32-40.1,41.1C835,347.7,816.1,301.2,816.1,301.2z"/>
				</defs>
				<clipPath id="SVGID_00000092446780817465790100000017144739487967930508_">
					<use xlink:href="#SVGID_00000080203581319407085410000009585658993742108812_"  style="overflow:visible;"/>
				</clipPath>
				<polyline style="clip-path:url(#SVGID_00000092446780817465790100000017144739487967930508_);fill:#FBFFC3;" points="
					906.4,318.6 897.3,320.6 900.8,329.2 909.3,331.7 				"/>
			</g>
		</g>
	</g>
</g>
<polygon class="st0" points="940,192.3 925.9,232.6 929.4,235.1 "/>
<polygon class="st0" points="901.1,348.4 914,390.4 901.1,395.3 892.6,395.3 899,383.9 892.6,348.4 "/>
<polygon class="st0" points="853.2,348.2 853,392.1 839.3,393 831.1,390.5 840.6,381.5 845.1,345.6 "/>
<ellipse class="st0" cx="940" cy="192.7" rx="14" ry="10.2"/>
<ellipse class="st7" cx="940" cy="192.3" rx="10.1" ry="7.3"/>
<polygon class="st0" points="806.5,189.7 818.5,230.7 822.8,230.7 "/>
<ellipse transform="matrix(0.8136 -0.5814 0.5814 0.8136 39.8925 504.4978)" class="st0" cx="806.8" cy="190" rx="14" ry="10.2"/>
<ellipse transform="matrix(0.8136 -0.5814 0.5814 0.8136 39.996 504.2898)" class="st7" cx="806.5" cy="189.8" rx="10.1" ry="7.3"/>
<circle class="st8" cx="844.8" cy="254.5" r="9.2"/>
<circle class="st8" cx="906.4" cy="252.6" r="9.2"/>
<polygon class="st9" points="768.1,271.1 766.4,272.3 712.5,199 714,197.9 "/>
<circle class="st10" cx="709.4" cy="191" r="48.8"/>
<g>
	<path class="st8" d="M710,219.4v-14.8h-25.2v-4.8l24.2-34.7h7.9v33.8h7.6v5.8h-7.6v14.8H710V219.4z M710,198.9v-18.2
		c0-2.8,0.1-5.7,0.3-8.5H710c-1.7,3.2-3,5.5-4.5,8l-13.3,18.5v0.2H710z"/>
</g>
<polygon class="st0" points="791.4,273.7 767.8,262.1 768.1,271.1 789.2,281.3 "/>
<rect x="756.3" y="254.5" class="st0" width="11.6" height="19.1"/>
<polygon class="st0" points="951.6,287.8 974.9,300 967.5,305.1 946.8,294.1 "/>
<rect x="967" y="300.1" transform="matrix(0.808 -0.5891 0.5891 0.808 7.2804 634.0479)" class="st0" width="19.1" height="11.6"/>
<g>
	<g>
		
			<rect id="XMLID_00000016043823093394449270000009189175112191339441_" x="778" y="345.6" class="st11" width="184.9" height="13.4"/>
	</g>
	<g>
		<g>
			<defs>
				<rect id="SVGID_00000098902171199937653310000011277531931130492606_" x="778" y="345.6" width="184.9" height="13.4"/>
			</defs>
			<clipPath id="SVGID_00000158716676284452875990000006638439357790038146_">
				<use xlink:href="#SVGID_00000098902171199937653310000011277531931130492606_"  style="overflow:visible;"/>
			</clipPath>
			<path style="clip-path:url(#SVGID_00000158716676284452875990000006638439357790038146_);fill:#534964;" d="M773.5,357.6
				c0,0,75.1-4.4,91.6-5.2s109.8,3.8,109.8,3.8l4,6.4l-208.5,1.1L773.5,357.6z"/>
		</g>
	</g>
</g>
<g>
	<g>
		<polygon class="st9" points="1525.4,379.5 1524,380.7 1472.2,325 1473.3,324 		"/>
		
			<ellipse transform="matrix(0.9932 -0.1162 0.1162 0.9932 -27.0838 172.8447)" class="st13" cx="1468.9" cy="318.7" rx="40.8" ry="40.8"/>
		<g>
			<g>
				<polygon class="st0" points="1603.4,435.3 1607.5,471.7 1596.3,473.8 1589.3,472.5 1596.3,464.2 1596.5,433.8 				"/>
				<polygon class="st0" points="1646.3,434.2 1650.4,470.6 1639.2,472.7 1632.1,471.5 1639.1,463.1 1639.4,432.8 				"/>
				<g>
					<path class="st0" d="M1547.7,305.7c-61.6-24.6,16.1,31.8,16.1,31.8l3.5-0.7C1567.3,336.9,1554.6,308.4,1547.7,305.7z"/>
					<path class="st14" d="M1548.7,311.1c-27.5-11,7.1,14.2,7.1,14.2l1.6-0.3C1557.5,325,1551.8,312.3,1548.7,311.1z"/>
					<path class="st0" d="M1649.8,325.4l3.6,0.5c0,0,74.9-60.2,14.5-32.6C1661.2,296.5,1649.8,325.6,1649.8,325.4z"/>
					<path class="st14" d="M1659.2,313.1l1.6,0.2c0,0,33.3-26.9,6.4-14.5C1664.2,300.2,1659.1,313.1,1659.2,313.1z"/>
					<g>
						<g>
							<g>
								<path id="XMLID_00000183971108852983643050000015031458085189013915_" class="st0" d="M1692.1,425
									c-8.5-72.1-48.6-126.7-89.7-121.8c-41.1,4.8-67.6,67.2-59.1,139.3L1692.1,425z"/>
							</g>
							<g>
								<g>
									<defs>
										<path id="SVGID_00000167396979344414128100000006418156710506828468_" d="M1692.1,425c-8.5-72.1-48.6-126.7-89.7-121.8
											c-41.1,4.8-67.6,67.2-59.1,139.3L1692.1,425z"/>
									</defs>
									<clipPath id="SVGID_00000047751731353927735400000005009473937519451290_">
										<use xlink:href="#SVGID_00000167396979344414128100000006418156710506828468_"  style="overflow:visible;"/>
									</clipPath>
									<path style="clip-path:url(#SVGID_00000047751731353927735400000005009473937519451290_);fill:#C36800;" d="M1588.3,286.5
										c14.1,14.3,31.5,31,30.7,41.4c-0.7,10.3-6.3,8.8-7.2,21c-0.9,12.2-14.9,37.3-6.5,44.7c8.4,7.4-1.3,44.6-0.5,51.8
										c0.9,7.2,115.5,0.5,115.5,0.5L1691.8,303L1588.3,286.5z"/>
								</g>
							</g>
						</g>
						<ellipse class="st2" cx="1583.7" cy="360.1" rx="21" ry="21"/>
						
							<ellipse transform="matrix(0.9932 -0.1162 0.1162 0.9932 -29.6086 192.7434)" class="st2" cx="1638.3" cy="350.3" rx="18.1" ry="18.1"/>
						
							<ellipse transform="matrix(0.9997 -2.442132e-02 2.442132e-02 0.9997 -8.3978 38.7575)" class="st16" cx="1582.6" cy="363.2" rx="7.7" ry="7.7"/>
						
							<ellipse transform="matrix(0.9932 -0.1162 0.1162 0.9932 -29.2069 193.6175)" class="st8" cx="1646" cy="347.3" rx="7.7" ry="7.7"/>
					</g>
				</g>
				<polygon class="st0" points="1545,379.4 1524.2,372.1 1525.4,379.5 1543.8,385.9 				"/>
				
					<rect x="1514.9" y="366.3" transform="matrix(0.9932 -0.1162 0.1162 0.9932 -33.1998 179.1303)" class="st0" width="9.7" height="16"/>
				<polygon class="st0" points="1679.3,375.5 1699.8,383.4 1694.1,388.3 1676,381.3 				"/>
				
					<rect x="1694" y="383.3" transform="matrix(0.7341 -0.679 0.679 0.7341 188.939 1258.8827)" class="st0" width="16" height="9.7"/>
				<polygon class="st17" points="1543.4,442.4 1536.7,461.3 1701.2,441.7 1692.1,425 				"/>
			</g>
			<g>
				<g>
					<path id="XMLID_00000005968229845401618830000012768252352051386250_" class="st3" d="M1616.7,410.8c-9.6,0.6-51.5-7.6-49-5.8
						c2.5,1.8,39.1,23,49.3,21.9c10-1.1,48.2-29,48.2-29S1626.9,410.2,1616.7,410.8z"/>
				</g>
				<g>
					<g>
						<defs>
							<path id="SVGID_00000106118758344501369990000003812345483335351962_" d="M1616.7,410.8c-9.6,0.6-51.5-7.6-49-5.8
								c2.5,1.8,39.1,23,49.3,21.9c10-1.1,48.2-29,48.2-29S1626.9,410.2,1616.7,410.8z"/>
						</defs>
						<clipPath id="SVGID_00000049903431977776816390000003771809011713004209_">
							<use xlink:href="#SVGID_00000106118758344501369990000003812345483335351962_"  style="overflow:visible;"/>
						</clipPath>
						<polyline style="clip-path:url(#SVGID_00000049903431977776816390000003771809011713004209_);fill:#FBFFC3;" points="
							1592.3,412.5 1601.6,413.3 1600.8,404 1593.5,399.2 						"/>
					</g>
				</g>
				<g>
					<g>
						<defs>
							<path id="SVGID_00000049216694494443498850000007641232603422274492_" d="M1616.7,410.8c-9.6,0.6-51.5-7.6-49-5.8
								c2.5,1.8,39.1,23,49.3,21.9c10-1.1,48.2-29,48.2-29S1626.9,410.2,1616.7,410.8z"/>
						</defs>
						<clipPath id="SVGID_00000110462562695184824620000015318880800612314040_">
							<use xlink:href="#SVGID_00000049216694494443498850000007641232603422274492_"  style="overflow:visible;"/>
						</clipPath>
						<polyline style="clip-path:url(#SVGID_00000110462562695184824620000015318880800612314040_);fill:#FBFFC3;" points="
							1644.9,409.2 1636.1,412.2 1640.6,420.4 1649.2,421.8 						"/>
					</g>
				</g>
			</g>
		</g>
	</g>
	<g>
		<path class="st8" d="M1461.7,297.9h-0.2l-9,7.4l-2.7-5.7l11.4-9.3l6.7-1.4l11.4,58l-7.6,1.5L1461.7,297.9z"/>
	</g>
</g>
</svg>
