<?xml version="1.0" encoding="utf-8"?>
<!-- Generator: Adobe Illustrator 26.0.3, SVG Export Plug-In . SVG Version: 6.00 Build 0)  -->
<svg version="1.1" xmlns="http://www.w3.org/2000/svg" xmlns:xlink="http://www.w3.org/1999/xlink" x="0px" y="0px"
	 viewBox="0 0 1920 529.3" style="enable-background:new 0 0 1920 529.3;" xml:space="preserve">
<style type="text/css">
	.st0{fill:url(#SVGID_1_);}
	.st1{fill:url(#SVGID_00000127037742249278522030000005297851660317867393_);}
	.st2{fill:url(#SVGID_00000042715432695880600200000008830470953176305569_);}
	.st3{fill:url(#SVGID_00000134233676338538458880000003700811508374812301_);}
	.st4{fill:#E9C900;}
	.st5{clip-path:url(#XMLID_00000013901692841301966260000015082349712358641295_);fill:#946000;}
	.st6{fill:#080000;}
	.st7{fill:#5859B4;}
	.st8{clip-path:url(#SVGID_00000083793798436877312110000007315146126228938408_);fill:#384078;}
	.st9{clip-path:url(#SVGID_00000029724703219855261310000000169858415233295018_);fill:#384078;}
	.st10{fill:#91500E;}
	.st11{clip-path:url(#SVGID_00000173154362490376774480000002204406009274394540_);fill:#7D350E;}
	.st12{fill:#FFF1AA;}
	.st13{clip-path:url(#SVGID_00000140705798455456361430000011255932474371208104_);fill:#FFD38C;}
	.st14{clip-path:url(#SVGID_00000160167437645365001890000013788100014912054679_);fill:#FFD38C;}
	.st15{fill:#612600;}
	.st16{clip-path:url(#SVGID_00000036953790693273955610000011242512299587317435_);fill:#372100;}
	.st17{fill:#020100;}
	.st18{fill:#AD0000;}
	.st19{fill:#5E1500;}
	.st20{fill:#FFAC7C;}
	.st21{fill:#EE0000;}
	.st22{clip-path:url(#SVGID_00000089557569736261679710000001749526113081216388_);fill:#B60000;}
	
		.st23{opacity:0.36;clip-path:url(#SVGID_00000133505430187081479290000005523094998375655566_);fill:#FFFFFF;enable-background:new    ;}
	
		.st24{opacity:0.36;clip-path:url(#SVGID_00000158016820181191922500000016088274774712544694_);fill:#FFFFFF;enable-background:new    ;}
	.st25{fill:#603813;}
	.st26{fill:#5F9D00;}
	.st27{clip-path:url(#SVGID_00000008107483036661340350000007048503813964023702_);fill:#465F00;}
	.st28{clip-path:url(#SVGID_00000000929422656964382640000014252688116168451471_);fill:#B60000;}
	
		.st29{opacity:0.36;clip-path:url(#SVGID_00000053513791344278515290000010409272449758585005_);fill:#FFFFFF;enable-background:new    ;}
	
		.st30{opacity:0.36;clip-path:url(#SVGID_00000093880237358270644280000013653826664127553690_);fill:#FFFFFF;enable-background:new    ;}
	.st31{clip-path:url(#SVGID_00000160185562764743049990000006104914482675029386_);fill:#465F00;}
	.st32{clip-path:url(#SVGID_00000078006392134339528430000006745950803572723368_);fill:#B60000;}
	
		.st33{opacity:0.36;clip-path:url(#SVGID_00000123403680183575519460000001921851731388355985_);fill:#FFFFFF;enable-background:new    ;}
	
		.st34{opacity:0.36;clip-path:url(#SVGID_00000177453490288119761240000007268470076866771886_);fill:#FFFFFF;enable-background:new    ;}
	.st35{clip-path:url(#SVGID_00000060748511869712283170000006517505708334209920_);fill:#465F00;}
	.st36{clip-path:url(#SVGID_00000154420696937543357410000015493703052109131399_);fill:#B60000;}
	
		.st37{opacity:0.36;clip-path:url(#SVGID_00000080917817511070863250000017353958091106988188_);fill:#FFFFFF;enable-background:new    ;}
	
		.st38{opacity:0.36;clip-path:url(#SVGID_00000065790067340210905630000011249149200160519335_);fill:#FFFFFF;enable-background:new    ;}
	.st39{clip-path:url(#SVGID_00000113326780784958962590000017813254699035846028_);fill:#465F00;}
	.st40{clip-path:url(#SVGID_00000153687845610292474250000010384795603269303228_);fill:#B60000;}
	
		.st41{opacity:0.36;clip-path:url(#SVGID_00000124850199760193102610000011995198040309556647_);fill:#FFFFFF;enable-background:new    ;}
	
		.st42{opacity:0.36;clip-path:url(#SVGID_00000124879815396824340870000005055524441511802539_);fill:#FFFFFF;enable-background:new    ;}
	.st43{clip-path:url(#SVGID_00000018221480384579199700000005551621201754224551_);fill:#465F00;}
	.st44{fill:#7F16FF;}
	.st45{fill:#E9FF84;}
	.st46{fill:#FFD38C;}
	.st47{fill:#DE8800;}
	.st48{fill:#FFFCE6;}
	.st49{clip-path:url(#XMLID_00000165225004764949740930000018222995739992544907_);fill:#FBFFC3;}
	.st50{fill:#541200;}
	.st51{fill:#72D4BD;}
	.st52{fill:#8F4000;}
	.st53{fill:#A84F00;}
</style>
<g id="Слой_1">
	<g>
		
			<linearGradient id="SVGID_1_" gradientUnits="userSpaceOnUse" x1="1055.3733" y1="1473.3943" x2="1981.1322" y2="1473.3943" gradientTransform="matrix(1 0 0 1 0 -1098.8433)">
			<stop  offset="0" style="stop-color:#FDFFA6"/>
			<stop  offset="1" style="stop-color:#C6FCA8"/>
		</linearGradient>
		<path class="st0" d="M1908.3,397.7c-7.8-39.4-60.6-70-124.6-70c-18.1,0-35.4,2.4-51,6.8c0-62.4-75.2-112.9-168-112.9
			c-70.7,0-131.3,29.5-156.1,71c-36.8-14.5-82.3-23-131.6-23c-122.5,0-221.7,52.8-221.7,117.9s99.2,117.9,221.7,117.9
			c37.1,0,72-4.9,102.7-13.4c31.8,21.3,85.5,35.3,146.4,35.3c71.4,0,132.7-19.2,160.7-46.7c22.8,24.6,77.6,41.8,141.5,41.8
			c84.4,0,152.9-30.3,152.9-67.5C1981.3,430.8,1952.1,409.5,1908.3,397.7z"/>
		
			<linearGradient id="SVGID_00000142136279740560740500000002143584542647979680_" gradientUnits="userSpaceOnUse" x1="1607.4812" y1="1563.1555" x2="2533.24" y2="1563.1555" gradientTransform="matrix(1 0 0 1 0 -1098.8433)">
			<stop  offset="0" style="stop-color:#FDFFA6"/>
			<stop  offset="1" style="stop-color:#C6FCA8"/>
		</linearGradient>
		<path style="fill:url(#SVGID_00000142136279740560740500000002143584542647979680_);" d="M2460.4,487.4
			c-7.8-39.4-60.6-70-124.6-70c-18.1,0-35.4,2.4-51,6.8c0-62.4-75.2-112.9-168-112.9c-70.7,0-131.3,29.5-156.1,71
			c-36.8-14.5-82.3-23-131.6-23c-122.5,0-221.7,52.8-221.7,117.9s99.2,117.9,221.7,117.9c37.1,0,72-4.9,102.7-13.4
			c31.8,21.3,85.5,35.3,146.4,35.3c71.4,0,132.7-19.2,160.7-46.7c22.8,24.6,77.6,41.8,141.5,41.8c84.4,0,152.9-30.3,152.9-67.5
			C2533.4,520.6,2504.2,499.3,2460.4,487.4z"/>
		
			<linearGradient id="SVGID_00000111178627218268366490000003598689730668889241_" gradientUnits="userSpaceOnUse" x1="931.0786" y1="1599.7542" x2="1437.7344" y2="890.9272" gradientTransform="matrix(1 0 0 1 0 -1098.8433)">
			<stop  offset="0" style="stop-color:#FDFFA6"/>
			<stop  offset="1" style="stop-color:#C6FCA8"/>
		</linearGradient>
		<path style="fill:url(#SVGID_00000111178627218268366490000003598689730668889241_);" d="M1422.3,306.4
			c-7.3-47.9-56.9-85-117.1-85c-17,0-33.3,3-47.9,8.4c0-75.9-70.7-137.4-158.1-137.4c-66.6,0-123.5,35.8-146.8,86.4
			c-34.7-17.6-77.4-28-123.8-28C713.4,150.8,620,215,620,294.2s93.4,143.5,208.6,143.5c34.8,0,67.7-5.9,96.6-16.3
			c29.8,25.9,80.5,42.9,137.8,42.9c67.1,0,124.9-23.3,151.1-56.7c21.5,29.8,73,51,133.3,51c79.6,0,143.9-36.8,143.9-82
			C1491.1,346.9,1463.6,320.8,1422.3,306.4z"/>
		
			<linearGradient id="SVGID_00000128465569313674792390000000853061200264904605_" gradientUnits="userSpaceOnUse" x1="-345.6634" y1="1383.9371" x2="1273.0824" y2="1383.9371" gradientTransform="matrix(1 0 0 1 0 -1098.8433)">
			<stop  offset="0" style="stop-color:#FDFFA6"/>
			<stop  offset="1" style="stop-color:#C6FCA8"/>
		</linearGradient>
		<path style="fill:url(#SVGID_00000128465569313674792390000000853061200264904605_);" d="M1145.4,316.9
			c-13.5-54.3-105.7-96.5-217.7-96.5c-31.8,0-61.9,3.3-89.2,9.6c0-86-131.6-155.8-293.8-155.8c-123.7,0-229.6,40.6-272.8,98.1
			c-64.4-19.9-143.9-31.8-230.2-31.8c-214.1,0-387.5,72.9-387.5,162.6s173.6,162.6,387.5,162.6c64.8,0,125.8-6.7,179.5-18.6
			c55.5,29.4,149.4,48.7,256,48.7c124.8,0,232-26.5,280.7-64.5c40,33.9,135.7,57.8,247.5,57.8c147.7,0,267.5-41.7,267.5-93.1
			C1273.1,362.7,1222,333.2,1145.4,316.9z"/>
	</g>
	<path class="st4" d="M-26.3,459.8c42-23.8,22.8-23.2,154.8-52.7c132.1-29.6,184.4-76.3,241.4-81.4c56.9-5.1,177.4-30.7,285.2,31.2
		s318.1,79.2,377.3,95.6c59.2,16.3,225.4-77.8,245.9-93.4c20.5-15.7,179.9-22.8,232.2-7.1c52.4,15.7,113.8,60.9,150.3,84.6
		c36.4,23.7,179.9,20.4,273.2,12.1s227.7-10.6,275.5,11.2c47.8,21.8,323.3-40.3,343.8-52.7c20.5-12.4,356.4-18.5,421.3-38.7
		s191.2,50.6,242.4,107.2s-1434.4,90.8-1434.4,90.8l-1767-32.1L-26.3,459.8z"/>
	<g>
		<defs>
			<path id="XMLID_00000160882641145616072100000010269549984035130496_" d="M-124.7,535.8c26.3-23.8-40.3-48.9,42.4-78.5
				s172.9-64.5,208.5-69.6c35.6-5.1,385.8-61.9,453.4,0s67,82.6,104.1,98.9c37.1,16.3,94.1-77.8,106.9-93.4
				c12.8-15.7,112.6-22.8,145.4-7.1c32.8,15.7,71.3,60.9,94.1,84.6c22.8,23.7,112.6,20.4,171.1,12.1s142.6-10.6,172.5,11.2
				c29.9,21.8,202.5-40.3,215.3-52.7s223.2-18.5,263.8-38.7c40.6-20.1,119.7,50.6,151.8,107.2c32.1,56.6-898.2,90.8-898.2,90.8
				L0,568.6L-124.7,535.8z"/>
		</defs>
		<use xlink:href="#XMLID_00000160882641145616072100000010269549984035130496_"  style="overflow:visible;fill:#7F6000;"/>
		<clipPath id="XMLID_00000128462768982154508100000002759678650508179842_">
			<use xlink:href="#XMLID_00000160882641145616072100000010269549984035130496_"  style="overflow:visible;"/>
		</clipPath>
		<path style="clip-path:url(#XMLID_00000128462768982154508100000002759678650508179842_);fill:#946000;" d="M281.7,332
			c21.4,47,4.3,37,42.8,78.3s19.6,39.5,77.5,60.4s52.2,28.2,79.3,46.7c27.1,18.4,91.2,17.5,125.5,10.1c34.2-7.4,56.9-41.5,64.6-44.9
			s-37.5-94.9-37.5-94.9L304.3,244.5L281.7,332z"/>
		<path style="clip-path:url(#XMLID_00000128462768982154508100000002759678650508179842_);fill:#946000;" d="M750.4,259.6
			c21.4,47,4.3,37,42.8,78.3s19.6,39.5,77.5,60.4c57.9,20.9,52.2,28.2,79.3,46.7c27.1,18.4,91.2,17.5,125.5,10.1
			c34.2-7.4,56.9-41.5,64.6-44.9c7.6-3.4-37.5-94.9-37.5-94.9L773,172.2L750.4,259.6z"/>
		<path style="clip-path:url(#XMLID_00000128462768982154508100000002759678650508179842_);fill:#946000;" d="M1169.5,342.3
			c21.4,47,4.3,37,42.8,78.3c38.5,41.3,19.6,39.5,77.5,60.4c57.9,20.9,52.2,28.2,79.3,46.7c27.1,18.4,91.2,17.5,125.5,10.1
			c34.2-7.4,56.9-41.5,64.6-44.9c7.6-3.4-37.5-94.9-37.5-94.9l-329.6-143.2L1169.5,342.3z"/>
	</g>
	
		<ellipse transform="matrix(0.9736 -0.2284 0.2284 0.9736 -101.0621 92.4169)" class="st6" cx="348.8" cy="482.9" rx="34.2" ry="18.6"/>
	
		<ellipse transform="matrix(0.2156 -0.9765 0.9765 0.2156 -113.9816 811.3513)" class="st6" cx="448" cy="476.6" rx="18.6" ry="34.2"/>
	<g>
		<g>
			<polygon id="XMLID_00000161624209840765887400000016240937727154374330_" class="st7" points="338.7,476.6 382,476.6 
				415.2,292.4 413.7,469.9 454.4,473.4 448.7,268.7 377.9,262.1 			"/>
		</g>
		<g>
			<g>
				<g>
					<g>
						<defs>
							<polygon id="SVGID_00000137090785784955296620000015995438544139372961_" points="338.7,476.6 382,476.6 415.2,292.4 
								413.7,469.9 454.4,473.4 448.7,268.7 377.9,262.1 							"/>
						</defs>
						<clipPath id="SVGID_00000157992635355431630050000002094878992704248209_">
							<use xlink:href="#SVGID_00000137090785784955296620000015995438544139372961_"  style="overflow:visible;"/>
						</clipPath>
						<polygon style="clip-path:url(#SVGID_00000157992635355431630050000002094878992704248209_);fill:#384078;" points="
							404.9,262.1 344,485.2 301.8,474.1 354.5,249.1 						"/>
					</g>
				</g>
			</g>
		</g>
		<g>
			<g>
				<g>
					<g>
						<defs>
							<polygon id="SVGID_00000170987625413534600800000006882660924484363958_" points="338.7,476.6 362.6,476.6 382,476.6 
								415.2,292.4 413.7,469.9 433.5,471.6 454.4,473.4 448.7,268.7 377.9,262.1 							"/>
						</defs>
						<clipPath id="SVGID_00000034056468572609176290000005155188181767366844_">
							<use xlink:href="#SVGID_00000170987625413534600800000006882660924484363958_"  style="overflow:visible;"/>
						</clipPath>
						<polygon style="clip-path:url(#SVGID_00000034056468572609176290000005155188181767366844_);fill:#384078;" points="
							414.2,286.2 439.6,516.1 396.3,521.3 407.6,375 						"/>
					</g>
				</g>
			</g>
		</g>
	</g>
	<g>
		<g>
			<path id="XMLID_00000003065350105111695220000000344922764282713481_" class="st10" d="M372.6,153.5c-9.1,11.6-5.2,24.2-1.7,60
				c4.6,33.3,5,66.9,5,66.9l72.7-11.8c0,0-6.5-30.6-4.8-59.2c0.5-7.9,2.5-16.3,3.8-23.4c2.6-14.7,6.5-24.4,4.1-29.1
				c-7.5-15.1-24.3-12.7-42.2-14.7C392.7,140.2,375.1,146.9,372.6,153.5z"/>
		</g>
		<g>
			<g>
				<g>
					<g>
						<defs>
							<path id="SVGID_00000165935497387868554680000017905952468370782123_" d="M372.6,153.5c-9.1,11.6-5.2,24.2-1.7,60
								c4.6,33.3,5,66.9,5,66.9l72.7-11.8c0,0-6.5-30.6-4.8-59.2c0.5-7.9,2.5-16.3,3.8-23.4c2.6-14.7,6.5-24.4,4.1-29.1
								c-7.5-15.1-24.3-12.7-42.2-14.7C392.7,140.2,375.1,146.9,372.6,153.5z"/>
						</defs>
						<clipPath id="SVGID_00000070808022807181014060000011087703659879996571_">
							<use xlink:href="#SVGID_00000165935497387868554680000017905952468370782123_"  style="overflow:visible;"/>
						</clipPath>
						<polygon style="clip-path:url(#SVGID_00000070808022807181014060000011087703659879996571_);fill:#7D350E;" points="
							376,184.8 399,240 398,293 367.2,290.4 365.3,190.6 370.8,174.9 						"/>
					</g>
				</g>
			</g>
		</g>
	</g>
	<g>
		<g>
			<path id="XMLID_00000158735839473163135540000003718315981233473723_" class="st12" d="M435.4,99.8c-3,19.5-7.3,40.4-26.2,40.4
				c-18.1,0-22.5-18.1-27.2-37.5c-4.4-18.8,9.1-32.5,27.2-32.5C427.3,70.2,437.9,83.9,435.4,99.8z"/>
		</g>
		<g>
			<g>
				<g>
					<g>
						<defs>
							<path id="SVGID_00000049196468540379712210000001143791527911269818_" d="M435.4,99.8c-3,19.5-7.3,40.4-26.2,40.4
								c-18.1,0-22.5-18.1-27.2-37.5c-4.4-18.8,9.1-32.5,27.2-32.5C427.3,70.2,437.9,83.9,435.4,99.8z"/>
						</defs>
						<clipPath id="SVGID_00000090266074317292460430000017934192832868008636_">
							<use xlink:href="#SVGID_00000049196468540379712210000001143791527911269818_"  style="overflow:visible;"/>
						</clipPath>
						<path style="clip-path:url(#SVGID_00000090266074317292460430000017934192832868008636_);fill:#FFD38C;" d="M376.1,84.2
							l19.9,3.4c0,0-7,15.1-6.4,21.8c0.6,6.8,3.7,15.7,9.1,21.7c5.4,5.9,22.3,6.5,22.3,6.5l-26.7,23l-33.1-46.9L376.1,84.2z"/>
					</g>
				</g>
				<g>
					<g>
						<defs>
							<path id="SVGID_00000115491922855219737760000017549550162635771273_" d="M435.4,99.8c-3,19.5-7.3,40.4-26.2,40.4
								c-18.1,0-22.5-18.1-27.2-37.5c-4.4-18.8,9.1-32.5,27.2-32.5C427.3,70.2,437.9,83.9,435.4,99.8z"/>
						</defs>
						<clipPath id="SVGID_00000003063197614940165620000011024754535871243402_">
							<use xlink:href="#SVGID_00000115491922855219737760000017549550162635771273_"  style="overflow:visible;"/>
						</clipPath>
						<path style="clip-path:url(#SVGID_00000003063197614940165620000011024754535871243402_);fill:#FFD38C;" d="M407.8,121.3
							l-2.9-1.5l4.7-18.1L407.8,121.3z"/>
					</g>
				</g>
			</g>
		</g>
	</g>
	<polygon class="st10" points="370.7,156.3 324.8,196.9 356.3,201 368.6,192.2 	"/>
	<polygon class="st10" points="448.5,151 474.6,211.1 450.4,211.1 443.6,192.3 	"/>
	<g>
		<g>
			<path id="XMLID_00000065752983870368876250000008635360987876549559_" class="st15" d="M382.9,106.3c0,0,5.9-16.2,10-15.7
				c4.1,0.4,4.8,0,11.8-1.1c7-1.1,12.3-5.2,15.9-0.8c3.6,4.5,4.9,1.9,9.8,2c4.9,0.2,3.8,15.6,3.8,15.6s11.2-31.5-5.7-36
				c-4.4-1.3-11.1-5.4-20.1-5.4c-9.1,0-18.4,0-19.9,5.4s-9.6,7.5-10,12.8C378.3,88.2,382.9,106.3,382.9,106.3z"/>
		</g>
		<g>
			<g>
				<defs>
					<path id="SVGID_00000142887824965789113790000012224607336511654292_" d="M382.9,106.3c0,0,5.9-16.2,10-15.7
						c4.1,0.4,4.8,0,11.8-1.1c7-1.1,12.3-5.2,15.9-0.8c3.6,4.5,4.9,1.9,9.8,2c4.9,0.2,3.8,15.6,3.8,15.6s11.2-31.5-5.7-36
						c-4.4-1.3-11.1-5.4-20.1-5.4c-9.1,0-18.4,0-19.9,5.4s-9.6,7.5-10,12.8C378.3,88.2,382.9,106.3,382.9,106.3z"/>
				</defs>
				<clipPath id="SVGID_00000014631372101702027190000006974406696955869090_">
					<use xlink:href="#SVGID_00000142887824965789113790000012224607336511654292_"  style="overflow:visible;"/>
				</clipPath>
				<path style="clip-path:url(#SVGID_00000014631372101702027190000006974406696955869090_);fill:#372100;" d="M421.8,60.1
					c0,0-14,6-20.6,13.5c-6.7,7.4-6.8,5.5-3.7,7.6c3,2.1,4.3,7.4-2.7,10c-12.2,4.5-16.1,21.2-16.6,21.7c-0.5,0.4-13.4-21.2-13.1-25
					c0.3-3.9,16.2-32.2,16.2-32.2L421.8,60.1z"/>
			</g>
		</g>
	</g>
	<path class="st17" d="M401.1,104.6c0,1.3-3,2.5-4.2,2.5s-2.3-1-2.3-2.3s1-2.3,2.3-2.3C398.2,102.6,401.1,103.3,401.1,104.6z"/>
	<path class="st17" d="M424.1,104.8c0,1.3-1,2.3-2.3,2.3s-4-1.4-4-2.6s2.7-1.9,4-1.9S424.1,103.7,424.1,104.8z"/>
	<path class="st18" d="M414.4,128.5c0,0.6-3.2,2.4-6.6,2.4c-3.5,0-7.2-2.5-7.2-3.1c0-0.6,3.7,0.8,7.2,0.8
		C411.3,128.6,414.4,127.9,414.4,128.5z"/>
	
		<rect x="287.8" y="205.9" transform="matrix(0.9957 9.290321e-02 -9.290321e-02 0.9957 24.5499 -37.8596)" class="st19" width="262.3" height="77.8"/>
	
		<rect x="298.9" y="213.7" transform="matrix(0.9957 9.290321e-02 -9.290321e-02 0.9957 24.4801 -37.3627)" class="st20" width="229.2" height="61.1"/>
	<g>
		<g>
			<g>
				<path id="XMLID_00000091017690886273474730000004683794767781391537_" class="st21" d="M325.4,240.3c0,0-2.7-2-5-1.9
					c-2.3,0.1-8.9-0.1-9.8,10.2c-0.9,10.3,6.5,12,7.4,12c0.7,0,2,0,2.7,0.1c0.9,0.1,2.1,0.8,2.9,1c3.3,0.8,10.3-0.2,12.7-10.4
					s-6.4-11-6.4-11L325.4,240.3z"/>
			</g>
			<g>
				<g>
					<g>
						<g>
							<g>
								<defs>
									<path id="SVGID_00000158733399976265333060000009158105398488078754_" d="M325.4,240.3c0,0-2.7-2-5-1.9
										c-2.3,0.1-8.9-0.1-9.8,10.2c-0.9,10.3,6.5,12,7.4,12c0.7,0,2,0,2.7,0.1c0.9,0.1,2.1,0.8,2.9,1c3.3,0.8,10.3-0.2,12.7-10.4
										s-6.4-11-6.4-11L325.4,240.3z"/>
								</defs>
								<clipPath id="SVGID_00000140008425406026353080000001980758569536981421_">
									<use xlink:href="#SVGID_00000158733399976265333060000009158105398488078754_"  style="overflow:visible;"/>
								</clipPath>
								<path style="clip-path:url(#SVGID_00000140008425406026353080000001980758569536981421_);fill:#B60000;" d="M322.8,238.4
									c0,0,0.5,2.4,1.3,2.9c0.8,0.5,2-0.2,2.6-0.3c0.6-0.1,1.5-0.4,3,0c1.5,0.4,5.2,2.2,5.4,4.7c0.2,2.5-2,9.2-3.6,10.9
									c-1.7,1.6-8.3,2.7-10.1,2.7s-8.5-1.3-8.5-1.3l-3.4,6.2l31.8,1.2l4.2-25.7L322.8,238.4z"/>
							</g>
						</g>
					</g>
				</g>
			</g>
			<g>
				<g>
					<g>
						<g>
							<g>
								<defs>
									<path id="SVGID_00000005266313429413914030000016143331769306187667_" d="M325.4,240.3c0,0-2.7-2-5-1.9
										c-2.3,0.1-8.9-0.1-9.8,10.2c-0.9,10.3,6.5,12,7.4,12c0.7,0,2,0,2.7,0.1c0.9,0.1,2.1,0.8,2.9,1c3.3,0.8,10.3-0.2,12.7-10.4
										s-6.4-11-6.4-11L325.4,240.3z"/>
								</defs>
								<clipPath id="SVGID_00000047033797303082098520000017969791726245527189_">
									<use xlink:href="#SVGID_00000005266313429413914030000016143331769306187667_"  style="overflow:visible;"/>
								</clipPath>
								
									<path style="opacity:0.36;clip-path:url(#SVGID_00000047033797303082098520000017969791726245527189_);fill:#FFFFFF;enable-background:new    ;" d="
									M317.4,245c-0.9,0.9-2.1,2.5-2.6,2c-0.5-0.5-0.3-2.8,0.7-3.7c0.9-0.9,2.1-1.3,2.7-0.8C318.6,243,318.3,244.1,317.4,245z"/>
							</g>
						</g>
					</g>
				</g>
			</g>
			<g>
				<g>
					<g>
						<g>
							<g>
								<defs>
									<path id="SVGID_00000093139007315530315420000006037513557976265615_" d="M325.4,240.3c0,0-2.7-2-5-1.9
										c-2.3,0.1-8.9-0.1-9.8,10.2c-0.9,10.3,6.5,12,7.4,12c0.7,0,2,0,2.7,0.1c0.9,0.1,2.1,0.8,2.9,1c3.3,0.8,10.3-0.2,12.7-10.4
										s-6.4-11-6.4-11L325.4,240.3z"/>
								</defs>
								<clipPath id="SVGID_00000047775708775078872470000010208112326636500385_">
									<use xlink:href="#SVGID_00000093139007315530315420000006037513557976265615_"  style="overflow:visible;"/>
								</clipPath>
								
									<path style="opacity:0.36;clip-path:url(#SVGID_00000047775708775078872470000010208112326636500385_);fill:#FFFFFF;enable-background:new    ;" d="
									M315.4,249.5c-0.2,0-0.6,0.1-0.5-0.4s0.6-1.3,0.8-1.3c0.2,0,0.3,0.4,0.2,0.9C315.8,249.2,315.6,249.6,315.4,249.5z"/>
							</g>
						</g>
					</g>
				</g>
			</g>
		</g>
		<path class="st25" d="M331.4,235.4c-0.1,0.1-0.9,0.3-1.8,0.8c-0.8,0.5-4.3,4.4-4.3,4.4l-0.7-0.1c0,0,3.1-3,4.4-4.6
			C330.4,234.4,331.9,235.1,331.4,235.4z"/>
		<g>
			<g>
				<path id="XMLID_00000132782349993058868520000005032296531255508625_" class="st26" d="M321.3,231.7c0,0,0.8,2.7,1.9,3.4
					c1.1,0.7,4.2,2.9,4.2,2.9s0.1-3.5-0.9-4.6C325.6,232.3,321.3,231.7,321.3,231.7z"/>
			</g>
			<g>
				<g>
					<defs>
						<path id="SVGID_00000024699975891024389250000001321177342243475097_" d="M321.3,231.7c0,0,0.8,2.7,1.9,3.4
							c1.1,0.7,4.2,2.9,4.2,2.9s0.1-3.5-0.9-4.6C325.6,232.3,321.3,231.7,321.3,231.7z"/>
					</defs>
					<clipPath id="SVGID_00000067914869558266634760000015480106826618740396_">
						<use xlink:href="#SVGID_00000024699975891024389250000001321177342243475097_"  style="overflow:visible;"/>
					</clipPath>
					<path style="clip-path:url(#SVGID_00000067914869558266634760000015480106826618740396_);fill:#465F00;" d="M321,231.1
						c0,0,1.7,2.6,2.5,3.2c0.8,0.7,3.2,2.1,3.6,2.9c0.4,0.8,0.4,1.5,0.4,1.5s-4.5-1.8-4.7-2s-3.1-5.1-3.1-5.1L321,231.1z"/>
				</g>
			</g>
		</g>
	</g>
	<g>
		<g>
			<g>
				<path id="XMLID_00000044171999113232811000000009634198173952642200_" class="st21" d="M353.6,228.4c0,0-2.7-2-5-1.9
					s-8.9-0.1-9.8,10.2c-0.9,10.3,6.5,12,7.4,12c0.7,0,2,0,2.7,0.1c0.9,0.1,2.1,0.8,2.9,1c3.3,0.8,10.3-0.2,12.7-10.4
					s-6.4-11-6.4-11L353.6,228.4z"/>
			</g>
			<g>
				<g>
					<g>
						<g>
							<g>
								<defs>
									<path id="SVGID_00000183209428874579859000000011203940339582124459_" d="M353.6,228.4c0,0-2.7-2-5-1.9s-8.9-0.1-9.8,10.2
										c-0.9,10.3,6.5,12,7.4,12c0.7,0,2,0,2.7,0.1c0.9,0.1,2.1,0.8,2.9,1c3.3,0.8,10.3-0.2,12.7-10.4s-6.4-11-6.4-11L353.6,228.4
										z"/>
								</defs>
								<clipPath id="SVGID_00000023270783127959103030000007566011535160544419_">
									<use xlink:href="#SVGID_00000183209428874579859000000011203940339582124459_"  style="overflow:visible;"/>
								</clipPath>
								<path style="clip-path:url(#SVGID_00000023270783127959103030000007566011535160544419_);fill:#B60000;" d="M351,226.5
									c0,0,0.5,2.4,1.3,2.9c0.8,0.5,2-0.2,2.6-0.3c0.6-0.1,1.5-0.4,3,0c1.5,0.4,5.2,2.2,5.4,4.7c0.2,2.5-2,9.2-3.6,10.9
									c-1.7,1.6-8.3,2.7-10.1,2.7c-1.8,0-8.5-1.3-8.5-1.3l-3.4,6.2l31.8,1.2l4.2-25.7L351,226.5z"/>
							</g>
						</g>
					</g>
				</g>
			</g>
			<g>
				<g>
					<g>
						<g>
							<g>
								<defs>
									<path id="SVGID_00000043438989418691510720000015570428510461683113_" d="M353.6,228.4c0,0-2.7-2-5-1.9s-8.9-0.1-9.8,10.2
										c-0.9,10.3,6.5,12,7.4,12c0.7,0,2,0,2.7,0.1c0.9,0.1,2.1,0.8,2.9,1c3.3,0.8,10.3-0.2,12.7-10.4s-6.4-11-6.4-11L353.6,228.4
										z"/>
								</defs>
								<clipPath id="SVGID_00000080191980837925748880000013442174543029600414_">
									<use xlink:href="#SVGID_00000043438989418691510720000015570428510461683113_"  style="overflow:visible;"/>
								</clipPath>
								
									<path style="opacity:0.36;clip-path:url(#SVGID_00000080191980837925748880000013442174543029600414_);fill:#FFFFFF;enable-background:new    ;" d="
									M345.6,233.2c-0.9,0.9-2.1,2.5-2.6,2c-0.5-0.5-0.3-2.8,0.7-3.7c0.9-0.9,2.1-1.3,2.7-0.8
									C346.9,231.1,346.5,232.2,345.6,233.2z"/>
							</g>
						</g>
					</g>
				</g>
			</g>
			<g>
				<g>
					<g>
						<g>
							<g>
								<defs>
									<path id="SVGID_00000080896423161054722180000009802373229659823264_" d="M353.6,228.4c0,0-2.7-2-5-1.9s-8.9-0.1-9.8,10.2
										c-0.9,10.3,6.5,12,7.4,12c0.7,0,2,0,2.7,0.1c0.9,0.1,2.1,0.8,2.9,1c3.3,0.8,10.3-0.2,12.7-10.4s-6.4-11-6.4-11L353.6,228.4
										z"/>
								</defs>
								<clipPath id="SVGID_00000079466952485072342060000003631684155015554434_">
									<use xlink:href="#SVGID_00000080896423161054722180000009802373229659823264_"  style="overflow:visible;"/>
								</clipPath>
								
									<path style="opacity:0.36;clip-path:url(#SVGID_00000079466952485072342060000003631684155015554434_);fill:#FFFFFF;enable-background:new    ;" d="
									M343.6,237.6c-0.2,0-0.6,0.1-0.5-0.4s0.6-1.3,0.8-1.3c0.2,0,0.3,0.4,0.2,0.9C344.1,237.4,343.8,237.7,343.6,237.6z"/>
							</g>
						</g>
					</g>
				</g>
			</g>
		</g>
		<path class="st25" d="M359.6,223.5c-0.1,0.1-0.9,0.3-1.8,0.8c-0.8,0.5-4.3,4.4-4.3,4.4l-0.7-0.1c0,0,3.1-3,4.4-4.6
			C358.6,222.6,360.1,223.2,359.6,223.5z"/>
		<g>
			<g>
				<path id="XMLID_00000059280921844970752360000002216162801377801103_" class="st26" d="M349.5,219.8c0,0,0.8,2.7,1.9,3.4
					c1.1,0.7,4.2,2.9,4.2,2.9s0.1-3.5-0.9-4.6C353.8,220.4,349.5,219.8,349.5,219.8z"/>
			</g>
			<g>
				<g>
					<defs>
						<path id="SVGID_00000016784171523343859970000008666643276191066253_" d="M349.5,219.8c0,0,0.8,2.7,1.9,3.4
							c1.1,0.7,4.2,2.9,4.2,2.9s0.1-3.5-0.9-4.6C353.8,220.4,349.5,219.8,349.5,219.8z"/>
					</defs>
					<clipPath id="SVGID_00000065795317005270794330000006562984871435925178_">
						<use xlink:href="#SVGID_00000016784171523343859970000008666643276191066253_"  style="overflow:visible;"/>
					</clipPath>
					<path style="clip-path:url(#SVGID_00000065795317005270794330000006562984871435925178_);fill:#465F00;" d="M349.3,219.2
						c0,0,1.7,2.6,2.5,3.2c0.8,0.7,3.2,2.1,3.6,2.9c0.4,0.8,0.4,1.5,0.4,1.5s-4.5-1.8-4.7-2s-3.1-5.1-3.1-5.1L349.3,219.2z"/>
				</g>
			</g>
		</g>
	</g>
	<g>
		<g>
			<g>
				<path id="XMLID_00000029763625262453597620000011736129165779838363_" class="st21" d="M426.3,224.6c0,0-2.7-2-5-1.9
					c-2.3,0.1-8.9-0.1-9.8,10.2c-0.9,10.3,6.5,12,7.4,12c0.7,0,2,0,2.7,0.1c0.9,0.1,2.1,0.8,2.9,1c3.3,0.8,10.3-0.2,12.7-10.4
					s-6.4-11-6.4-11L426.3,224.6z"/>
			</g>
			<g>
				<g>
					<g>
						<g>
							<g>
								<defs>
									<path id="SVGID_00000025403140342901709110000015586587969009857946_" d="M426.3,224.6c0,0-2.7-2-5-1.9
										c-2.3,0.1-8.9-0.1-9.8,10.2c-0.9,10.3,6.5,12,7.4,12c0.7,0,2,0,2.7,0.1c0.9,0.1,2.1,0.8,2.9,1c3.3,0.8,10.3-0.2,12.7-10.4
										s-6.4-11-6.4-11L426.3,224.6z"/>
								</defs>
								<clipPath id="SVGID_00000044140231983229800490000013626032226214229439_">
									<use xlink:href="#SVGID_00000025403140342901709110000015586587969009857946_"  style="overflow:visible;"/>
								</clipPath>
								<path style="clip-path:url(#SVGID_00000044140231983229800490000013626032226214229439_);fill:#B60000;" d="M423.7,222.7
									c0,0,0.5,2.4,1.3,2.9c0.8,0.5,2-0.2,2.6-0.3s1.5-0.4,3,0c1.5,0.4,5.2,2.2,5.4,4.7c0.2,2.5-2,9.2-3.6,10.9
									c-1.7,1.6-8.3,2.7-10.1,2.7s-8.5-1.3-8.5-1.3l-3.4,6.2l31.8,1.2l4.2-25.7L423.7,222.7z"/>
							</g>
						</g>
					</g>
				</g>
			</g>
			<g>
				<g>
					<g>
						<g>
							<g>
								<defs>
									<path id="SVGID_00000064343318960728596230000013258878704391487141_" d="M426.3,224.6c0,0-2.7-2-5-1.9
										c-2.3,0.1-8.9-0.1-9.8,10.2c-0.9,10.3,6.5,12,7.4,12c0.7,0,2,0,2.7,0.1c0.9,0.1,2.1,0.8,2.9,1c3.3,0.8,10.3-0.2,12.7-10.4
										s-6.4-11-6.4-11L426.3,224.6z"/>
								</defs>
								<clipPath id="SVGID_00000102525884444305388050000011556899953533158297_">
									<use xlink:href="#SVGID_00000064343318960728596230000013258878704391487141_"  style="overflow:visible;"/>
								</clipPath>
								
									<path style="opacity:0.36;clip-path:url(#SVGID_00000102525884444305388050000011556899953533158297_);fill:#FFFFFF;enable-background:new    ;" d="
									M418.3,229.3c-0.9,0.9-2.1,2.5-2.6,2c-0.5-0.5-0.3-2.8,0.7-3.7c0.9-0.9,2.1-1.3,2.7-0.8
									C419.5,227.3,419.2,228.4,418.3,229.3z"/>
							</g>
						</g>
					</g>
				</g>
			</g>
			<g>
				<g>
					<g>
						<g>
							<g>
								<defs>
									<path id="SVGID_00000038376218764740561320000007660169657429326227_" d="M426.3,224.6c0,0-2.7-2-5-1.9
										c-2.3,0.1-8.9-0.1-9.8,10.2c-0.9,10.3,6.5,12,7.4,12c0.7,0,2,0,2.7,0.1c0.9,0.1,2.1,0.8,2.9,1c3.3,0.8,10.3-0.2,12.7-10.4
										s-6.4-11-6.4-11L426.3,224.6z"/>
								</defs>
								<clipPath id="SVGID_00000011027042642850774180000000050801821017092262_">
									<use xlink:href="#SVGID_00000038376218764740561320000007660169657429326227_"  style="overflow:visible;"/>
								</clipPath>
								
									<path style="opacity:0.36;clip-path:url(#SVGID_00000011027042642850774180000000050801821017092262_);fill:#FFFFFF;enable-background:new    ;" d="
									M416.3,233.8c-0.2,0-0.6,0.1-0.5-0.4s0.6-1.3,0.8-1.3c0.2,0,0.3,0.4,0.2,0.9C416.7,233.5,416.5,233.9,416.3,233.8z"/>
							</g>
						</g>
					</g>
				</g>
			</g>
		</g>
		<path class="st25" d="M432.3,219.7c-0.1,0.1-0.9,0.3-1.8,0.8c-0.8,0.5-4.3,4.4-4.3,4.4l-0.7-0.1c0,0,3.1-3,4.4-4.6
			C431.3,218.7,432.8,219.4,432.3,219.7z"/>
		<g>
			<g>
				<path id="XMLID_00000067221958783681751520000014810413780541500849_" class="st26" d="M422.2,216c0,0,0.8,2.7,1.9,3.4
					c1.1,0.7,4.2,2.9,4.2,2.9s0.1-3.5-0.9-4.6C426.5,216.6,422.2,216,422.2,216z"/>
			</g>
			<g>
				<g>
					<defs>
						<path id="SVGID_00000041290882269238166760000004290917661735235726_" d="M422.2,216c0,0,0.8,2.7,1.9,3.4
							c1.1,0.7,4.2,2.9,4.2,2.9s0.1-3.5-0.9-4.6C426.5,216.6,422.2,216,422.2,216z"/>
					</defs>
					<clipPath id="SVGID_00000050660478233719321090000016760153690799402626_">
						<use xlink:href="#SVGID_00000041290882269238166760000004290917661735235726_"  style="overflow:visible;"/>
					</clipPath>
					<path style="clip-path:url(#SVGID_00000050660478233719321090000016760153690799402626_);fill:#465F00;" d="M421.9,215.4
						c0,0,1.7,2.6,2.5,3.2c0.8,0.7,3.2,2.1,3.6,2.9c0.4,0.8,0.4,1.5,0.4,1.5s-4.5-1.8-4.7-2c-0.1-0.2-3.1-5.1-3.1-5.1L421.9,215.4z"
						/>
				</g>
			</g>
		</g>
	</g>
	<g>
		<g>
			<g>
				<path id="XMLID_00000121249838269895991990000013865551664781133965_" class="st21" d="M330.9,216.3c0,0-1.7-1.3-3.2-1.2
					s-5.7-0.1-6.3,6.5c-0.6,6.6,4.1,7.7,4.7,7.7c0.4,0,1.3,0,1.7,0.1c0.5,0.1,1.3,0.5,1.9,0.7c2.1,0.5,6.5-0.1,8.1-6.7
					c1.5-6.5-4.1-7-4.1-7L330.9,216.3z"/>
			</g>
			<g>
				<g>
					<g>
						<g>
							<g>
								<defs>
									<path id="SVGID_00000129192608354225964940000011551552227183403965_" d="M330.9,216.3c0,0-1.7-1.3-3.2-1.2
										s-5.7-0.1-6.3,6.5c-0.6,6.6,4.1,7.7,4.7,7.7c0.4,0,1.3,0,1.7,0.1c0.5,0.1,1.3,0.5,1.9,0.7c2.1,0.5,6.5-0.1,8.1-6.7
										c1.5-6.5-4.1-7-4.1-7L330.9,216.3z"/>
								</defs>
								<clipPath id="SVGID_00000165954674600749601460000006950535884340276143_">
									<use xlink:href="#SVGID_00000129192608354225964940000011551552227183403965_"  style="overflow:visible;"/>
								</clipPath>
								<path style="clip-path:url(#SVGID_00000165954674600749601460000006950535884340276143_);fill:#B60000;" d="M329.2,215.1
									c0,0,0.3,1.5,0.8,1.8c0.5,0.3,1.3-0.1,1.7-0.2c0.4-0.1,1-0.2,1.9,0c1,0.2,3.3,1.4,3.5,3c0.1,1.6-1.2,5.9-2.3,6.9
									s-5.3,1.7-6.4,1.7s-5.4-0.9-5.4-0.9l-2.2,3.9l20.3,0.8l2.7-16.4L329.2,215.1z"/>
							</g>
						</g>
					</g>
				</g>
			</g>
			<g>
				<g>
					<g>
						<g>
							<g>
								<defs>
									<path id="SVGID_00000104681470111287991460000001155667907368568726_" d="M330.9,216.3c0,0-1.7-1.3-3.2-1.2
										s-5.7-0.1-6.3,6.5c-0.6,6.6,4.1,7.7,4.7,7.7c0.4,0,1.3,0,1.7,0.1c0.5,0.1,1.3,0.5,1.9,0.7c2.1,0.5,6.5-0.1,8.1-6.7
										c1.5-6.5-4.1-7-4.1-7L330.9,216.3z"/>
								</defs>
								<clipPath id="SVGID_00000016037524962056734500000011348884435204446898_">
									<use xlink:href="#SVGID_00000104681470111287991460000001155667907368568726_"  style="overflow:visible;"/>
								</clipPath>
								
									<path style="opacity:0.36;clip-path:url(#SVGID_00000016037524962056734500000011348884435204446898_);fill:#FFFFFF;enable-background:new    ;" d="
									M325.7,219.3c-0.6,0.6-1.3,1.6-1.7,1.3c-0.3-0.3-0.2-1.8,0.4-2.3c0.6-0.6,1.4-0.8,1.7-0.5
									C326.5,218,326.3,218.7,325.7,219.3z"/>
							</g>
						</g>
					</g>
				</g>
			</g>
			<g>
				<g>
					<g>
						<g>
							<g>
								<defs>
									<path id="SVGID_00000085942699566508482460000005890208668483390110_" d="M330.9,216.3c0,0-1.7-1.3-3.2-1.2
										s-5.7-0.1-6.3,6.5c-0.6,6.6,4.1,7.7,4.7,7.7c0.4,0,1.3,0,1.7,0.1c0.5,0.1,1.3,0.5,1.9,0.7c2.1,0.5,6.5-0.1,8.1-6.7
										c1.5-6.5-4.1-7-4.1-7L330.9,216.3z"/>
								</defs>
								<clipPath id="SVGID_00000094597379281831004600000010144841884244358846_">
									<use xlink:href="#SVGID_00000085942699566508482460000005890208668483390110_"  style="overflow:visible;"/>
								</clipPath>
								
									<path style="opacity:0.36;clip-path:url(#SVGID_00000094597379281831004600000010144841884244358846_);fill:#FFFFFF;enable-background:new    ;" d="
									M324.5,222.1c-0.1,0-0.4,0.1-0.3-0.2c0.1-0.3,0.4-0.8,0.5-0.8c0.1,0,0.2,0.3,0.1,0.6C324.8,222,324.6,222.2,324.5,222.1z"/>
							</g>
						</g>
					</g>
				</g>
			</g>
		</g>
		<path class="st25" d="M334.7,213.2c-0.1,0.1-0.5,0.2-1.1,0.5c-0.5,0.3-2.7,2.8-2.7,2.8l-0.4-0.1c0,0,2-1.9,2.8-2.9
			C334.1,212.5,335,212.9,334.7,213.2z"/>
		<g>
			<g>
				<path id="XMLID_00000054957768008194894330000003550310060313327799_" class="st26" d="M328.3,210.8c0,0,0.5,1.7,1.2,2.1
					c0.7,0.4,2.7,1.9,2.7,1.9s0.1-2.3-0.6-2.9C331,211.2,328.3,210.8,328.3,210.8z"/>
			</g>
			<g>
				<g>
					<defs>
						<path id="SVGID_00000072990189606846482560000007832816091982230975_" d="M328.3,210.8c0,0,0.5,1.7,1.2,2.1
							c0.7,0.4,2.7,1.9,2.7,1.9s0.1-2.3-0.6-2.9C331,211.2,328.3,210.8,328.3,210.8z"/>
					</defs>
					<clipPath id="SVGID_00000085234445955757890480000009962757273881702330_">
						<use xlink:href="#SVGID_00000072990189606846482560000007832816091982230975_"  style="overflow:visible;"/>
					</clipPath>
					<path style="clip-path:url(#SVGID_00000085234445955757890480000009962757273881702330_);fill:#465F00;" d="M328.1,210.4
						c0,0,1.1,1.6,1.6,2c0.5,0.4,2,1.3,2.3,1.9s0.2,0.9,0.2,0.9s-2.9-1.2-3-1.3c-0.1-0.1-2-3.2-2-3.2L328.1,210.4z"/>
				</g>
			</g>
		</g>
	</g>
	<g>
		<g>
			<g>
				<path id="XMLID_00000005240897946534824460000002014230068796479161_" class="st21" d="M422.7,254.2c0,0-1.7-1.3-3.2-1.2
					c-1.5,0.1-5.7-0.1-6.3,6.5c-0.6,6.6,4.1,7.7,4.7,7.7c0.4,0,1.3,0,1.7,0.1c0.5,0.1,1.3,0.5,1.9,0.7c2.1,0.5,6.5-0.1,8.1-6.7
					c1.5-6.5-4.1-7-4.1-7L422.7,254.2z"/>
			</g>
			<g>
				<g>
					<g>
						<g>
							<g>
								<defs>
									<path id="SVGID_00000075879090829369519050000007817635726067052733_" d="M422.7,254.2c0,0-1.7-1.3-3.2-1.2
										c-1.5,0.1-5.7-0.1-6.3,6.5c-0.6,6.6,4.1,7.7,4.7,7.7c0.4,0,1.3,0,1.7,0.1c0.5,0.1,1.3,0.5,1.9,0.7c2.1,0.5,6.5-0.1,8.1-6.7
										c1.5-6.5-4.1-7-4.1-7L422.7,254.2z"/>
								</defs>
								<clipPath id="SVGID_00000115481358963950834190000011357684265207143613_">
									<use xlink:href="#SVGID_00000075879090829369519050000007817635726067052733_"  style="overflow:visible;"/>
								</clipPath>
								<path style="clip-path:url(#SVGID_00000115481358963950834190000011357684265207143613_);fill:#B60000;" d="M421,253
									c0,0,0.3,1.5,0.8,1.8c0.5,0.3,1.3-0.1,1.7-0.2s1-0.2,1.9,0c1,0.2,3.3,1.4,3.5,3c0.1,1.6-1.2,5.9-2.3,6.9
									c-1.1,1-5.3,1.7-6.4,1.7s-5.4-0.9-5.4-0.9l-2.2,3.9l20.3,0.8l2.7-16.4L421,253z"/>
							</g>
						</g>
					</g>
				</g>
			</g>
			<g>
				<g>
					<g>
						<g>
							<g>
								<defs>
									<path id="SVGID_00000027575545625300850190000016699792343669743754_" d="M422.7,254.2c0,0-1.7-1.3-3.2-1.2
										c-1.5,0.1-5.7-0.1-6.3,6.5c-0.6,6.6,4.1,7.7,4.7,7.7c0.4,0,1.3,0,1.7,0.1c0.5,0.1,1.3,0.5,1.9,0.7c2.1,0.5,6.5-0.1,8.1-6.7
										c1.5-6.5-4.1-7-4.1-7L422.7,254.2z"/>
								</defs>
								<clipPath id="SVGID_00000155836837150934329650000015206953108063700156_">
									<use xlink:href="#SVGID_00000027575545625300850190000016699792343669743754_"  style="overflow:visible;"/>
								</clipPath>
								
									<path style="opacity:0.36;clip-path:url(#SVGID_00000155836837150934329650000015206953108063700156_);fill:#FFFFFF;enable-background:new    ;" d="
									M417.6,257.2c-0.6,0.6-1.3,1.6-1.7,1.3c-0.3-0.3-0.2-1.8,0.4-2.3c0.6-0.6,1.4-0.8,1.7-0.5
									C418.4,255.9,418.2,256.6,417.6,257.2z"/>
							</g>
						</g>
					</g>
				</g>
			</g>
			<g>
				<g>
					<g>
						<g>
							<g>
								<defs>
									<path id="SVGID_00000129192954969561244650000016881660043264121986_" d="M422.7,254.2c0,0-1.7-1.3-3.2-1.2
										c-1.5,0.1-5.7-0.1-6.3,6.5c-0.6,6.6,4.1,7.7,4.7,7.7c0.4,0,1.3,0,1.7,0.1c0.5,0.1,1.3,0.5,1.9,0.7c2.1,0.5,6.5-0.1,8.1-6.7
										c1.5-6.5-4.1-7-4.1-7L422.7,254.2z"/>
								</defs>
								<clipPath id="SVGID_00000176750949853301951120000009676407959948905875_">
									<use xlink:href="#SVGID_00000129192954969561244650000016881660043264121986_"  style="overflow:visible;"/>
								</clipPath>
								
									<path style="opacity:0.36;clip-path:url(#SVGID_00000176750949853301951120000009676407959948905875_);fill:#FFFFFF;enable-background:new    ;" d="
									M416.3,260.1c-0.1,0-0.4,0.1-0.3-0.2c0.1-0.3,0.4-0.8,0.5-0.8c0.1,0,0.2,0.3,0.1,0.6C416.6,259.9,416.4,260.1,416.3,260.1z"
									/>
							</g>
						</g>
					</g>
				</g>
			</g>
		</g>
		<path class="st25" d="M426.5,251.1c-0.1,0.1-0.5,0.2-1.1,0.5c-0.5,0.3-2.7,2.8-2.7,2.8l-0.4-0.1c0,0,2-1.9,2.8-2.9
			C425.9,250.5,426.8,250.9,426.5,251.1z"/>
		<g>
			<g>
				<path id="XMLID_00000076570045198771061340000018428081976553330110_" class="st26" d="M420.1,248.7c0,0,0.5,1.7,1.2,2.1
					c0.7,0.4,2.7,1.9,2.7,1.9s0.1-2.3-0.6-2.9C422.8,249.1,420.1,248.7,420.1,248.7z"/>
			</g>
			<g>
				<g>
					<defs>
						<path id="SVGID_00000115509868691899649470000005467573577841464226_" d="M420.1,248.7c0,0,0.5,1.7,1.2,2.1
							c0.7,0.4,2.7,1.9,2.7,1.9s0.1-2.3-0.6-2.9C422.8,249.1,420.1,248.7,420.1,248.7z"/>
					</defs>
					<clipPath id="SVGID_00000014634433177771887890000003142067784805215108_">
						<use xlink:href="#SVGID_00000115509868691899649470000005467573577841464226_"  style="overflow:visible;"/>
					</clipPath>
					<path style="clip-path:url(#SVGID_00000014634433177771887890000003142067784805215108_);fill:#465F00;" d="M419.9,248.3
						c0,0,1.1,1.6,1.6,2c0.5,0.4,2,1.3,2.3,1.9c0.2,0.5,0.2,0.9,0.2,0.9s-2.9-1.2-3-1.3c-0.1-0.1-2-3.2-2-3.2L419.9,248.3z"/>
				</g>
			</g>
		</g>
	</g>
	
		<rect x="374.9" y="241.3" transform="matrix(0.9957 9.290321e-02 -9.290321e-02 0.9957 24.3686 -35.0698)" class="st44" width="27.9" height="5.7"/>
	<g>
		
			<rect x="442.2" y="253.1" transform="matrix(0.9957 9.290321e-02 -9.290321e-02 0.9957 25.765 -41.5036)" class="st44" width="33" height="5.7"/>
		
			<rect x="443.3" y="241.1" transform="matrix(0.9957 9.290321e-02 -9.290321e-02 0.9957 24.6535 -41.6597)" class="st44" width="33" height="5.7"/>
	</g>
	<g>
		<path class="st44" d="M494.1,261l0-1.6c-0.1-3.3,1.4-6.8,4.8-10.2c3-3,4.8-5.2,5-7.9c0.3-3.1-1.5-5.4-5.3-5.8
			c-2.2-0.2-4.7,0.3-6.3,1.3l-1.1-4c2.1-1.3,5.7-1.9,8.9-1.6c7,0.7,9.8,5.3,9.3,9.9c-0.4,4.1-3,6.9-6.2,10.1c-3,2.9-4.2,5.5-4.3,8.6
			l-0.1,1.6L494.1,261z M491.9,269.4c0.2-2.3,1.9-3.7,4-3.5c2.1,0.2,3.4,1.9,3.2,4.2c-0.2,2.1-1.8,3.6-4,3.4
			C493,273.3,491.7,271.5,491.9,269.4z"/>
	</g>
	<circle class="st45" cx="538.8" cy="232.7" r="1.6"/>
	<circle class="st45" cx="538.1" cy="238.9" r="1.6"/>
	<circle class="st45" cx="537.4" cy="245.1" r="1.6"/>
	<circle class="st45" cx="536.7" cy="251.3" r="1.6"/>
	<circle class="st45" cx="535.9" cy="257.4" r="1.6"/>
	<circle class="st45" cx="535.2" cy="263.6" r="1.6"/>
	<ellipse class="st46" cx="287.9" cy="238.8" rx="11" ry="15.7"/>
	<path class="st46" d="M488.5,280.9c7,0.7,15.4,3.8,14.9,8.4c-0.4,4.6-9.5,8.9-16.5,8.2c-7-0.7-14.9-6.4-14.5-10.9
		C472.9,281.9,481.5,280.2,488.5,280.9z"/>
	<path class="st47" d="M960,348.4c0-86.9-40.1-157.3-89.6-157.3c-49.5,0-89.6,70.4-89.6,157.3L960,348.4z"/>
	<circle class="st48" cx="840" cy="256.2" r="25.1"/>
	<circle class="st48" cx="906.4" cy="252.1" r="21.6"/>
	<g>
		<defs>
			<path id="XMLID_00000011742463554499203880000015212842669988366216_" d="M816.1,301.2c0,0,7.7,3,18.4,6.6
				c5.4,1.8,11.6,3.8,18,5.7c19,5.5,61.5-16,61.5-16s-1.3,32-40.1,41.1C835,347.7,816.1,301.2,816.1,301.2z"/>
		</defs>
		<use xlink:href="#XMLID_00000011742463554499203880000015212842669988366216_"  style="overflow:visible;fill:#C01000;"/>
		<clipPath id="XMLID_00000007429414926923792760000013143143108514272160_">
			<use xlink:href="#XMLID_00000011742463554499203880000015212842669988366216_"  style="overflow:visible;"/>
		</clipPath>
		<polyline style="clip-path:url(#XMLID_00000007429414926923792760000013143143108514272160_);fill:#FBFFC3;" points="834.5,316.1 
			843.8,316.1 842.2,310.4 834.5,307.8 		"/>
	</g>
	<polygon class="st47" points="901.1,348.4 914,390.4 901.1,395.3 892.6,395.3 899,383.9 892.6,348.4 	"/>
	<polygon class="st47" points="853.2,348.2 853,392.1 839.3,393 831.1,390.5 840.6,381.5 845.1,345.6 	"/>
	<ellipse class="st47" cx="889.3" cy="156.1" rx="14" ry="12.8"/>
	<polygon class="st47" points="889.3,158.3 875.2,198.6 878.7,201.1 	"/>
	<circle class="st44" cx="844.8" cy="260.5" r="9.2"/>
	<circle class="st44" cx="903.3" cy="244.8" r="9.2"/>
	<polygon class="st50" points="768.1,271.1 766.4,272.3 712.5,199 714,197.9 	"/>
	<circle class="st51" cx="709.4" cy="191" r="48.8"/>
	<g>
		<path class="st44" d="M714.3,222.7v-14.8h-25.2v-4.8l24.2-34.7h7.9v33.8h7.6v5.8l-7.6,0v14.8H714.3z M714.3,202.2V184
			c0-2.8,0.1-5.7,0.3-8.5h-0.3c-1.7,3.2-3,5.5-4.5,8L696.5,202v0.2L714.3,202.2z"/>
	</g>
	<polygon class="st47" points="791.4,273.7 767.8,262.1 768.1,271.1 789.2,281.3 	"/>
	<rect x="756.3" y="254.5" class="st47" width="11.6" height="19.1"/>
	<polygon class="st47" points="951.6,287.8 974.9,300 967.5,305.1 946.8,294.1 	"/>
	
		<rect x="971" y="296.3" transform="matrix(-0.5891 -0.808 0.808 -0.5891 1305.0905 1275.2496)" class="st47" width="11.6" height="19.1"/>
</g>
<g id="Слой_2">
	<path class="st52" d="M174.1,224.9c2,22.6-15,42.6-37.9,44.6S93,254.9,91,232.4s19.2-71.5,33.4-71.5
		C141.2,160.8,172.1,202.3,174.1,224.9z"/>
	<path class="st53" d="M185.4,350.8c0,0-30.7,7.8-41.1,8.7c-10.4,0.9-42-1.3-42-1.3L90.8,230.4c0,0,12.3-15.5,42.9-18.2
		S174,223,174,223L185.4,350.8z"/>
	<polygon class="st52" points="103.7,326.9 80.7,354.5 79.2,406.6 110.2,398.8 	"/>
	<polygon class="st52" points="173.3,318.2 199.5,341.4 209.9,392.4 179.8,390.2 	"/>
	<polygon class="st52" points="141.2,324.6 153.8,349 161,400.4 147.6,396.6 	"/>
</g>
</svg>
