<?xml version="1.0" encoding="utf-8"?>
<!-- Generator: Adobe Illustrator 26.0.3, SVG Export Plug-In . SVG Version: 6.00 Build 0)  -->
<svg version="1.1" id="Слой_1" xmlns="http://www.w3.org/2000/svg" xmlns:xlink="http://www.w3.org/1999/xlink" x="0px" y="0px"
	 viewBox="0 0 1920 529.3" style="enable-background:new 0 0 1920 529.3;" xml:space="preserve">
<style type="text/css">
	.st0{fill:url(#SVGID_1_);}
	.st1{fill:url(#SVGID_00000174577330723572520500000016984836754588091582_);}
	.st2{fill:url(#SVGID_00000041256970010552690060000016691129514553253267_);}
	.st3{fill:url(#SVGID_00000098936588103572650260000002854906950864237220_);}
	.st4{fill:#E9C900;}
	.st5{fill:#7F6000;}
	.st6{clip-path:url(#SVGID_00000160891833827596070070000004203670156089681308_);fill:#946000;}
	.st7{clip-path:url(#SVGID_00000012439705474672675540000012300651133267002251_);fill:#946000;}
	.st8{clip-path:url(#SVGID_00000061429706693885299600000005573072724721232523_);fill:#946000;}
	.st9{fill:#080000;}
	.st10{fill:#5859B4;}
	.st11{clip-path:url(#SVGID_00000134232715776316502900000005908934708319405984_);fill:#384078;}
	.st12{clip-path:url(#SVGID_00000151534556926967153060000009664960764795955117_);fill:#384078;}
	.st13{fill:#91500E;}
	.st14{clip-path:url(#SVGID_00000151534239435445598900000005052768902633307288_);fill:#7D350E;}
	.st15{fill:#FFF1AA;}
	.st16{clip-path:url(#SVGID_00000165927813864329291770000005471724488270032815_);fill:#FFD38C;}
	.st17{clip-path:url(#SVGID_00000167358769931139704030000002620012304289825927_);fill:#FFD38C;}
	.st18{fill:#612600;}
	.st19{clip-path:url(#SVGID_00000021110345818806403540000000970575350539631548_);fill:#372100;}
	.st20{fill:#020100;}
	.st21{fill:#AD0000;}
	.st22{fill:#5E1500;}
	.st23{fill:#FFAC7C;}
	.st24{fill:#EE0000;}
	.st25{clip-path:url(#SVGID_00000107578824567869346730000009017518605248787376_);fill:#B60000;}
	
		.st26{opacity:0.36;clip-path:url(#SVGID_00000049917546788751885060000010554627422276763822_);fill:#FFFFFF;enable-background:new    ;}
	
		.st27{opacity:0.36;clip-path:url(#SVGID_00000104699684945281703250000015610252500670818988_);fill:#FFFFFF;enable-background:new    ;}
	.st28{fill:#603813;}
	.st29{fill:#5F9D00;}
	.st30{clip-path:url(#SVGID_00000008130664978029245750000014477387241711183776_);fill:#465F00;}
	.st31{clip-path:url(#SVGID_00000070808345854495783490000011431788234742367385_);fill:#B60000;}
	
		.st32{opacity:0.36;clip-path:url(#SVGID_00000044887887304194379810000004862680033158519168_);fill:#FFFFFF;enable-background:new    ;}
	
		.st33{opacity:0.36;clip-path:url(#SVGID_00000169527204004117805900000010502521879062789508_);fill:#FFFFFF;enable-background:new    ;}
	.st34{clip-path:url(#SVGID_00000062164067241798245400000013370452369371488163_);fill:#465F00;}
	.st35{clip-path:url(#SVGID_00000163058128258887648140000009657827391612734124_);fill:#B60000;}
	
		.st36{opacity:0.36;clip-path:url(#SVGID_00000051371353333263208110000007728820125800370309_);fill:#FFFFFF;enable-background:new    ;}
	
		.st37{opacity:0.36;clip-path:url(#SVGID_00000072281109424227356340000017605479904058918831_);fill:#FFFFFF;enable-background:new    ;}
	.st38{clip-path:url(#SVGID_00000117655120708270522280000008744208349852705181_);fill:#465F00;}
	.st39{clip-path:url(#SVGID_00000111150954844962966010000008859542609205092243_);fill:#B60000;}
	
		.st40{opacity:0.36;clip-path:url(#SVGID_00000036227601673257157650000011065408662170797995_);fill:#FFFFFF;enable-background:new    ;}
	
		.st41{opacity:0.36;clip-path:url(#SVGID_00000157988799697161504160000001263154197065395110_);fill:#FFFFFF;enable-background:new    ;}
	.st42{clip-path:url(#SVGID_00000106108994467518892060000001017893061269719483_);fill:#465F00;}
	.st43{clip-path:url(#SVGID_00000059289194424477233700000010139271290224705690_);fill:#B60000;}
	
		.st44{opacity:0.36;clip-path:url(#SVGID_00000112594450038143559020000002764294815468403600_);fill:#FFFFFF;enable-background:new    ;}
	
		.st45{opacity:0.36;clip-path:url(#SVGID_00000096024686772741218260000013761979678245836178_);fill:#FFFFFF;enable-background:new    ;}
	.st46{clip-path:url(#SVGID_00000040569894857556756620000013357293638594349727_);fill:#465F00;}
	.st47{fill:#7F16FF;}
	.st48{fill:#E9FF84;}
	.st49{fill:#FFD38C;}
	.st50{clip-path:url(#XMLID_00000179604887504000755270000011526046775946186126_);fill:#C36800;}
	.st51{fill:#FFFCE6;}
	.st52{fill:#C01000;}
	.st53{clip-path:url(#SVGID_00000066476244260664668310000002248638204301368733_);fill:#FBFFC3;}
	.st54{fill:#DE8800;}
	.st55{fill:#B37200;}
	.st56{fill:#541200;}
	.st57{fill:#72D4BD;}
	.st58{fill:#8F4000;}
	.st59{fill:#A84F00;}
	.st60{clip-path:url(#XMLID_00000023261086197448331860000011140195534768427944_);fill:#534964;}
	.st61{clip-path:url(#XMLID_00000162339160400815851490000002864438655617616282_);fill:#C36800;}
	.st62{fill:#AA5600;}
	.st63{fill:#52C800;}
	.st64{fill:#7F4964;}
	.st65{clip-path:url(#XMLID_00000139275282648506998920000003859782478368427959_);fill:#FBFFC3;}
</style>
<g>
	
		<linearGradient id="SVGID_1_" gradientUnits="userSpaceOnUse" x1="1055.3002" y1="-941.2933" x2="1981.2003" y2="-941.2933" gradientTransform="matrix(1 0 0 -1 0 -566.8433)">
		<stop  offset="0" style="stop-color:#FFE8A8"/>
		<stop  offset="1" style="stop-color:#FCF8AA"/>
	</linearGradient>
	<path class="st0" d="M1908.3,397.7c-7.8-39.4-60.6-70-124.6-70c-18.1,0-35.4,2.4-51,6.8c0-62.4-75.2-112.9-168-112.9
		c-70.7,0-131.3,29.5-156.1,71c-36.8-14.5-82.3-23-131.6-23c-122.5,0-221.7,52.8-221.7,117.9s99.2,117.9,221.7,117.9
		c37.1,0,72-4.9,102.7-13.4c31.8,21.3,85.5,35.3,146.4,35.3c71.4,0,132.7-19.2,160.7-46.7c22.8,24.6,77.6,41.8,141.5,41.8
		c84.4,0,152.9-30.3,152.9-67.5C1981.3,430.8,1952.1,409.5,1908.3,397.7z"/>
	
		<linearGradient id="SVGID_00000137107384088883858350000009737538701073481867_" gradientUnits="userSpaceOnUse" x1="1607.3999" y1="-1030.9932" x2="2533.2998" y2="-1030.9932" gradientTransform="matrix(1 0 0 -1 0 -566.8433)">
		<stop  offset="0" style="stop-color:#FFE8A8"/>
		<stop  offset="1" style="stop-color:#FCF8AA"/>
	</linearGradient>
	<path style="fill:url(#SVGID_00000137107384088883858350000009737538701073481867_);" d="M2460.4,487.4c-7.8-39.4-60.6-70-124.6-70
		c-18.1,0-35.4,2.4-51,6.8c0-62.4-75.2-112.9-168-112.9c-70.7,0-131.3,29.5-156.1,71c-36.8-14.5-82.3-23-131.6-23
		c-122.5,0-221.7,52.8-221.7,117.9s99.2,117.9,221.7,117.9c37.1,0,72-4.9,102.7-13.4c31.8,21.3,85.5,35.3,146.4,35.3
		c71.4,0,132.7-19.2,160.7-46.7c22.8,24.6,77.6,41.8,141.5,41.8c84.4,0,152.9-30.3,152.9-67.5
		C2533.4,520.6,2504.2,499.3,2460.4,487.4z"/>
	
		<linearGradient id="SVGID_00000005974555397082624120000001369854711521061302_" gradientUnits="userSpaceOnUse" x1="931.1354" y1="-1067.7947" x2="1437.7911" y2="-358.9677" gradientTransform="matrix(1 0 0 -1 0 -566.8433)">
		<stop  offset="0" style="stop-color:#FFE8A8"/>
		<stop  offset="1" style="stop-color:#FCF8AA"/>
	</linearGradient>
	<path style="fill:url(#SVGID_00000005974555397082624120000001369854711521061302_);" d="M1422.3,306.4c-7.3-47.9-56.9-85-117.1-85
		c-17,0-33.3,3-47.9,8.4c0-75.9-70.7-137.4-158.1-137.4c-66.6,0-123.5,35.8-146.8,86.4c-34.7-17.6-77.4-28-123.8-28
		C713.4,150.8,620,215,620,294.2s93.4,143.5,208.6,143.5c34.8,0,67.7-5.9,96.6-16.3c29.8,25.9,80.5,42.9,137.8,42.9
		c67.1,0,124.9-23.3,151.1-56.7c21.5,29.8,73,51,133.3,51c79.6,0,143.9-36.8,143.9-82C1491.1,346.9,1463.6,320.8,1422.3,306.4z"/>
	
		<linearGradient id="SVGID_00000086649629213937793350000000130788190688440748_" gradientUnits="userSpaceOnUse" x1="-345.8" y1="-851.8433" x2="1272.9006" y2="-851.8433" gradientTransform="matrix(1 0 0 -1 0 -566.8433)">
		<stop  offset="0" style="stop-color:#FFE8A8"/>
		<stop  offset="1" style="stop-color:#FCF8AA"/>
	</linearGradient>
	<path style="fill:url(#SVGID_00000086649629213937793350000000130788190688440748_);" d="M1145.4,316.9
		c-13.5-54.3-105.7-96.5-217.7-96.5c-31.8,0-61.9,3.3-89.2,9.6c0-86-131.6-155.8-293.8-155.8c-123.7,0-229.6,40.6-272.8,98.1
		c-64.4-19.9-143.9-31.8-230.2-31.8c-214.1,0-387.5,72.9-387.5,162.6s173.6,162.6,387.5,162.6c64.8,0,125.8-6.7,179.5-18.6
		c55.5,29.4,149.4,48.7,256,48.7c124.8,0,232-26.5,280.7-64.5c40,33.9,135.7,57.8,247.5,57.8c147.7,0,267.5-41.7,267.5-93.1
		C1273.1,362.7,1222,333.2,1145.4,316.9z"/>
</g>
<path class="st4" d="M-26.3,459.8c42-23.8,22.8-23.2,154.8-52.7c132.1-29.6,184.4-76.3,241.4-81.4c56.9-5.1,177.4-30.7,285.2,31.2
	s318.1,79.2,377.3,95.6c59.2,16.3,225.4-77.8,245.9-93.4c20.5-15.7,179.9-22.8,232.2-7.1c52.4,15.7,113.8,60.9,150.3,84.6
	c36.4,23.7,179.9,20.4,273.2,12.1s227.7-10.6,275.5,11.2c47.8,21.8,323.3-40.3,343.8-52.7c20.5-12.4,356.4-18.5,421.3-38.7
	s191.2,50.6,242.4,107.2s-1434.4,90.8-1434.4,90.8l-1767-32.1L-26.3,459.8z"/>
<g>
	<g>
		<path id="XMLID_00000160882641145616072100000010269549984035130496_" class="st5" d="M-124.7,535.8
			c26.3-23.8-40.3-48.9,42.4-78.5s172.9-64.5,208.5-69.6s385.8-61.9,453.4,0s67,82.6,104.1,98.9s94.1-77.8,106.9-93.4
			c12.8-15.7,112.6-22.8,145.4-7.1c32.8,15.7,71.3,60.9,94.1,84.6c22.8,23.7,112.6,20.4,171.1,12.1s142.6-10.6,172.5,11.2
			c29.9,21.8,202.5-40.3,215.3-52.7s223.2-18.5,263.8-38.7c40.6-20.1,119.7,50.6,151.8,107.2c32.1,56.6-898.2,90.8-898.2,90.8
			L0,568.6L-124.7,535.8z"/>
	</g>
	<g>
		<defs>
			<path id="SVGID_00000129191664870511306910000007737380724826865027_" d="M-124.7,535.8c26.3-23.8-40.3-48.9,42.4-78.5
				s172.9-64.5,208.5-69.6s385.8-61.9,453.4,0s67,82.6,104.1,98.9s94.1-77.8,106.9-93.4c12.8-15.7,112.6-22.8,145.4-7.1
				c32.8,15.7,71.3,60.9,94.1,84.6c22.8,23.7,112.6,20.4,171.1,12.1s142.6-10.6,172.5,11.2c29.9,21.8,202.5-40.3,215.3-52.7
				s223.2-18.5,263.8-38.7c40.6-20.1,119.7,50.6,151.8,107.2c32.1,56.6-898.2,90.8-898.2,90.8L0,568.6L-124.7,535.8z"/>
		</defs>
		<clipPath id="SVGID_00000065065523157642944340000002819113194161904780_">
			<use xlink:href="#SVGID_00000129191664870511306910000007737380724826865027_"  style="overflow:visible;"/>
		</clipPath>
		<path style="clip-path:url(#SVGID_00000065065523157642944340000002819113194161904780_);fill:#946000;" d="M281.7,332
			c21.4,47,4.3,37,42.8,78.3s19.6,39.5,77.5,60.4s52.2,28.2,79.3,46.7c27.1,18.4,91.2,17.5,125.5,10.1c34.2-7.4,56.9-41.5,64.6-44.9
			s-37.5-94.9-37.5-94.9L304.3,244.5L281.7,332z"/>
	</g>
	<g>
		<defs>
			<path id="SVGID_00000049207831004519698580000016980764832184506254_" d="M-124.7,535.8c26.3-23.8-40.3-48.9,42.4-78.5
				s172.9-64.5,208.5-69.6s385.8-61.9,453.4,0s67,82.6,104.1,98.9s94.1-77.8,106.9-93.4c12.8-15.7,112.6-22.8,145.4-7.1
				c32.8,15.7,71.3,60.9,94.1,84.6c22.8,23.7,112.6,20.4,171.1,12.1s142.6-10.6,172.5,11.2c29.9,21.8,202.5-40.3,215.3-52.7
				s223.2-18.5,263.8-38.7c40.6-20.1,119.7,50.6,151.8,107.2c32.1,56.6-898.2,90.8-898.2,90.8L0,568.6L-124.7,535.8z"/>
		</defs>
		<clipPath id="SVGID_00000015329419664828409780000004807327971743409323_">
			<use xlink:href="#SVGID_00000049207831004519698580000016980764832184506254_"  style="overflow:visible;"/>
		</clipPath>
		<path style="clip-path:url(#SVGID_00000015329419664828409780000004807327971743409323_);fill:#946000;" d="M750.4,259.6
			c21.4,47,4.3,37,42.8,78.3s19.6,39.5,77.5,60.4s52.2,28.2,79.3,46.7c27.1,18.4,91.2,17.5,125.5,10.1c34.2-7.4,56.9-41.5,64.6-44.9
			c7.6-3.4-37.5-94.9-37.5-94.9L773,172.2L750.4,259.6z"/>
	</g>
	<g>
		<defs>
			<path id="SVGID_00000048488899157511976830000006378077075142734500_" d="M-124.7,535.8c26.3-23.8-40.3-48.9,42.4-78.5
				s172.9-64.5,208.5-69.6s385.8-61.9,453.4,0s67,82.6,104.1,98.9s94.1-77.8,106.9-93.4c12.8-15.7,112.6-22.8,145.4-7.1
				c32.8,15.7,71.3,60.9,94.1,84.6c22.8,23.7,112.6,20.4,171.1,12.1s142.6-10.6,172.5,11.2c29.9,21.8,202.5-40.3,215.3-52.7
				s223.2-18.5,263.8-38.7c40.6-20.1,119.7,50.6,151.8,107.2c32.1,56.6-898.2,90.8-898.2,90.8L0,568.6L-124.7,535.8z"/>
		</defs>
		<clipPath id="SVGID_00000173160668186822654590000009456055852766807174_">
			<use xlink:href="#SVGID_00000048488899157511976830000006378077075142734500_"  style="overflow:visible;"/>
		</clipPath>
		<path style="clip-path:url(#SVGID_00000173160668186822654590000009456055852766807174_);fill:#946000;" d="M1169.5,342.3
			c21.4,47,4.3,37,42.8,78.3s19.6,39.5,77.5,60.4s52.2,28.2,79.3,46.7c27.1,18.4,91.2,17.5,125.5,10.1c34.2-7.4,56.9-41.5,64.6-44.9
			c7.6-3.4-37.5-94.9-37.5-94.9l-329.6-143.2L1169.5,342.3z"/>
	</g>
</g>
<ellipse transform="matrix(0.9736 -0.2284 0.2284 0.9736 -101.0717 92.4324)" class="st9" cx="348.8" cy="482.9" rx="34.2" ry="18.6"/>
<ellipse transform="matrix(0.2156 -0.9765 0.9765 0.2156 -114.0066 811.3449)" class="st9" cx="448" cy="476.6" rx="18.6" ry="34.2"/>
<g>
	<g>
		<polygon id="XMLID_00000161624209840765887400000016240937727154374330_" class="st10" points="338.7,476.6 382,476.6 
			415.2,292.4 413.7,469.9 454.4,473.4 448.7,268.7 377.9,262.1 		"/>
	</g>
	<g>
		<g>
			<g>
				<g>
					<g>
						<defs>
							<polygon id="SVGID_00000030470265273360467310000010926383841656318364_" points="338.7,476.6 382,476.6 415.2,292.4 
								413.7,469.9 454.4,473.4 448.7,268.7 377.9,262.1 							"/>
						</defs>
						<clipPath id="SVGID_00000036966722933961574120000006522508517003740042_">
							<use xlink:href="#SVGID_00000030470265273360467310000010926383841656318364_"  style="overflow:visible;"/>
						</clipPath>
						<polygon style="clip-path:url(#SVGID_00000036966722933961574120000006522508517003740042_);fill:#384078;" points="
							404.9,262.1 344,485.2 301.8,474.1 354.5,249.1 						"/>
					</g>
				</g>
			</g>
		</g>
	</g>
	<g>
		<g>
			<g>
				<g>
					<g>
						<defs>
							<polygon id="SVGID_00000060021427050099955560000009735562395422506902_" points="338.7,476.6 362.6,476.6 382,476.6 
								415.2,292.4 413.7,469.9 433.5,471.6 454.4,473.4 448.7,268.7 377.9,262.1 							"/>
						</defs>
						<clipPath id="SVGID_00000027589185057899978930000012055534658572099981_">
							<use xlink:href="#SVGID_00000060021427050099955560000009735562395422506902_"  style="overflow:visible;"/>
						</clipPath>
						<polygon style="clip-path:url(#SVGID_00000027589185057899978930000012055534658572099981_);fill:#384078;" points="
							414.2,286.2 439.6,516.1 396.3,521.3 407.6,375 						"/>
					</g>
				</g>
			</g>
		</g>
	</g>
</g>
<g>
	<g>
		<path id="XMLID_00000003065350105111695220000000344922764282713481_" class="st13" d="M372.6,153.5c-9.1,11.6-5.2,24.2-1.7,60
			c4.6,33.3,5,66.9,5,66.9l72.7-11.8c0,0-6.5-30.6-4.8-59.2c0.5-7.9,2.5-16.3,3.8-23.4c2.6-14.7,6.5-24.4,4.1-29.1
			c-7.5-15.1-24.3-12.7-42.2-14.7C392.7,140.2,375.1,146.9,372.6,153.5z"/>
	</g>
	<g>
		<g>
			<g>
				<g>
					<g>
						<defs>
							<path id="SVGID_00000183930800610955461300000012186872429541718681_" d="M372.6,153.5c-9.1,11.6-5.2,24.2-1.7,60
								c4.6,33.3,5,66.9,5,66.9l72.7-11.8c0,0-6.5-30.6-4.8-59.2c0.5-7.9,2.5-16.3,3.8-23.4c2.6-14.7,6.5-24.4,4.1-29.1
								c-7.5-15.1-24.3-12.7-42.2-14.7C392.7,140.2,375.1,146.9,372.6,153.5z"/>
						</defs>
						<clipPath id="SVGID_00000171717646972976141580000001587712085151327394_">
							<use xlink:href="#SVGID_00000183930800610955461300000012186872429541718681_"  style="overflow:visible;"/>
						</clipPath>
						<polygon style="clip-path:url(#SVGID_00000171717646972976141580000001587712085151327394_);fill:#7D350E;" points="
							376,184.8 399,240 398,293 367.2,290.4 365.3,190.6 370.8,174.9 						"/>
					</g>
				</g>
			</g>
		</g>
	</g>
</g>
<g>
	<g>
		<path id="XMLID_00000158735839473163135540000003718315981233473723_" class="st15" d="M435.4,99.8c-3,19.5-7.3,40.4-26.2,40.4
			c-18.1,0-22.5-18.1-27.2-37.5c-4.4-18.8,9.1-32.5,27.2-32.5C427.3,70.2,437.9,83.9,435.4,99.8z"/>
	</g>
	<g>
		<g>
			<g>
				<g>
					<g>
						<defs>
							<path id="SVGID_00000091699570210976120010000004253056949821213113_" d="M435.4,99.8c-3,19.5-7.3,40.4-26.2,40.4
								c-18.1,0-22.5-18.1-27.2-37.5c-4.4-18.8,9.1-32.5,27.2-32.5C427.3,70.2,437.9,83.9,435.4,99.8z"/>
						</defs>
						<clipPath id="SVGID_00000005987706829427597070000001834458940881074328_">
							<use xlink:href="#SVGID_00000091699570210976120010000004253056949821213113_"  style="overflow:visible;"/>
						</clipPath>
						<path style="clip-path:url(#SVGID_00000005987706829427597070000001834458940881074328_);fill:#FFD38C;" d="M376.1,84.2
							l19.9,3.4c0,0-7,15.1-6.4,21.8c0.6,6.8,3.7,15.7,9.1,21.7c5.4,5.9,22.3,6.5,22.3,6.5l-26.7,23l-33.1-46.9L376.1,84.2z"/>
					</g>
				</g>
			</g>
			<g>
				<g>
					<g>
						<defs>
							<path id="SVGID_00000032625196720064383250000014147721878749783455_" d="M435.4,99.8c-3,19.5-7.3,40.4-26.2,40.4
								c-18.1,0-22.5-18.1-27.2-37.5c-4.4-18.8,9.1-32.5,27.2-32.5C427.3,70.2,437.9,83.9,435.4,99.8z"/>
						</defs>
						<clipPath id="SVGID_00000003821159199265582730000004927919145926298245_">
							<use xlink:href="#SVGID_00000032625196720064383250000014147721878749783455_"  style="overflow:visible;"/>
						</clipPath>
						<path style="clip-path:url(#SVGID_00000003821159199265582730000004927919145926298245_);fill:#FFD38C;" d="M407.8,121.3
							l-2.9-1.5l4.7-18.1L407.8,121.3z"/>
					</g>
				</g>
			</g>
		</g>
	</g>
</g>
<polygon class="st13" points="370.7,156.3 324.8,196.9 356.3,201 368.6,192.2 "/>
<polygon class="st13" points="448.5,151 474.6,211.1 450.4,211.1 443.6,192.3 "/>
<g>
	<g>
		<path id="XMLID_00000065752983870368876250000008635360987876549559_" class="st18" d="M382.9,106.3c0,0,5.9-16.2,10-15.7
			c4.1,0.4,4.8,0,11.8-1.1s12.3-5.2,15.9-0.8c3.6,4.5,4.9,1.9,9.8,2c4.9,0.2,3.8,15.6,3.8,15.6s11.2-31.5-5.7-36
			c-4.4-1.3-11.1-5.4-20.1-5.4c-9.1,0-18.4,0-19.9,5.4s-9.6,7.5-10,12.8C378.3,88.2,382.9,106.3,382.9,106.3z"/>
	</g>
	<g>
		<g>
			<g>
				<defs>
					<path id="SVGID_00000071541624016458342950000013647035971216907667_" d="M382.9,106.3c0,0,5.9-16.2,10-15.7
						c4.1,0.4,4.8,0,11.8-1.1s12.3-5.2,15.9-0.8c3.6,4.5,4.9,1.9,9.8,2c4.9,0.2,3.8,15.6,3.8,15.6s11.2-31.5-5.7-36
						c-4.4-1.3-11.1-5.4-20.1-5.4c-9.1,0-18.4,0-19.9,5.4s-9.6,7.5-10,12.8C378.3,88.2,382.9,106.3,382.9,106.3z"/>
				</defs>
				<clipPath id="SVGID_00000176026718948060478110000008407656755811149748_">
					<use xlink:href="#SVGID_00000071541624016458342950000013647035971216907667_"  style="overflow:visible;"/>
				</clipPath>
				<path style="clip-path:url(#SVGID_00000176026718948060478110000008407656755811149748_);fill:#372100;" d="M421.8,60.1
					c0,0-14,6-20.6,13.5c-6.7,7.4-6.8,5.5-3.7,7.6c3,2.1,4.3,7.4-2.7,10c-12.2,4.5-16.1,21.2-16.6,21.7c-0.5,0.4-13.4-21.2-13.1-25
					c0.3-3.9,16.2-32.2,16.2-32.2L421.8,60.1z"/>
			</g>
		</g>
	</g>
</g>
<path class="st20" d="M401.1,104.6c0,1.3-3,2.5-4.2,2.5s-2.3-1-2.3-2.3s1-2.3,2.3-2.3C398.2,102.6,401.1,103.3,401.1,104.6z"/>
<path class="st20" d="M424.1,104.8c0,1.3-1,2.3-2.3,2.3s-4-1.4-4-2.6s2.7-1.9,4-1.9S424.1,103.7,424.1,104.8z"/>
<path class="st21" d="M414.4,128.5c0,0.6-3.2,2.4-6.6,2.4c-3.5,0-7.2-2.5-7.2-3.1s3.7,0.8,7.2,0.8
	C411.3,128.6,414.4,127.9,414.4,128.5z"/>
<rect x="380.1" y="113.7" transform="matrix(9.290091e-02 -0.9957 0.9957 9.290091e-02 136.2835 639.2104)" class="st22" width="77.8" height="262.3"/>
<rect x="383" y="129.6" transform="matrix(9.290091e-02 -0.9957 0.9957 9.290091e-02 131.8987 633.2834)" class="st23" width="61.1" height="229.2"/>
<g>
	<g>
		<g>
			<path id="XMLID_00000091017690886273474730000004683794767781391537_" class="st24" d="M325.4,240.3c0,0-2.7-2-5-1.9
				s-8.9-0.1-9.8,10.2c-0.9,10.3,6.5,12,7.4,12c0.7,0,2,0,2.7,0.1c0.9,0.1,2.1,0.8,2.9,1c3.3,0.8,10.3-0.2,12.7-10.4s-6.4-11-6.4-11
				L325.4,240.3z"/>
		</g>
		<g>
			<g>
				<g>
					<g>
						<g>
							<g>
								<defs>
									<path id="SVGID_00000029758603232226865900000015067879627066093227_" d="M325.4,240.3c0,0-2.7-2-5-1.9s-8.9-0.1-9.8,10.2
										c-0.9,10.3,6.5,12,7.4,12c0.7,0,2,0,2.7,0.1c0.9,0.1,2.1,0.8,2.9,1c3.3,0.8,10.3-0.2,12.7-10.4s-6.4-11-6.4-11L325.4,240.3
										z"/>
								</defs>
								<clipPath id="SVGID_00000077284003178311255360000003955304836404948380_">
									<use xlink:href="#SVGID_00000029758603232226865900000015067879627066093227_"  style="overflow:visible;"/>
								</clipPath>
								<path style="clip-path:url(#SVGID_00000077284003178311255360000003955304836404948380_);fill:#B60000;" d="M322.8,238.4
									c0,0,0.5,2.4,1.3,2.9s2-0.2,2.6-0.3s1.5-0.4,3,0s5.2,2.2,5.4,4.7c0.2,2.5-2,9.2-3.6,10.9c-1.7,1.6-8.3,2.7-10.1,2.7
									s-8.5-1.3-8.5-1.3l-3.4,6.2l31.8,1.2l4.2-25.7L322.8,238.4z"/>
							</g>
						</g>
					</g>
				</g>
			</g>
		</g>
		<g>
			<g>
				<g>
					<g>
						<g>
							<g>
								<defs>
									<path id="SVGID_00000160148867599172422150000009079971053815187592_" d="M325.4,240.3c0,0-2.7-2-5-1.9s-8.9-0.1-9.8,10.2
										c-0.9,10.3,6.5,12,7.4,12c0.7,0,2,0,2.7,0.1c0.9,0.1,2.1,0.8,2.9,1c3.3,0.8,10.3-0.2,12.7-10.4s-6.4-11-6.4-11L325.4,240.3
										z"/>
								</defs>
								<clipPath id="SVGID_00000013186072410674325400000007659494031828048778_">
									<use xlink:href="#SVGID_00000160148867599172422150000009079971053815187592_"  style="overflow:visible;"/>
								</clipPath>
								
									<path style="opacity:0.36;clip-path:url(#SVGID_00000013186072410674325400000007659494031828048778_);fill:#FFFFFF;enable-background:new    ;" d="
									M317.4,245c-0.9,0.9-2.1,2.5-2.6,2s-0.3-2.8,0.7-3.7c0.9-0.9,2.1-1.3,2.7-0.8C318.6,243,318.3,244.1,317.4,245z"/>
							</g>
						</g>
					</g>
				</g>
			</g>
		</g>
		<g>
			<g>
				<g>
					<g>
						<g>
							<g>
								<defs>
									<path id="SVGID_00000004528888668434722560000017523312066413059515_" d="M325.4,240.3c0,0-2.7-2-5-1.9s-8.9-0.1-9.8,10.2
										c-0.9,10.3,6.5,12,7.4,12c0.7,0,2,0,2.7,0.1c0.9,0.1,2.1,0.8,2.9,1c3.3,0.8,10.3-0.2,12.7-10.4s-6.4-11-6.4-11L325.4,240.3
										z"/>
								</defs>
								<clipPath id="SVGID_00000100357290591589783750000010520025095638522001_">
									<use xlink:href="#SVGID_00000004528888668434722560000017523312066413059515_"  style="overflow:visible;"/>
								</clipPath>
								
									<path style="opacity:0.36;clip-path:url(#SVGID_00000100357290591589783750000010520025095638522001_);fill:#FFFFFF;enable-background:new    ;" d="
									M315.4,249.5c-0.2,0-0.6,0.1-0.5-0.4s0.6-1.3,0.8-1.3c0.2,0,0.3,0.4,0.2,0.9C315.8,249.2,315.6,249.6,315.4,249.5z"/>
							</g>
						</g>
					</g>
				</g>
			</g>
		</g>
	</g>
	<path class="st28" d="M331.4,235.4c-0.1,0.1-0.9,0.3-1.8,0.8c-0.8,0.5-4.3,4.4-4.3,4.4l-0.7-0.1c0,0,3.1-3,4.4-4.6
		C330.4,234.4,331.9,235.1,331.4,235.4z"/>
	<g>
		<g>
			<path id="XMLID_00000132782349993058868520000005032296531255508625_" class="st29" d="M321.3,231.7c0,0,0.8,2.7,1.9,3.4
				s4.2,2.9,4.2,2.9s0.1-3.5-0.9-4.6C325.6,232.3,321.3,231.7,321.3,231.7z"/>
		</g>
		<g>
			<g>
				<g>
					<defs>
						<path id="SVGID_00000140714052878752374910000011963082827857491385_" d="M321.3,231.7c0,0,0.8,2.7,1.9,3.4s4.2,2.9,4.2,2.9
							s0.1-3.5-0.9-4.6C325.6,232.3,321.3,231.7,321.3,231.7z"/>
					</defs>
					<clipPath id="SVGID_00000005262889231107510460000008844714351332575392_">
						<use xlink:href="#SVGID_00000140714052878752374910000011963082827857491385_"  style="overflow:visible;"/>
					</clipPath>
					<path style="clip-path:url(#SVGID_00000005262889231107510460000008844714351332575392_);fill:#465F00;" d="M321,231.1
						c0,0,1.7,2.6,2.5,3.2c0.8,0.7,3.2,2.1,3.6,2.9c0.4,0.8,0.4,1.5,0.4,1.5s-4.5-1.8-4.7-2s-3.1-5.1-3.1-5.1L321,231.1z"/>
				</g>
			</g>
		</g>
	</g>
</g>
<g>
	<g>
		<g>
			<path id="XMLID_00000044171999113232811000000009634198173952642200_" class="st24" d="M353.6,228.4c0,0-2.7-2-5-1.9
				s-8.9-0.1-9.8,10.2s6.5,12,7.4,12c0.7,0,2,0,2.7,0.1c0.9,0.1,2.1,0.8,2.9,1c3.3,0.8,10.3-0.2,12.7-10.4s-6.4-11-6.4-11
				L353.6,228.4z"/>
		</g>
		<g>
			<g>
				<g>
					<g>
						<g>
							<g>
								<defs>
									<path id="SVGID_00000105386283505369310510000017732017550880090757_" d="M353.6,228.4c0,0-2.7-2-5-1.9s-8.9-0.1-9.8,10.2
										s6.5,12,7.4,12c0.7,0,2,0,2.7,0.1c0.9,0.1,2.1,0.8,2.9,1c3.3,0.8,10.3-0.2,12.7-10.4s-6.4-11-6.4-11L353.6,228.4z"/>
								</defs>
								<clipPath id="SVGID_00000043439006502791889350000014520797692738589861_">
									<use xlink:href="#SVGID_00000105386283505369310510000017732017550880090757_"  style="overflow:visible;"/>
								</clipPath>
								<path style="clip-path:url(#SVGID_00000043439006502791889350000014520797692738589861_);fill:#B60000;" d="M351,226.5
									c0,0,0.5,2.4,1.3,2.9s2-0.2,2.6-0.3s1.5-0.4,3,0s5.2,2.2,5.4,4.7c0.2,2.5-2,9.2-3.6,10.9c-1.7,1.6-8.3,2.7-10.1,2.7
									c-1.8,0-8.5-1.3-8.5-1.3l-3.4,6.2l31.8,1.2l4.2-25.7L351,226.5z"/>
							</g>
						</g>
					</g>
				</g>
			</g>
		</g>
		<g>
			<g>
				<g>
					<g>
						<g>
							<g>
								<defs>
									<path id="SVGID_00000104671912996683099470000011331300297519199888_" d="M353.6,228.4c0,0-2.7-2-5-1.9s-8.9-0.1-9.8,10.2
										s6.5,12,7.4,12c0.7,0,2,0,2.7,0.1c0.9,0.1,2.1,0.8,2.9,1c3.3,0.8,10.3-0.2,12.7-10.4s-6.4-11-6.4-11L353.6,228.4z"/>
								</defs>
								<clipPath id="SVGID_00000084507898448049553870000006180179158862592675_">
									<use xlink:href="#SVGID_00000104671912996683099470000011331300297519199888_"  style="overflow:visible;"/>
								</clipPath>
								
									<path style="opacity:0.36;clip-path:url(#SVGID_00000084507898448049553870000006180179158862592675_);fill:#FFFFFF;enable-background:new    ;" d="
									M345.6,233.2c-0.9,0.9-2.1,2.5-2.6,2s-0.3-2.8,0.7-3.7c0.9-0.9,2.1-1.3,2.7-0.8C346.9,231.1,346.5,232.2,345.6,233.2z"/>
							</g>
						</g>
					</g>
				</g>
			</g>
		</g>
		<g>
			<g>
				<g>
					<g>
						<g>
							<g>
								<defs>
									<path id="SVGID_00000170981179725312144980000014255643650305624759_" d="M353.6,228.4c0,0-2.7-2-5-1.9s-8.9-0.1-9.8,10.2
										s6.5,12,7.4,12c0.7,0,2,0,2.7,0.1c0.9,0.1,2.1,0.8,2.9,1c3.3,0.8,10.3-0.2,12.7-10.4s-6.4-11-6.4-11L353.6,228.4z"/>
								</defs>
								<clipPath id="SVGID_00000072281131525441448650000018130516842279174289_">
									<use xlink:href="#SVGID_00000170981179725312144980000014255643650305624759_"  style="overflow:visible;"/>
								</clipPath>
								
									<path style="opacity:0.36;clip-path:url(#SVGID_00000072281131525441448650000018130516842279174289_);fill:#FFFFFF;enable-background:new    ;" d="
									M343.6,237.6c-0.2,0-0.6,0.1-0.5-0.4s0.6-1.3,0.8-1.3c0.2,0,0.3,0.4,0.2,0.9C344.1,237.4,343.8,237.7,343.6,237.6z"/>
							</g>
						</g>
					</g>
				</g>
			</g>
		</g>
	</g>
	<path class="st28" d="M359.6,223.5c-0.1,0.1-0.9,0.3-1.8,0.8c-0.8,0.5-4.3,4.4-4.3,4.4l-0.7-0.1c0,0,3.1-3,4.4-4.6
		C358.6,222.6,360.1,223.2,359.6,223.5z"/>
	<g>
		<g>
			<path id="XMLID_00000059280921844970752360000002216162801377801103_" class="st29" d="M349.5,219.8c0,0,0.8,2.7,1.9,3.4
				s4.2,2.9,4.2,2.9s0.1-3.5-0.9-4.6C353.8,220.4,349.5,219.8,349.5,219.8z"/>
		</g>
		<g>
			<g>
				<g>
					<defs>
						<path id="SVGID_00000063620346493864548220000002963837275606840720_" d="M349.5,219.8c0,0,0.8,2.7,1.9,3.4s4.2,2.9,4.2,2.9
							s0.1-3.5-0.9-4.6C353.8,220.4,349.5,219.8,349.5,219.8z"/>
					</defs>
					<clipPath id="SVGID_00000127742043903116380410000018343681485841894309_">
						<use xlink:href="#SVGID_00000063620346493864548220000002963837275606840720_"  style="overflow:visible;"/>
					</clipPath>
					<path style="clip-path:url(#SVGID_00000127742043903116380410000018343681485841894309_);fill:#465F00;" d="M349.3,219.2
						c0,0,1.7,2.6,2.5,3.2c0.8,0.7,3.2,2.1,3.6,2.9c0.4,0.8,0.4,1.5,0.4,1.5s-4.5-1.8-4.7-2s-3.1-5.1-3.1-5.1L349.3,219.2z"/>
				</g>
			</g>
		</g>
	</g>
</g>
<g>
	<g>
		<g>
			<path id="XMLID_00000029763625262453597620000011736129165779838363_" class="st24" d="M426.3,224.6c0,0-2.7-2-5-1.9
				s-8.9-0.1-9.8,10.2s6.5,12,7.4,12c0.7,0,2,0,2.7,0.1c0.9,0.1,2.1,0.8,2.9,1c3.3,0.8,10.3-0.2,12.7-10.4s-6.4-11-6.4-11
				L426.3,224.6z"/>
		</g>
		<g>
			<g>
				<g>
					<g>
						<g>
							<g>
								<defs>
									<path id="SVGID_00000059297144875291704810000013558582257576116916_" d="M426.3,224.6c0,0-2.7-2-5-1.9s-8.9-0.1-9.8,10.2
										s6.5,12,7.4,12c0.7,0,2,0,2.7,0.1c0.9,0.1,2.1,0.8,2.9,1c3.3,0.8,10.3-0.2,12.7-10.4s-6.4-11-6.4-11L426.3,224.6z"/>
								</defs>
								<clipPath id="SVGID_00000119090460539620206220000014950941972534107317_">
									<use xlink:href="#SVGID_00000059297144875291704810000013558582257576116916_"  style="overflow:visible;"/>
								</clipPath>
								<path style="clip-path:url(#SVGID_00000119090460539620206220000014950941972534107317_);fill:#B60000;" d="M423.7,222.7
									c0,0,0.5,2.4,1.3,2.9s2-0.2,2.6-0.3s1.5-0.4,3,0s5.2,2.2,5.4,4.7c0.2,2.5-2,9.2-3.6,10.9c-1.7,1.6-8.3,2.7-10.1,2.7
									s-8.5-1.3-8.5-1.3l-3.4,6.2l31.8,1.2l4.2-25.7L423.7,222.7z"/>
							</g>
						</g>
					</g>
				</g>
			</g>
		</g>
		<g>
			<g>
				<g>
					<g>
						<g>
							<g>
								<defs>
									<path id="SVGID_00000155834116488980675330000015315455134544903821_" d="M426.3,224.6c0,0-2.7-2-5-1.9s-8.9-0.1-9.8,10.2
										s6.5,12,7.4,12c0.7,0,2,0,2.7,0.1c0.9,0.1,2.1,0.8,2.9,1c3.3,0.8,10.3-0.2,12.7-10.4s-6.4-11-6.4-11L426.3,224.6z"/>
								</defs>
								<clipPath id="SVGID_00000044179611603919349990000001465278892285505707_">
									<use xlink:href="#SVGID_00000155834116488980675330000015315455134544903821_"  style="overflow:visible;"/>
								</clipPath>
								
									<path style="opacity:0.36;clip-path:url(#SVGID_00000044179611603919349990000001465278892285505707_);fill:#FFFFFF;enable-background:new    ;" d="
									M418.3,229.3c-0.9,0.9-2.1,2.5-2.6,2s-0.3-2.8,0.7-3.7c0.9-0.9,2.1-1.3,2.7-0.8C419.5,227.3,419.2,228.4,418.3,229.3z"/>
							</g>
						</g>
					</g>
				</g>
			</g>
		</g>
		<g>
			<g>
				<g>
					<g>
						<g>
							<g>
								<defs>
									<path id="SVGID_00000013155034665880517500000007000559149998214320_" d="M426.3,224.6c0,0-2.7-2-5-1.9s-8.9-0.1-9.8,10.2
										s6.5,12,7.4,12c0.7,0,2,0,2.7,0.1c0.9,0.1,2.1,0.8,2.9,1c3.3,0.8,10.3-0.2,12.7-10.4s-6.4-11-6.4-11L426.3,224.6z"/>
								</defs>
								<clipPath id="SVGID_00000011012041765425157660000014913058520938702769_">
									<use xlink:href="#SVGID_00000013155034665880517500000007000559149998214320_"  style="overflow:visible;"/>
								</clipPath>
								
									<path style="opacity:0.36;clip-path:url(#SVGID_00000011012041765425157660000014913058520938702769_);fill:#FFFFFF;enable-background:new    ;" d="
									M416.3,233.8c-0.2,0-0.6,0.1-0.5-0.4s0.6-1.3,0.8-1.3c0.2,0,0.3,0.4,0.2,0.9S416.5,233.9,416.3,233.8z"/>
							</g>
						</g>
					</g>
				</g>
			</g>
		</g>
	</g>
	<path class="st28" d="M432.3,219.7c-0.1,0.1-0.9,0.3-1.8,0.8c-0.8,0.5-4.3,4.4-4.3,4.4l-0.7-0.1c0,0,3.1-3,4.4-4.6
		C431.3,218.7,432.8,219.4,432.3,219.7z"/>
	<g>
		<g>
			<path id="XMLID_00000067221958783681751520000014810413780541500849_" class="st29" d="M422.2,216c0,0,0.8,2.7,1.9,3.4
				s4.2,2.9,4.2,2.9s0.1-3.5-0.9-4.6C426.5,216.6,422.2,216,422.2,216z"/>
		</g>
		<g>
			<g>
				<g>
					<defs>
						<path id="SVGID_00000006706207102131728720000015012448356977234848_" d="M422.2,216c0,0,0.8,2.7,1.9,3.4s4.2,2.9,4.2,2.9
							s0.1-3.5-0.9-4.6C426.5,216.6,422.2,216,422.2,216z"/>
					</defs>
					<clipPath id="SVGID_00000159448066990249754900000011787532929843760033_">
						<use xlink:href="#SVGID_00000006706207102131728720000015012448356977234848_"  style="overflow:visible;"/>
					</clipPath>
					<path style="clip-path:url(#SVGID_00000159448066990249754900000011787532929843760033_);fill:#465F00;" d="M421.9,215.4
						c0,0,1.7,2.6,2.5,3.2c0.8,0.7,3.2,2.1,3.6,2.9c0.4,0.8,0.4,1.5,0.4,1.5s-4.5-1.8-4.7-2c-0.1-0.2-3.1-5.1-3.1-5.1L421.9,215.4z"
						/>
				</g>
			</g>
		</g>
	</g>
</g>
<g>
	<g>
		<g>
			<path id="XMLID_00000121249838269895991990000013865551664781133965_" class="st24" d="M330.9,216.3c0,0-1.7-1.3-3.2-1.2
				s-5.7-0.1-6.3,6.5c-0.6,6.6,4.1,7.7,4.7,7.7c0.4,0,1.3,0,1.7,0.1c0.5,0.1,1.3,0.5,1.9,0.7c2.1,0.5,6.5-0.1,8.1-6.7
				c1.5-6.5-4.1-7-4.1-7L330.9,216.3z"/>
		</g>
		<g>
			<g>
				<g>
					<g>
						<g>
							<g>
								<defs>
									<path id="SVGID_00000098192018726075721480000001132826214199328427_" d="M330.9,216.3c0,0-1.7-1.3-3.2-1.2
										s-5.7-0.1-6.3,6.5c-0.6,6.6,4.1,7.7,4.7,7.7c0.4,0,1.3,0,1.7,0.1c0.5,0.1,1.3,0.5,1.9,0.7c2.1,0.5,6.5-0.1,8.1-6.7
										c1.5-6.5-4.1-7-4.1-7L330.9,216.3z"/>
								</defs>
								<clipPath id="SVGID_00000096756415934788270240000011368152098482298769_">
									<use xlink:href="#SVGID_00000098192018726075721480000001132826214199328427_"  style="overflow:visible;"/>
								</clipPath>
								<path style="clip-path:url(#SVGID_00000096756415934788270240000011368152098482298769_);fill:#B60000;" d="M329.2,215.1
									c0,0,0.3,1.5,0.8,1.8s1.3-0.1,1.7-0.2c0.4-0.1,1-0.2,1.9,0c1,0.2,3.3,1.4,3.5,3c0.1,1.6-1.2,5.9-2.3,6.9s-5.3,1.7-6.4,1.7
									s-5.4-0.9-5.4-0.9l-2.2,3.9l20.3,0.8l2.7-16.4L329.2,215.1z"/>
							</g>
						</g>
					</g>
				</g>
			</g>
		</g>
		<g>
			<g>
				<g>
					<g>
						<g>
							<g>
								<defs>
									<path id="SVGID_00000035501674487594247930000010748362454177280955_" d="M330.9,216.3c0,0-1.7-1.3-3.2-1.2
										s-5.7-0.1-6.3,6.5c-0.6,6.6,4.1,7.7,4.7,7.7c0.4,0,1.3,0,1.7,0.1c0.5,0.1,1.3,0.5,1.9,0.7c2.1,0.5,6.5-0.1,8.1-6.7
										c1.5-6.5-4.1-7-4.1-7L330.9,216.3z"/>
								</defs>
								<clipPath id="SVGID_00000054963280272488500130000017368156510973593780_">
									<use xlink:href="#SVGID_00000035501674487594247930000010748362454177280955_"  style="overflow:visible;"/>
								</clipPath>
								
									<path style="opacity:0.36;clip-path:url(#SVGID_00000054963280272488500130000017368156510973593780_);fill:#FFFFFF;enable-background:new    ;" d="
									M325.7,219.3c-0.6,0.6-1.3,1.6-1.7,1.3c-0.3-0.3-0.2-1.8,0.4-2.3c0.6-0.6,1.4-0.8,1.7-0.5
									C326.5,218,326.3,218.7,325.7,219.3z"/>
							</g>
						</g>
					</g>
				</g>
			</g>
		</g>
		<g>
			<g>
				<g>
					<g>
						<g>
							<g>
								<defs>
									<path id="SVGID_00000031189847461143887110000014151069004151541641_" d="M330.9,216.3c0,0-1.7-1.3-3.2-1.2
										s-5.7-0.1-6.3,6.5c-0.6,6.6,4.1,7.7,4.7,7.7c0.4,0,1.3,0,1.7,0.1c0.5,0.1,1.3,0.5,1.9,0.7c2.1,0.5,6.5-0.1,8.1-6.7
										c1.5-6.5-4.1-7-4.1-7L330.9,216.3z"/>
								</defs>
								<clipPath id="SVGID_00000040551384110257256760000008594936884679894150_">
									<use xlink:href="#SVGID_00000031189847461143887110000014151069004151541641_"  style="overflow:visible;"/>
								</clipPath>
								
									<path style="opacity:0.36;clip-path:url(#SVGID_00000040551384110257256760000008594936884679894150_);fill:#FFFFFF;enable-background:new    ;" d="
									M324.5,222.1c-0.1,0-0.4,0.1-0.3-0.2s0.4-0.8,0.5-0.8s0.2,0.3,0.1,0.6C324.8,222,324.6,222.2,324.5,222.1z"/>
							</g>
						</g>
					</g>
				</g>
			</g>
		</g>
	</g>
	<path class="st28" d="M334.7,213.2c-0.1,0.1-0.5,0.2-1.1,0.5c-0.5,0.3-2.7,2.8-2.7,2.8l-0.4-0.1c0,0,2-1.9,2.8-2.9
		C334.1,212.5,335,212.9,334.7,213.2z"/>
	<g>
		<g>
			<path id="XMLID_00000054957768008194894330000003550310060313327799_" class="st29" d="M328.3,210.8c0,0,0.5,1.7,1.2,2.1
				c0.7,0.4,2.7,1.9,2.7,1.9s0.1-2.3-0.6-2.9C331,211.2,328.3,210.8,328.3,210.8z"/>
		</g>
		<g>
			<g>
				<g>
					<defs>
						<path id="SVGID_00000167365651208011934250000005910807877587776437_" d="M328.3,210.8c0,0,0.5,1.7,1.2,2.1
							c0.7,0.4,2.7,1.9,2.7,1.9s0.1-2.3-0.6-2.9C331,211.2,328.3,210.8,328.3,210.8z"/>
					</defs>
					<clipPath id="SVGID_00000125585982274479800700000003826086418586538428_">
						<use xlink:href="#SVGID_00000167365651208011934250000005910807877587776437_"  style="overflow:visible;"/>
					</clipPath>
					<path style="clip-path:url(#SVGID_00000125585982274479800700000003826086418586538428_);fill:#465F00;" d="M328.1,210.4
						c0,0,1.1,1.6,1.6,2s2,1.3,2.3,1.9s0.2,0.9,0.2,0.9s-2.9-1.2-3-1.3s-2-3.2-2-3.2L328.1,210.4z"/>
				</g>
			</g>
		</g>
	</g>
</g>
<g>
	<g>
		<g>
			<path id="XMLID_00000005240897946534824460000002014230068796479161_" class="st24" d="M422.7,254.2c0,0-1.7-1.3-3.2-1.2
				s-5.7-0.1-6.3,6.5c-0.6,6.6,4.1,7.7,4.7,7.7c0.4,0,1.3,0,1.7,0.1c0.5,0.1,1.3,0.5,1.9,0.7c2.1,0.5,6.5-0.1,8.1-6.7
				c1.5-6.5-4.1-7-4.1-7L422.7,254.2z"/>
		</g>
		<g>
			<g>
				<g>
					<g>
						<g>
							<g>
								<defs>
									<path id="SVGID_00000121997762775607543510000004015435117421577875_" d="M422.7,254.2c0,0-1.7-1.3-3.2-1.2
										s-5.7-0.1-6.3,6.5c-0.6,6.6,4.1,7.7,4.7,7.7c0.4,0,1.3,0,1.7,0.1c0.5,0.1,1.3,0.5,1.9,0.7c2.1,0.5,6.5-0.1,8.1-6.7
										c1.5-6.5-4.1-7-4.1-7L422.7,254.2z"/>
								</defs>
								<clipPath id="SVGID_00000064316188911401087020000005677574707225795980_">
									<use xlink:href="#SVGID_00000121997762775607543510000004015435117421577875_"  style="overflow:visible;"/>
								</clipPath>
								<path style="clip-path:url(#SVGID_00000064316188911401087020000005677574707225795980_);fill:#B60000;" d="M421,253
									c0,0,0.3,1.5,0.8,1.8s1.3-0.1,1.7-0.2s1-0.2,1.9,0c1,0.2,3.3,1.4,3.5,3c0.1,1.6-1.2,5.9-2.3,6.9c-1.1,1-5.3,1.7-6.4,1.7
									s-5.4-0.9-5.4-0.9l-2.2,3.9l20.3,0.8l2.7-16.4L421,253z"/>
							</g>
						</g>
					</g>
				</g>
			</g>
		</g>
		<g>
			<g>
				<g>
					<g>
						<g>
							<g>
								<defs>
									<path id="SVGID_00000109005663668336754980000007627495094158315664_" d="M422.7,254.2c0,0-1.7-1.3-3.2-1.2
										s-5.7-0.1-6.3,6.5c-0.6,6.6,4.1,7.7,4.7,7.7c0.4,0,1.3,0,1.7,0.1c0.5,0.1,1.3,0.5,1.9,0.7c2.1,0.5,6.5-0.1,8.1-6.7
										c1.5-6.5-4.1-7-4.1-7L422.7,254.2z"/>
								</defs>
								<clipPath id="SVGID_00000107551727637848000830000014610957291014934164_">
									<use xlink:href="#SVGID_00000109005663668336754980000007627495094158315664_"  style="overflow:visible;"/>
								</clipPath>
								
									<path style="opacity:0.36;clip-path:url(#SVGID_00000107551727637848000830000014610957291014934164_);fill:#FFFFFF;enable-background:new    ;" d="
									M417.6,257.2c-0.6,0.6-1.3,1.6-1.7,1.3c-0.3-0.3-0.2-1.8,0.4-2.3c0.6-0.6,1.4-0.8,1.7-0.5
									C418.4,255.9,418.2,256.6,417.6,257.2z"/>
							</g>
						</g>
					</g>
				</g>
			</g>
		</g>
		<g>
			<g>
				<g>
					<g>
						<g>
							<g>
								<defs>
									<path id="SVGID_00000010999604518994502060000010057094093369264051_" d="M422.7,254.2c0,0-1.7-1.3-3.2-1.2
										s-5.7-0.1-6.3,6.5c-0.6,6.6,4.1,7.7,4.7,7.7c0.4,0,1.3,0,1.7,0.1c0.5,0.1,1.3,0.5,1.9,0.7c2.1,0.5,6.5-0.1,8.1-6.7
										c1.5-6.5-4.1-7-4.1-7L422.7,254.2z"/>
								</defs>
								<clipPath id="SVGID_00000032634619780861917890000007244764738366605451_">
									<use xlink:href="#SVGID_00000010999604518994502060000010057094093369264051_"  style="overflow:visible;"/>
								</clipPath>
								
									<path style="opacity:0.36;clip-path:url(#SVGID_00000032634619780861917890000007244764738366605451_);fill:#FFFFFF;enable-background:new    ;" d="
									M416.3,260.1c-0.1,0-0.4,0.1-0.3-0.2c0.1-0.3,0.4-0.8,0.5-0.8s0.2,0.3,0.1,0.6C416.6,259.9,416.4,260.1,416.3,260.1z"/>
							</g>
						</g>
					</g>
				</g>
			</g>
		</g>
	</g>
	<path class="st28" d="M426.5,251.1c-0.1,0.1-0.5,0.2-1.1,0.5c-0.5,0.3-2.7,2.8-2.7,2.8l-0.4-0.1c0,0,2-1.9,2.8-2.9
		C425.9,250.5,426.8,250.9,426.5,251.1z"/>
	<g>
		<g>
			<path id="XMLID_00000076570045198771061340000018428081976553330110_" class="st29" d="M420.1,248.7c0,0,0.5,1.7,1.2,2.1
				c0.7,0.4,2.7,1.9,2.7,1.9s0.1-2.3-0.6-2.9C422.8,249.1,420.1,248.7,420.1,248.7z"/>
		</g>
		<g>
			<g>
				<g>
					<defs>
						<path id="SVGID_00000085239529262458871240000006509711771288437428_" d="M420.1,248.7c0,0,0.5,1.7,1.2,2.1
							c0.7,0.4,2.7,1.9,2.7,1.9s0.1-2.3-0.6-2.9C422.8,249.1,420.1,248.7,420.1,248.7z"/>
					</defs>
					<clipPath id="SVGID_00000031209062036370009210000013437845181561146017_">
						<use xlink:href="#SVGID_00000085239529262458871240000006509711771288437428_"  style="overflow:visible;"/>
					</clipPath>
					<path style="clip-path:url(#SVGID_00000031209062036370009210000013437845181561146017_);fill:#465F00;" d="M419.9,248.3
						c0,0,1.1,1.6,1.6,2s2,1.3,2.3,1.9c0.2,0.5,0.2,0.9,0.2,0.9s-2.9-1.2-3-1.3s-2-3.2-2-3.2L419.9,248.3z"/>
				</g>
			</g>
		</g>
	</g>
</g>
<rect x="386" y="230.2" transform="matrix(9.290091e-02 -0.9957 0.9957 9.290091e-02 109.6385 608.656)" class="st47" width="5.7" height="27.9"/>
<g>
	
		<rect x="455.9" y="239.5" transform="matrix(9.290091e-02 -0.9957 0.9957 9.290091e-02 161.2455 688.9118)" class="st47" width="5.7" height="33"/>
	
		<rect x="457" y="227.5" transform="matrix(9.290091e-02 -0.9957 0.9957 9.290091e-02 174.1924 679.1183)" class="st47" width="5.7" height="33"/>
</g>
<g>
	<path class="st47" d="M494.1,261v-1.6c-0.1-3.3,1.4-6.8,4.8-10.2c3-3,4.8-5.2,5-7.9c0.3-3.1-1.5-5.4-5.3-5.8
		c-2.2-0.2-4.7,0.3-6.3,1.3l-1.1-4c2.1-1.3,5.7-1.9,8.9-1.6c7,0.7,9.8,5.3,9.3,9.9c-0.4,4.1-3,6.9-6.2,10.1c-3,2.9-4.2,5.5-4.3,8.6
		l-0.1,1.6L494.1,261z M491.9,269.4c0.2-2.3,1.9-3.7,4-3.5s3.4,1.9,3.2,4.2c-0.2,2.1-1.8,3.6-4,3.4
		C493,273.3,491.7,271.5,491.9,269.4z"/>
</g>
<circle class="st48" cx="538.8" cy="232.7" r="1.6"/>
<circle class="st48" cx="538.1" cy="238.9" r="1.6"/>
<circle class="st48" cx="537.4" cy="245.1" r="1.6"/>
<circle class="st48" cx="536.7" cy="251.3" r="1.6"/>
<circle class="st48" cx="535.9" cy="257.4" r="1.6"/>
<circle class="st48" cx="535.2" cy="263.6" r="1.6"/>
<ellipse class="st49" cx="287.9" cy="238.8" rx="11" ry="15.7"/>
<path class="st49" d="M488.5,280.9c7,0.7,15.4,3.8,14.9,8.4c-0.4,4.6-9.5,8.9-16.5,8.2c-7-0.7-14.9-6.4-14.5-10.9
	C472.9,281.9,481.5,280.2,488.5,280.9z"/>
<g>
	<defs>
		<path id="XMLID_00000062165301448942784280000012332559302885620128_" d="M960,348.4c0-86.9-40.1-157.3-89.6-157.3
			s-89.6,70.4-89.6,157.3H960z"/>
	</defs>
	<use xlink:href="#XMLID_00000062165301448942784280000012332559302885620128_"  style="overflow:visible;fill:#DE8800;"/>
	<clipPath id="XMLID_00000046334082417424356590000010948915531723545272_">
		<use xlink:href="#XMLID_00000062165301448942784280000012332559302885620128_"  style="overflow:visible;"/>
	</clipPath>
	<path style="clip-path:url(#XMLID_00000046334082417424356590000010948915531723545272_);fill:#C36800;" d="M860.5,179.7
		c14.7,18.9,28.5,30.9,26.1,43.1c-2.4,12.2-8.6,9.5-11.5,23.9s0.6,32.5,9.6,42.5c9,9.9,18.5,42,18.5,50.6s87.4,37.3,87.4,37.3
		l-13.9-173.9L860.5,179.7z"/>
</g>
<circle class="st51" cx="840" cy="256.2" r="25.1"/>
<circle class="st51" cx="906.4" cy="252.1" r="21.6"/>
<g>
	<g>
		<path id="XMLID_00000011742463554499203880000015212842669988366216_" class="st52" d="M816.1,301.2c0,0,7.7,3,18.4,6.6
			c5.4,1.8,11.6,3.8,18,5.7c19,5.5,61.5-16,61.5-16s-1.3,32-40.1,41.1C835,347.7,816.1,301.2,816.1,301.2z"/>
	</g>
	<g>
		<defs>
			<path id="SVGID_00000048477233448509335080000009085082205473429650_" d="M816.1,301.2c0,0,7.7,3,18.4,6.6
				c5.4,1.8,11.6,3.8,18,5.7c19,5.5,61.5-16,61.5-16s-1.3,32-40.1,41.1C835,347.7,816.1,301.2,816.1,301.2z"/>
		</defs>
		<clipPath id="SVGID_00000010307322768762140190000005147561100680861600_">
			<use xlink:href="#SVGID_00000048477233448509335080000009085082205473429650_"  style="overflow:visible;"/>
		</clipPath>
		<polyline style="clip-path:url(#SVGID_00000010307322768762140190000005147561100680861600_);fill:#FBFFC3;" points="834.5,318.6 
			843.8,318.6 842.2,309.5 834.5,305.3 		"/>
		<polyline style="clip-path:url(#SVGID_00000010307322768762140190000005147561100680861600_);fill:#FBFFC3;" points="895.7,321.9 
			886.6,323.9 890.1,332.5 898.6,335 		"/>
		<polyline style="clip-path:url(#SVGID_00000010307322768762140190000005147561100680861600_);fill:#FBFFC3;" points="906.4,318.6 
			897.3,320.6 900.8,329.2 909.3,331.7 		"/>
	</g>
</g>
<polygon class="st54" points="889.3,158.3 875.2,198.6 878.7,201.1 "/>
<polygon class="st54" points="901.1,348.4 914,390.4 901.1,395.3 892.6,395.3 899,383.9 892.6,348.4 "/>
<polygon class="st54" points="853.2,348.2 853,392.1 839.3,393 831.1,390.5 840.6,381.5 845.1,345.6 "/>
<ellipse class="st54" cx="889.3" cy="158.7" rx="14" ry="10.2"/>
<ellipse class="st55" cx="889.3" cy="158.3" rx="10.1" ry="7.3"/>
<circle class="st47" cx="844.8" cy="254.5" r="9.2"/>
<circle class="st47" cx="906.4" cy="252.6" r="9.2"/>
<polygon class="st56" points="768.1,271.1 766.4,272.3 712.5,199 714,197.9 "/>
<circle class="st57" cx="709.4" cy="191" r="48.8"/>
<g>
	<path class="st47" d="M714.3,222.7v-14.8h-25.2v-4.8l24.2-34.7h7.9v33.8h7.6v5.8h-7.6v14.8h-6.9V222.7z M714.3,202.2V184
		c0-2.8,0.1-5.7,0.3-8.5h-0.3c-1.7,3.2-3,5.5-4.5,8L696.5,202v0.2H714.3z"/>
</g>
<polygon class="st54" points="791.4,273.7 767.8,262.1 768.1,271.1 789.2,281.3 "/>
<rect x="756.3" y="254.5" class="st54" width="11.6" height="19.1"/>
<polygon class="st54" points="951.6,287.8 974.9,300 967.5,305.1 946.8,294.1 "/>
<rect x="967.2" y="300" transform="matrix(0.808 -0.5891 0.5891 0.808 7.3375 634.1569)" class="st54" width="19.1" height="11.6"/>
<g id="Слой_2_00000088824317775938472330000007436898353591233939_">
	<path class="st58" d="M174.1,224.9c2,22.6-15,42.6-37.9,44.6S93,254.9,91,232.4s19.2-71.5,33.4-71.5
		C141.2,160.8,172.1,202.3,174.1,224.9z"/>
	<path class="st59" d="M185.4,350.8c0,0-30.7,7.8-41.1,8.7c-10.4,0.9-42-1.3-42-1.3L90.8,230.4c0,0,12.3-15.5,42.9-18.2
		S174,223,174,223L185.4,350.8z"/>
	<polygon class="st58" points="103.7,326.9 80.7,354.5 79.2,406.6 110.2,398.8 	"/>
	<polygon class="st58" points="173.3,318.2 199.5,341.4 209.9,392.4 179.8,390.2 	"/>
	<polygon class="st58" points="141.2,324.6 153.8,349 161,400.4 147.6,396.6 	"/>
</g>
<g>
	<defs>
		<rect id="XMLID_00000016043823093394449270000009189175112191339441_" x="778" y="345.6" width="184.9" height="13.4"/>
	</defs>
	<use xlink:href="#XMLID_00000016043823093394449270000009189175112191339441_"  style="overflow:visible;fill:#004964;"/>
	<clipPath id="XMLID_00000000911181621375481850000002465071731917480120_">
		<use xlink:href="#XMLID_00000016043823093394449270000009189175112191339441_"  style="overflow:visible;"/>
	</clipPath>
	<path style="clip-path:url(#XMLID_00000000911181621375481850000002465071731917480120_);fill:#534964;" d="M773.5,357.6
		c0,0,75.1-4.4,91.6-5.2s109.8,3.8,109.8,3.8l4,6.4l-208.5,1.1L773.5,357.6z"/>
</g>
<g>
	<defs>
		<path id="XMLID_00000183971108852983643050000015031458085189013915_" d="M1732.9,397.8c-6.7-72.3-45.5-127.8-86.7-124
			c-41.2,3.8-69.2,65.5-62.5,137.8L1732.9,397.8z"/>
	</defs>
	<use xlink:href="#XMLID_00000183971108852983643050000015031458085189013915_"  style="overflow:visible;fill:#DE8800;"/>
	<clipPath id="XMLID_00000142146216456935070990000008174950654001142975_">
		<use xlink:href="#XMLID_00000183971108852983643050000015031458085189013915_"  style="overflow:visible;"/>
	</clipPath>
	<path style="clip-path:url(#XMLID_00000142146216456935070990000008174950654001142975_);fill:#C36800;" d="M1632.5,256.8
		c13.7,14.6,30.7,31.8,29.7,42.1c-1,10.3-6.5,8.6-7.7,20.8c-1.2,12.2-15.8,36.9-7.6,44.5c8.2,7.6-2.4,44.6-1.8,51.8
		c0.7,7.2,115.5,3.3,115.5,3.3l-25-143.6L1632.5,256.8z"/>
</g>
<ellipse transform="matrix(0.9958 -9.192065e-02 9.192065e-02 0.9958 -23.479 150.8577)" class="st51" cx="1626" cy="330.3" rx="21" ry="21"/>
<ellipse transform="matrix(0.9958 -9.192067e-02 9.192067e-02 0.9958 -22.4638 155.8725)" class="st51" cx="1680.9" cy="321.8" rx="18.1" ry="18.1"/>
<path class="st54" d="M1659.5,245c-30.5-58.9-8.6,34.6-8.6,34.6l3.1,1.8C1653.9,281.5,1662.9,251.6,1659.5,245z"/>
<path class="st62" d="M1656.7,249.7c-13.6-26.3-3.9,15.4-3.9,15.4l1.4,0.8C1654.3,266,1658.2,252.7,1656.7,249.7z"/>
<polygon class="st54" points="1644,405.9 1647.2,442.4 1635.9,444.2 1628.9,442.8 1636.1,434.6 1637.1,404.3 "/>
<polygon class="st54" points="1686.9,405.9 1690.1,442.4 1678.8,444.2 1671.8,442.8 1679,434.6 1680,404.3 "/>
<circle class="st63" cx="1624.9" cy="333.3" r="7.7"/>
<ellipse transform="matrix(0.9958 -9.192065e-02 9.192065e-02 0.9958 -22.1726 156.571)" class="st47" cx="1688.6" cy="319" rx="7.7" ry="7.7"/>
<polygon class="st56" points="1567.3,348.2 1565.9,349.4 1515.5,292.5 1516.6,291.5 "/>
<ellipse transform="matrix(0.9958 -9.192063e-02 9.192063e-02 0.9958 -19.8948 140.2188)" class="st57" cx="1512.3" cy="286.1" rx="40.8" ry="40.8"/>
<polygon class="st54" points="1586.9,348.6 1566.3,340.8 1567.3,348.2 1585.6,355.1 "/>
<rect x="1556.9" y="334.9" transform="matrix(0.9958 -9.192065e-02 9.192065e-02 0.9958 -24.9016 145.0066)" class="st54" width="9.7" height="16"/>
<polygon class="st54" points="1721.3,348 1741.6,356.4 1735.8,361.2 1717.8,353.7 "/>
<rect x="1735.6" y="356.3" transform="matrix(0.7505 -0.6609 0.6609 0.7505 196.4356 1242.4781)" class="st54" width="16" height="9.7"/>
<polygon class="st64" points="1583.8,411.6 1576.6,430.3 1741.6,414.7 1732.9,397.8 "/>
<g>
	<defs>
		<path id="XMLID_00000005968229845401618830000012768252352051386250_" d="M1657.8,381.8c-9.6,0.4-51.3-8.9-48.8-7
			c2.5,1.9,38.5,23.9,48.8,23.1c10-0.9,48.9-27.8,48.9-27.8S1668.1,381.4,1657.8,381.8z"/>
	</defs>
	<use xlink:href="#XMLID_00000005968229845401618830000012768252352051386250_"  style="overflow:visible;fill:#C01000;"/>
	<clipPath id="XMLID_00000106850792326365231970000016483771566695093931_">
		<use xlink:href="#XMLID_00000005968229845401618830000012768252352051386250_"  style="overflow:visible;"/>
	</clipPath>
	<polyline style="clip-path:url(#XMLID_00000106850792326365231970000016483771566695093931_);fill:#FBFFC3;" points="1633.4,382.9 
		1642.7,383.9 1642.1,374.6 1634.9,369.6 	"/>
	<polyline style="clip-path:url(#XMLID_00000106850792326365231970000016483771566695093931_);fill:#FBFFC3;" points="1686.1,380.8 
		1677.2,383.6 1681.5,391.9 1690.1,393.5 	"/>
</g>
<g>
	<path class="st47" d="M1510.1,266.7l-0.2,0l-9.2,7.2l-2.6-5.8l11.6-9l6.7-1.2l10,58.3l-7.6,1.3L1510.1,266.7z"/>
</g>
</svg>
