<?xml version="1.0" encoding="utf-8"?>
<!-- Generator: Adobe Illustrator 26.0.3, SVG Export Plug-In . SVG Version: 6.00 Build 0)  -->
<svg version="1.1" id="Слой_1" xmlns="http://www.w3.org/2000/svg" xmlns:xlink="http://www.w3.org/1999/xlink" x="0px" y="0px"
	 viewBox="0 0 1920 529.3" enable-background="new 0 0 1920 529.3" xml:space="preserve">
<g>
	
		<linearGradient id="SVGID_1_" gradientUnits="userSpaceOnUse" x1="1055.3002" y1="-2753.2932" x2="1981.2003" y2="-2753.2932" gradientTransform="matrix(1 0 0 -1 0 -2378.8433)">
		<stop  offset="0" style="stop-color:#FFB0A0"/>
		<stop  offset="1" style="stop-color:#FCCCA2"/>
	</linearGradient>
	<path fill="url(#SVGID_1_)" d="M1908.3,397.7c-7.8-39.4-60.6-70-124.6-70c-18.1,0-35.4,2.4-51,6.8c0-62.4-75.2-112.9-168-112.9
		c-70.7,0-131.3,29.5-156.1,71c-36.8-14.5-82.3-23-131.6-23c-122.5,0-221.7,52.8-221.7,117.9s99.2,117.9,221.7,117.9
		c37.1,0,72-4.9,102.7-13.4c31.8,21.3,85.5,35.3,146.4,35.3c71.4,0,132.7-19.2,160.7-46.7c22.8,24.6,77.6,41.8,141.5,41.8
		c84.4,0,152.9-30.3,152.9-67.5C1981.3,430.8,1952.1,409.5,1908.3,397.7z"/>
	
		<linearGradient id="SVGID_00000023994097385233890470000004687545377450306473_" gradientUnits="userSpaceOnUse" x1="1607.3999" y1="-2842.9932" x2="2533.2998" y2="-2842.9932" gradientTransform="matrix(1 0 0 -1 0 -2378.8433)">
		<stop  offset="0" style="stop-color:#FFB0A0"/>
		<stop  offset="1" style="stop-color:#FCCCA2"/>
	</linearGradient>
	<path fill="url(#SVGID_00000023994097385233890470000004687545377450306473_)" d="M2460.4,487.4c-7.8-39.4-60.6-70-124.6-70
		c-18.1,0-35.4,2.4-51,6.8c0-62.4-75.2-112.9-168-112.9c-70.7,0-131.3,29.5-156.1,71c-36.8-14.5-82.3-23-131.6-23
		c-122.5,0-221.7,52.8-221.7,117.9s99.2,117.9,221.7,117.9c37.1,0,72-4.9,102.7-13.4c31.8,21.3,85.5,35.3,146.4,35.3
		c71.4,0,132.7-19.2,160.7-46.7c22.8,24.6,77.6,41.8,141.5,41.8c84.4,0,152.9-30.3,152.9-67.5
		C2533.4,520.6,2504.2,499.3,2460.4,487.4z"/>
	
		<linearGradient id="SVGID_00000130624476750891721290000002847117107261075338_" gradientUnits="userSpaceOnUse" x1="931.1354" y1="-2879.7947" x2="1437.7911" y2="-2170.9678" gradientTransform="matrix(1 0 0 -1 0 -2378.8433)">
		<stop  offset="0" style="stop-color:#FFB0A0"/>
		<stop  offset="1" style="stop-color:#FCCCA2"/>
	</linearGradient>
	<path fill="url(#SVGID_00000130624476750891721290000002847117107261075338_)" d="M1422.3,306.4c-7.3-47.9-56.9-85-117.1-85
		c-17,0-33.3,3-47.9,8.4c0-75.9-70.7-137.4-158.1-137.4c-66.6,0-123.5,35.8-146.8,86.4c-34.7-17.6-77.4-28-123.8-28
		C713.4,150.8,620,215,620,294.2s93.4,143.5,208.6,143.5c34.8,0,67.7-5.9,96.6-16.3c29.8,25.9,80.5,42.9,137.8,42.9
		c67.1,0,124.9-23.3,151.1-56.7c21.5,29.8,73,51,133.3,51c79.6,0,143.9-36.8,143.9-82C1491.1,346.9,1463.6,320.8,1422.3,306.4z"/>
	
		<linearGradient id="SVGID_00000018228821105165479390000011649132494440042170_" gradientUnits="userSpaceOnUse" x1="-345.8" y1="-2663.8433" x2="1272.9006" y2="-2663.8433" gradientTransform="matrix(1 0 0 -1 0 -2378.8433)">
		<stop  offset="0" style="stop-color:#FFB0A0"/>
		<stop  offset="1" style="stop-color:#FCCCA2"/>
	</linearGradient>
	<path fill="url(#SVGID_00000018228821105165479390000011649132494440042170_)" d="M1145.4,316.9c-13.5-54.3-105.7-96.5-217.7-96.5
		c-31.8,0-61.9,3.3-89.2,9.6c0-86-131.6-155.8-293.8-155.8c-123.7,0-229.6,40.6-272.8,98.1c-64.4-19.9-143.9-31.8-230.2-31.8
		c-214.1,0-387.5,72.9-387.5,162.6s173.6,162.6,387.5,162.6c64.8,0,125.8-6.7,179.5-18.6c55.5,29.4,149.4,48.7,256,48.7
		c124.8,0,232-26.5,280.7-64.5c40,33.9,135.7,57.8,247.5,57.8c147.7,0,267.5-41.7,267.5-93.1C1273.1,362.7,1222,333.2,1145.4,316.9z
		"/>
</g>
<path fill="#E98037" d="M-26.3,459.8c42-23.8,22.8-23.2,154.8-52.7c132.1-29.6,184.4-76.3,241.4-81.4
	c56.9-5.1,177.4-30.7,285.2,31.2s318.1,79.2,377.3,95.6c59.2,16.3,101.3-25,121.8-40.6c20.5-15.7,194.4-6.9,246.7,8.8
	c52.4,15.7,166.5,93.7,259.9,15.9c36.4,23.7,179.9,20.4,273.2,12.1s227.7-10.6,275.5,11.2c47.8,21.8,323.3-40.3,343.8-52.7
	c20.5-12.4,356.4-18.5,421.3-38.7s191.2,50.6,242.4,107.2s-1434.4,90.8-1434.4,90.8l-1767-32.1L-26.3,459.8z"/>
<g>
	<g>
		<path id="XMLID_00000160882641145616072100000010269549984035130496_" fill="#664215" d="M-124.7,535.8
			c26.3-23.8-40.3-48.9,42.4-78.5s172.9-64.5,208.5-69.6s385.8-61.9,453.4,0s67,82.6,104.1,98.9s94.1-77.8,106.9-93.4
			c12.8-15.7,112.6-22.8,145.4-7.1c32.8,15.7,71.3,60.9,94.1,84.6c22.8,23.7,112.6,20.4,171.1,12.1s142.6-10.6,172.5,11.2
			c29.9,21.8,202.5-40.3,215.3-52.7s223.2-18.5,263.8-38.7c40.6-20.1,119.7,50.6,151.8,107.2c32.1,56.6-898.2,90.8-898.2,90.8
			L0,568.6L-124.7,535.8z"/>
	</g>
	<g>
		<g>
			<g>
				<g>
					<g>
						<g>
							<g>
								<g>
									<g>
										<defs>
											<path id="SVGID_00000183241083013306146940000008789426437095225491_" d="M-124.7,535.8c26.3-23.8-40.3-48.9,42.4-78.5
												s172.9-64.5,208.5-69.6s385.8-61.9,453.4,0s67,82.6,104.1,98.9s94.1-77.8,106.9-93.4c12.8-15.7,112.6-22.8,145.4-7.1
												c32.8,15.7,71.3,60.9,94.1,84.6c22.8,23.7,112.6,20.4,171.1,12.1s142.6-10.6,172.5,11.2c29.9,21.8,202.5-40.3,215.3-52.7
												s223.2-18.5,263.8-38.7c40.6-20.1,119.7,50.6,151.8,107.2c32.1,56.6-898.2,90.8-898.2,90.8L0,568.6L-124.7,535.8z"/>
										</defs>
										<clipPath id="SVGID_00000014618528605289623400000008738033667875990701_">
											<use xlink:href="#SVGID_00000183241083013306146940000008789426437095225491_"  overflow="visible"/>
										</clipPath>
										<path clip-path="url(#SVGID_00000014618528605289623400000008738033667875990701_)" fill="#7B4119" d="M281.7,332
											c21.4,47,4.3,37,42.8,78.3s19.6,39.5,77.5,60.4s52.2,28.2,79.3,46.7c27.1,18.4,91.2,17.5,125.5,10.1
											c34.2-7.4,56.9-41.5,64.6-44.9s-37.5-94.9-37.5-94.9L304.3,244.5L281.7,332z"/>
									</g>
								</g>
								<g>
									<g>
										<defs>
											<path id="SVGID_00000047029556114124894620000003774990029207768751_" d="M-124.7,535.8c26.3-23.8-40.3-48.9,42.4-78.5
												s172.9-64.5,208.5-69.6s385.8-61.9,453.4,0s67,82.6,104.1,98.9s94.1-77.8,106.9-93.4c12.8-15.7,112.6-22.8,145.4-7.1
												c32.8,15.7,71.3,60.9,94.1,84.6c22.8,23.7,112.6,20.4,171.1,12.1s142.6-10.6,172.5,11.2c29.9,21.8,202.5-40.3,215.3-52.7
												s223.2-18.5,263.8-38.7c40.6-20.1,119.7,50.6,151.8,107.2c32.1,56.6-898.2,90.8-898.2,90.8L0,568.6L-124.7,535.8z"/>
										</defs>
										<clipPath id="SVGID_00000054228800008731745650000008932154050386434474_">
											<use xlink:href="#SVGID_00000047029556114124894620000003774990029207768751_"  overflow="visible"/>
										</clipPath>
										<path clip-path="url(#SVGID_00000054228800008731745650000008932154050386434474_)" fill="#514119" d="M491.4,567.1
											c-59.9-45.9-31.5-44.7-108.8-71.6c-77.2-26.8-52.4-37.5-139.4-24.7s-85.1-0.6-131.9-5.9c-46.8-5.1-126.1,39.9-163.7,72.9
											c-37.4,33-41.6,92.4-48.8,102.1c-7.2,9.7,113.9,96.6,113.9,96.6L525,695.3L491.4,567.1z"/>
									</g>
								</g>
							</g>
						</g>
					</g>
				</g>
			</g>
		</g>
	</g>
	<g>
		<g>
			<g>
				<g>
					<g>
						<g>
							<g>
								<g>
									<g>
										<defs>
											<path id="SVGID_00000025427001470340987260000000121143117248941720_" d="M-124.7,535.8c26.3-23.8-40.3-48.9,42.4-78.5
												s172.9-64.5,208.5-69.6s385.8-61.9,453.4,0s67,82.6,104.1,98.9s94.1-77.8,106.9-93.4c12.8-15.7,112.6-22.8,145.4-7.1
												c32.8,15.7,71.3,60.9,94.1,84.6c22.8,23.7,112.6,20.4,171.1,12.1s142.6-10.6,172.5,11.2c29.9,21.8,202.5-40.3,215.3-52.7
												s223.2-18.5,263.8-38.7c40.6-20.1,119.7,50.6,151.8,107.2c32.1,56.6-898.2,90.8-898.2,90.8L0,568.6L-124.7,535.8z"/>
										</defs>
										<clipPath id="SVGID_00000137110699439987677780000017526096401686327192_">
											<use xlink:href="#SVGID_00000025427001470340987260000000121143117248941720_"  overflow="visible"/>
										</clipPath>
										<path clip-path="url(#SVGID_00000137110699439987677780000017526096401686327192_)" fill="#7B4119" d="M750.4,259.6
											c21.4,47,4.3,37,42.8,78.3s19.6,39.5,77.5,60.4s52.2,28.2,79.3,46.7c27.1,18.4,91.2,17.5,125.5,10.1
											c34.2-7.4,56.9-41.5,64.6-44.9c7.6-3.4-37.5-94.9-37.5-94.9L773,172.2L750.4,259.6z"/>
									</g>
								</g>
							</g>
						</g>
					</g>
				</g>
			</g>
		</g>
	</g>
	<g>
		<g>
			<g>
				<g>
					<g>
						<g>
							<g>
								<g>
									<g>
										<defs>
											<path id="SVGID_00000038407924853217552850000007087683045586835368_" d="M-124.7,535.8c26.3-23.8-40.3-48.9,42.4-78.5
												s172.9-64.5,208.5-69.6s385.8-61.9,453.4,0s67,82.6,104.1,98.9s94.1-77.8,106.9-93.4c12.8-15.7,112.6-22.8,145.4-7.1
												c32.8,15.7,71.3,60.9,94.1,84.6c22.8,23.7,112.6,20.4,171.1,12.1s142.6-10.6,172.5,11.2c29.9,21.8,202.5-40.3,215.3-52.7
												s223.2-18.5,263.8-38.7c40.6-20.1,119.7,50.6,151.8,107.2c32.1,56.6-898.2,90.8-898.2,90.8L0,568.6L-124.7,535.8z"/>
										</defs>
										<clipPath id="SVGID_00000080171142325392362680000015882486324154834560_">
											<use xlink:href="#SVGID_00000038407924853217552850000007087683045586835368_"  overflow="visible"/>
										</clipPath>
										<path clip-path="url(#SVGID_00000080171142325392362680000015882486324154834560_)" fill="#7B4119" d="M1169.5,342.3
											c21.4,47,4.3,37,42.8,78.3s19.6,39.5,77.5,60.4s52.2,28.2,79.3,46.7c27.1,18.4,91.2,17.5,125.5,10.1
											c34.2-7.4,56.9-41.5,64.6-44.9c7.6-3.4-37.5-94.9-37.5-94.9l-329.6-143.2L1169.5,342.3z"/>
									</g>
								</g>
							</g>
						</g>
					</g>
				</g>
			</g>
		</g>
	</g>
</g>
<ellipse transform="matrix(0.9736 -0.2284 0.2284 0.9736 -101.075 92.4298)" fill="#080000" cx="348.8" cy="482.9" rx="34.2" ry="18.6"/>
<ellipse transform="matrix(0.2156 -0.9765 0.9765 0.2156 -113.8699 811.483)" fill="#080000" cx="448.2" cy="476.6" rx="18.6" ry="34.2"/>
<g>
	<g>
		<polygon id="XMLID_00000161624209840765887400000016240937727154374330_" fill="#596A9D" points="334.3,481 379.4,481 414,289 
			412.4,474 454.9,477.7 448.9,264.3 375.1,257.4 		"/>
	</g>
	<g>
		<g>
			<g>
				<g>
					<g>
						<g>
							<g>
								<g>
									<defs>
										<polygon id="SVGID_00000167386028668180417260000018376365373203471504_" points="334.3,481 379.4,481 414,289 412.4,474 
											454.9,477.7 448.9,264.3 375.1,257.4 										"/>
									</defs>
									<clipPath id="SVGID_00000173128203649563975890000016620815734924015749_">
										<use xlink:href="#SVGID_00000167386028668180417260000018376365373203471504_"  overflow="visible"/>
									</clipPath>
									<polygon clip-path="url(#SVGID_00000173128203649563975890000016620815734924015749_)" fill="#264061" points="
										403.3,257.4 339.8,490 295.8,478.4 350.8,243.9 									"/>
								</g>
							</g>
						</g>
					</g>
				</g>
			</g>
		</g>
	</g>
	<g>
		<g>
			<g>
				<g>
					<g>
						<g>
							<g>
								<g>
									<defs>
										<polygon id="SVGID_00000178923950134035194980000001069561739264133035_" points="334.3,481 359.2,481 379.4,481 414,289 
											412.4,474 433.1,475.8 454.9,477.7 448.9,264.3 375.1,257.4 										"/>
									</defs>
									<clipPath id="SVGID_00000041253481949830435100000007786035208502038694_">
										<use xlink:href="#SVGID_00000178923950134035194980000001069561739264133035_"  overflow="visible"/>
									</clipPath>
									<polygon clip-path="url(#SVGID_00000041253481949830435100000007786035208502038694_)" fill="#264061" points="413,282.5 
										439.5,522.2 394.3,527.5 406.1,375.1 									"/>
								</g>
							</g>
						</g>
					</g>
				</g>
			</g>
		</g>
	</g>
</g>
<g>
	<g>
		
			<ellipse id="XMLID_00000164494619462850699650000006458807147723389334_" transform="matrix(7.951170e-02 -0.9968 0.9968 7.951170e-02 130.0941 683.1113)" fill="#5859B4" cx="434.9" cy="271.1" rx="7.9" ry="22.6"/>
	</g>
	<g>
		<g>
			<g>
				<g>
					<g>
						<g>
							<g>
								<defs>
									
										<ellipse id="SVGID_00000114031981070387990030000008859852755637452450_" transform="matrix(7.951170e-02 -0.9968 0.9968 7.951170e-02 130.0941 683.1113)" cx="434.9" cy="271.1" rx="7.9" ry="22.6"/>
								</defs>
								<clipPath id="SVGID_00000129175470578213753030000011760923598676505011_">
									<use xlink:href="#SVGID_00000114031981070387990030000008859852755637452450_"  overflow="visible"/>
								</clipPath>
								<path clip-path="url(#SVGID_00000129175470578213753030000011760923598676505011_)" fill="#3F3BB4" d="M462.2,265.3
									c-0.9,0.8-20.9,7-27.2,5.7c-6.3-1.3-28.2-2.2-28.2-2.2l33.5-37L462.2,265.3z"/>
							</g>
						</g>
					</g>
				</g>
			</g>
		</g>
	</g>
</g>
<g>
	<g>
		<path id="XMLID_00000003065350105111695220000000344922764282713481_" fill="#509AB6" d="M368,153.5c-9.8,11.6-5.6,24.2-1.8,60
			c4.9,33.3,5.4,66.9,5.4,66.9l78.1-11.8c0,0-7-30.6-5.2-59.2c0.5-7.9,2.7-16.3,4.1-23.4c2.8-14.7,7-24.4,4.4-29.1
			c-8.1-15.1-26.1-12.7-45.3-14.7C389.6,140.2,370.7,146.9,368,153.5z"/>
	</g>
	<g>
		<g>
			<g>
				<g>
					<g>
						<g>
							<g>
								<g>
									<g>
										<g>
											<g>
												<g>
													<g>
														<defs>
															<path id="SVGID_00000146501634942703841630000014916251127318448058_" d="M368,153.5c-9.8,11.6-5.6,24.2-1.8,60
																c4.9,33.3,5.4,66.9,5.4,66.9l78.1-11.8c0,0-7-30.6-5.2-59.2c0.5-7.9,2.7-16.3,4.1-23.4c2.8-14.7,7-24.4,4.4-29.1
																c-8.1-15.1-26.1-12.7-45.3-14.7C389.6,140.2,370.7,146.9,368,153.5z"/>
														</defs>
														<clipPath id="SVGID_00000030479728344705046460000017964333818854128027_">
															<use xlink:href="#SVGID_00000146501634942703841630000014916251127318448058_"  overflow="visible"/>
														</clipPath>
														<polygon clip-path="url(#SVGID_00000030479728344705046460000017964333818854128027_)" fill="#3F3BB4" points="
															447,199.1 471.7,254.3 470.7,307.3 437.6,304.7 435.6,204.9 441.5,189.2 														"/>
													</g>
												</g>
											</g>
										</g>
									</g>
								</g>
							</g>
							<g>
								<g>
									<g>
										<g>
											<g>
												<g>
													<g>
														<defs>
															<path id="SVGID_00000044135868455017444700000004340090461051816871_" d="M368,153.5c-9.8,11.6-5.6,24.2-1.8,60
																c4.9,33.3,5.4,66.9,5.4,66.9l78.1-11.8c0,0-7-30.6-5.2-59.2c0.5-7.9,2.7-16.3,4.1-23.4c2.8-14.7,7-24.4,4.4-29.1
																c-8.1-15.1-26.1-12.7-45.3-14.7C389.6,140.2,370.7,146.9,368,153.5z"/>
														</defs>
														<clipPath id="SVGID_00000106135094498887820140000008564649876490816652_">
															<use xlink:href="#SVGID_00000044135868455017444700000004340090461051816871_"  overflow="visible"/>
														</clipPath>
														<polygon clip-path="url(#SVGID_00000106135094498887820140000008564649876490816652_)" fill="#3F3BB4" points="
															381.1,240.8 371.6,181.1 386.3,130.2 417.6,141.3 393.7,238.2 384,251.8 														"/>
													</g>
												</g>
											</g>
										</g>
									</g>
								</g>
							</g>
							<g>
								<g>
									<g>
										<g>
											<g>
												<g>
													<path id="SVGID_00000151514386677749235270000012254437547921826744_" fill="#264061" d="M368,153.5
														c-9.8,11.6-5.6,24.2-1.8,60c4.9,33.3,5.4,66.9,5.4,66.9l78.1-11.8c0,0-7-30.6-5.2-59.2c0.5-7.9,2.7-16.3,4.1-23.4
														c2.8-14.7,7-24.4,4.4-29.1c-8.1-15.1-26.1-12.7-45.3-14.7C389.6,140.2,370.7,146.9,368,153.5z"/>
												</g>
												<g>
													<g>
														<defs>
															<path id="SVGID_00000108276537430811333250000007596615540237338783_" d="M368,153.5c-9.8,11.6-5.6,24.2-1.8,60
																c4.9,33.3,5.4,66.9,5.4,66.9l78.1-11.8c0,0-7-30.6-5.2-59.2c0.5-7.9,2.7-16.3,4.1-23.4c2.8-14.7,7-24.4,4.4-29.1
																c-8.1-15.1-26.1-12.7-45.3-14.7C389.6,140.2,370.7,146.9,368,153.5z"/>
														</defs>
														<clipPath id="SVGID_00000016794683530510376140000001764962637415617708_">
															<use xlink:href="#SVGID_00000108276537430811333250000007596615540237338783_"  overflow="visible"/>
														</clipPath>
														<polygon clip-path="url(#SVGID_00000016794683530510376140000001764962637415617708_)" fill="#3F3BB4" points="
															369.5,197.1 394.2,252.3 393.2,305.3 360.1,302.7 358.1,202.9 364,187.2 														"/>
													</g>
												</g>
											</g>
										</g>
									</g>
								</g>
							</g>
						</g>
					</g>
				</g>
			</g>
		</g>
	</g>
</g>
<g>
	<g>
		
			<ellipse id="XMLID_00000057113582054595129200000013128145848758637741_" transform="matrix(0.1251 -0.9921 0.9921 0.1251 217.4772 530.8471)" fill="#466A91" cx="409.7" cy="142.1" rx="5.3" ry="14"/>
	</g>
	<g>
		<g>
			<g>
				<g>
					<g>
						<g>
							<path id="SVGID_00000096028418946371303700000008194652517547614128_" fill="#466A91" d="M395.8,140.5
								c0.2-3,6.4-12,12.6-16.6c15.3-11.3,15.3,16.8,15.1,19.8c-0.2,3-6.5,4.6-14.1,3.7S395.7,143.4,395.8,140.5z"/>
						</g>
						<g>
							<g>
								<defs>
									<path id="SVGID_00000013873697909820566710000016178528702358341290_" d="M395.8,140.5c0.2-3,6.4-12,12.6-16.6
										c15.3-11.3,15.3,16.8,15.1,19.8c-0.2,3-6.5,4.6-14.1,3.7S395.7,143.4,395.8,140.5z"/>
								</defs>
								<clipPath id="SVGID_00000168807770174544129100000006247909462396456860_">
									<use xlink:href="#SVGID_00000013873697909820566710000016178528702358341290_"  overflow="visible"/>
								</clipPath>
								<path clip-path="url(#SVGID_00000168807770174544129100000006247909462396456860_)" fill="#466A91" d="M426.3,138.3
									c-0.6,0.6-12.7,4.5-16.6,3.5c-3.8-1-17.3-2-17.3-2l20.1-24.8L426.3,138.3z"/>
							</g>
						</g>
					</g>
				</g>
			</g>
		</g>
	</g>
</g>
<g>
	<g>
		<path id="XMLID_00000158735839473163135540000003718315981233473723_" fill="#FFF1AA" d="M435.4,99.8c-3,19.5-7.3,40.4-26.2,40.4
			c-18.1,0-22.5-18.1-27.2-37.5c-4.4-18.8,9.1-32.5,27.2-32.5C427.3,70.2,437.9,83.9,435.4,99.8z"/>
	</g>
	<g>
		<g>
			<g>
				<g>
					<g>
						<g>
							<g>
								<g>
									<g>
										<g>
											<g>
												<g>
													<g>
														<defs>
															<path id="SVGID_00000090257950705730837240000003329807447325710507_" d="M435.4,99.8c-3,19.5-7.3,40.4-26.2,40.4
																c-18.1,0-22.5-18.1-27.2-37.5c-4.4-18.8,9.1-32.5,27.2-32.5C427.3,70.2,437.9,83.9,435.4,99.8z"/>
														</defs>
														<clipPath id="SVGID_00000035501912481117785570000007616624222939779461_">
															<use xlink:href="#SVGID_00000090257950705730837240000003329807447325710507_"  overflow="visible"/>
														</clipPath>
														<path clip-path="url(#SVGID_00000035501912481117785570000007616624222939779461_)" fill="#FFD38C" d="M376.1,84.2
															l19.9,3.4c0,0-7,15.1-6.4,21.8c0.6,6.8,3.7,15.7,9.1,21.7c5.4,5.9,22.3,6.5,22.3,6.5l-26.7,23l-33.1-46.9L376.1,84.2z
															"/>
													</g>
												</g>
											</g>
										</g>
									</g>
								</g>
							</g>
						</g>
					</g>
				</g>
			</g>
			<g>
				<g>
					<g>
						<g>
							<g>
								<g>
									<g>
										<g>
											<g>
												<g>
													<g>
														<defs>
															<path id="SVGID_00000128446717582560385860000006482334021295049122_" d="M435.4,99.8c-3,19.5-7.3,40.4-26.2,40.4
																c-18.1,0-22.5-18.1-27.2-37.5c-4.4-18.8,9.1-32.5,27.2-32.5C427.3,70.2,437.9,83.9,435.4,99.8z"/>
														</defs>
														<clipPath id="SVGID_00000078764912300345725920000010202002113977037501_">
															<use xlink:href="#SVGID_00000128446717582560385860000006482334021295049122_"  overflow="visible"/>
														</clipPath>
														<path clip-path="url(#SVGID_00000078764912300345725920000010202002113977037501_)" fill="#FFD38C" d="M407.8,121.3
															l-2.9-1.5l4.7-18.1L407.8,121.3z"/>
													</g>
												</g>
											</g>
										</g>
									</g>
								</g>
							</g>
						</g>
					</g>
				</g>
			</g>
		</g>
	</g>
</g>
<polygon fill="#466A91" points="368,153.5 324.8,196.9 356.3,201 366.1,191 "/>
<polygon fill="#466A91" points="453,156.9 474.6,211.1 450.4,211.1 443.6,192.3 "/>
<g>
	<g>
		<path id="XMLID_00000065752983870368876250000008635360987876549559_" fill="#612600" d="M382.9,106.3c0,0,5.9-16.2,10-15.7
			c4.1,0.4,4.8,0,11.8-1.1s12.3-5.2,15.9-0.8c3.6,4.5,4.9,1.9,9.8,2c4.9,0.2,3.8,15.6,3.8,15.6s11.2-31.5-5.7-36
			c-4.4-1.3-11.1-5.4-20.1-5.4c-9.1,0-18.4,0-19.9,5.4s-9.6,7.5-10,12.8C378.3,88.2,382.9,106.3,382.9,106.3z"/>
	</g>
	<g>
		<g>
			<g>
				<g>
					<g>
						<g>
							<g>
								<g>
									<g>
										<g>
											<g>
												<defs>
													<path id="SVGID_00000044865492761678516860000000878871811288714126_" d="M382.9,106.3c0,0,5.9-16.2,10-15.7
														c4.1,0.4,4.8,0,11.8-1.1s12.3-5.2,15.9-0.8c3.6,4.5,4.9,1.9,9.8,2c4.9,0.2,3.8,15.6,3.8,15.6s11.2-31.5-5.7-36
														c-4.4-1.3-11.1-5.4-20.1-5.4c-9.1,0-18.4,0-19.9,5.4s-9.6,7.5-10,12.8C378.3,88.2,382.9,106.3,382.9,106.3z"/>
												</defs>
												<clipPath id="SVGID_00000158710929697613677080000001663841797290054316_">
													<use xlink:href="#SVGID_00000044865492761678516860000000878871811288714126_"  overflow="visible"/>
												</clipPath>
												<path clip-path="url(#SVGID_00000158710929697613677080000001663841797290054316_)" fill="#372100" d="M421.8,60.1
													c0,0-14,6-20.6,13.5c-6.7,7.4-6.8,5.5-3.7,7.6c3,2.1,4.3,7.4-2.7,10c-12.2,4.5-16.1,21.2-16.6,21.7
													c-0.5,0.4-13.4-21.2-13.1-25c0.3-3.9,16.2-32.2,16.2-32.2L421.8,60.1z"/>
											</g>
										</g>
									</g>
								</g>
							</g>
						</g>
					</g>
				</g>
			</g>
		</g>
	</g>
</g>
<path fill="#020100" d="M401.1,104.6c0,1.3-3,2.5-4.2,2.5s-2.3-1-2.3-2.3s1-2.3,2.3-2.3C398.2,102.6,401.1,103.3,401.1,104.6z"/>
<path fill="#020100" d="M424.1,104.8c0,1.3-1,2.3-2.3,2.3s-4-1.4-4-2.6s2.7-1.9,4-1.9S424.1,103.7,424.1,104.8z"/>
<path fill="#AD0000" d="M414.4,128.5c0,0.6-3.2,2.4-6.6,2.4c-3.5,0-7.2-2.5-7.2-3.1s3.7,0.8,7.2,0.8
	C411.3,128.6,414.4,127.9,414.4,128.5z"/>
<rect x="380.1" y="113.6" transform="matrix(9.288322e-02 -0.9957 0.9957 9.288322e-02 136.333 639.2401)" fill="#5E1500" width="77.8" height="262.3"/>
<rect x="382.8" y="129.5" transform="matrix(9.288322e-02 -0.9957 0.9957 9.288322e-02 131.9277 633.0441)" fill="#FFAC7C" width="61.1" height="229.2"/>
<g>
	<g>
		<g>
			<path id="XMLID_00000091017690886273474730000004683794767781391537_" fill="#EE0000" d="M325.4,240.3c0,0-2.7-2-5-1.9
				s-8.9-0.1-9.8,10.2c-0.9,10.3,6.5,12,7.4,12c0.7,0,2,0,2.7,0.1c0.9,0.1,2.1,0.8,2.9,1c3.3,0.8,10.3-0.2,12.7-10.4s-6.4-11-6.4-11
				L325.4,240.3z"/>
		</g>
		<g>
			<g>
				<g>
					<g>
						<g>
							<g>
								<g>
									<g>
										<g>
											<g>
												<g>
													<g>
														<g>
															<g>
																<defs>
																	<path id="SVGID_00000019663686605097173170000015272622614717986479_" d="M325.4,240.3c0,0-2.7-2-5-1.9
																		s-8.9-0.1-9.8,10.2c-0.9,10.3,6.5,12,7.4,12c0.7,0,2,0,2.7,0.1c0.9,0.1,2.1,0.8,2.9,1c3.3,0.8,10.3-0.2,12.7-10.4
																		s-6.4-11-6.4-11L325.4,240.3z"/>
																</defs>
																<clipPath id="SVGID_00000062171822988694879030000013949957846886099604_">
																	<use xlink:href="#SVGID_00000019663686605097173170000015272622614717986479_"  overflow="visible"/>
																</clipPath>
																<path clip-path="url(#SVGID_00000062171822988694879030000013949957846886099604_)" fill="#B60000" d="M322.8,238.4
																	c0,0,0.5,2.4,1.3,2.9s2-0.2,2.6-0.3s1.5-0.4,3,0s5.2,2.2,5.4,4.7c0.2,2.5-2,9.2-3.6,10.9c-1.7,1.6-8.3,2.7-10.1,2.7
																	s-8.5-1.3-8.5-1.3l-3.4,6.2l31.8,1.2l4.2-25.7L322.8,238.4z"/>
															</g>
														</g>
													</g>
												</g>
											</g>
										</g>
									</g>
								</g>
							</g>
						</g>
					</g>
				</g>
			</g>
		</g>
		<g>
			<g>
				<g>
					<g>
						<g>
							<g>
								<g>
									<g>
										<g>
											<g>
												<g>
													<g>
														<g>
															<g>
																<defs>
																	<path id="SVGID_00000032625851002512136290000012628500935479848378_" d="M325.4,240.3c0,0-2.7-2-5-1.9
																		s-8.9-0.1-9.8,10.2c-0.9,10.3,6.5,12,7.4,12c0.7,0,2,0,2.7,0.1c0.9,0.1,2.1,0.8,2.9,1c3.3,0.8,10.3-0.2,12.7-10.4
																		s-6.4-11-6.4-11L325.4,240.3z"/>
																</defs>
																<clipPath id="SVGID_00000159462355213959788710000014880283965596690588_">
																	<use xlink:href="#SVGID_00000032625851002512136290000012628500935479848378_"  overflow="visible"/>
																</clipPath>
																
																	<path opacity="0.36" clip-path="url(#SVGID_00000159462355213959788710000014880283965596690588_)" fill="#FFFFFF" enable-background="new    " d="
																	M317.4,245c-0.9,0.9-2.1,2.5-2.6,2s-0.3-2.8,0.7-3.7c0.9-0.9,2.1-1.3,2.7-0.8C318.6,243,318.3,244.1,317.4,245z"/>
															</g>
														</g>
													</g>
												</g>
											</g>
										</g>
									</g>
								</g>
							</g>
						</g>
					</g>
				</g>
			</g>
		</g>
		<g>
			<g>
				<g>
					<g>
						<g>
							<g>
								<g>
									<g>
										<g>
											<g>
												<g>
													<g>
														<g>
															<g>
																<defs>
																	<path id="SVGID_00000079484531884322334080000017352158479826658472_" d="M325.4,240.3c0,0-2.7-2-5-1.9
																		s-8.9-0.1-9.8,10.2c-0.9,10.3,6.5,12,7.4,12c0.7,0,2,0,2.7,0.1c0.9,0.1,2.1,0.8,2.9,1c3.3,0.8,10.3-0.2,12.7-10.4
																		s-6.4-11-6.4-11L325.4,240.3z"/>
																</defs>
																<clipPath id="SVGID_00000153699588237245430660000018047805227225617537_">
																	<use xlink:href="#SVGID_00000079484531884322334080000017352158479826658472_"  overflow="visible"/>
																</clipPath>
																
																	<path opacity="0.36" clip-path="url(#SVGID_00000153699588237245430660000018047805227225617537_)" fill="#FFFFFF" enable-background="new    " d="
																	M315.4,249.5c-0.2,0-0.6,0.1-0.5-0.4s0.6-1.3,0.8-1.3c0.2,0,0.3,0.4,0.2,0.9C315.8,249.2,315.6,249.6,315.4,249.5z"
																	/>
															</g>
														</g>
													</g>
												</g>
											</g>
										</g>
									</g>
								</g>
							</g>
						</g>
					</g>
				</g>
			</g>
		</g>
	</g>
	<path fill="#603813" d="M331.4,235.4c-0.1,0.1-0.9,0.3-1.8,0.8c-0.8,0.5-4.3,4.4-4.3,4.4l-0.7-0.1c0,0,3.1-3,4.4-4.6
		C330.4,234.4,331.9,235.1,331.4,235.4z"/>
	<g>
		<g>
			<path id="XMLID_00000132782349993058868520000005032296531255508625_" fill="#5F9D00" d="M321.3,231.7c0,0,0.8,2.7,1.9,3.4
				s4.2,2.9,4.2,2.9s0.1-3.5-0.9-4.6C325.6,232.3,321.3,231.7,321.3,231.7z"/>
		</g>
		<g>
			<g>
				<g>
					<g>
						<g>
							<g>
								<g>
									<g>
										<g>
											<g>
												<g>
													<defs>
														<path id="SVGID_00000148637217795450482420000011060040156697653404_" d="M321.3,231.7c0,0,0.8,2.7,1.9,3.4
															s4.2,2.9,4.2,2.9s0.1-3.5-0.9-4.6C325.6,232.3,321.3,231.7,321.3,231.7z"/>
													</defs>
													<clipPath id="SVGID_00000078746537140991809480000013961252173425469870_">
														<use xlink:href="#SVGID_00000148637217795450482420000011060040156697653404_"  overflow="visible"/>
													</clipPath>
													<path clip-path="url(#SVGID_00000078746537140991809480000013961252173425469870_)" fill="#465F00" d="M321,231.1
														c0,0,1.7,2.6,2.5,3.2c0.8,0.7,3.2,2.1,3.6,2.9c0.4,0.8,0.4,1.5,0.4,1.5s-4.5-1.8-4.7-2s-3.1-5.1-3.1-5.1L321,231.1z"/>
												</g>
											</g>
										</g>
									</g>
								</g>
							</g>
						</g>
					</g>
				</g>
			</g>
		</g>
	</g>
</g>
<g>
	<g>
		<g>
			<path id="XMLID_00000044171999113232811000000009634198173952642200_" fill="#EE0000" d="M353.6,228.4c0,0-2.7-2-5-1.9
				s-8.9-0.1-9.8,10.2s6.5,12,7.4,12c0.7,0,2,0,2.7,0.1c0.9,0.1,2.1,0.8,2.9,1c3.3,0.8,10.3-0.2,12.7-10.4s-6.4-11-6.4-11
				L353.6,228.4z"/>
		</g>
		<g>
			<g>
				<g>
					<g>
						<g>
							<g>
								<g>
									<g>
										<g>
											<g>
												<g>
													<g>
														<g>
															<g>
																<defs>
																	<path id="SVGID_00000168113472558281794140000009275374818296025768_" d="M353.6,228.4c0,0-2.7-2-5-1.9
																		s-8.9-0.1-9.8,10.2s6.5,12,7.4,12c0.7,0,2,0,2.7,0.1c0.9,0.1,2.1,0.8,2.9,1c3.3,0.8,10.3-0.2,12.7-10.4
																		s-6.4-11-6.4-11L353.6,228.4z"/>
																</defs>
																<clipPath id="SVGID_00000155839632380259520490000014104269316046194049_">
																	<use xlink:href="#SVGID_00000168113472558281794140000009275374818296025768_"  overflow="visible"/>
																</clipPath>
																<path clip-path="url(#SVGID_00000155839632380259520490000014104269316046194049_)" fill="#B60000" d="M351,226.5
																	c0,0,0.5,2.4,1.3,2.9s2-0.2,2.6-0.3s1.5-0.4,3,0s5.2,2.2,5.4,4.7c0.2,2.5-2,9.2-3.6,10.9c-1.7,1.6-8.3,2.7-10.1,2.7
																	c-1.8,0-8.5-1.3-8.5-1.3l-3.4,6.2l31.8,1.2l4.2-25.7L351,226.5z"/>
															</g>
														</g>
													</g>
												</g>
											</g>
										</g>
									</g>
								</g>
							</g>
						</g>
					</g>
				</g>
			</g>
		</g>
		<g>
			<g>
				<g>
					<g>
						<g>
							<g>
								<g>
									<g>
										<g>
											<g>
												<g>
													<g>
														<g>
															<g>
																<defs>
																	<path id="SVGID_00000145737796126045462960000017422960265699804840_" d="M353.6,228.4c0,0-2.7-2-5-1.9
																		s-8.9-0.1-9.8,10.2s6.5,12,7.4,12c0.7,0,2,0,2.7,0.1c0.9,0.1,2.1,0.8,2.9,1c3.3,0.8,10.3-0.2,12.7-10.4
																		s-6.4-11-6.4-11L353.6,228.4z"/>
																</defs>
																<clipPath id="SVGID_00000080917323726306443750000012269933652024348575_">
																	<use xlink:href="#SVGID_00000145737796126045462960000017422960265699804840_"  overflow="visible"/>
																</clipPath>
																
																	<path opacity="0.36" clip-path="url(#SVGID_00000080917323726306443750000012269933652024348575_)" fill="#FFFFFF" enable-background="new    " d="
																	M345.6,233.2c-0.9,0.9-2.1,2.5-2.6,2s-0.3-2.8,0.7-3.7c0.9-0.9,2.1-1.3,2.7-0.8
																	C346.9,231.1,346.5,232.2,345.6,233.2z"/>
															</g>
														</g>
													</g>
												</g>
											</g>
										</g>
									</g>
								</g>
							</g>
						</g>
					</g>
				</g>
			</g>
		</g>
		<g>
			<g>
				<g>
					<g>
						<g>
							<g>
								<g>
									<g>
										<g>
											<g>
												<g>
													<g>
														<g>
															<g>
																<defs>
																	<path id="SVGID_00000098907449433993247140000008068213473019806862_" d="M353.6,228.4c0,0-2.7-2-5-1.9
																		s-8.9-0.1-9.8,10.2s6.5,12,7.4,12c0.7,0,2,0,2.7,0.1c0.9,0.1,2.1,0.8,2.9,1c3.3,0.8,10.3-0.2,12.7-10.4
																		s-6.4-11-6.4-11L353.6,228.4z"/>
																</defs>
																<clipPath id="SVGID_00000078027373786031172740000008775118453802719889_">
																	<use xlink:href="#SVGID_00000098907449433993247140000008068213473019806862_"  overflow="visible"/>
																</clipPath>
																
																	<path opacity="0.36" clip-path="url(#SVGID_00000078027373786031172740000008775118453802719889_)" fill="#FFFFFF" enable-background="new    " d="
																	M343.6,237.6c-0.2,0-0.6,0.1-0.5-0.4s0.6-1.3,0.8-1.3c0.2,0,0.3,0.4,0.2,0.9C344.1,237.4,343.8,237.7,343.6,237.6z"
																	/>
															</g>
														</g>
													</g>
												</g>
											</g>
										</g>
									</g>
								</g>
							</g>
						</g>
					</g>
				</g>
			</g>
		</g>
	</g>
	<path fill="#603813" d="M359.6,223.5c-0.1,0.1-0.9,0.3-1.8,0.8c-0.8,0.5-4.3,4.4-4.3,4.4l-0.7-0.1c0,0,3.1-3,4.4-4.6
		C358.6,222.6,360.1,223.2,359.6,223.5z"/>
	<g>
		<g>
			<path id="XMLID_00000059280921844970752360000002216162801377801103_" fill="#5F9D00" d="M349.5,219.8c0,0,0.8,2.7,1.9,3.4
				s4.2,2.9,4.2,2.9s0.1-3.5-0.9-4.6C353.8,220.4,349.5,219.8,349.5,219.8z"/>
		</g>
		<g>
			<g>
				<g>
					<g>
						<g>
							<g>
								<g>
									<g>
										<g>
											<g>
												<g>
													<defs>
														<path id="SVGID_00000175307098038281313900000005341553100396059274_" d="M349.5,219.8c0,0,0.8,2.7,1.9,3.4
															s4.2,2.9,4.2,2.9s0.1-3.5-0.9-4.6C353.8,220.4,349.5,219.8,349.5,219.8z"/>
													</defs>
													<clipPath id="SVGID_00000109748620687436970230000006873659502184075688_">
														<use xlink:href="#SVGID_00000175307098038281313900000005341553100396059274_"  overflow="visible"/>
													</clipPath>
													<path clip-path="url(#SVGID_00000109748620687436970230000006873659502184075688_)" fill="#465F00" d="M349.3,219.2
														c0,0,1.7,2.6,2.5,3.2c0.8,0.7,3.2,2.1,3.6,2.9c0.4,0.8,0.4,1.5,0.4,1.5s-4.5-1.8-4.7-2s-3.1-5.1-3.1-5.1L349.3,219.2z"
														/>
												</g>
											</g>
										</g>
									</g>
								</g>
							</g>
						</g>
					</g>
				</g>
			</g>
		</g>
	</g>
</g>
<g>
	<g>
		<g>
			<path id="XMLID_00000029763625262453597620000011736129165779838363_" fill="#EE0000" d="M426.3,224.6c0,0-2.7-2-5-1.9
				s-8.9-0.1-9.8,10.2s6.5,12,7.4,12c0.7,0,2,0,2.7,0.1c0.9,0.1,2.1,0.8,2.9,1c3.3,0.8,10.3-0.2,12.7-10.4s-6.4-11-6.4-11
				L426.3,224.6z"/>
		</g>
		<g>
			<g>
				<g>
					<g>
						<g>
							<g>
								<g>
									<g>
										<g>
											<g>
												<g>
													<g>
														<g>
															<g>
																<defs>
																	<path id="SVGID_00000145033209999596237040000001735915335438209435_" d="M426.3,224.6c0,0-2.7-2-5-1.9
																		s-8.9-0.1-9.8,10.2s6.5,12,7.4,12c0.7,0,2,0,2.7,0.1c0.9,0.1,2.1,0.8,2.9,1c3.3,0.8,10.3-0.2,12.7-10.4
																		s-6.4-11-6.4-11L426.3,224.6z"/>
																</defs>
																<clipPath id="SVGID_00000102509979448697416570000007229913467304271252_">
																	<use xlink:href="#SVGID_00000145033209999596237040000001735915335438209435_"  overflow="visible"/>
																</clipPath>
																<path clip-path="url(#SVGID_00000102509979448697416570000007229913467304271252_)" fill="#B60000" d="M423.7,222.7
																	c0,0,0.5,2.4,1.3,2.9s2-0.2,2.6-0.3s1.5-0.4,3,0s5.2,2.2,5.4,4.7c0.2,2.5-2,9.2-3.6,10.9c-1.7,1.6-8.3,2.7-10.1,2.7
																	s-8.5-1.3-8.5-1.3l-3.4,6.2l31.8,1.2l4.2-25.7L423.7,222.7z"/>
															</g>
														</g>
													</g>
												</g>
											</g>
										</g>
									</g>
								</g>
							</g>
						</g>
					</g>
				</g>
			</g>
		</g>
		<g>
			<g>
				<g>
					<g>
						<g>
							<g>
								<g>
									<g>
										<g>
											<g>
												<g>
													<g>
														<g>
															<g>
																<defs>
																	<path id="SVGID_00000043427791184909294650000005726986061513930127_" d="M426.3,224.6c0,0-2.7-2-5-1.9
																		s-8.9-0.1-9.8,10.2s6.5,12,7.4,12c0.7,0,2,0,2.7,0.1c0.9,0.1,2.1,0.8,2.9,1c3.3,0.8,10.3-0.2,12.7-10.4
																		s-6.4-11-6.4-11L426.3,224.6z"/>
																</defs>
																<clipPath id="SVGID_00000057118375129581291910000017226009288303448963_">
																	<use xlink:href="#SVGID_00000043427791184909294650000005726986061513930127_"  overflow="visible"/>
																</clipPath>
																
																	<path opacity="0.36" clip-path="url(#SVGID_00000057118375129581291910000017226009288303448963_)" fill="#FFFFFF" enable-background="new    " d="
																	M418.3,229.3c-0.9,0.9-2.1,2.5-2.6,2s-0.3-2.8,0.7-3.7c0.9-0.9,2.1-1.3,2.7-0.8
																	C419.5,227.3,419.2,228.4,418.3,229.3z"/>
															</g>
														</g>
													</g>
												</g>
											</g>
										</g>
									</g>
								</g>
							</g>
						</g>
					</g>
				</g>
			</g>
		</g>
		<g>
			<g>
				<g>
					<g>
						<g>
							<g>
								<g>
									<g>
										<g>
											<g>
												<g>
													<g>
														<g>
															<g>
																<defs>
																	<path id="SVGID_00000115480837244588050190000017040878056523379846_" d="M426.3,224.6c0,0-2.7-2-5-1.9
																		s-8.9-0.1-9.8,10.2s6.5,12,7.4,12c0.7,0,2,0,2.7,0.1c0.9,0.1,2.1,0.8,2.9,1c3.3,0.8,10.3-0.2,12.7-10.4
																		s-6.4-11-6.4-11L426.3,224.6z"/>
																</defs>
																<clipPath id="SVGID_00000107561439935293584610000009968731995119532969_">
																	<use xlink:href="#SVGID_00000115480837244588050190000017040878056523379846_"  overflow="visible"/>
																</clipPath>
																
																	<path opacity="0.36" clip-path="url(#SVGID_00000107561439935293584610000009968731995119532969_)" fill="#FFFFFF" enable-background="new    " d="
																	M416.3,233.8c-0.2,0-0.6,0.1-0.5-0.4s0.6-1.3,0.8-1.3c0.2,0,0.3,0.4,0.2,0.9S416.5,233.9,416.3,233.8z"/>
															</g>
														</g>
													</g>
												</g>
											</g>
										</g>
									</g>
								</g>
							</g>
						</g>
					</g>
				</g>
			</g>
		</g>
	</g>
	<path fill="#603813" d="M432.3,219.7c-0.1,0.1-0.9,0.3-1.8,0.8c-0.8,0.5-4.3,4.4-4.3,4.4l-0.7-0.1c0,0,3.1-3,4.4-4.6
		C431.3,218.7,432.8,219.4,432.3,219.7z"/>
	<g>
		<g>
			<path id="XMLID_00000067221958783681751520000014810413780541500849_" fill="#5F9D00" d="M422.2,216c0,0,0.8,2.7,1.9,3.4
				s4.2,2.9,4.2,2.9s0.1-3.5-0.9-4.6C426.5,216.6,422.2,216,422.2,216z"/>
		</g>
		<g>
			<g>
				<g>
					<g>
						<g>
							<g>
								<g>
									<g>
										<g>
											<g>
												<g>
													<defs>
														<path id="SVGID_00000127737113041513340130000017189763883733208250_" d="M422.2,216c0,0,0.8,2.7,1.9,3.4
															s4.2,2.9,4.2,2.9s0.1-3.5-0.9-4.6C426.5,216.6,422.2,216,422.2,216z"/>
													</defs>
													<clipPath id="SVGID_00000067945132506142446390000010139219565056838581_">
														<use xlink:href="#SVGID_00000127737113041513340130000017189763883733208250_"  overflow="visible"/>
													</clipPath>
													<path clip-path="url(#SVGID_00000067945132506142446390000010139219565056838581_)" fill="#465F00" d="M421.9,215.4
														c0,0,1.7,2.6,2.5,3.2c0.8,0.7,3.2,2.1,3.6,2.9c0.4,0.8,0.4,1.5,0.4,1.5s-4.5-1.8-4.7-2c-0.1-0.2-3.1-5.1-3.1-5.1
														L421.9,215.4z"/>
												</g>
											</g>
										</g>
									</g>
								</g>
							</g>
						</g>
					</g>
				</g>
			</g>
		</g>
	</g>
</g>
<g>
	<g>
		<g>
			<path id="XMLID_00000121249838269895991990000013865551664781133965_" fill="#EE0000" d="M330.9,216.3c0,0-1.7-1.3-3.2-1.2
				s-5.7-0.1-6.3,6.5c-0.6,6.6,4.1,7.7,4.7,7.7c0.4,0,1.3,0,1.7,0.1c0.5,0.1,1.3,0.5,1.9,0.7c2.1,0.5,6.5-0.1,8.1-6.7
				c1.5-6.5-4.1-7-4.1-7L330.9,216.3z"/>
		</g>
		<g>
			<g>
				<g>
					<g>
						<g>
							<g>
								<g>
									<g>
										<g>
											<g>
												<g>
													<g>
														<g>
															<g>
																<defs>
																	<path id="SVGID_00000034780120584899244040000006068356800205297836_" d="M330.9,216.3c0,0-1.7-1.3-3.2-1.2
																		s-5.7-0.1-6.3,6.5c-0.6,6.6,4.1,7.7,4.7,7.7c0.4,0,1.3,0,1.7,0.1c0.5,0.1,1.3,0.5,1.9,0.7c2.1,0.5,6.5-0.1,8.1-6.7
																		c1.5-6.5-4.1-7-4.1-7L330.9,216.3z"/>
																</defs>
																<clipPath id="SVGID_00000132076943687801439540000018312386581595627930_">
																	<use xlink:href="#SVGID_00000034780120584899244040000006068356800205297836_"  overflow="visible"/>
																</clipPath>
																<path clip-path="url(#SVGID_00000132076943687801439540000018312386581595627930_)" fill="#B60000" d="M329.2,215.1
																	c0,0,0.3,1.5,0.8,1.8s1.3-0.1,1.7-0.2c0.4-0.1,1-0.2,1.9,0c1,0.2,3.3,1.4,3.5,3c0.1,1.6-1.2,5.9-2.3,6.9
																	s-5.3,1.7-6.4,1.7s-5.4-0.9-5.4-0.9l-2.2,3.9l20.3,0.8l2.7-16.4L329.2,215.1z"/>
															</g>
														</g>
													</g>
												</g>
											</g>
										</g>
									</g>
								</g>
							</g>
						</g>
					</g>
				</g>
			</g>
		</g>
		<g>
			<g>
				<g>
					<g>
						<g>
							<g>
								<g>
									<g>
										<g>
											<g>
												<g>
													<g>
														<g>
															<g>
																<defs>
																	<path id="SVGID_00000160888301557271670540000014850460441938680463_" d="M330.9,216.3c0,0-1.7-1.3-3.2-1.2
																		s-5.7-0.1-6.3,6.5c-0.6,6.6,4.1,7.7,4.7,7.7c0.4,0,1.3,0,1.7,0.1c0.5,0.1,1.3,0.5,1.9,0.7c2.1,0.5,6.5-0.1,8.1-6.7
																		c1.5-6.5-4.1-7-4.1-7L330.9,216.3z"/>
																</defs>
																<clipPath id="SVGID_00000094581264849274287640000008567397773954675098_">
																	<use xlink:href="#SVGID_00000160888301557271670540000014850460441938680463_"  overflow="visible"/>
																</clipPath>
																
																	<path opacity="0.36" clip-path="url(#SVGID_00000094581264849274287640000008567397773954675098_)" fill="#FFFFFF" enable-background="new    " d="
																	M325.7,219.3c-0.6,0.6-1.3,1.6-1.7,1.3c-0.3-0.3-0.2-1.8,0.4-2.3c0.6-0.6,1.4-0.8,1.7-0.5
																	C326.5,218,326.3,218.7,325.7,219.3z"/>
															</g>
														</g>
													</g>
												</g>
											</g>
										</g>
									</g>
								</g>
							</g>
						</g>
					</g>
				</g>
			</g>
		</g>
		<g>
			<g>
				<g>
					<g>
						<g>
							<g>
								<g>
									<g>
										<g>
											<g>
												<g>
													<g>
														<g>
															<g>
																<defs>
																	<path id="SVGID_00000072256262121547419790000012987847683478214824_" d="M330.9,216.3c0,0-1.7-1.3-3.2-1.2
																		s-5.7-0.1-6.3,6.5c-0.6,6.6,4.1,7.7,4.7,7.7c0.4,0,1.3,0,1.7,0.1c0.5,0.1,1.3,0.5,1.9,0.7c2.1,0.5,6.5-0.1,8.1-6.7
																		c1.5-6.5-4.1-7-4.1-7L330.9,216.3z"/>
																</defs>
																<clipPath id="SVGID_00000155844605214085976010000008114199243728948875_">
																	<use xlink:href="#SVGID_00000072256262121547419790000012987847683478214824_"  overflow="visible"/>
																</clipPath>
																
																	<path opacity="0.36" clip-path="url(#SVGID_00000155844605214085976010000008114199243728948875_)" fill="#FFFFFF" enable-background="new    " d="
																	M324.5,222.1c-0.1,0-0.4,0.1-0.3-0.2s0.4-0.8,0.5-0.8s0.2,0.3,0.1,0.6C324.8,222,324.6,222.2,324.5,222.1z"/>
															</g>
														</g>
													</g>
												</g>
											</g>
										</g>
									</g>
								</g>
							</g>
						</g>
					</g>
				</g>
			</g>
		</g>
	</g>
	<path fill="#603813" d="M334.7,213.2c-0.1,0.1-0.5,0.2-1.1,0.5c-0.5,0.3-2.7,2.8-2.7,2.8l-0.4-0.1c0,0,2-1.9,2.8-2.9
		C334.1,212.5,335,212.9,334.7,213.2z"/>
	<g>
		<g>
			<path id="XMLID_00000054957768008194894330000003550310060313327799_" fill="#5F9D00" d="M328.3,210.8c0,0,0.5,1.7,1.2,2.1
				c0.7,0.4,2.7,1.9,2.7,1.9s0.1-2.3-0.6-2.9C331,211.2,328.3,210.8,328.3,210.8z"/>
		</g>
		<g>
			<g>
				<g>
					<g>
						<g>
							<g>
								<g>
									<g>
										<g>
											<g>
												<g>
													<defs>
														<path id="SVGID_00000043436607250259927350000007409186612549453204_" d="M328.3,210.8c0,0,0.5,1.7,1.2,2.1
															c0.7,0.4,2.7,1.9,2.7,1.9s0.1-2.3-0.6-2.9C331,211.2,328.3,210.8,328.3,210.8z"/>
													</defs>
													<clipPath id="SVGID_00000003811007109248257730000006627569978099313041_">
														<use xlink:href="#SVGID_00000043436607250259927350000007409186612549453204_"  overflow="visible"/>
													</clipPath>
													<path clip-path="url(#SVGID_00000003811007109248257730000006627569978099313041_)" fill="#465F00" d="M328.1,210.4
														c0,0,1.1,1.6,1.6,2s2,1.3,2.3,1.9s0.2,0.9,0.2,0.9s-2.9-1.2-3-1.3s-2-3.2-2-3.2L328.1,210.4z"/>
												</g>
											</g>
										</g>
									</g>
								</g>
							</g>
						</g>
					</g>
				</g>
			</g>
		</g>
	</g>
</g>
<g>
	<g>
		<g>
			<path id="XMLID_00000005240897946534824460000002014230068796479161_" fill="#EE0000" d="M422.7,254.2c0,0-1.7-1.3-3.2-1.2
				s-5.7-0.1-6.3,6.5c-0.6,6.6,4.1,7.7,4.7,7.7c0.4,0,1.3,0,1.7,0.1c0.5,0.1,1.3,0.5,1.9,0.7c2.1,0.5,6.5-0.1,8.1-6.7
				c1.5-6.5-4.1-7-4.1-7L422.7,254.2z"/>
		</g>
		<g>
			<g>
				<g>
					<g>
						<g>
							<g>
								<g>
									<g>
										<g>
											<g>
												<g>
													<g>
														<g>
															<g>
																<defs>
																	<path id="SVGID_00000153672812969505622380000011043842286476402053_" d="M422.7,254.2c0,0-1.7-1.3-3.2-1.2
																		s-5.7-0.1-6.3,6.5c-0.6,6.6,4.1,7.7,4.7,7.7c0.4,0,1.3,0,1.7,0.1c0.5,0.1,1.3,0.5,1.9,0.7c2.1,0.5,6.5-0.1,8.1-6.7
																		c1.5-6.5-4.1-7-4.1-7L422.7,254.2z"/>
																</defs>
																<clipPath id="SVGID_00000175297695527021930850000014488005163703572666_">
																	<use xlink:href="#SVGID_00000153672812969505622380000011043842286476402053_"  overflow="visible"/>
																</clipPath>
																<path clip-path="url(#SVGID_00000175297695527021930850000014488005163703572666_)" fill="#B60000" d="M421,253
																	c0,0,0.3,1.5,0.8,1.8s1.3-0.1,1.7-0.2s1-0.2,1.9,0c1,0.2,3.3,1.4,3.5,3c0.1,1.6-1.2,5.9-2.3,6.9
																	c-1.1,1-5.3,1.7-6.4,1.7s-5.4-0.9-5.4-0.9l-2.2,3.9l20.3,0.8l2.7-16.4L421,253z"/>
															</g>
														</g>
													</g>
												</g>
											</g>
										</g>
									</g>
								</g>
							</g>
						</g>
					</g>
				</g>
			</g>
		</g>
		<g>
			<g>
				<g>
					<g>
						<g>
							<g>
								<g>
									<g>
										<g>
											<g>
												<g>
													<g>
														<g>
															<g>
																<defs>
																	<path id="SVGID_00000065780809956152908750000003501033963347916430_" d="M422.7,254.2c0,0-1.7-1.3-3.2-1.2
																		s-5.7-0.1-6.3,6.5c-0.6,6.6,4.1,7.7,4.7,7.7c0.4,0,1.3,0,1.7,0.1c0.5,0.1,1.3,0.5,1.9,0.7c2.1,0.5,6.5-0.1,8.1-6.7
																		c1.5-6.5-4.1-7-4.1-7L422.7,254.2z"/>
																</defs>
																<clipPath id="SVGID_00000125590813006012442050000003310861639954189753_">
																	<use xlink:href="#SVGID_00000065780809956152908750000003501033963347916430_"  overflow="visible"/>
																</clipPath>
																
																	<path opacity="0.36" clip-path="url(#SVGID_00000125590813006012442050000003310861639954189753_)" fill="#FFFFFF" enable-background="new    " d="
																	M417.6,257.2c-0.6,0.6-1.3,1.6-1.7,1.3c-0.3-0.3-0.2-1.8,0.4-2.3c0.6-0.6,1.4-0.8,1.7-0.5
																	C418.4,255.9,418.2,256.6,417.6,257.2z"/>
															</g>
														</g>
													</g>
												</g>
											</g>
										</g>
									</g>
								</g>
							</g>
						</g>
					</g>
				</g>
			</g>
		</g>
		<g>
			<g>
				<g>
					<g>
						<g>
							<g>
								<g>
									<g>
										<g>
											<g>
												<g>
													<g>
														<g>
															<g>
																<defs>
																	<path id="SVGID_00000019639358830656668180000008994090531450279852_" d="M422.7,254.2c0,0-1.7-1.3-3.2-1.2
																		s-5.7-0.1-6.3,6.5c-0.6,6.6,4.1,7.7,4.7,7.7c0.4,0,1.3,0,1.7,0.1c0.5,0.1,1.3,0.5,1.9,0.7c2.1,0.5,6.5-0.1,8.1-6.7
																		c1.5-6.5-4.1-7-4.1-7L422.7,254.2z"/>
																</defs>
																<clipPath id="SVGID_00000142171517613134594830000009793285911879542194_">
																	<use xlink:href="#SVGID_00000019639358830656668180000008994090531450279852_"  overflow="visible"/>
																</clipPath>
																
																	<path opacity="0.36" clip-path="url(#SVGID_00000142171517613134594830000009793285911879542194_)" fill="#FFFFFF" enable-background="new    " d="
																	M416.3,260.1c-0.1,0-0.4,0.1-0.3-0.2c0.1-0.3,0.4-0.8,0.5-0.8s0.2,0.3,0.1,0.6C416.6,259.9,416.4,260.1,416.3,260.1
																	z"/>
															</g>
														</g>
													</g>
												</g>
											</g>
										</g>
									</g>
								</g>
							</g>
						</g>
					</g>
				</g>
			</g>
		</g>
	</g>
	<path fill="#603813" d="M426.5,251.1c-0.1,0.1-0.5,0.2-1.1,0.5c-0.5,0.3-2.7,2.8-2.7,2.8l-0.4-0.1c0,0,2-1.9,2.8-2.9
		C425.9,250.5,426.8,250.9,426.5,251.1z"/>
	<g>
		<g>
			<path id="XMLID_00000076570045198771061340000018428081976553330110_" fill="#5F9D00" d="M420.1,248.7c0,0,0.5,1.7,1.2,2.1
				c0.7,0.4,2.7,1.9,2.7,1.9s0.1-2.3-0.6-2.9C422.8,249.1,420.1,248.7,420.1,248.7z"/>
		</g>
		<g>
			<g>
				<g>
					<g>
						<g>
							<g>
								<g>
									<g>
										<g>
											<g>
												<g>
													<defs>
														<path id="SVGID_00000050648445964579136370000014278353124308753285_" d="M420.1,248.7c0,0,0.5,1.7,1.2,2.1
															c0.7,0.4,2.7,1.9,2.7,1.9s0.1-2.3-0.6-2.9C422.8,249.1,420.1,248.7,420.1,248.7z"/>
													</defs>
													<clipPath id="SVGID_00000025429182052667611130000013489048795559804089_">
														<use xlink:href="#SVGID_00000050648445964579136370000014278353124308753285_"  overflow="visible"/>
													</clipPath>
													<path clip-path="url(#SVGID_00000025429182052667611130000013489048795559804089_)" fill="#465F00" d="M419.9,248.3
														c0,0,1.1,1.6,1.6,2s2,1.3,2.3,1.9c0.2,0.5,0.2,0.9,0.2,0.9s-2.9-1.2-3-1.3s-2-3.2-2-3.2L419.9,248.3z"/>
												</g>
											</g>
										</g>
									</g>
								</g>
							</g>
						</g>
					</g>
				</g>
			</g>
		</g>
	</g>
</g>
<rect x="386" y="230.2" transform="matrix(9.288322e-02 -0.9957 0.9957 9.288322e-02 109.6556 608.7136)" fill="#7F16FF" width="5.7" height="27.9"/>
<g>
	
		<rect x="456" y="239.3" transform="matrix(9.288322e-02 -0.9957 0.9957 9.288322e-02 161.5233 688.882)" fill="#7F16FF" width="5.7" height="33"/>
	
		<rect x="457.1" y="227.4" transform="matrix(9.288322e-02 -0.9957 0.9957 9.288322e-02 174.3918 679.136)" fill="#7F16FF" width="5.7" height="33"/>
</g>
<g>
	<polygon fill="#374A55" points="125.4,326.2 134.8,348.5 138.9,387.7 128.1,389.5 	"/>
	<polygon fill="#4B4A55" points="125.4,326.2 126.7,326 136.7,349 134.8,348.5 	"/>
</g>
<g>
	<path fill="#7F16FF" d="M494.1,261v-1.6c-0.1-3.3,1.4-6.8,4.8-10.2c3-3,4.8-5.2,5-7.9c0.3-3.1-1.5-5.4-5.3-5.8
		c-2.2-0.2-4.7,0.3-6.3,1.3l-1.1-4c2.1-1.3,5.7-1.9,8.9-1.6c7,0.7,9.8,5.3,9.3,9.9c-0.4,4.1-3,6.9-6.2,10.1c-3,2.9-4.2,5.5-4.3,8.6
		l-0.1,1.6L494.1,261z M491.9,269.4c0.2-2.3,1.9-3.7,4-3.5s3.4,1.9,3.2,4.2c-0.2,2.1-1.8,3.6-4,3.4
		C493,273.3,491.7,271.5,491.9,269.4z"/>
</g>
<g>
	<g>
		<path id="XMLID_00000031901619319947969680000007076340302694946736_" fill="#506B7C" d="M170.8,227.3
			c3.3,25.4-13.1,50.1-35.7,53.1s-43.7-15.2-47-40.6s11.4-67.5,34-70.5C144.6,166.4,167.4,201.9,170.8,227.3z"/>
	</g>
	<g>
		<g>
			<defs>
				<path id="SVGID_00000070107065491177167770000005275923951865881512_" d="M170.8,227.3c3.3,25.4-13.1,50.1-35.7,53.1
					s-43.7-15.2-47-40.6s11.4-67.5,34-70.5C144.6,166.4,167.4,201.9,170.8,227.3z"/>
			</defs>
			<clipPath id="SVGID_00000161615563806798744070000009617806033336339387_">
				<use xlink:href="#SVGID_00000070107065491177167770000005275923951865881512_"  overflow="visible"/>
			</clipPath>
			<g clip-path="url(#SVGID_00000161615563806798744070000009617806033336339387_)">
				<g>
					<g>
						<g>
							<path fill="#647C8B" d="M192.6,261c-0.1-0.5-0.3-3.3-0.6-7.9c-0.1-2.3-0.5-5-0.8-8.1c-0.2-1.5-0.3-3.2-0.6-4.9
								s-0.5-3.5-0.8-5.3c-0.1-0.9-0.3-1.9-0.4-2.8c-0.2-1-0.4-1.9-0.5-2.9c-0.4-2-0.8-4-1.2-6.1s-1-4.2-1.5-6.4s-1-4.4-1.7-6.6
								c-0.6-2.2-1.3-4.5-1.9-6.8c-0.7-2.3-1.5-4.5-2.2-6.8c-0.4-1.1-0.7-2.3-1.1-3.4c-0.4-1.1-0.8-2.3-1.3-3.4
								c-0.9-2.3-1.6-4.6-2.6-6.8c-3.6-9.1-7.9-17.8-12.2-25.8c-1.1-2-2.2-3.9-3.3-5.8c-0.6-0.9-1.1-1.9-1.6-2.8
								c-0.6-0.9-1.1-1.8-1.7-2.7c-1.1-1.8-2.2-3.5-3.2-5.1c-1.1-1.6-2.2-3.2-3.2-4.7s-2-2.9-3-4.3c-1-1.3-1.9-2.6-2.8-3.8
								c-0.9-1.2-1.7-2.3-2.5-3.3s-1.6-1.9-2.2-2.7c-2.7-3.3-4.2-5.1-4.2-5.1c2.4,0.8,4.8,1.6,7.3,2.5l3.7,1.3l3.6,1.4
								c7.2,10.3,13.5,21.2,18.9,32.3c5.4,11.2,9.9,22.8,13.5,34.5C189.4,212.2,192.9,236.7,192.6,261z"/>
							<path fill="#647C8B" d="M183.8,261.3c-0.1-0.5-0.3-3.2-0.6-7.6c-0.1-2.2-0.5-4.8-0.8-7.8c-0.2-1.5-0.3-3.1-0.6-4.7
								c-0.2-1.6-0.5-3.4-0.8-5.1c-0.1-0.9-0.3-1.8-0.4-2.7c-0.1-0.9-0.3-1.9-0.5-2.8c-0.4-1.9-0.7-3.9-1.1-5.9
								c-0.4-2-0.9-4-1.4-6.1s-1-4.2-1.6-6.3s-1.2-4.3-1.8-6.5c-0.7-2.2-1.4-4.4-2.1-6.6c-0.4-1.1-0.7-2.2-1.1-3.3
								c-0.4-1.1-0.8-2.2-1.2-3.3c-0.8-2.2-1.6-4.4-2.5-6.6c-3.5-8.7-7.6-17.1-11.8-24.9c-1.1-1.9-2.2-3.8-3.2-5.6
								c-0.5-0.9-1-1.8-1.6-2.7c-0.5-0.9-1.1-1.7-1.6-2.6c-1.1-1.7-2.1-3.3-3.1-4.9c-1.1-1.6-2.1-3.1-3.1-4.5s-1.9-2.8-2.9-4.1
								s-1.9-2.5-2.7-3.6c-0.9-1.1-1.7-2.2-2.4-3.2c-0.8-0.9-1.5-1.8-2.1-2.6c-2.6-3.1-4.1-4.9-4.1-4.9c2.4,0.7,4.7,1.5,7.1,2.3
								l3.6,1.2l3.6,1.3c6.9,10,12.9,20.4,18.1,31.2c5.2,10.8,9.5,22,12.9,33.3C180.8,214.4,184.2,238,183.8,261.3z"/>
							<path fill="#647C8B" d="M175.1,261.7c-0.1-0.5-0.3-3.1-0.6-7.3c-0.1-2.1-0.5-4.6-0.7-7.5c-0.2-1.4-0.3-2.9-0.5-4.5
								s-0.5-3.2-0.7-4.9c-2-13.7-6.6-31.4-13.3-48.2c-3.3-8.4-7.3-16.5-11.3-23.9c-1-1.8-2.1-3.6-3.1-5.4c-0.5-0.9-1-1.8-1.5-2.6
								s-1.1-1.7-1.6-2.5c-1-1.6-2-3.2-3-4.8c-1-1.5-2-2.9-3-4.3c-1-1.4-1.8-2.7-2.8-3.9c-0.9-1.2-1.8-2.4-2.6-3.5s-1.6-2.1-2.3-3
								s-1.4-1.7-2.1-2.5c-2.5-3-3.9-4.7-3.9-4.7c2.3,0.7,4.6,1.4,7,2.1l3.5,1.1l3.5,1.2c6.6,9.6,12.4,19.7,17.4,30.1
								c4.9,10.4,9.1,21.2,12.3,32.1C172.3,216.6,175.4,239.3,175.1,261.7z"/>
							<path fill="#647C8B" d="M166.3,262.1c-0.1-0.4-0.3-2.9-0.6-7c-0.1-2-0.4-4.4-0.7-7.2c-0.2-1.4-0.3-2.8-0.5-4.3
								s-0.5-3.1-0.7-4.7c-1.9-13.2-6.3-30.2-12.8-46.3c-3.2-8.1-7-15.8-10.9-23c-1-1.8-2-3.5-3-5.2c-0.5-0.8-0.9-1.7-1.4-2.5
								s-1-1.6-1.5-2.4c-1-1.6-1.9-3.1-2.9-4.6c-1-1.4-1.9-2.8-2.9-4.1c-0.9-1.3-1.8-2.6-2.7-3.8c-0.9-1.2-1.7-2.3-2.5-3.3
								s-1.5-2-2.2-2.9s-1.4-1.7-2-2.4c-2.4-2.9-3.7-4.5-3.7-4.5c2.2,0.6,4.5,1.2,6.8,1.9l3.5,1l3.4,1.1
								c6.3,9.2,11.8,18.9,16.6,28.9c4.7,10,8.7,20.4,11.8,30.9C163.7,218.9,166.7,240.6,166.3,262.1z"/>
							<path fill="#647C8B" d="M157.5,262.5c-0.1-0.4-0.3-2.8-0.5-6.7c-0.1-1.9-0.4-4.2-0.7-6.9c-0.2-1.3-0.2-2.7-0.5-4.1
								c-0.2-1.4-0.4-3-0.7-4.5c-1.9-12.6-6-28.9-12.2-44.3c-3.1-7.7-6.7-15.2-10.4-22c-1-1.7-1.9-3.3-2.8-4.9
								c-0.5-0.8-0.9-1.6-1.4-2.4c-0.5-0.8-1-1.5-1.4-2.3c-0.9-1.5-1.9-3-2.8-4.4s-1.9-2.7-2.7-4c-0.9-1.3-1.7-2.5-2.5-3.6
								s-1.7-2.2-2.4-3.2c-0.8-1-1.5-1.9-2.1-2.8c-0.7-0.8-1.3-1.6-1.9-2.3c-2.3-2.8-3.6-4.3-3.6-4.3c2.2,0.5,4.4,1.1,6.6,1.7
								l3.4,0.9l3.3,1c6,8.9,11.3,18.2,15.9,27.8c4.5,9.6,8.3,19.6,11.2,29.7C155.1,221.1,157.9,242,157.5,262.5z"/>
						</g>
					</g>
				</g>
			</g>
		</g>
	</g>
</g>
<circle fill="#E9FF84" cx="538.8" cy="232.7" r="1.6"/>
<circle fill="#E9FF84" cx="538.1" cy="238.9" r="1.6"/>
<circle fill="#E9FF84" cx="537.4" cy="245.1" r="1.6"/>
<circle fill="#E9FF84" cx="536.7" cy="251.3" r="1.6"/>
<circle fill="#E9FF84" cx="535.9" cy="257.4" r="1.6"/>
<circle fill="#E9FF84" cx="535.2" cy="263.6" r="1.6"/>
<path fill="#FFF1AA" d="M290.9,222.1c6.1,0,6,8,6,16.7s-4.9,15.7-11,15.7s-6.7-7-6.7-15.7C279.2,226.5,287,222.1,290.9,222.1z"/>
<path fill="#FFF1AA" d="M488.5,283.9c7,0.7,15.4,3.8,14.9,8.4c-0.4,4.6-3.1,5-16.1,5.6c-14.9-0.8-15.3-3.8-14.9-8.3
	C472.9,284.9,481.5,283.2,488.5,283.9z"/>
<g>
	<g>
		<path id="XMLID_00000049926285907025701030000013979788625214219182_" fill="#7391AA" d="M182.2,355.1c0,0-30.7,7.8-41.1,8.7
			c-10.4,0.9-42-1.3-42-1.3L87.6,234.7c0,0,12.3-15.5,42.9-18.2s40.3,10.8,40.3,10.8L182.2,355.1z"/>
	</g>
	<g>
		<g>
			<g>
				<g>
					<g>
						<g>
							<g>
								<defs>
									<path id="SVGID_00000142142383305202771050000005643871382585856416_" d="M182.2,355.1c0,0-30.7,7.8-41.1,8.7
										c-10.4,0.9-42-1.3-42-1.3L87.6,234.7c0,0,12.3-15.5,42.9-18.2s40.3,10.8,40.3,10.8L182.2,355.1z"/>
								</defs>
								<clipPath id="SVGID_00000143605589333800780970000002656099671708699269_">
									<use xlink:href="#SVGID_00000142142383305202771050000005643871382585856416_"  overflow="visible"/>
								</clipPath>
								<polygon clip-path="url(#SVGID_00000143605589333800780970000002656099671708699269_)" fill="#3E78AA" points="153.8,212.5 
									165.6,368.2 201.9,357.2 182.3,202.4 								"/>
							</g>
						</g>
					</g>
				</g>
			</g>
		</g>
	</g>
	<g>
		<g>
			<g>
				<g>
					<g>
						<g>
							<g>
								<defs>
									<path id="SVGID_00000072261874240261553720000009179707522780093572_" d="M182.2,355.1c0,0-30.7,7.8-41.1,8.7
										c-10.4,0.9-42-1.3-42-1.3L87.6,234.7c0,0,12.3-15.5,42.9-18.2s40.3,10.8,40.3,10.8L182.2,355.1z"/>
								</defs>
								<clipPath id="SVGID_00000047738800404211236850000003989057502955627446_">
									<use xlink:href="#SVGID_00000072261874240261553720000009179707522780093572_"  overflow="visible"/>
								</clipPath>
								<polygon clip-path="url(#SVGID_00000047738800404211236850000003989057502955627446_)" fill="#97A5AA" points="71.8,220.7 
									83.6,376.3 120,365.4 100.4,210.6 								"/>
							</g>
						</g>
					</g>
				</g>
			</g>
		</g>
	</g>
	<g>
		<g>
			<g>
				<g>
					<g>
						<g>
							<g>
								<defs>
									<path id="SVGID_00000169524881352180969450000006611320570937674370_" d="M182.2,355.1c0,0-30.7,7.8-41.1,8.7
										c-10.4,0.9-42-1.3-42-1.3L87.6,234.7c0,0,12.3-15.5,42.9-18.2s40.3,10.8,40.3,10.8L182.2,355.1z"/>
								</defs>
								<clipPath id="SVGID_00000007412548203319871560000004632934773586090142_">
									<use xlink:href="#SVGID_00000169524881352180969450000006611320570937674370_"  overflow="visible"/>
								</clipPath>
								<polygon clip-path="url(#SVGID_00000007412548203319871560000004632934773586090142_)" fill="#577DAA" points="141,220 
									152.6,375.2 154.8,364.1 142.6,209.8 								"/>
							</g>
						</g>
					</g>
				</g>
			</g>
		</g>
	</g>
</g>
<polygon fill="#506B7C" points="173.3,318.2 199.5,341.4 209.9,392.4 179.8,390.2 "/>
<polygon fill="#506B7C" points="141.2,324.6 153.8,349 161,400.4 147.6,396.6 "/>
<path fill="#0800B4" d="M395.6,137.6"/>
<path fill="#0800B4" d="M395.6,137.6"/>
<circle fill="#00012E" cx="133" cy="257.1" r="11"/>
<g>
	
		<rect x="422.7" y="159.2" transform="matrix(2.083081e-02 -0.9998 0.9998 2.083081e-02 246.9458 593.8788)" fill="#CF1721" width="8" height="23.3"/>
	
		<rect x="424.6" y="165" transform="matrix(2.083081e-02 -0.9998 0.9998 2.083081e-02 241.1084 599.478)" fill="#007C30" width="4" height="23.3"/>
</g>
<polygon fill="#6D6B7C" points="147.2,323.3 141.2,324.6 153.8,349 158.3,347.6 "/>
<polygon fill="#58527C" points="166.2,400.4 161,400.4 153.8,349 158.3,347.6 "/>
<g>
	<polygon fill="#506B7C" points="105.2,326.9 87.6,354.5 86.4,406.6 110.2,398.8 	"/>
	<polygon fill="#6D6B7C" points="105.2,326.9 102,326.9 83,355.3 87.6,354.5 	"/>
	<polygon fill="#58527C" points="86.4,406.6 83,406.6 83,355.3 87.6,354.5 	"/>
</g>
<polygon fill="#6D6B7C" points="173.3,318.2 176,318.2 200.1,339.6 199.5,341.4 "/>
<polygon fill="#58527C" points="209.9,392.4 211.9,391.5 200.1,339.6 199.5,341.4 "/>
</svg>
