<?xml version="1.0" encoding="utf-8"?>
<!-- Generator: Adobe Illustrator 26.0.3, SVG Export Plug-In . SVG Version: 6.00 Build 0)  -->
<svg version="1.1" id="Слой_1" xmlns="http://www.w3.org/2000/svg" xmlns:xlink="http://www.w3.org/1999/xlink" x="0px" y="0px"
	 viewBox="0 0 1920 386" enable-background="new 0 0 1920 386" xml:space="preserve">
<rect x="336.2" fill="#5766A3" width="1368.5" height="386"/>
<rect x="1179.8" y="-321.4" transform="matrix(0.6755 -0.7373 0.7373 0.6755 288.8185 985.0654)" fill="#5758A3" width="167.8" height="971.5"/>
<rect x="618.6" y="-205.6" transform="matrix(0.6755 -0.7373 0.7373 0.6755 -1.7284 556.3786)" fill="#5758A3" width="25.3" height="971.5"/>
<rect x="1194" y="-205.5" transform="matrix(0.6755 -0.7373 0.7373 0.6755 184.8984 980.6202)" fill="#5758A3" width="25.3" height="971.5"/>
<rect x="596.6" y="-154" transform="matrix(0.6755 -0.7373 0.7373 0.6755 -49.4492 551.0911)" fill="#5758A3" width="9.7" height="971.5"/>
<path fill="none" stroke="#05000A" stroke-miterlimit="10" d="M998.4,166.2c0,0,14.8,27.2,10.4,49.7c-4.4,22.5-9.5,19.2,0,43.8
	s86.5,69.7,85.4,66.5"/>
<path fill="none" stroke="#05000A" stroke-miterlimit="10" d="M925.8,175.6c0,0,22.9,68.7,46.7,70.5c25.9,2-6.3,35.8,16.9,51.6
	c23.2,15.9,107.5,24.7,104.7,22.5"/>
<path fill="none" stroke="#05000A" stroke-miterlimit="10" d="M647.6,294c0,0,26.4,67.4,50.2,68.1c26,0.7,51.8-22.3,75.8-7.6
	s51.3,39.3,141.1,4.1"/>
<g>
	<g>
		<path id="XMLID_00000067926039818651569040000013288549089587647388_" fill="#0C286A" d="M1319.4,194.1
			c-13.7,5.2-47.9,33.7-47.9,33.7l-4.3,157l232-0.6l-30.9-190.1c0,0-25.9-11.3-35.1-12.8C1405,176.8,1346.2,183.9,1319.4,194.1z"/>
	</g>
	<g>
		<defs>
			<path id="SVGID_1_" d="M1319.4,194.1c-13.7,5.2-47.9,33.7-47.9,33.7l-4.3,157l232-0.6l-30.9-190.1c0,0-25.9-11.3-35.1-12.8
				C1405,176.8,1346.2,183.9,1319.4,194.1z"/>
		</defs>
		<clipPath id="SVGID_00000055693970965361102210000013995794691905336723_">
			<use xlink:href="#SVGID_1_"  overflow="visible"/>
		</clipPath>
		<path clip-path="url(#SVGID_00000055693970965361102210000013995794691905336723_)" fill="#0C1E52" d="M1324.6,186.5
			c8.5,9.3,22.1-7.1,48.5,38.5s54.1,51.5,75.5,66.8s9.3-24.3,22.1,40s40.6,88.6,43.8,88.6c3.2,0,105.9-99.1,106.6-102.7
			c0.7-3.6-114.8-176.1-114.8-176.1L1324.6,186.5z"/>
	</g>
	<g>
		<defs>
			<path id="SVGID_00000101083007825841997660000017938781870479497863_" d="M1319.4,194.1c-13.7,5.2-47.9,33.7-47.9,33.7l-4.3,157
				l232-0.6l-30.9-190.1c0,0-25.9-11.3-35.1-12.8C1405,176.8,1346.2,183.9,1319.4,194.1z"/>
		</defs>
		<clipPath id="SVGID_00000162332905383240345080000015213964297304113538_">
			<use xlink:href="#SVGID_00000101083007825841997660000017938781870479497863_"  overflow="visible"/>
		</clipPath>
		<path clip-path="url(#SVGID_00000162332905383240345080000015213964297304113538_)" fill="#0C1E52" d="M1058.3,338.9
			c8.5,9.3,22.1-7.1,48.5,38.5s54.1,51.5,75.5,66.8s9.3-24.3,22.1,40s40.6,88.6,43.8,88.6c3.2,0,105.9-99.1,106.6-102.7
			S1240,294,1240,294L1058.3,338.9z"/>
	</g>
</g>
<ellipse fill="#FFF5B8" cx="1065.1" cy="326.3" rx="29.2" ry="32.3"/>
<g>
	<g>
		<polygon id="XMLID_00000020371179446980531910000018443314313277564068_" fill="#0C286A" points="1271.6,227.8 1206.6,326.3 
			1082.3,303.7 1082.3,358.7 1220.8,393.7 1309.5,305.3 		"/>
	</g>
	<g>
		<defs>
			<polygon id="SVGID_00000142862005968640848090000010223746753625096339_" points="1271.6,227.8 1206.6,326.3 1082.3,303.7 
				1082.3,358.7 1220.8,393.7 1309.5,305.3 			"/>
		</defs>
		<clipPath id="SVGID_00000048485962985929996500000014874578331012440974_">
			<use xlink:href="#SVGID_00000142862005968640848090000010223746753625096339_"  overflow="visible"/>
		</clipPath>
		<path clip-path="url(#SVGID_00000048485962985929996500000014874578331012440974_)" fill="#0C1E52" d="M1075.1,361.8
			c0,0-1.4-12.8,23.5-7.1c25,5.7,76.4,20.2,86.3,21.9c9.9,1.6,40.9,0.2,51.1-11.2s32.3-19,32.3-19l-14.3,57.5l-115.5,34.2
			L1075.1,361.8z"/>
	</g>
</g>
<g>
	<g>
		<path id="XMLID_00000181794505270527624320000005362779208263047074_" fill="#FFF5B8" d="M1437,110.1c0,47.8-30.6,88.3-69.8,88.3
			c-39.2,0-70.7-49.3-70.7-97.1s31.5-79.4,70.7-79.4C1406.4,21.8,1437,62.2,1437,110.1z"/>
	</g>
	<g>
		<defs>
			<path id="SVGID_00000054245052522453600560000010391572324053502347_" d="M1437,110.1c0,47.8-30.6,88.3-69.8,88.3
				c-39.2,0-70.7-49.3-70.7-97.1s31.5-79.4,70.7-79.4C1406.4,21.8,1437,62.2,1437,110.1z"/>
		</defs>
		<clipPath id="SVGID_00000044180023994218963680000004753425524467817909_">
			<use xlink:href="#SVGID_00000054245052522453600560000010391572324053502347_"  overflow="visible"/>
		</clipPath>
		<path clip-path="url(#SVGID_00000044180023994218963680000004753425524467817909_)" fill="#E7DEA2" d="M1344.3,69.1
			c4.8,7.6,10.9,15.1,18.1,18.6c7.1,3.5,25-7.3,32.3,0s29.7,21.8,21.4,61.5c-8.3,39.4-52.1,61.7-52.1,61.7l106.5-59.8l-10.9-98.6
			L1344.3,69.1z"/>
	</g>
</g>
<polygon fill="#0C286A" points="1467.6,193 1561.5,425.2 1499.7,425.2 "/>
<g>
	<g>
		<path id="XMLID_00000120538378223734862570000009249471414647125395_" fill="#5700A3" d="M1039.4,65c-13.9-44.5-54.7-71.3-91.2-60
			c-36.5,11.4-54.8,56.7-40.9,101.1c13.2,42.4,67.1,65.6,88.2,60.9c-0.2,3.5,0,6.9,0,6.9s3.5-2.3,5.5,0s2.6,2.1,4.8,0s4-5.2,3.1-6.3
			c-0.6-0.7-5-1.8-8.2-2.6C1019.7,154.5,1052.7,107.8,1039.4,65z"/>
	</g>
	<g>
		<defs>
			<path id="SVGID_00000065049652168693696880000006470323173567708604_" d="M1039.4,65c-13.9-44.5-54.7-71.3-91.2-60
				c-36.5,11.4-54.8,56.7-40.9,101.1c13.2,42.4,67.1,65.6,88.2,60.9c-0.2,3.5,0,6.9,0,6.9s3.5-2.3,5.5,0s2.6,2.1,4.8,0
				s4-5.2,3.1-6.3c-0.6-0.7-5-1.8-8.2-2.6C1019.7,154.5,1052.7,107.8,1039.4,65z"/>
		</defs>
		<clipPath id="SVGID_00000013154854015395801890000013389251778978740380_">
			<use xlink:href="#SVGID_00000065049652168693696880000006470323173567708604_"  overflow="visible"/>
		</clipPath>
		<path clip-path="url(#SVGID_00000013154854015395801890000013389251778978740380_)" fill="#4D008F" d="M925.8-31.4
			c0,0,62,10.7,72.6,111.7S998,218.6,998,218.6l96.3-67L1010-86.6L925.8-31.4z"/>
	</g>
</g>
<g>
	<g>
		<path id="XMLID_00000006694139810487299020000004479596165975278517_" fill="#9D0060" d="M917.5,45.3
			c-39.8-44.7-100.9-54.5-136.4-22c-35.6,32.5-32.1,95,7.7,139.7c37.9,42.5,112,41.3,133.6,24.7c1.7,4.2,3.8,8,3.8,8
			s2.7-4.5,6.2-2.9s4.1,1.1,5.4-2.5c1.3-3.6,1.8-8.2,0.1-9c-1-0.5-6.7,0.5-10.8,1.2C943.2,160.1,955.8,88.2,917.5,45.3z"/>
	</g>
	<g>
		<defs>
			<path id="SVGID_00000164474829182968438010000003127785717991315858_" d="M917.5,45.3c-39.8-44.7-100.9-54.5-136.4-22
				c-35.6,32.5-32.1,95,7.7,139.7c37.9,42.5,112,41.3,133.6,24.7c1.7,4.2,3.8,8,3.8,8s2.7-4.5,6.2-2.9s4.1,1.1,5.4-2.5
				c1.3-3.6,1.8-8.2,0.1-9c-1-0.5-6.7,0.5-10.8,1.2C943.2,160.1,955.8,88.2,917.5,45.3z"/>
		</defs>
		<clipPath id="SVGID_00000033356708599920275520000000331776683013734294_">
			<use xlink:href="#SVGID_00000164474829182968438010000003127785717991315858_"  overflow="visible"/>
		</clipPath>
		<path clip-path="url(#SVGID_00000033356708599920275520000000331776683013734294_)" fill="#850060" d="M784.6,2.4
			c82.3,41.8,87.7,56.8,102.7,81.4s35.2,58.1,43.9,91.8S960,180,960,180L942.7,13.2L795.3-40.2L784.6,2.4z"/>
	</g>
	<g>
		<defs>
			<path id="SVGID_00000035529682415062315290000015360657990853474468_" d="M917.5,45.3c-39.8-44.7-100.9-54.5-136.4-22
				c-35.6,32.5-32.1,95,7.7,139.7c37.9,42.5,112,41.3,133.6,24.7c1.7,4.2,3.8,8,3.8,8s2.7-4.5,6.2-2.9s4.1,1.1,5.4-2.5
				c1.3-3.6,1.8-8.2,0.1-9c-1-0.5-6.7,0.5-10.8,1.2C943.2,160.1,955.8,88.2,917.5,45.3z"/>
		</defs>
		<clipPath id="SVGID_00000137824964252883237830000006620590770091206335_">
			<use xlink:href="#SVGID_00000035529682415062315290000015360657990853474468_"  overflow="visible"/>
		</clipPath>
		<path clip-path="url(#SVGID_00000137824964252883237830000006620590770091206335_)" fill="#C20060" d="M773.9,2.4
			C781.4,80.6,780.2,89,794,124c14,35.3,33.5,29,21.4,0.5c-9-21.1-14-27.3-22.8-56.6C785.1,43.3,773.9,2.4,773.9,2.4z"/>
	</g>
	<g>
		<defs>
			<path id="SVGID_00000119827749167224482440000017326131112050091180_" d="M917.5,45.3c-39.8-44.7-100.9-54.5-136.4-22
				c-35.6,32.5-32.1,95,7.7,139.7c37.9,42.5,112,41.3,133.6,24.7c1.7,4.2,3.8,8,3.8,8s2.7-4.5,6.2-2.9s4.1,1.1,5.4-2.5
				c1.3-3.6,1.8-8.2,0.1-9c-1-0.5-6.7,0.5-10.8,1.2C943.2,160.1,955.8,88.2,917.5,45.3z"/>
		</defs>
		<clipPath id="SVGID_00000122708883920221860060000004175124796242902439_">
			<use xlink:href="#SVGID_00000119827749167224482440000017326131112050091180_"  overflow="visible"/>
		</clipPath>
		<path clip-path="url(#SVGID_00000122708883920221860060000004175124796242902439_)" fill="#C20060" d="M823.2,129
			c13.5,17.2,14.5,19.4,23.3,25.4c8.9,6,13,1.4,5.6-3.4c-5.5-3.5-7.7-4.1-14.3-9.6C832.2,136.8,823.2,129,823.2,129z"/>
	</g>
	<g>
		<defs>
			<path id="SVGID_00000070116849401945568410000006100815094010085517_" d="M917.5,45.3c-39.8-44.7-100.9-54.5-136.4-22
				c-35.6,32.5-32.1,95,7.7,139.7c37.9,42.5,112,41.3,133.6,24.7c1.7,4.2,3.8,8,3.8,8s2.7-4.5,6.2-2.9s4.1,1.1,5.4-2.5
				c1.3-3.6,1.8-8.2,0.1-9c-1-0.5-6.7,0.5-10.8,1.2C943.2,160.1,955.8,88.2,917.5,45.3z"/>
		</defs>
		<clipPath id="SVGID_00000028296331307618289120000017541548420842301108_">
			<use xlink:href="#SVGID_00000070116849401945568410000006100815094010085517_"  overflow="visible"/>
		</clipPath>
		<path clip-path="url(#SVGID_00000028296331307618289120000017541548420842301108_)" fill="#C20060" d="M766.6,38.4
			c-7,20.8-8.3,22.7-8.5,33.4s6,11.6,5.9,2.9c-0.1-6.5-0.7-8.7,0.2-17.3C764.9,50.2,766.6,38.4,766.6,38.4z"/>
	</g>
</g>
<g>
	<g>
		<path id="XMLID_00000106864751403646546270000009961916411530312331_" fill="#6AA800" d="M672.8,210.6
			c-26.9-42.6-76.2-59.2-110.2-37.1s-39.8,74.4-12.9,117c25.6,40.5,87.2,49.8,107.5,38.9c0.8,3.7,2,7.2,2,7.2s2.9-3.4,5.6-1.5
			c2.7,1.8,3.3,1.5,4.9-1.3c1.6-2.8,2.6-6.6,1.3-7.4c-0.8-0.5-5.6-0.5-9.1-0.5C678.3,309.5,698.6,251.5,672.8,210.6z"/>
	</g>
	<g>
		<defs>
			<path id="SVGID_00000037684593856309273970000008267042086351048631_" d="M672.8,210.6c-26.9-42.6-76.2-59.2-110.2-37.1
				s-39.8,74.4-12.9,117c25.6,40.5,87.2,49.8,107.5,38.9c0.8,3.7,2,7.2,2,7.2s2.9-3.4,5.6-1.5c2.7,1.8,3.3,1.5,4.9-1.3
				c1.6-2.8,2.6-6.6,1.3-7.4c-0.8-0.5-5.6-0.5-9.1-0.5C678.3,309.5,698.6,251.5,672.8,210.6z"/>
		</defs>
		<clipPath id="SVGID_00000113331279037599108000000007933376888166611113_">
			<use xlink:href="#SVGID_00000037684593856309273970000008267042086351048631_"  overflow="visible"/>
		</clipPath>
		<path clip-path="url(#SVGID_00000113331279037599108000000007933376888166611113_)" fill="#6A9200" d="M542.6,166.2
			c57,26.7,62,39.6,88.8,73.8s38.3,93.8,38.3,93.8l42.3-29.6V131.6L535.1,143L542.6,166.2z"/>
	</g>
	<g>
		<defs>
			<path id="SVGID_00000174589535751767375820000013130276075778384312_" d="M672.8,210.6c-26.9-42.6-76.2-59.2-110.2-37.1
				s-39.8,74.4-12.9,117c25.6,40.5,87.2,49.8,107.5,38.9c0.8,3.7,2,7.2,2,7.2s2.9-3.4,5.6-1.5c2.7,1.8,3.3,1.5,4.9-1.3
				c1.6-2.8,2.6-6.6,1.3-7.4c-0.8-0.5-5.6-0.5-9.1-0.5C678.3,309.5,698.6,251.5,672.8,210.6z"/>
		</defs>
		<clipPath id="SVGID_00000181068767083711851000000008908608677781213606_">
			<use xlink:href="#SVGID_00000174589535751767375820000013130276075778384312_"  overflow="visible"/>
		</clipPath>
		<path clip-path="url(#SVGID_00000181068767083711851000000008908608677781213606_)" fill="#8BBC00" d="M556.1,175.6
			c4.6,51.7,3.8,57.3,12.3,80.4c8.6,23.3,20.6,19.2,13.1,0.3c-5.5-13.9-8.6-18-14-37.4C563,202.7,556.1,175.6,556.1,175.6z"/>
	</g>
	<g>
		<defs>
			<path id="SVGID_00000157284751310221384630000016487575828961061046_" d="M672.8,210.6c-26.9-42.6-76.2-59.2-110.2-37.1
				s-39.8,74.4-12.9,117c25.6,40.5,87.2,49.8,107.5,38.9c0.8,3.7,2,7.2,2,7.2s2.9-3.4,5.6-1.5c2.7,1.8,3.3,1.5,4.9-1.3
				c1.6-2.8,2.6-6.6,1.3-7.4c-0.8-0.5-5.6-0.5-9.1-0.5C678.3,309.5,698.6,251.5,672.8,210.6z"/>
		</defs>
		<clipPath id="SVGID_00000101077155121013209660000008403505302980804259_">
			<use xlink:href="#SVGID_00000157284751310221384630000016487575828961061046_"  overflow="visible"/>
		</clipPath>
		<path clip-path="url(#SVGID_00000101077155121013209660000008403505302980804259_)" fill="#8BBC00" d="M536.5,198.6
			c-1.5,51.9-2.9,57.3,2.9,81.2c5.8,24.2,18.2,21.4,13,1.8c-3.8-14.5-6.4-18.9-9.5-38.8C540.2,226.3,536.5,198.6,536.5,198.6z"/>
	</g>
</g>
<g>
	<path fill="#006595" d="M900.4,281.7v20H776.5v-20H900.4z"/>
</g>
<g>
	<path fill="#002C6F" d="M903.4,285.2v20H779.5v-20H903.4z"/>
</g>
<path fill="#250015" d="M1366.7,11.1c19.2,0.7,50.8,14.7,65.9,39.6c23.2,38.4-6.8,113.7-6.8,113.7s-8.6-54.3-10.3-75.3
	c-0.8-9.9-22.5-11.6-26.7-5.2c-4.3,6.4-29.9-1.1-37.4-7.5s-20.3-1.1-25.7,0s-22.8,24.7-31.2,20.6c-13.4-6.5-0.7-39.8,6.7-59
	S1349,10.5,1366.7,11.1z"/>
<path fill="#7C000D" d="M1364,172.2c-0.2,3.3,0.8,10.4-4,10.2c-4.9-0.2-13.8-7.7-13.6-11c0.2-3.3,4-1.3,8.8-1.1
	S1364.2,168.9,1364,172.2z"/>
<ellipse cx="1324.6" cy="117.7" rx="7.1" ry="4.9"/>
<ellipse cx="1373.1" cy="117.1" rx="6.4" ry="4.3"/>
<polygon fill="#FFD6AB" points="1345.3,105.9 1341,149.2 1350,145.8 "/>
<ellipse transform="matrix(0.2019 -0.9794 0.9794 0.2019 1008.1995 1492.3386)" fill="#FFD6AB" cx="1419.8" cy="127.6" rx="20" ry="10.8"/>
</svg>
