<?xml version="1.0" encoding="utf-8"?>
<!-- Generator: Adobe Illustrator 26.0.3, SVG Export Plug-In . SVG Version: 6.00 Build 0)  -->
<svg version="1.1" id="Слой_1" xmlns="http://www.w3.org/2000/svg" xmlns:xlink="http://www.w3.org/1999/xlink" x="0px" y="0px"
	 viewBox="0 0 1920 529.3" style="enable-background:new 0 0 1920 529.3;" xml:space="preserve">
<style type="text/css">
	.st0{fill:none;stroke:#1C1D69;stroke-miterlimit:10;}
	.st1{fill:none;stroke:#1C1D69;stroke-miterlimit:10;stroke-dasharray:11.8669,11.8669;}
	.st2{fill:none;stroke:#1C1D69;stroke-miterlimit:10;stroke-dasharray:12.1182,12.1182;}
	.st3{fill:none;stroke:#1C1D69;stroke-miterlimit:10;stroke-dasharray:12.143,12.143;}
	.st4{clip-path:url(#XMLID_00000010307101380902545310000002643716925337838496_);fill:#75727D;}
	.st5{fill:#00192B;}
	.st6{fill:#565656;}
</style>
<g>
	<g>
		<path class="st0" d="M539.7,205.8c0,0,1.9-0.9,5.5-2.5"/>
		<path class="st1" d="M556.1,198.8c49.7-20.5,207.2-78.2,403.9-78.2c132.4,0,213.2,24.9,241.1,35.3"/>
		<path class="st0" d="M1206.7,158c3.7,1.5,5.5,2.3,5.5,2.3"/>
	</g>
</g>
<g>
	<g>
		<path class="st0" d="M528,339.5c0,0,1.9,0.8,5.6,2.1"/>
		<path class="st2" d="M544.9,345.8c56.7,20.3,247,82.7,447.1,82.7c192.8,0,274.4-51.4,299.2-71.8"/>
		<path class="st0" d="M1295.8,352.7c2.9-2.7,4.2-4.2,4.2-4.2"/>
	</g>
</g>
<g>
	<g>
		<path class="st0" d="M535.5,247.7c0,0,2,0.3,5.9,0.8"/>
		<path class="st3" d="M553.4,250c55.7,6.9,233.5,26.6,431.1,26.6c131.3,0,212.2-11.5,241-16.4"/>
		<path class="st0" d="M1231.5,259.2c3.9-0.7,5.9-1.2,5.9-1.2"/>
	</g>
</g>
<g>
	<defs>
		<circle id="XMLID_00000084517445105323729360000014362674840160300436_" cx="1452.2" cy="192.8" r="145.5"/>
	</defs>
	<use xlink:href="#XMLID_00000084517445105323729360000014362674840160300436_"  style="overflow:visible;fill:#97A5AA;"/>
	<clipPath id="XMLID_00000143598258417300521820000000403173848458996392_">
		<use xlink:href="#XMLID_00000084517445105323729360000014362674840160300436_"  style="overflow:visible;"/>
	</clipPath>
	<path style="clip-path:url(#XMLID_00000143598258417300521820000000403173848458996392_);fill:#75727D;" d="M1565.5,80
		c0,12.3-1.2,33.6-13.5,33.6s-40.6-21.3-40.6-33.6s5-21.8,17.4-21.8C1541,58.2,1565.5,67.7,1565.5,80z"/>
	<path style="clip-path:url(#XMLID_00000143598258417300521820000000403173848458996392_);fill:#75727D;" d="M1514.2,338.3
		c0,12.3-1.2,33.6-13.5,33.6c-12.3,0-40.6-21.3-40.6-33.6c0-12.3,5-21.8,17.4-21.8C1489.7,316.5,1514.2,326,1514.2,338.3z"/>
	<path style="clip-path:url(#XMLID_00000143598258417300521820000000403173848458996392_);fill:#75727D;" d="M1355.2,92.8
		c0,12.3-1.2,33.6-13.5,33.6c-12.3,0-40.6-21.3-40.6-33.6s5-21.8,17.4-21.8C1330.7,71,1355.2,80.5,1355.2,92.8z"/>
	<path style="clip-path:url(#XMLID_00000143598258417300521820000000403173848458996392_);fill:#75727D;" d="M1531.3,243.6
		c0,3.9-0.4,10.6-4.3,10.6s-12.9-6.7-12.9-10.6c0-3.9,1.6-6.9,5.5-6.9S1531.3,239.7,1531.3,243.6z"/>
	<path style="clip-path:url(#XMLID_00000143598258417300521820000000403173848458996392_);fill:#75727D;" d="M1578.9,140.2
		c0,3.5-0.5,9.7-5.3,9.7s-15.9-6.1-15.9-9.7c0-3.5,2-6.3,6.8-6.3C1569.3,133.9,1578.9,136.6,1578.9,140.2z"/>
	<path style="clip-path:url(#XMLID_00000143598258417300521820000000403173848458996392_);fill:#75727D;" d="M1485.4,71.6
		c0,1.6-0.2,4.4-2.4,4.4s-7.3-2.8-7.3-4.4c0-1.6,0.9-2.9,3.1-2.9S1485.4,70,1485.4,71.6z"/>
	<path style="clip-path:url(#XMLID_00000143598258417300521820000000403173848458996392_);fill:#75727D;" d="M1490.6,101.3
		c0,1.6-0.2,4.4-2.4,4.4c-2.2,0-7.3-2.8-7.3-4.4c0-1.6,0.9-2.9,3.1-2.9S1490.6,99.7,1490.6,101.3z"/>
	<path style="clip-path:url(#XMLID_00000143598258417300521820000000403173848458996392_);fill:#75727D;" d="M1507.5,57.1
		c0,1.6-0.2,4.4-2.4,4.4s-7.3-2.8-7.3-4.4c0-1.6,0.9-2.9,3.1-2.9S1507.5,55.5,1507.5,57.1z"/>
</g>
<g>
	<path class="st5" d="M1368.3,230.6c0-19.3,11.6-33,30.4-41l-0.2-0.7c-17-8-24.3-21.2-24.3-34.4c0-24.3,20.5-40.8,47.4-40.8
		c29.7,0,44.6,18.6,44.6,37.7c0,13-6.4,26.9-25.2,35.9v0.7c19.1,7.5,30.9,21,30.9,39.6c0,26.6-22.9,44.6-52.1,44.6
		C1387.6,272.1,1368.3,253,1368.3,230.6z M1450.9,229.6c0-18.6-13-27.6-33.7-33.5c-17.9,5.2-27.6,17-27.6,31.6
		c-0.7,15.6,11.1,29.3,30.7,29.3C1438.8,257,1450.9,245.4,1450.9,229.6z M1393.8,153c0,15.3,11.6,23.6,29.3,28.3
		c13.2-4.5,23.4-13.9,23.4-27.8c0-12.3-7.3-25-25.9-25C1403.2,128.4,1393.8,139.8,1393.8,153z"/>
</g>
<g>
	<path class="st6" d="M1260.8,176.3l-0.1-1.1c-0.3-2.3,0.5-4.9,2.7-7.5c1.9-2.3,3-4,3-5.9c0-2.2-1.4-3.7-4.1-3.7
		c-1.6,0-3.3,0.5-4.4,1.3l-1-2.7c1.4-1,3.9-1.7,6.2-1.7c5,0,7.2,3.1,7.2,6.4c0,3-1.6,5.1-3.7,7.5c-1.9,2.3-2.6,4.2-2.5,6.4l0,1.1
		H1260.8z M1259.9,182.4c0-1.6,1.1-2.7,2.6-2.7c1.5,0,2.6,1.1,2.6,2.7c0,1.5-1,2.7-2.6,2.7C1260.9,185.1,1259.9,183.9,1259.9,182.4z
		"/>
</g>
<g>
	<path class="st6" d="M1274.3,252l-0.1-1.1c-0.3-2.3,0.5-4.9,2.7-7.5c1.9-2.3,3-4,3-5.9c0-2.2-1.4-3.7-4.1-3.7
		c-1.6,0-3.3,0.5-4.4,1.3l-1-2.7c1.4-1,3.9-1.7,6.2-1.7c5,0,7.2,3.1,7.2,6.4c0,3-1.6,5.1-3.7,7.5c-1.9,2.3-2.6,4.2-2.5,6.4l0,1.1
		H1274.3z M1273.3,258c0-1.6,1.1-2.7,2.6-2.7c1.5,0,2.6,1.1,2.6,2.7c0,1.5-1,2.7-2.6,2.7C1274.4,260.7,1273.3,259.6,1273.3,258z"/>
</g>
<g>
	<path class="st6" d="M1322.9,339.2l-0.1-1.1c-0.3-2.3,0.5-4.9,2.7-7.5c1.9-2.3,3-4,3-5.9c0-2.2-1.4-3.7-4.1-3.7
		c-1.6,0-3.3,0.5-4.4,1.3l-1-2.7c1.4-1,3.9-1.7,6.2-1.7c5,0,7.2,3.1,7.2,6.4c0,3-1.6,5.1-3.7,7.5c-1.9,2.3-2.6,4.2-2.5,6.4l0,1.1
		H1322.9z M1322,345.3c0-1.6,1.1-2.7,2.6-2.7c1.5,0,2.6,1.1,2.6,2.7c0,1.5-1,2.7-2.6,2.7C1323,348,1322,346.8,1322,345.3z"/>
</g>
</svg>
