<?xml version="1.0" encoding="utf-8"?>
<!-- Generator: Adobe Illustrator 26.0.3, SVG Export Plug-In . SVG Version: 6.00 Build 0)  -->
<svg version="1.1" id="Слой_1" xmlns="http://www.w3.org/2000/svg" xmlns:xlink="http://www.w3.org/1999/xlink" x="0px" y="0px"
	 viewBox="0 0 1920 529.3" style="enable-background:new 0 0 1920 529.3;" xml:space="preserve">
<style type="text/css">
	.st0{fill:none;stroke:#1C1D69;stroke-miterlimit:10;}
	.st1{fill:none;stroke:#1C1D69;stroke-miterlimit:10;stroke-dasharray:11.9201,11.9201;}
	.st2{fill:none;stroke:#1C1D69;stroke-miterlimit:10;stroke-dasharray:12.1215,12.1215;}
	.st3{fill:none;stroke:#1C1D69;stroke-miterlimit:10;stroke-dasharray:12.1006,12.1006;}
	.st4{clip-path:url(#XMLID_00000034070110601747292550000014432348427951627923_);fill:#75727D;}
	.st5{fill:#00192B;}
	.st6{fill:#0056A0;}
	.st7{fill:#95001D;}
	.st8{fill:#006106;}
	.st9{fill:#506B7C;}
	.st10{fill:#7391AA;}
	.st11{clip-path:url(#SVGID_00000096741803930161193800000007484045807676024234_);fill:#577DAA;}
	.st12{clip-path:url(#SVGID_00000026847819408022762700000002510907176688480129_);fill:#97A5AA;}
	.st13{clip-path:url(#SVGID_00000096761781067523430860000000224793269457209734_);fill:#577DAA;}
	.st14{fill:#00012E;}
	.st15{font-family:'MyriadPro-Regular';}
	.st16{font-size:73.0593px;}
</style>
<g>
	<g>
		<path class="st0" d="M440.2,192.8c0,0,1.9-0.7,5.7-2"/>
		<path class="st1" d="M457.2,187.1c54.2-17.6,231.3-69.8,429.9-69.8c147,0,379.3,50.7,433.7,63"/>
		<path class="st0" d="M1326.6,181.7c3.8,0.9,5.8,1.4,5.8,1.4"/>
	</g>
</g>
<g>
	<g>
		<path class="st0" d="M460.7,342.5c0,0,1.9,0.7,5.7,2"/>
		<path class="st2" d="M477.8,348.3C532.2,366,709.2,418,907.5,418c148.4,0,395.9-123.4,450.1-151.4"/>
		<path class="st0" d="M1363,263.8c3.5-1.8,5.3-2.8,5.3-2.8"/>
	</g>
</g>
<g>
	<g>
		<path class="st0" d="M440.2,235.3c0,0,2,0.3,5.9,0.9"/>
		<path class="st3" d="M458.1,237.9c59.9,8.4,260.9,34.2,461.2,34.2c148.1,0,411.5-51.9,470.1-63.8"/>
		<path class="st0" d="M1395.4,207.1c3.8-0.8,5.9-1.2,5.9-1.2"/>
	</g>
</g>
<g>
	<defs>
		<circle id="XMLID_00000084517445105323729360000014362674840160300436_" cx="1452.2" cy="192.8" r="145.5"/>
	</defs>
	<use xlink:href="#XMLID_00000084517445105323729360000014362674840160300436_"  style="overflow:visible;fill:#97A5AA;"/>
	<clipPath id="XMLID_00000039841968129550465680000017722580470445776537_">
		<use xlink:href="#XMLID_00000084517445105323729360000014362674840160300436_"  style="overflow:visible;"/>
	</clipPath>
	<path style="clip-path:url(#XMLID_00000039841968129550465680000017722580470445776537_);fill:#75727D;" d="M1565.5,80
		c0,12.3-1.2,33.6-13.5,33.6s-40.6-21.3-40.6-33.6s5-21.8,17.4-21.8C1541,58.2,1565.5,67.7,1565.5,80z"/>
	<path style="clip-path:url(#XMLID_00000039841968129550465680000017722580470445776537_);fill:#75727D;" d="M1514.2,338.3
		c0,12.3-1.2,33.6-13.5,33.6c-12.3,0-40.6-21.3-40.6-33.6c0-12.3,5-21.8,17.4-21.8C1489.7,316.5,1514.2,326,1514.2,338.3z"/>
	<path style="clip-path:url(#XMLID_00000039841968129550465680000017722580470445776537_);fill:#75727D;" d="M1355.2,92.8
		c0,12.3-1.2,33.6-13.5,33.6c-12.3,0-40.6-21.3-40.6-33.6s5-21.8,17.4-21.8C1330.7,71,1355.2,80.5,1355.2,92.8z"/>
	<path style="clip-path:url(#XMLID_00000039841968129550465680000017722580470445776537_);fill:#75727D;" d="M1531.3,243.6
		c0,3.9-0.4,10.6-4.3,10.6s-12.9-6.7-12.9-10.6c0-3.9,1.6-6.9,5.5-6.9S1531.3,239.7,1531.3,243.6z"/>
	<path style="clip-path:url(#XMLID_00000039841968129550465680000017722580470445776537_);fill:#75727D;" d="M1578.9,140.2
		c0,3.5-0.5,9.7-5.3,9.7s-15.9-6.1-15.9-9.7c0-3.5,2-6.3,6.8-6.3C1569.3,133.9,1578.9,136.6,1578.9,140.2z"/>
	<path style="clip-path:url(#XMLID_00000039841968129550465680000017722580470445776537_);fill:#75727D;" d="M1485.4,71.6
		c0,1.6-0.2,4.4-2.4,4.4s-7.3-2.8-7.3-4.4c0-1.6,0.9-2.9,3.1-2.9S1485.4,70,1485.4,71.6z"/>
	<path style="clip-path:url(#XMLID_00000039841968129550465680000017722580470445776537_);fill:#75727D;" d="M1490.6,101.3
		c0,1.6-0.2,4.4-2.4,4.4c-2.2,0-7.3-2.8-7.3-4.4c0-1.6,0.9-2.9,3.1-2.9S1490.6,99.7,1490.6,101.3z"/>
	<path style="clip-path:url(#XMLID_00000039841968129550465680000017722580470445776537_);fill:#75727D;" d="M1507.5,57.1
		c0,1.6-0.2,4.4-2.4,4.4s-7.3-2.8-7.3-4.4c0-1.6,0.9-2.9,3.1-2.9S1507.5,55.5,1507.5,57.1z"/>
</g>
<g>
	<path class="st5" d="M1368.3,230.6c0-19.3,11.6-33,30.4-41l-0.2-0.7c-17-8-24.3-21.2-24.3-34.4c0-24.3,20.5-40.8,47.4-40.8
		c29.7,0,44.6,18.6,44.6,37.7c0,13-6.4,26.9-25.2,35.9v0.7c19.1,7.5,30.9,21,30.9,39.6c0,26.6-22.9,44.6-52.1,44.6
		C1387.6,272.1,1368.3,253,1368.3,230.6z M1450.9,229.6c0-18.6-13-27.6-33.7-33.5c-17.9,5.2-27.6,17-27.6,31.6
		c-0.7,15.6,11.1,29.3,30.7,29.3C1438.8,257,1450.9,245.4,1450.9,229.6z M1393.8,153c0,15.3,11.6,23.6,29.3,28.3
		c13.2-4.5,23.4-13.9,23.4-27.8c0-12.3-7.3-25-25.9-25C1403.2,128.4,1393.8,139.8,1393.8,153z"/>
</g>
<g>
	<g>
		<g>
			<path class="st6" d="M774.3,100.3V97l4.2-4.1c10.2-9.7,14.8-14.9,14.9-20.9c0-4.1-2-7.8-7.9-7.8c-3.6,0-6.6,1.8-8.5,3.4l-1.7-3.8
				c2.8-2.3,6.7-4.1,11.3-4.1c8.6,0,12.2,5.9,12.2,11.6c0,7.4-5.4,13.3-13.8,21.5l-3.2,3v0.1h18v4.5H774.3z"/>
		</g>
		<g>
			<path class="st6" d="M841.6,100.3V97l4.2-4.1C856,83.2,860.7,78,860.7,72c0-4.1-2-7.8-7.9-7.8c-3.6,0-6.6,1.8-8.5,3.4l-1.7-3.8
				c2.8-2.3,6.7-4.1,11.3-4.1c8.6,0,12.2,5.9,12.2,11.6c0,7.4-5.4,13.3-13.8,21.5l-3.2,3v0.1h18v4.5H841.6z"/>
		</g>
		<g>
			<path class="st6" d="M955.2,63.3H955l-7.8,4.2l-1.2-4.6l9.7-5.2h5.2v44.6h-5.8V63.3z"/>
		</g>
		<g>
			<path class="st6" d="M764.1,56c-4.2,5.6-7.2,13.1-7.2,23.5c0,10.2,3.2,17.6,7.2,23.3h-4c-3.6-4.8-7.5-12.1-7.5-23.3
				c0.1-11.3,3.9-18.7,7.5-23.5H764.1z"/>
		</g>
		<g>
			<path class="st6" d="M884.1,56c3.6,4.8,7.5,12.2,7.5,23.5c0,11.2-3.9,18.6-7.5,23.3h-4c4.1-5.7,7.2-13.1,7.2-23.3
				c0-10.4-3-17.9-7.2-23.5H884.1z"/>
		</g>
		<g>
			<path class="st6" d="M823,69.8v8.1h7.8v2.1H823V88h-2.2v-8.1H813v-2.1h7.8v-8.1H823z"/>
		</g>
		<g>
			<path class="st6" d="M915.2,81c0-2.5,1.7-4.3,4.1-4.3c2.4,0,4,1.8,4,4.3c0,2.4-1.6,4.3-4.1,4.3C916.9,85.2,915.2,83.4,915.2,81z"
				/>
		</g>
	</g>
	<g>
		<path class="st6" d="M1009,76.4v-4h34.2v4H1009z M1009,89.5v-4h34.2v4H1009z"/>
	</g>
</g>
<g>
	<g>
		<path class="st7" d="M760.6,255.9l0-3l3.8-3.7c9.2-8.7,13.4-13.3,13.4-18.7c0-3.6-1.7-7-7.1-7c-3.3,0-6,1.6-7.6,3l-1.5-3.4
			c2.5-2.1,6-3.6,10.2-3.6c7.7,0,11,5.3,10.9,10.5c0,6.6-4.9,12-12.4,19.2l-2.9,2.6l0,0.1l16.1,0.1l0,4L760.6,255.9z"/>
	</g>
	<g>
		<path class="st7" d="M823.5,250.3c1.4,0.9,4.6,2.3,8,2.3c6.3,0,8.2-4,8.2-7c0-5.1-4.6-7.2-9.3-7.3l-2.7,0l0-3.7l2.7,0
			c3.6,0,8.1-1.8,8.1-6.1c0-2.9-1.8-5.4-6.3-5.5c-2.9,0-5.7,1.3-7.2,2.4l-1.3-3.6c1.9-1.4,5.6-2.8,9.4-2.7c7.1,0,10.3,4.3,10.3,8.6
			c0,3.7-2.2,6.9-6.7,8.5l0,0.1c4.4,0.9,8,4.2,8,9.3c0,5.8-4.5,10.8-13.2,10.8c-4.1,0-7.6-1.3-9.4-2.5L823.5,250.3z"/>
	</g>
	<g>
		<path class="st7" d="M914.3,256.5l0-3l3.8-3.7c9.2-8.7,13.4-13.3,13.4-18.7c0-3.6-1.7-7-7.1-7c-3.3,0-6,1.6-7.6,3l-1.5-3.4
			c2.5-2.1,6-3.6,10.2-3.6c7.7,0,11,5.3,10.9,10.5c0,6.6-4.9,12-12.4,19.2l-2.9,2.6l0,0.1l16.1,0.1l0,4L914.3,256.5z"/>
	</g>
	<g>
		<path class="st7" d="M751.6,216.1c-3.8,5-6.5,11.7-6.6,21.1c0,9.2,2.8,15.8,6.4,21l-3.6,0c-3.2-4.3-6.7-10.9-6.7-21
			c0.1-10.2,3.6-16.8,6.8-21.1L751.6,216.1z"/>
	</g>
	<g>
		<path class="st7" d="M859.3,216.5c3.2,4.3,6.7,11,6.7,21.1c0,10.1-3.6,16.7-6.8,20.9l-3.6,0c3.7-5.1,6.5-11.7,6.6-20.9
			c0-9.3-2.7-16.1-6.4-21.1L859.3,216.5z"/>
	</g>
	<g>
		<path class="st7" d="M804.4,228.6l0,7.2l7,0l0,1.8l-7,0l0,7.3l-2,0l0-7.3l-7,0l0-1.8l7,0l0-7.2L804.4,228.6z"/>
	</g>
	<g>
		<path class="st7" d="M887.2,239c0-2.3,1.5-3.8,3.7-3.8c2.1,0,3.6,1.6,3.6,3.9c0,2.2-1.4,3.8-3.7,3.8
			C888.7,242.9,887.2,241.2,887.2,239z"/>
	</g>
	<g>
		<path class="st7" d="M971.4,235.3l0-3.6l30.7,0.1l0,3.6L971.4,235.3z M971.4,247l0-3.6l30.7,0.1l0,3.6L971.4,247z"/>
	</g>
</g>
<g>
	<g>
		<path class="st8" d="M813.7,378.1v-2.8l3.5-3.4c8.5-8.1,12.4-12.4,12.4-17.4c0-3.4-1.6-6.5-6.6-6.5c-3,0-5.5,1.5-7.1,2.8l-1.4-3.2
			c2.3-2,5.6-3.4,9.4-3.4c7.2,0,10.2,4.9,10.2,9.7c0,6.2-4.5,11.1-11.5,17.9l-2.7,2.5v0.1h15v3.7H813.7z"/>
	</g>
	<g>
		<path class="st8" d="M869.8,378.1v-2.8l3.5-3.4c8.5-8.1,12.4-12.4,12.4-17.4c0-3.4-1.6-6.5-6.6-6.5c-3,0-5.5,1.5-7.1,2.8l-1.4-3.2
			c2.3-2,5.6-3.4,9.4-3.4c7.2,0,10.2,4.9,10.2,9.7c0,6.2-4.5,11.1-11.5,17.9l-2.7,2.5v0.1h15v3.7H869.8z"/>
	</g>
	<g>
		<path class="st8" d="M956.5,378.1v-2.8l3.5-3.4c8.5-8.1,12.4-12.4,12.4-17.4c0-3.4-1.6-6.5-6.6-6.5c-3,0-5.5,1.5-7.1,2.8l-1.4-3.2
			c2.3-2,5.6-3.4,9.4-3.4c7.2,0,10.2,4.9,10.2,9.7c0,6.2-4.5,11.1-11.5,17.9l-2.7,2.5v0.1h15v3.7H956.5z"/>
	</g>
	<g>
		<path class="st8" d="M805.2,341.2c-3.5,4.7-6,10.9-6,19.6c0,8.5,2.6,14.7,6,19.5h-3.3c-3-4-6.3-10.1-6.3-19.5
			c0-9.4,3.3-15.6,6.3-19.6H805.2z"/>
	</g>
	<g>
		<path class="st8" d="M905.3,341.2c3,4,6.2,10.2,6.3,19.6c0,9.4-3.3,15.5-6.3,19.5H902c3.4-4.8,6-10.9,6-19.5
			c0-8.7-2.5-14.9-6-19.6H905.3z"/>
	</g>
	<g>
		<path class="st8" d="M854.3,352.6v6.7h6.5v1.7h-6.5v6.8h-1.8v-6.8H846v-1.7h6.5v-6.7H854.3z"/>
	</g>
	<g>
		<path class="st8" d="M931.3,362c0-2.1,1.4-3.6,3.4-3.6c2,0,3.3,1.5,3.3,3.6c0,2-1.3,3.6-3.4,3.6C932.7,365.5,931.3,364,931.3,362z
			"/>
	</g>
	<g>
		<path class="st8" d="M1009.5,358.2v-3.3h28.6v3.3H1009.5z M1009.5,369.1v-3.3h28.6v3.3H1009.5z"/>
	</g>
</g>
<g>
	<g>
		<g>
			<path id="XMLID_00000127752590278476237590000018075309898832136613_" class="st9" d="M458.4,161.3c-1.5,31-28.3,54.8-59.7,53.3
				s-55.7-27.9-54.2-58.7s39.4-93.2,58.6-90.5C425.9,68.3,459.9,130.3,458.4,161.3z"/>
		</g>
	</g>
	<g>
		<g>
			<path id="XMLID_00000049926285907025701030000013979788625214219182_" class="st10" d="M450,333.8c0,0-43,4.8-57.3,4.1
				c-14.2-0.7-56.6-9.6-56.6-9.6l8.4-175.1c0,0,19.6-18.7,61.5-16.6s52.5,22.2,52.5,22.2L450,333.8z"/>
		</g>
		<g>
			<g>
				<g>
					<g>
						<g>
							<defs>
								<path id="SVGID_1_" d="M450,333.8c0,0-43,4.8-57.3,4.1c-14.2-0.7-56.6-9.6-56.6-9.6l8.4-175.1c0,0,19.6-18.7,61.5-16.6
									s52.5,22.2,52.5,22.2L450,333.8z"/>
							</defs>
							<clipPath id="SVGID_00000034075695229253504520000003978009078638428813_">
								<use xlink:href="#SVGID_1_"  style="overflow:visible;"/>
							</clipPath>
							<polygon style="clip-path:url(#SVGID_00000034075695229253504520000003978009078638428813_);fill:#577DAA;" points="
								432.4,138.6 419.1,351.6 470.3,343.5 472.9,130.3 							"/>
						</g>
					</g>
				</g>
			</g>
		</g>
		<g>
			<g>
				<g>
					<g>
						<g>
							<defs>
								<path id="SVGID_00000036219943938829213480000000877281495162366618_" d="M450,333.8c0,0-43,4.8-57.3,4.1
									c-14.2-0.7-56.6-9.6-56.6-9.6l8.4-175.1c0,0,19.6-18.7,61.5-16.6s52.5,22.2,52.5,22.2L450,333.8z"/>
							</defs>
							<clipPath id="SVGID_00000067201865128023011990000017849071757756991914_">
								<use xlink:href="#SVGID_00000036219943938829213480000000877281495162366618_"  style="overflow:visible;"/>
							</clipPath>
							<polygon style="clip-path:url(#SVGID_00000067201865128023011990000017849071757756991914_);fill:#97A5AA;" points="
								325.8,131.1 312.6,344 363.9,336.1 366.4,122.8 							"/>
						</g>
					</g>
				</g>
			</g>
		</g>
		<g>
			<g>
				<g>
					<g>
						<g>
							<defs>
								<path id="SVGID_00000047749962548800057280000012864245666429887891_" d="M450,333.8c0,0-43,4.8-57.3,4.1
									c-14.2-0.7-56.6-9.6-56.6-9.6l8.4-175.1c0,0,19.6-18.7,61.5-16.6s52.5,22.2,52.5,22.2L450,333.8z"/>
							</defs>
							<clipPath id="SVGID_00000028299633836800412460000010516655733669867184_">
								<use xlink:href="#SVGID_00000047749962548800057280000012864245666429887891_"  style="overflow:visible;"/>
							</clipPath>
							<polygon style="clip-path:url(#SVGID_00000028299633836800412460000010516655733669867184_);fill:#577DAA;" points="
								419.6,143.2 406.2,355.4 411.2,340.8 423.7,129.7 							"/>
						</g>
					</g>
				</g>
			</g>
		</g>
	</g>
	<polygon class="st9" points="343.9,286.1 307.6,319.1 295.8,389.4 339.2,384.6 	"/>
	<polygon class="st9" points="439.8,287.4 470.9,323.7 475.4,394.7 435,386.1 	"/>
	<polygon class="st9" points="395.1,290 407.6,325.4 407.7,396.4 390.3,388.7 	"/>
	<circle class="st14" cx="403.5" cy="198.1" r="15"/>
</g>
<text transform="matrix(1.4868 0 0 1 590.1095 74.4594)" class="st15 st16">м</text>
</svg>
