<?xml version="1.0" encoding="utf-8"?>
<!-- Generator: Adobe Illustrator 26.0.3, SVG Export Plug-In . SVG Version: 6.00 Build 0)  -->
<svg version="1.1" id="Слой_1" xmlns="http://www.w3.org/2000/svg" xmlns:xlink="http://www.w3.org/1999/xlink" x="0px" y="0px"
	 viewBox="0 0 1920 386" style="enable-background:new 0 0 1920 386;" xml:space="preserve">
<style type="text/css">
	.st0{fill:#A36755;}
	.st1{fill:#A37155;}
	.st2{fill:#CEBE70;}
	.st3{fill:#FEDCA3;}
	.st4{clip-path:url(#XMLID_00000038380590733497844250000014625807510636132229_);fill:#6F965E;}
	.st5{fill:#6FB471;}
	.st6{fill:#FEFF87;}
	.st7{clip-path:url(#XMLID_00000030470338709226800340000002900156426946796675_);fill:#452310;}
	.st8{fill:#74282E;}
</style>
<rect x="336.2" class="st0" width="1368.5" height="386"/>
<rect x="1179.8" y="-321.5" transform="matrix(0.6755 -0.7373 0.7373 0.6755 288.942 985.0776)" class="st1" width="167.8" height="971.5"/>
<rect x="618.7" y="-205.6" transform="matrix(0.6755 -0.7373 0.7373 0.6755 -1.6679 556.4008)" class="st1" width="25.3" height="971.5"/>
<rect x="1194" y="-205.6" transform="matrix(0.6755 -0.7373 0.7373 0.6755 185.006 980.5715)" class="st1" width="25.3" height="971.5"/>
<rect x="596.6" y="-154" transform="matrix(0.6755 -0.7373 0.7373 0.6755 -49.4688 551.0841)" class="st1" width="9.7" height="971.5"/>
<polygon class="st2" points="633.3,178.6 588.2,166.7 588.2,142.5 633.3,149.6 "/>
<path class="st3" d="M820.5,267.1c0,0,46.4-5.8,47.3,0.4c0.3,1.8-11.9,5.7-10.5,6.8c2.8,2.1,41.2-5.7,48.9-4.9
	c11.3,1.2-29.1,20.5-40.2,20.8c-11.5,0.4-45.6-2.5-45.6-2.5V267.1z"/>
<path class="st3" d="M682.3,84c0.4,2.5,7.7,16.9,9.2,24c0.4,1.7-6.2,0.3-6.2,2.2c-0.1,18-0.9,24.4-5.2,34.5
	c-4.8,11.2-63.5,9.6-78.7,6.9c-29.4-5.2-48.9-24.8-48.9-64.4s26.6-63.1,57.2-63.1S673.1,23.4,682.3,84z"/>
<g>
	<defs>
		<path id="XMLID_00000137092167066261148510000009353626280975629985_" d="M583.6,158.9L554.6,223c0,0-23.5,149.2-30.5,186.4
			c-7,37.1,0,37.1,0,37.1h142.1l9.3-132.7l-38-141.4L583.6,158.9z"/>
	</defs>
	<use xlink:href="#XMLID_00000137092167066261148510000009353626280975629985_"  style="overflow:visible;fill:#6FB471;"/>
	<clipPath id="XMLID_00000168805612979102711740000016854424882448764857_">
		<use xlink:href="#XMLID_00000137092167066261148510000009353626280975629985_"  style="overflow:visible;"/>
	</clipPath>
	<path style="clip-path:url(#XMLID_00000168805612979102711740000016854424882448764857_);fill:#6F965E;" d="M631.4,138l-59.6,121.9
		l-5.7,106.5l22.1,83.8l-96.9,22.1c0,0-27.1-100.5-25.7-110.5c1.4-10,66.3-222.4,66.3-222.4L631.4,138z"/>
</g>
<polygon class="st5" points="619.3,193.1 725.5,271.2 832.3,254.4 832.3,292.8 712.7,317.5 610.7,273.9 "/>
<path class="st6" d="M1221.8,122.1c6.5,29.3,42.2,43.4,66.9,41.4c30.5-2.4,52.7-36.3,49.7-75.7c-3.1-39.4-30.3-69.5-60.8-67.1
	S1202.9,36.9,1221.8,122.1z"/>
<path class="st6" d="M1315.1,161.5l33.8,61.6c0,0,34.9,147,44.8,183.5c9.8,36.5,2.9,37,2.9,37l-141.7,11L1235.3,323l11.8-149.3
	L1315.1,161.5z"/>
<polygon class="st6" points="1251.8,188.6 1168.8,309.5 1056.9,272.6 1059.9,310.9 1173.2,366.4 1272.4,288.6 "/>
<g>
	<defs>
		<path id="XMLID_00000137826517670684709500000015936727670004288923_" d="M665.7,45.6c0,0-12.8-10.3-29.7,18.1s-7.8,33.6-7.8,33.6
			l-15.1-11.8l6,28.6l-16.9,3.4c0,0,9.2,16.8,9.2,19.3s3.4,11.8,3.4,11.8l-7.6,8c0,0-30.5,5-42.7-4.3c-12.2-9.2-11.9-10.5-11.9-10.5
			v-21l-6.7-5.9V83c0,0,1.7-40.4,6.7-44.6c5-4.2,24.4-31.1,39.5-31.1c15.1,0,36.6,0,43.9,3.4s39.1,14.3,39.6,21.9
			S665.7,45.6,665.7,45.6z"/>
	</defs>
	<use xlink:href="#XMLID_00000137826517670684709500000015936727670004288923_"  style="overflow:visible;fill:#593424;"/>
	<clipPath id="XMLID_00000023276229874182813080000000619447504746331788_">
		<use xlink:href="#XMLID_00000137826517670684709500000015936727670004288923_"  style="overflow:visible;"/>
	</clipPath>
	<path style="clip-path:url(#XMLID_00000023276229874182813080000000619447504746331788_);fill:#452310;" d="M668.1-6
		c0,0.7-57.6,17.8-57.4,35.6s-5.4,26.4-17.5,32.1c-12.1,5.7-32.1,20-22.8,33.5s11.4,25.7,5,38.5s-29.5,44.9-29.5,44.9L478.4,76.4
		L537.6-6H668.1z"/>
</g>
<path d="M671.6,76.4c0,0,0.8,0.1,1.7,3s-0.5,5.9-0.5,5.9l-10.3-1.8L671.6,76.4z"/>
<g>
	<path class="st8" d="M987.6,42.6v72h69.3V133h-69.3v72.7H968V133h-69.3v-18.4H968v-72H987.6z"/>
</g>
</svg>
