<?xml version="1.0" encoding="utf-8"?>
<!-- Generator: Adobe Illustrator 26.0.3, SVG Export Plug-In . SVG Version: 6.00 Build 0)  -->
<svg version="1.1" id="Слой_1" xmlns="http://www.w3.org/2000/svg" xmlns:xlink="http://www.w3.org/1999/xlink" x="0px" y="0px"
	 viewBox="0 0 1920 386" style="enable-background:new 0 0 1920 386;" xml:space="preserve">
<style type="text/css">
	.st0{fill:#A36755;}
	.st1{fill:#EE0000;}
	.st2{clip-path:url(#SVGID_00000072246126176932428970000002360292325988215465_);fill:#B60000;}
	
		.st3{opacity:0.36;clip-path:url(#SVGID_00000120554156400519631850000018435023033863320754_);fill:#FFFFFF;enable-background:new    ;}
	
		.st4{opacity:0.36;clip-path:url(#SVGID_00000005973367117292086280000016382044303864743103_);fill:#FFFFFF;enable-background:new    ;}
	.st5{fill:#603813;}
	.st6{fill:#5F9D00;}
	.st7{fill:#A37155;}
	.st8{fill:#CEBE70;}
	.st9{fill:#FEDCA3;}
	.st10{clip-path:url(#SVGID_00000142862561354863518990000016330246653222897540_);fill:#E2B87E;}
	.st11{clip-path:url(#SVGID_00000109007059873131203970000009965282384894185613_);fill:#E2B87E;}
	.st12{clip-path:url(#SVGID_00000016758260305687944440000002816752354944263073_);fill:#E0C88B;}
	.st13{fill:#6FB471;}
	.st14{clip-path:url(#SVGID_00000147209897762699097610000000726477029152032447_);fill:#88855E;}
	.st15{clip-path:url(#SVGID_00000032619308182520224100000007559871245656840589_);fill:#869971;}
	.st16{fill:#F7D0A3;}
	.st17{clip-path:url(#SVGID_00000103244551462511216040000000918356681602035626_);fill:#D2AB7E;}
	.st18{fill:#870000;}
	.st19{clip-path:url(#SVGID_00000024695494280517630550000010244441374881695898_);fill:#560000;}
	.st20{clip-path:url(#SVGID_00000132048013683564161760000005477858247114246798_);fill:#690000;}
	.st21{fill:#593424;}
	.st22{clip-path:url(#SVGID_00000106849683638794424540000013478548551006355614_);fill:#452310;}
	.st23{opacity:0.81;}
	.st24{fill:#542C2F;}
	.st25{fill:#2B0F00;}
	.st26{clip-path:url(#SVGID_00000136398111981216071030000013044784341957387710_);fill:#1F0000;}
</style>
<rect x="336.2" class="st0" width="1368.5" height="386"/>
<g>
	<g>
		<g>
			<path id="XMLID_00000091017690886273474730000004683794767781391537_" class="st1" d="M1026,234.4c0,0-5.7-6.8-11.5-7.7
				s-22.2-5-30.4,22.6s9.3,36.1,11.6,36.6c1.6,0.3,5,1.1,6.6,1.7c2.1,0.8,4.7,3.3,6.7,4.4c7.8,4,25.8,4.8,37.7-21.7
				s-9.8-33.3-9.8-33.3L1026,234.4z"/>
		</g>
		<g>
			<g>
				<g>
					<g>
						<g>
							<g>
								<defs>
									<path id="SVGID_1_" d="M1026,234.4c0,0-5.7-6.8-11.5-7.7s-22.2-5-30.4,22.6s9.3,36.1,11.6,36.6c1.6,0.3,5,1.1,6.6,1.7
										c2.1,0.8,4.7,3.3,6.7,4.4c7.8,4,25.8,4.8,37.7-21.7s-9.8-33.3-9.8-33.3L1026,234.4z"/>
								</defs>
								<clipPath id="SVGID_00000179636316276674849450000006972112924779602073_">
									<use xlink:href="#SVGID_1_"  style="overflow:visible;"/>
								</clipPath>
								<path style="clip-path:url(#SVGID_00000179636316276674849450000006972112924779602073_);fill:#B60000;" d="M1020.4,227.9
									c0,0-0.1,6.7,1.6,8.4s5,0.5,6.7,0.6s4.1-0.1,7.6,1.7s11.7,8.8,10.9,15.6c-0.9,6.8-10.2,24.1-15.2,27.7
									c-5.1,3.5-22.4,2.8-26.8,2c-4.4-0.9-20.5-8.1-20.5-8.1l-12,14.9l78.9,20l25-67.5L1020.4,227.9z"/>
							</g>
						</g>
					</g>
				</g>
			</g>
		</g>
		<g>
			<g>
				<g>
					<g>
						<g>
							<g>
								<defs>
									<path id="SVGID_00000078013490105789104480000005448730063482612898_" d="M1026,234.4c0,0-5.7-6.8-11.5-7.7
										s-22.2-5-30.4,22.6s9.3,36.1,11.6,36.6c1.6,0.3,5,1.1,6.6,1.7c2.1,0.8,4.7,3.3,6.7,4.4c7.8,4,25.8,4.8,37.7-21.7
										s-9.8-33.3-9.8-33.3L1026,234.4z"/>
								</defs>
								<clipPath id="SVGID_00000146465345790685580030000008062824405802232494_">
									<use xlink:href="#SVGID_00000078013490105789104480000005448730063482612898_"  style="overflow:visible;"/>
								</clipPath>
								
									<path style="opacity:0.36;clip-path:url(#SVGID_00000146465345790685580030000008062824405802232494_);fill:#FFFFFF;enable-background:new    ;" d="
									M1003.2,243.1c-2.9,2-6.6,5.6-7.7,4.1s0.9-7.6,3.7-9.7c2.9-2,6.1-2.4,7.2-0.9C1007.5,238.2,1006.1,241.1,1003.2,243.1z"/>
							</g>
						</g>
					</g>
				</g>
			</g>
		</g>
		<g>
			<g>
				<g>
					<g>
						<g>
							<g>
								<defs>
									<path id="SVGID_00000078765409760366431370000000009838807666588565_" d="M1026,234.4c0,0-5.7-6.8-11.5-7.7
										s-22.2-5-30.4,22.6s9.3,36.1,11.6,36.6c1.6,0.3,5,1.1,6.6,1.7c2.1,0.8,4.7,3.3,6.7,4.4c7.8,4,25.8,4.8,37.7-21.7
										s-9.8-33.3-9.8-33.3L1026,234.4z"/>
								</defs>
								<clipPath id="SVGID_00000009559882916486896530000006124372683235732904_">
									<use xlink:href="#SVGID_00000078765409760366431370000000009838807666588565_"  style="overflow:visible;"/>
								</clipPath>
								
									<path style="opacity:0.36;clip-path:url(#SVGID_00000009559882916486896530000006124372683235732904_);fill:#FFFFFF;enable-background:new    ;" d="
									M995.6,254.2c-0.5-0.2-1.5-0.1-0.9-1.2c0.5-1.2,2.3-3.2,2.8-3s0.5,1.3-0.1,2.5C996.9,253.7,996.1,254.5,995.6,254.2z"/>
							</g>
						</g>
					</g>
				</g>
			</g>
		</g>
	</g>
	<path class="st5" d="M1043.8,224.4c-0.3,0.2-2.3,0.3-4.9,1.4c-2.3,1-13.2,9.8-13.2,9.8l-1.6-0.7c0,0,9.6-6.6,13.7-10.1
		C1041.9,221.1,1045.1,223.6,1043.8,224.4z"/>
	<path class="st6" d="M1020.7,208.9c0,0,0.5,7.8,3,10.1c2.5,2.4,8.9,10.1,8.9,10.1s2.2-9.6,0.4-13
		C1031,212.8,1020.7,208.9,1020.7,208.9z"/>
</g>
<polygon class="st7" points="960,-0.1 1208.5,0 1629.8,386 1381.4,386 "/>
<polygon class="st7" points="327.7,0.5 358.7,3.3 759.3,386 723.1,386 "/>
<polygon class="st7" points="897.9,0.7 907.3,-10.2 1308.6,364.1 1299.3,374.9 "/>
<polygon class="st7" points="240,7.2 246.6,0 670.3,386 656.9,386.5 "/>
<polygon class="st8" points="633.3,178.6 588.2,166.7 588.2,142.5 633.3,149.6 "/>
<g>
	<g>
		<path id="XMLID_00000078023083463301403180000009988238256615135925_" class="st9" d="M820.5,262.9c0,0,51.7-6.9,52.7,0.5
			c0.3,2.1-13.3,6.7-11.7,8c3.1,2.5,45.9-6.7,54.5-5.8c12.6,1.4-32.4,24.2-44.8,24.6c-12.8,0.5-50.8-3-50.8-3L820.5,262.9
			L820.5,262.9L820.5,262.9z"/>
	</g>
	<g>
		<defs>
			<path id="SVGID_00000110469363490180816240000016356985050667630498_" d="M820.5,262.9c0,0,51.7-6.9,52.7,0.5
				c0.3,2.1-13.3,6.7-11.7,8c3.1,2.5,45.9-6.7,54.5-5.8c12.6,1.4-32.4,24.2-44.8,24.6c-12.8,0.5-50.8-3-50.8-3L820.5,262.9
				L820.5,262.9L820.5,262.9z"/>
		</defs>
		<clipPath id="SVGID_00000062910933847107519090000004516345873757026465_">
			<use xlink:href="#SVGID_00000110469363490180816240000016356985050667630498_"  style="overflow:visible;"/>
		</clipPath>
		<path style="clip-path:url(#SVGID_00000062910933847107519090000004516345873757026465_);fill:#E2B87E;" d="M827,280.5
			c0,0,44.1,1.3,49.7,2.5c5.6,1.3,44.9-14.3,44.9-14.3l1.6,34.2c0,0-93,0.4-94.2-2.1C827.8,298.2,827,280.5,827,280.5z"/>
	</g>
</g>
<g>
	<g>
		<path id="XMLID_00000075846307176697839670000017193121092521780147_" class="st9" d="M1065.5,278.3c0,0-54.3-7.6-55.4,0.5
			c-0.4,2.4,13.9,7.5,12.3,8.9c-3.3,2.8-48.3-7.5-57.3-6.4c-13.2,1.6,34.1,26.9,47.1,27.3c13.5,0.5,53.4-3.3,53.4-3.3v-27.1h-0.1
			V278.3z"/>
	</g>
	<g>
		<defs>
			<path id="SVGID_00000143610580920464012670000008578327799609687225_" d="M1065.5,278.3c0,0-54.3-7.6-55.4,0.5
				c-0.4,2.4,13.9,7.5,12.3,8.9c-3.3,2.8-48.3-7.5-57.3-6.4c-13.2,1.6,34.1,26.9,47.1,27.3c13.5,0.5,53.4-3.3,53.4-3.3v-27.1h-0.1
				V278.3z"/>
		</defs>
		<clipPath id="SVGID_00000105420234362642775380000008590889986344465070_">
			<use xlink:href="#SVGID_00000143610580920464012670000008578327799609687225_"  style="overflow:visible;"/>
		</clipPath>
		<path style="clip-path:url(#SVGID_00000105420234362642775380000008590889986344465070_);fill:#E2B87E;" d="M1058.7,297.9
			c0,0-46.3,1.4-52.2,2.8c-5.8,1.4-47.2-15.9-47.2-15.9l-1.7,38c0,0,97.7,0.5,98.9-2.3S1058.7,297.9,1058.7,297.9z"/>
	</g>
</g>
<g>
	<g>
		<path id="XMLID_00000091707772970772868560000016226439418768717746_" class="st9" d="M682.3,84c0.4,2.5,7.7,16.9,9.2,24
			c0.4,1.7-6.2,0.3-6.2,2.2c-0.1,18-0.9,24.4-5.2,34.5c-4.8,11.2-63.5,9.6-78.7,6.9c-29.4-5.2-48.9-24.8-48.9-64.4
			s26.6-63.1,57.2-63.1S673.1,23.4,682.3,84z"/>
	</g>
	<g>
		<defs>
			<path id="SVGID_00000119833569373455535210000013882058144325862050_" d="M682.3,84c0.4,2.5,7.7,16.9,9.2,24
				c0.4,1.7-6.2,0.3-6.2,2.2c-0.1,18-0.9,24.4-5.2,34.5c-4.8,11.2-63.5,9.6-78.7,6.9c-29.4-5.2-48.9-24.8-48.9-64.4
				s26.6-63.1,57.2-63.1S673.1,23.4,682.3,84z"/>
		</defs>
		<clipPath id="SVGID_00000129191821438905713180000001870118568058739129_">
			<use xlink:href="#SVGID_00000119833569373455535210000013882058144325862050_"  style="overflow:visible;"/>
		</clipPath>
		<path style="clip-path:url(#SVGID_00000129191821438905713180000001870118568058739129_);fill:#E0C88B;" d="M641.7,24.1
			c1.4,2.9-23.5,93.9-16.4,103.9s57.7,20.7,57.7,20.7l-9.4,26.4l-121.1,3.5L641.7,24.1z"/>
	</g>
</g>
<g>
	<g>
		<path id="XMLID_00000137092167066261148510000009353626280975629985_" class="st13" d="M583.6,158.9l-29,64.1
			c0,0-23.5,149.2-30.5,186.4c-7,37.1,0,37.1,0,37.1h142.1l9.3-132.7l-38-141.4L583.6,158.9z"/>
	</g>
	<g>
		<g>
			<defs>
				<path id="SVGID_00000052064333746151059860000002351146801514610566_" d="M583.6,158.9l-29,64.1c0,0-23.5,149.2-30.5,186.4
					c-7,37.1,0,37.1,0,37.1h142.1l9.3-132.7l-38-141.4L583.6,158.9z"/>
			</defs>
			<clipPath id="SVGID_00000107570312855076386930000013016246151052980644_">
				<use xlink:href="#SVGID_00000052064333746151059860000002351146801514610566_"  style="overflow:visible;"/>
			</clipPath>
			<path style="clip-path:url(#SVGID_00000107570312855076386930000013016246151052980644_);fill:#88855E;" d="M631.4,138
				l-59.6,121.9l-5.7,106.5l22.1,83.8l-96.9,22.1c0,0-27.1-100.5-25.7-110.5s66.3-222.4,66.3-222.4L631.4,138z"/>
		</g>
	</g>
</g>
<g>
	<g>
		<polygon id="XMLID_00000057112019006271624820000015369862320531656099_" class="st13" points="619.3,193.1 725.5,271.2 
			832.3,254.4 832.3,292.8 712.7,317.5 610.7,273.9 		"/>
	</g>
	<g>
		<defs>
			<polygon id="SVGID_00000180342566578194425390000013119563105401281725_" points="619.3,193.1 725.5,271.2 832.3,254.4 
				832.3,292.8 712.7,317.5 610.7,273.9 			"/>
		</defs>
		<clipPath id="SVGID_00000023259696137192258140000016480705318019226550_">
			<use xlink:href="#SVGID_00000180342566578194425390000013119563105401281725_"  style="overflow:visible;"/>
		</clipPath>
		<path style="clip-path:url(#SVGID_00000023259696137192258140000016480705318019226550_);fill:#869971;" d="M601.4,277.4
			c0,0,33.4,2.2,45.7,0s38,6.4,53,16.5s45.5,11.5,71.6,8.7s36.4,14.8,36.4,14.8S796.3,350,785.6,350s-197.5-42-197.5-42L601.4,277.4
			z"/>
	</g>
</g>
<g>
	<g>
		<path id="XMLID_00000179624308887288535920000016621945639511090347_" class="st16" d="M1221.8,122.1c2.1,9.4,11.1,24.6,18,30.9
			c14.3,13.2,48.4-18.6,65.1-20c30.5-2.4,36.5-5.8,33.5-45.2c-3.1-39.4-30.3-69.5-60.8-67.1c-21.9,1.7-48.4,7.2-56,42.8
			c-0.6,2.7-1.1,11.9-1.4,15s-7.1,22.2-7.1,25.7C1212.9,114.9,1218.6,107.5,1221.8,122.1z"/>
	</g>
	<g>
		<defs>
			<path id="SVGID_00000160870437801284868150000004228479758047506080_" d="M1221.8,122.1c2.1,9.4,11.1,24.6,18,30.9
				c14.3,13.2,48.4-18.6,65.1-20c30.5-2.4,36.5-5.8,33.5-45.2c-3.1-39.4-30.3-69.5-60.8-67.1c-21.9,1.7-48.4,7.2-56,42.8
				c-0.6,2.7-1.1,11.9-1.4,15s-7.1,22.2-7.1,25.7C1212.9,114.9,1218.6,107.5,1221.8,122.1z"/>
		</defs>
		<clipPath id="SVGID_00000079479230506908020250000005611044941815512734_">
			<use xlink:href="#SVGID_00000160870437801284868150000004228479758047506080_"  style="overflow:visible;"/>
		</clipPath>
		<path style="clip-path:url(#SVGID_00000079479230506908020250000005611044941815512734_);fill:#D2AB7E;" d="M1239.8,32.4
			c4.3,10.7,26.4,39.9,23.9,56s8.9,23.3,0,39.7s-36.9,17.6-39.6,21.4c-2.7,3.8,11.8,29.2,11.8,29.2h63.1l36.4-93.3l-67.7-52.1
			L1239.8,32.4z"/>
	</g>
</g>
<g>
	<g>
		<path id="XMLID_00000034796611741373916460000016656591083782468229_" class="st18" d="M1315.1,161.5l33.8,61.6
			c0,0,34.9,147,44.8,183.5c9.8,36.5,2.9,37,2.9,37l-141.7,11l-19.1-256.4l32.9-36.7L1315.1,161.5L1315.1,161.5z"/>
	</g>
	<g>
		<defs>
			<path id="SVGID_00000040572931758674406020000014433083160518550935_" d="M1315.1,161.5l33.8,61.6c0,0,34.9,147,44.8,183.5
				c9.8,36.5,2.9,37,2.9,37l-141.7,11l-19.1-256.4l32.9-36.7L1315.1,161.5L1315.1,161.5z"/>
		</defs>
		<clipPath id="SVGID_00000005983489968905125650000017343338722571021723_">
			<use xlink:href="#SVGID_00000040572931758674406020000014433083160518550935_"  style="overflow:visible;"/>
		</clipPath>
		<path style="clip-path:url(#SVGID_00000005983489968905125650000017343338722571021723_);fill:#560000;" d="M1228,169.4
			c0,0,20.7,179.6,62.4,222.4s-36.1,54.7-36.1,54.7l-89.6-14.1L1228,169.4z"/>
	</g>
</g>
<g>
	<g>
		<polygon id="XMLID_00000133497164332418912490000007777542924034868909_" class="st18" points="1251.8,188.6 1168.8,309.5 
			1056.9,272.6 1059.9,310.9 1173.2,366.4 1272.4,288.6 		"/>
	</g>
	<g>
		<defs>
			<polygon id="SVGID_00000062910997233036880540000005945889032860364469_" points="1251.8,188.6 1168.8,309.5 1056.9,272.6 
				1059.9,310.9 1173.2,366.4 1272.4,288.6 			"/>
		</defs>
		<clipPath id="SVGID_00000039102720416523339990000005488267750993626254_">
			<use xlink:href="#SVGID_00000062910997233036880540000005945889032860364469_"  style="overflow:visible;"/>
		</clipPath>
		<path style="clip-path:url(#SVGID_00000039102720416523339990000005488267750993626254_);fill:#690000;" d="M1286.1,277.4
			l-36.4,12.8c0,0-66.3,60.9-75.9,60.9s-90.9-38.5-90.9-38.5l-30.2-4.6l4.1,41l124.4,37L1286.1,277.4z"/>
	</g>
</g>
<g>
	<g>
		<path id="XMLID_00000137826517670684709500000015936727670004288923_" class="st21" d="M665.7,45.6c0,0-12.8-10.3-29.7,18.1
			s-7.8,33.6-7.8,33.6l-15.1-11.8l6,28.6l-16.9,3.4c0,0,9.2,16.8,9.2,19.3s3.4,11.8,3.4,11.8l-7.6,8c0,0-30.5,5-42.7-4.3
			c-12.2-9.2-11.9-10.5-11.9-10.5v-21l-6.7-5.9V83c0,0,1.7-40.4,6.7-44.6S577,7.3,592.1,7.3s36.6,0,43.9,3.4s39.1,14.3,39.6,21.9
			S665.7,45.6,665.7,45.6z"/>
	</g>
	<g>
		<g>
			<defs>
				<path id="SVGID_00000021806565965166684570000010266121163189663400_" d="M665.7,45.6c0,0-12.8-10.3-29.7,18.1
					s-7.8,33.6-7.8,33.6l-15.1-11.8l6,28.6l-16.9,3.4c0,0,9.2,16.8,9.2,19.3s3.4,11.8,3.4,11.8l-7.6,8c0,0-30.5,5-42.7-4.3
					c-12.2-9.2-11.9-10.5-11.9-10.5v-21l-6.7-5.9V83c0,0,1.7-40.4,6.7-44.6S577,7.3,592.1,7.3s36.6,0,43.9,3.4s39.1,14.3,39.6,21.9
					S665.7,45.6,665.7,45.6z"/>
			</defs>
			<clipPath id="SVGID_00000121241717957418323290000017849938506301779075_">
				<use xlink:href="#SVGID_00000021806565965166684570000010266121163189663400_"  style="overflow:visible;"/>
			</clipPath>
			<path style="clip-path:url(#SVGID_00000121241717957418323290000017849938506301779075_);fill:#452310;" d="M668.1-6
				c0,0.7-57.6,17.8-57.4,35.6s-5.4,26.4-17.5,32.1s-32.1,20-22.8,33.5s11.4,25.7,5,38.5s-29.5,44.9-29.5,44.9L478.4,76.4L537.6-6
				H668.1z"/>
		</g>
	</g>
</g>
<path d="M671.6,76.4c0,0,0.8,0.1,1.7,3s-0.5,5.9-0.5,5.9l-10.3-1.8L671.6,76.4z"/>
<path d="M1230.1,72.4c0,0-0.8,0.1-1.8,3s0.5,5.9,0.5,5.9l10.9-1.8L1230.1,72.4z"/>
<g class="st23">
	<path class="st13" d="M888.3,24.1v72h69.3v18.4h-69.3v72.7h-19.6v-72.7h-69.3V96.1h69.3v-72C868.7,24.1,888.3,24.1,888.3,24.1z"/>
</g>
<g class="st23">
	<path class="st24" d="M890.7,25.5v72H960v18.4h-69.3v72.7h-19.6v-72.7h-69.3V97.5h69.3v-72H890.7z"/>
</g>
<g>
	<g>
		<path id="XMLID_00000038388418972749085360000005755825555536199605_" class="st25" d="M1242.6,46c0,0,37.9,3.6,35.3,27.8
			s-5.6,13.8-5.6,50.3c0,33.8-36.4,26.2,0,64.5c14.3,15.1,53.1,56.2,52.2,88.8c-1.1,40.1,56.4,78.7,56.4,78.7s-22.8-58.4-17.1-100.8
			s0-52.4-15-71s7.8-88.7,9.3-101.7s-2.9-68-30.7-75.3c-79.8-21.1-80.7,13-91.1,18.2S1242.6,46,1242.6,46z"/>
	</g>
	<g>
		<defs>
			<path id="SVGID_00000096025511653347204350000018219474235861203866_" d="M1242.6,46c0,0,37.9,3.6,35.3,27.8s-5.6,13.8-5.6,50.3
				c0,33.8-36.4,26.2,0,64.5c14.3,15.1,53.1,56.2,52.2,88.8c-1.1,40.1,56.4,78.7,56.4,78.7s-22.8-58.4-17.1-100.8s0-52.4-15-71
				s7.8-88.7,9.3-101.7s-2.9-68-30.7-75.3c-79.8-21.1-80.7,13-91.1,18.2S1242.6,46,1242.6,46z"/>
		</defs>
		<clipPath id="SVGID_00000012470381525871709430000012965901560444486543_">
			<use xlink:href="#SVGID_00000096025511653347204350000018219474235861203866_"  style="overflow:visible;"/>
		</clipPath>
		<path style="clip-path:url(#SVGID_00000012470381525871709430000012965901560444486543_);fill:#1F0000;" d="M1263.7-24.2
			c17.1,29.9,14.9,59.9,19.2,63.1c4.3,3.2,30.5,30.7,34.5,43.7s12.8,82.6,13.6,96s-1.8,57.1,7.7,92.4s15.6,31.1,32.9,46.5
			c17.2,15.5,31.1-43.5,34.3-98.5c3.2-55-6.9-282.8-6.9-282.8L1263.7-24.2z"/>
	</g>
</g>
</svg>
