<?xml version="1.0" encoding="utf-8"?>
<!-- Generator: Adobe Illustrator 26.0.3, SVG Export Plug-In . SVG Version: 6.00 Build 0)  -->
<svg version="1.1" id="Слой_1" xmlns="http://www.w3.org/2000/svg" xmlns:xlink="http://www.w3.org/1999/xlink" x="0px" y="0px"
	 viewBox="0 0 1920 386" enable-background="new 0 0 1920 386" xml:space="preserve">
<rect x="336.2" fill="#A36755" width="1368.5" height="386"/>
<g>
	<g>
		<g>
			<path id="XMLID_00000091017690886273474730000004683794767781391537_" fill="#EE0000" d="M1026,234.4c0,0-5.7-6.8-11.5-7.7
				s-22.2-5-30.4,22.6s9.3,36.1,11.6,36.6c1.6,0.3,5,1.1,6.6,1.7c2.1,0.8,4.7,3.3,6.7,4.4c7.8,4,25.8,4.8,37.7-21.7
				s-9.8-33.3-9.8-33.3L1026,234.4z"/>
		</g>
		<g>
			<g>
				<g>
					<g>
						<g>
							<g>
								<g>
									<defs>
										<path id="SVGID_1_" d="M1026,234.4c0,0-5.7-6.8-11.5-7.7s-22.2-5-30.4,22.6s9.3,36.1,11.6,36.6c1.6,0.3,5,1.1,6.6,1.7
											c2.1,0.8,4.7,3.3,6.7,4.4c7.8,4,25.8,4.8,37.7-21.7s-9.8-33.3-9.8-33.3L1026,234.4z"/>
									</defs>
									<clipPath id="SVGID_00000103981808031497776660000002706716542892649870_">
										<use xlink:href="#SVGID_1_"  overflow="visible"/>
									</clipPath>
									<path clip-path="url(#SVGID_00000103981808031497776660000002706716542892649870_)" fill="#B60000" d="M1020.4,227.9
										c0,0-0.1,6.7,1.6,8.4s5,0.5,6.7,0.6s4.1-0.1,7.6,1.7s11.7,8.8,10.9,15.6c-0.9,6.8-10.2,24.1-15.2,27.7
										c-5.1,3.5-22.4,2.8-26.8,2c-4.4-0.9-20.5-8.1-20.5-8.1l-12,14.9l78.9,20l25-67.5L1020.4,227.9z"/>
								</g>
							</g>
						</g>
					</g>
				</g>
			</g>
		</g>
		<g>
			<g>
				<g>
					<g>
						<g>
							<g>
								<g>
									<defs>
										<path id="SVGID_00000054265994213641540880000009158493926901239974_" d="M1026,234.4c0,0-5.7-6.8-11.5-7.7
											s-22.2-5-30.4,22.6s9.3,36.1,11.6,36.6c1.6,0.3,5,1.1,6.6,1.7c2.1,0.8,4.7,3.3,6.7,4.4c7.8,4,25.8,4.8,37.7-21.7
											s-9.8-33.3-9.8-33.3L1026,234.4z"/>
									</defs>
									<clipPath id="SVGID_00000165956473257355209420000002416670537442111879_">
										<use xlink:href="#SVGID_00000054265994213641540880000009158493926901239974_"  overflow="visible"/>
									</clipPath>
									
										<path opacity="0.36" clip-path="url(#SVGID_00000165956473257355209420000002416670537442111879_)" fill="#FFFFFF" enable-background="new    " d="
										M1003.2,243.1c-2.9,2-6.6,5.6-7.7,4.1s0.9-7.6,3.7-9.7c2.9-2,6.1-2.4,7.2-0.9C1007.5,238.2,1006.1,241.1,1003.2,243.1z"/>
								</g>
							</g>
						</g>
					</g>
				</g>
			</g>
		</g>
		<g>
			<g>
				<g>
					<g>
						<g>
							<g>
								<g>
									<defs>
										<path id="SVGID_00000065055801031317624430000012743148778962153385_" d="M1026,234.4c0,0-5.7-6.8-11.5-7.7
											s-22.2-5-30.4,22.6s9.3,36.1,11.6,36.6c1.6,0.3,5,1.1,6.6,1.7c2.1,0.8,4.7,3.3,6.7,4.4c7.8,4,25.8,4.8,37.7-21.7
											s-9.8-33.3-9.8-33.3L1026,234.4z"/>
									</defs>
									<clipPath id="SVGID_00000124161811470437952450000003166549879378440881_">
										<use xlink:href="#SVGID_00000065055801031317624430000012743148778962153385_"  overflow="visible"/>
									</clipPath>
									
										<path opacity="0.36" clip-path="url(#SVGID_00000124161811470437952450000003166549879378440881_)" fill="#FFFFFF" enable-background="new    " d="
										M995.6,254.2c-0.5-0.2-1.5-0.1-0.9-1.2c0.5-1.2,2.3-3.2,2.8-3s0.5,1.3-0.1,2.5C996.9,253.7,996.1,254.5,995.6,254.2z"/>
								</g>
							</g>
						</g>
					</g>
				</g>
			</g>
		</g>
	</g>
	<path fill="#603813" d="M1043.8,224.4c-0.3,0.2-2.3,0.3-4.9,1.4c-2.3,1-13.2,9.8-13.2,9.8l-1.6-0.7c0,0,9.6-6.6,13.7-10.1
		C1041.9,221.1,1045.1,223.6,1043.8,224.4z"/>
	<path fill="#5F9D00" d="M1020.7,208.9c0,0,0.5,7.8,3,10.1c2.5,2.4,8.9,10.1,8.9,10.1s2.2-9.6,0.4-13
		C1031,212.8,1020.7,208.9,1020.7,208.9z"/>
</g>
<polygon fill="#A37155" points="960,-0.1 1208.5,0 1629.8,386 1381.4,386 "/>
<polygon fill="#A37155" points="327.7,0.5 358.7,3.3 759.3,386 723.1,386 "/>
<polygon fill="#A37155" points="897.9,0.7 907.3,-10.2 1308.6,364.1 1299.3,374.9 "/>
<polygon fill="#A37155" points="240,7.2 246.6,0 670.3,386 656.9,386.5 "/>
<polygon fill="#CEBE70" points="633.3,178.6 588.2,166.7 588.2,142.5 633.3,149.6 "/>
<g>
	<g>
		<path id="XMLID_00000078023083463301403180000009988238256615135925_" fill="#FEDCA3" d="M820.5,262.9c0,0,51.7-6.9,52.7,0.5
			c0.3,2.1-13.3,6.7-11.7,8c3.1,2.5,45.9-6.7,54.5-5.8c12.6,1.4-32.4,24.2-44.8,24.6c-12.8,0.5-50.8-3-50.8-3L820.5,262.9
			L820.5,262.9L820.5,262.9z"/>
	</g>
	<g>
		<g>
			<defs>
				<path id="SVGID_00000033351337475909284350000017771371866074357379_" d="M820.5,262.9c0,0,51.7-6.9,52.7,0.5
					c0.3,2.1-13.3,6.7-11.7,8c3.1,2.5,45.9-6.7,54.5-5.8c12.6,1.4-32.4,24.2-44.8,24.6c-12.8,0.5-50.8-3-50.8-3L820.5,262.9
					L820.5,262.9L820.5,262.9z"/>
			</defs>
			<clipPath id="SVGID_00000164471693161150742290000008263594968553851300_">
				<use xlink:href="#SVGID_00000033351337475909284350000017771371866074357379_"  overflow="visible"/>
			</clipPath>
			<path clip-path="url(#SVGID_00000164471693161150742290000008263594968553851300_)" fill="#E2B87E" d="M827,280.5
				c0,0,44.1,1.3,49.7,2.5c5.6,1.3,44.9-14.3,44.9-14.3l1.6,34.2c0,0-93,0.4-94.2-2.1C827.8,298.2,827,280.5,827,280.5z"/>
		</g>
	</g>
</g>
<g>
	<g>
		<path id="XMLID_00000075846307176697839670000017193121092521780147_" fill="#FEDCA3" d="M1065.5,278.3c0,0-54.3-7.6-55.4,0.5
			c-0.4,2.4,13.9,7.5,12.3,8.9c-3.3,2.8-48.3-7.5-57.3-6.4c-13.2,1.6,34.1,26.9,47.1,27.3c13.5,0.5,53.4-3.3,53.4-3.3v-27.1h-0.1
			V278.3z"/>
	</g>
	<g>
		<g>
			<defs>
				<path id="SVGID_00000155837126953643629170000011024093814810055071_" d="M1065.5,278.3c0,0-54.3-7.6-55.4,0.5
					c-0.4,2.4,13.9,7.5,12.3,8.9c-3.3,2.8-48.3-7.5-57.3-6.4c-13.2,1.6,34.1,26.9,47.1,27.3c13.5,0.5,53.4-3.3,53.4-3.3v-27.1h-0.1
					V278.3z"/>
			</defs>
			<clipPath id="SVGID_00000062879277474208859430000011346048611880418229_">
				<use xlink:href="#SVGID_00000155837126953643629170000011024093814810055071_"  overflow="visible"/>
			</clipPath>
			<path clip-path="url(#SVGID_00000062879277474208859430000011346048611880418229_)" fill="#E2B87E" d="M1058.7,297.9
				c0,0-46.3,1.4-52.2,2.8c-5.8,1.4-47.2-15.9-47.2-15.9l-1.7,38c0,0,97.7,0.5,98.9-2.3S1058.7,297.9,1058.7,297.9z"/>
		</g>
	</g>
</g>
<g>
	<g>
		<path id="XMLID_00000091707772970772868560000016226439418768717746_" fill="#FEDCA3" d="M682.3,84c0.4,2.5,7.7,16.9,9.2,24
			c0.4,1.7-6.2,0.3-6.2,2.2c-0.1,18-0.9,24.4-5.2,34.5c-4.8,11.2-63.5,9.6-78.7,6.9c-29.4-5.2-48.9-24.8-48.9-64.4
			s26.6-63.1,57.2-63.1S673.1,23.4,682.3,84z"/>
	</g>
	<g>
		<g>
			<defs>
				<path id="SVGID_00000118389499365475518520000009315587155613277849_" d="M682.3,84c0.4,2.5,7.7,16.9,9.2,24
					c0.4,1.7-6.2,0.3-6.2,2.2c-0.1,18-0.9,24.4-5.2,34.5c-4.8,11.2-63.5,9.6-78.7,6.9c-29.4-5.2-48.9-24.8-48.9-64.4
					s26.6-63.1,57.2-63.1S673.1,23.4,682.3,84z"/>
			</defs>
			<clipPath id="SVGID_00000132057309663845910380000014283957305657386883_">
				<use xlink:href="#SVGID_00000118389499365475518520000009315587155613277849_"  overflow="visible"/>
			</clipPath>
			<path clip-path="url(#SVGID_00000132057309663845910380000014283957305657386883_)" fill="#E0C88B" d="M641.7,24.1
				c1.4,2.9-23.5,93.9-16.4,103.9s57.7,20.7,57.7,20.7l-9.4,26.4l-121.1,3.5L641.7,24.1z"/>
		</g>
	</g>
</g>
<g>
	<g>
		<path id="XMLID_00000137092167066261148510000009353626280975629985_" fill="#6FB471" d="M583.6,158.9l-29,64.1
			c0,0-23.5,149.2-30.5,186.4c-7,37.1,0,37.1,0,37.1h142.1l9.3-132.7l-38-141.4L583.6,158.9z"/>
	</g>
	<g>
		<g>
			<g>
				<defs>
					<path id="SVGID_00000065790033424562974450000001222501660117414026_" d="M583.6,158.9l-29,64.1c0,0-23.5,149.2-30.5,186.4
						c-7,37.1,0,37.1,0,37.1h142.1l9.3-132.7l-38-141.4L583.6,158.9z"/>
				</defs>
				<clipPath id="SVGID_00000168088082177666174690000007421154438955008907_">
					<use xlink:href="#SVGID_00000065790033424562974450000001222501660117414026_"  overflow="visible"/>
				</clipPath>
				<path clip-path="url(#SVGID_00000168088082177666174690000007421154438955008907_)" fill="#88855E" d="M631.4,138l-59.6,121.9
					l-5.7,106.5l22.1,83.8l-96.9,22.1c0,0-27.1-100.5-25.7-110.5s66.3-222.4,66.3-222.4L631.4,138z"/>
			</g>
		</g>
	</g>
</g>
<g>
	<g>
		<polygon id="XMLID_00000057112019006271624820000015369862320531656099_" fill="#6FB471" points="619.3,193.1 725.5,271.2 
			832.3,254.4 832.3,292.8 712.7,317.5 610.7,273.9 		"/>
	</g>
	<g>
		<g>
			<defs>
				<polygon id="SVGID_00000076586811372743870360000008677003467892210566_" points="619.3,193.1 725.5,271.2 832.3,254.4 
					832.3,292.8 712.7,317.5 610.7,273.9 				"/>
			</defs>
			<clipPath id="SVGID_00000152261572081676581550000007154480477302621623_">
				<use xlink:href="#SVGID_00000076586811372743870360000008677003467892210566_"  overflow="visible"/>
			</clipPath>
			<path clip-path="url(#SVGID_00000152261572081676581550000007154480477302621623_)" fill="#869971" d="M601.4,277.4
				c0,0,33.4,2.2,45.7,0s38,6.4,53,16.5s45.5,11.5,71.6,8.7s36.4,14.8,36.4,14.8S796.3,350,785.6,350s-197.5-42-197.5-42
				L601.4,277.4z"/>
		</g>
	</g>
</g>
<g>
	<g>
		<path id="XMLID_00000179624308887288535920000016621945639511090347_" fill="#F7D0A3" d="M1221.8,122.1c2.1,9.4,11.1,24.6,18,30.9
			c14.3,13.2,48.4-18.6,65.1-20c30.5-2.4,36.5-5.8,33.5-45.2c-3.1-39.4-30.3-69.5-60.8-67.1c-21.9,1.7-48.4,7.2-56,42.8
			c-0.6,2.7-1.1,11.9-1.4,15s-7.1,22.2-7.1,25.7C1212.9,114.9,1218.6,107.5,1221.8,122.1z"/>
	</g>
	<g>
		<g>
			<defs>
				<path id="SVGID_00000166648405878605271530000012195755247979012753_" d="M1221.8,122.1c2.1,9.4,11.1,24.6,18,30.9
					c14.3,13.2,48.4-18.6,65.1-20c30.5-2.4,36.5-5.8,33.5-45.2c-3.1-39.4-30.3-69.5-60.8-67.1c-21.9,1.7-48.4,7.2-56,42.8
					c-0.6,2.7-1.1,11.9-1.4,15s-7.1,22.2-7.1,25.7C1212.9,114.9,1218.6,107.5,1221.8,122.1z"/>
			</defs>
			<clipPath id="SVGID_00000147198436606029085500000018408047035210621607_">
				<use xlink:href="#SVGID_00000166648405878605271530000012195755247979012753_"  overflow="visible"/>
			</clipPath>
			<path clip-path="url(#SVGID_00000147198436606029085500000018408047035210621607_)" fill="#D2AB7E" d="M1239.8,32.4
				c4.3,10.7,26.4,39.9,23.9,56s8.9,23.3,0,39.7s-36.9,17.6-39.6,21.4c-2.7,3.8,11.8,29.2,11.8,29.2h63.1l36.4-93.3l-67.7-52.1
				L1239.8,32.4z"/>
		</g>
	</g>
</g>
<g>
	<g>
		<path id="XMLID_00000034796611741373916460000016656591083782468229_" fill="#870000" d="M1315.1,161.5l33.8,61.6
			c0,0,34.9,147,44.8,183.5c9.8,36.5,2.9,37,2.9,37l-141.7,11l-19.1-256.4l32.9-36.7L1315.1,161.5L1315.1,161.5z"/>
	</g>
	<g>
		<g>
			<defs>
				<path id="SVGID_00000040552545664377295550000007940772567059147408_" d="M1315.1,161.5l33.8,61.6c0,0,34.9,147,44.8,183.5
					c9.8,36.5,2.9,37,2.9,37l-141.7,11l-19.1-256.4l32.9-36.7L1315.1,161.5L1315.1,161.5z"/>
			</defs>
			<clipPath id="SVGID_00000022558408579707429010000017942910506396603799_">
				<use xlink:href="#SVGID_00000040552545664377295550000007940772567059147408_"  overflow="visible"/>
			</clipPath>
			<path clip-path="url(#SVGID_00000022558408579707429010000017942910506396603799_)" fill="#560000" d="M1228,169.4
				c0,0,20.7,179.6,62.4,222.4s-36.1,54.7-36.1,54.7l-89.6-14.1L1228,169.4z"/>
		</g>
	</g>
</g>
<g>
	<g>
		<polygon id="XMLID_00000133497164332418912490000007777542924034868909_" fill="#870000" points="1251.8,188.6 1168.8,309.5 
			1056.9,272.6 1059.9,310.9 1173.2,366.4 1272.4,288.6 		"/>
	</g>
	<g>
		<g>
			<defs>
				<polygon id="SVGID_00000063614266474680948850000006249669210999203253_" points="1251.8,188.6 1168.8,309.5 1056.9,272.6 
					1059.9,310.9 1173.2,366.4 1272.4,288.6 				"/>
			</defs>
			<clipPath id="SVGID_00000162310577432805863610000013658706080311859128_">
				<use xlink:href="#SVGID_00000063614266474680948850000006249669210999203253_"  overflow="visible"/>
			</clipPath>
			<path clip-path="url(#SVGID_00000162310577432805863610000013658706080311859128_)" fill="#690000" d="M1286.1,277.4l-36.4,12.8
				c0,0-66.3,60.9-75.9,60.9s-90.9-38.5-90.9-38.5l-30.2-4.6l4.1,41l124.4,37L1286.1,277.4z"/>
		</g>
	</g>
</g>
<g>
	<g>
		<path id="XMLID_00000137826517670684709500000015936727670004288923_" fill="#593424" d="M665.7,45.6c0,0-12.8-10.3-29.7,18.1
			s-7.8,33.6-7.8,33.6l-15.1-11.8l6,28.6l-16.9,3.4c0,0,9.2,16.8,9.2,19.3s3.4,11.8,3.4,11.8l-7.6,8c0,0-30.5,5-42.7-4.3
			c-12.2-9.2-11.9-10.5-11.9-10.5v-21l-6.7-5.9V83c0,0,1.7-40.4,6.7-44.6S577,7.3,592.1,7.3s36.6,0,43.9,3.4s39.1,14.3,39.6,21.9
			S665.7,45.6,665.7,45.6z"/>
	</g>
	<g>
		<g>
			<g>
				<defs>
					<path id="SVGID_00000147916273843671453880000015400003484363461311_" d="M665.7,45.6c0,0-12.8-10.3-29.7,18.1
						s-7.8,33.6-7.8,33.6l-15.1-11.8l6,28.6l-16.9,3.4c0,0,9.2,16.8,9.2,19.3s3.4,11.8,3.4,11.8l-7.6,8c0,0-30.5,5-42.7-4.3
						c-12.2-9.2-11.9-10.5-11.9-10.5v-21l-6.7-5.9V83c0,0,1.7-40.4,6.7-44.6S577,7.3,592.1,7.3s36.6,0,43.9,3.4s39.1,14.3,39.6,21.9
						S665.7,45.6,665.7,45.6z"/>
				</defs>
				<clipPath id="SVGID_00000141450558879953618810000011842776585832271007_">
					<use xlink:href="#SVGID_00000147916273843671453880000015400003484363461311_"  overflow="visible"/>
				</clipPath>
				<path clip-path="url(#SVGID_00000141450558879953618810000011842776585832271007_)" fill="#452310" d="M668.1-6
					c0,0.7-57.6,17.8-57.4,35.6s-5.4,26.4-17.5,32.1s-32.1,20-22.8,33.5s11.4,25.7,5,38.5s-29.5,44.9-29.5,44.9L478.4,76.4L537.6-6
					H668.1z"/>
			</g>
		</g>
	</g>
</g>
<path d="M671.6,76.4c0,0,0.8,0.1,1.7,3s-0.5,5.9-0.5,5.9l-10.3-1.8L671.6,76.4z"/>
<path d="M1230.1,72.4c0,0-0.8,0.1-1.8,3s0.5,5.9,0.5,5.9l10.9-1.8L1230.1,72.4z"/>
<g opacity="0.81">
	<path fill="#6FB471" d="M888.3,24.1v72h69.3v18.4h-69.3v72.7h-19.6v-72.7h-69.3V96.1h69.3v-72C868.7,24.1,888.3,24.1,888.3,24.1z"
		/>
</g>
<g opacity="0.81">
	<path fill="#542C2F" d="M890.7,25.5v72H960v18.4h-69.3v72.7h-19.6v-72.7h-69.3V97.5h69.3v-72H890.7z"/>
</g>
<g>
	<g>
		<path id="XMLID_00000038388418972749085360000005755825555536199605_" fill="#2B0F00" d="M1242.6,46c0,0,37.9,3.6,35.3,27.8
			s-5.6,13.8-5.6,50.3c0,33.8-36.4,26.2,0,64.5c14.3,15.1,53.1,56.2,52.2,88.8c-1.1,40.1,56.4,78.7,56.4,78.7s-22.8-58.4-17.1-100.8
			s0-52.4-15-71s7.8-88.7,9.3-101.7s-2.9-68-30.7-75.3c-79.8-21.1-80.7,13-91.1,18.2S1242.6,46,1242.6,46z"/>
	</g>
	<g>
		<g>
			<defs>
				<path id="SVGID_00000109745855232417324770000012247674225646270098_" d="M1242.6,46c0,0,37.9,3.6,35.3,27.8s-5.6,13.8-5.6,50.3
					c0,33.8-36.4,26.2,0,64.5c14.3,15.1,53.1,56.2,52.2,88.8c-1.1,40.1,56.4,78.7,56.4,78.7s-22.8-58.4-17.1-100.8s0-52.4-15-71
					s7.8-88.7,9.3-101.7s-2.9-68-30.7-75.3c-79.8-21.1-80.7,13-91.1,18.2S1242.6,46,1242.6,46z"/>
			</defs>
			<clipPath id="SVGID_00000049908530955621623810000008747997843309990530_">
				<use xlink:href="#SVGID_00000109745855232417324770000012247674225646270098_"  overflow="visible"/>
			</clipPath>
			<path clip-path="url(#SVGID_00000049908530955621623810000008747997843309990530_)" fill="#1F0000" d="M1263.7-24.2
				c17.1,29.9,14.9,59.9,19.2,63.1c4.3,3.2,30.5,30.7,34.5,43.7s12.8,82.6,13.6,96s-1.8,57.1,7.7,92.4s15.6,31.1,32.9,46.5
				c17.2,15.5,31.1-43.5,34.3-98.5c3.2-55-6.9-282.8-6.9-282.8L1263.7-24.2z"/>
		</g>
	</g>
</g>
</svg>
