<?xml version="1.0" encoding="utf-8"?>
<!-- Generator: Adobe Illustrator 26.0.3, SVG Export Plug-In . SVG Version: 6.00 Build 0)  -->
<svg version="1.1" xmlns="http://www.w3.org/2000/svg" xmlns:xlink="http://www.w3.org/1999/xlink" x="0px" y="0px"
	 viewBox="0 0 1080 1080" style="enable-background:new 0 0 1080 1080;" xml:space="preserve">
<style type="text/css">
	.st0{fill:#E38B00;stroke:#000000;stroke-miterlimit:10;}
	.st1{font-family:'MyriadPro-Regular';}
	.st2{font-size:163.8971px;}
	.st3{fill:none;stroke:#E38B00;stroke-width:5;stroke-miterlimit:10;}
	.st4{font-size:105.4318px;}
	.st5{fill:none;stroke:#008CAD;stroke-width:5;stroke-miterlimit:10;}
</style>
<g id="Слой_1">
	<circle class="st0" cx="540" cy="540" r="104.9"/>
	<text transform="matrix(1 0 0 1 497.9616 588.1039)" class="st1 st2">8</text>
	<g>
		<g>
			<g>
				<path d="M532.6,716.6l-6.7,0l0-57.4l6.7,0L532.6,716.6z M554.4,716.6l-6.7,0l0-57.4l6.7,0L554.4,716.6z"/>
			</g>
		</g>
		<g>
			<g>
				<path d="M409.9,659.6l-4.7-4.7l40.5-40.6l4.7,4.7L409.9,659.6z M425.3,675l-4.7-4.7l40.5-40.6l4.7,4.7L425.3,675z"/>
			</g>
		</g>
		<g>
			<g>
				<path d="M363.4,532.6l0-6.7l57.4,0l0,6.7L363.4,532.6z M363.4,554.4l0-6.7l57.4,0l0,6.7L363.4,554.4z"/>
			</g>
		</g>
		<g>
			<g>
				<path d="M420.4,409.9l4.7-4.7l40.6,40.5l-4.7,4.7L420.4,409.9z M405,425.3l4.7-4.7l40.6,40.5l-4.7,4.7L405,425.3z"/>
			</g>
		</g>
		<g>
			<g>
				<path d="M547.4,363.4l6.7,0l0,57.4l-6.7,0L547.4,363.4z M525.6,363.4l6.7,0l0,57.4l-6.7,0L525.6,363.4z"/>
			</g>
		</g>
		<g>
			<g>
				<path d="M670.1,420.4l4.7,4.7l-40.5,40.6l-4.7-4.7L670.1,420.4z M654.7,405l4.7,4.7l-40.5,40.6l-4.7-4.7L654.7,405z"/>
			</g>
		</g>
		<g>
			<g>
				<path d="M716.6,547.4l0,6.7l-57.4,0l0-6.7L716.6,547.4z M716.6,525.6l0,6.7l-57.4,0l0-6.7L716.6,525.6z"/>
			</g>
		</g>
		<g>
			<g>
				<path d="M659.6,670.1l-4.7,4.7l-40.6-40.5l4.7-4.7L659.6,670.1z M675,654.7l-4.7,4.7l-40.6-40.5l4.7-4.7L675,654.7z"/>
			</g>
		</g>
	</g>
	<circle class="st3" cx="544.6" cy="790.3" r="59.7"/>
	<text transform="matrix(0.9998 -1.844189e-02 1.844189e-02 0.9998 518.1503 824.7524)" class="st1 st4">6</text>
	<g>
		<circle class="st3" cx="364.3" cy="723.3" r="59.7"/>
		<text transform="matrix(1 0 0 1 337.223 754.2089)" class="st1 st4">8</text>
	</g>
	<circle class="st3" cx="289.7" cy="544.6" r="59.7"/>
	<text transform="matrix(0.9998 -1.843502e-02 1.843502e-02 0.9998 259.2195 576.0526)" class="st1 st4">4</text>
	<g>
		<g>
			<circle class="st3" cx="359.7" cy="366.3" r="59.7"/>
			<text transform="matrix(0.6939 -0.72 0.72 0.6939 363.2527 407.2113)" class="st1 st4">1</text>
		</g>
	</g>
	<circle class="st3" cx="535.4" cy="289.7" r="59.7"/>
	<text transform="matrix(0.9998 -1.844159e-02 1.844159e-02 0.9998 508.9168 321.1252)" class="st1 st4">5</text>
	<circle class="st3" cx="713.7" cy="359.7" r="59.7"/>
	<text transform="matrix(0.72 0.6939 -0.6939 0.72 674.7882 365.2527)" class="st1 st4">3</text>
	<circle class="st3" cx="790.3" cy="535.4" r="59.7"/>
	<text transform="matrix(0.9998 -1.843505e-02 1.843505e-02 0.9998 763.8461 566.8228)" class="st1 st4">2</text>
	<circle class="st3" cx="720.3" cy="713.7" r="59.7"/>
	<text transform="matrix(0.9998 -1.843443e-02 1.843443e-02 0.9998 695.7951 750.1721)" class="st1 st4">7</text>
</g>
<g id="Слой_2">
	<g>
		<g>
			<g>
				<path d="M538.9,922l-0.2-25.7l-24.7,0.2l0-6.6l24.7-0.2l-0.2-25.9l7,0l0.2,25.9l24.7-0.2l0,6.6l-24.7,0.2l0.2,25.7L538.9,922z"
					/>
			</g>
		</g>
		<g>
			<g>
				<path d="M269.1,809.3l18.1-18.3l-17.6-17.4l4.6-4.7l17.6,17.4l18.2-18.4l5,4.9l-18.2,18.4l17.6,17.4l-4.6,4.7L292.1,796
					L274,814.2L269.1,809.3z"/>
			</g>
		</g>
		<g>
			<g>
				<path d="M158,538.9l25.7-0.2l-0.2-24.7l6.6,0l0.2,24.7l25.9-0.2l0,7l-25.9,0.2l0.2,24.7l-6.6,0l-0.2-24.7l-25.7,0.2L158,538.9z"
					/>
			</g>
		</g>
		<g>
			<g>
				<path d="M270.7,269.1l18.3,18.1l17.4-17.6l4.7,4.6l-17.4,17.6l18.4,18.2l-4.9,5l-18.4-18.2l-17.4,17.6l-4.7-4.6l17.4-17.6
					L265.8,274L270.7,269.1z"/>
			</g>
		</g>
		<g>
			<g>
				<path d="M541.1,158l0.2,25.7l24.7-0.2l0,6.6l-24.7,0.2l0.2,25.9l-7,0l-0.2-25.9l-24.7,0.2l0-6.6l24.7-0.2l-0.2-25.7L541.1,158z"
					/>
			</g>
		</g>
		<g>
			<g>
				<path d="M810.9,270.7L792.9,289l17.6,17.4l-4.6,4.7l-17.6-17.4l-18.2,18.4l-5-4.9l18.2-18.4l-17.6-17.4l4.6-4.7l17.6,17.4
					l18.1-18.3L810.9,270.7z"/>
			</g>
		</g>
		<g>
			<g>
				<path d="M922,541.1l-25.7,0.2l0.2,24.7l-6.6,0l-0.2-24.7l-25.9,0.2l0-7l25.9-0.2l-0.2-24.7l6.6,0l0.2,24.7l25.7-0.2L922,541.1z"
					/>
			</g>
		</g>
		<g>
			<g>
				<path d="M809.3,810.9L791,792.9l-17.4,17.6l-4.7-4.6l17.4-17.6l-18.4-18.2l4.9-5l18.4,18.2l17.4-17.6l4.7,4.6L796,787.9
					l18.3,18.1L809.3,810.9z"/>
			</g>
		</g>
	</g>
	<g>
		<g>
			<circle class="st5" cx="536.8" cy="1007.3" r="67.4"/>
		</g>
		<g>
			<circle class="st5" cx="207.3" cy="868.2" r="67.4"/>
		</g>
		<g>
			<circle class="st5" cx="72.7" cy="536.8" r="67.4"/>
		</g>
		<g>
			<circle class="st5" cx="211.8" cy="207.3" r="67.4"/>
		</g>
		<g>
			<circle class="st5" cx="543.2" cy="72.7" r="67.4"/>
		</g>
		<g>
			<circle class="st5" cx="872.7" cy="211.8" r="67.4"/>
		</g>
		<g>
			<circle class="st5" cx="1007.3" cy="543.2" r="67.4"/>
		</g>
		<g>
			<circle class="st5" cx="868.2" cy="872.7" r="67.4"/>
		</g>
	</g>
</g>
</svg>
