<?xml version="1.0" encoding="utf-8"?>
<!-- Generator: Adobe Illustrator 26.0.3, SVG Export Plug-In . SVG Version: 6.00 Build 0)  -->
<svg version="1.1" id="Слой_1" xmlns="http://www.w3.org/2000/svg" xmlns:xlink="http://www.w3.org/1999/xlink" x="0px" y="0px"
	 viewBox="0 0 700 700" style="enable-background:new 0 0 700 700;" xml:space="preserve">
<style type="text/css">
	.st0{font-family:'Tahoma';}
	.st1{font-size:90.2438px;}
	.st2{fill:#B55B00;}
	.st3{fill:#003F00;}
	.st4{font-family:'ArialMT';}
	.st5{font-size:37px;}
	.st6{font-size:28px;}
</style>
<text transform="matrix(1 0 0 1 12.1145 370.0601)" class="st0 st1">125 695 344 674</text>
<g>
	<path class="st2" d="M152.4,388.2v0.6c0,8.5-2,14.4-5.8,17.6s-10.8,4.8-21.1,4.7L109,411c-8.1,0-13.7,1.1-16.7,3.4
		c-3,2.3-5,6.7-5.8,13.2h-3.9c-0.6-6.4-2.5-10.8-5.5-13.1c-3.1-2.3-8.6-3.5-16.7-3.5l-16.3-0.1c-10.1,0-17-1.7-20.8-4.9
		c-3.8-3.2-5.6-9.1-5.6-17.6v-0.6h3.9c0.1,5.6,1.5,9.5,4.1,11.5c2.7,2,8,3.1,15.9,3.1h10.9c11.4,0,19.2,1.3,23.3,3.7
		c4.2,2.4,7,6.9,8.5,13.4c1.6-6.5,4.5-10.9,8.7-13.3s12.1-3.6,23.6-3.5h11c8,0,13.4-1,16.2-3s4.2-5.9,4.3-11.4L152.4,388.2z"/>
</g>
<g>
	<path class="st2" d="M329.8,388.2v0.6c0,8.5-2,14.4-5.8,17.6s-10.8,4.8-21.1,4.7l-16.5-0.1c-8.1,0-13.7,1.1-16.7,3.4
		s-5,6.7-5.8,13.2H260c-0.6-6.4-2.5-10.8-5.5-13.1c-3.1-2.3-8.6-3.5-16.7-3.6l-16.3-0.1c-10.1,0-17-1.7-20.8-4.9
		c-3.8-3.2-5.6-9.1-5.6-17.6v-0.6h3.9c0.1,5.6,1.5,9.5,4.1,11.5c2.7,2,8,3.1,15.9,3.1h10.9c11.4,0,19.2,1.3,23.3,3.7
		c4.2,2.4,7,6.9,8.5,13.4c1.6-6.5,4.5-10.9,8.7-13.3s12.1-3.6,23.6-3.5h11c8,0,13.4-1,16.2-3c2.8-2,4.2-5.9,4.3-11.4L329.8,388.2z"
		/>
</g>
<g>
	<path class="st2" d="M506.9,388.2v0.6c0,8.5-2,14.4-5.8,17.6s-10.8,4.8-21.1,4.7l-16.5-0.1c-8.1,0-13.7,1.1-16.7,3.4
		s-5,6.7-5.8,13.2h-3.9c-0.6-6.4-2.5-10.8-5.5-13.1c-3.1-2.3-8.6-3.5-16.7-3.5l-16.3-0.1c-10.1,0-17-1.7-20.8-4.9
		c-3.8-3.2-5.6-9.1-5.6-17.6v-0.6h3.9c0.1,5.6,1.5,9.5,4.1,11.5c2.7,2,8,3.1,15.9,3.1H407c11.4,0,19.2,1.3,23.3,3.7
		c4.2,2.4,7,6.9,8.5,13.4c1.6-6.5,4.5-10.9,8.7-13.3s12.1-3.6,23.6-3.5h11c8,0,13.4-1,16.2-3c2.8-2,4.2-5.9,4.3-11.4L506.9,388.2z"
		/>
</g>
<g>
	<path class="st2" d="M677.4,388.2v0.6c0,8.5-2,14.4-5.8,17.6s-10.8,4.8-21.1,4.7L634,411c-8.1,0-13.7,1.1-16.7,3.4s-5,6.7-5.8,13.2
		h-3.9c-0.6-6.4-2.5-10.8-5.5-13.1c-3.1-2.3-8.6-3.5-16.7-3.6l-16.3-0.1c-10.1,0-17-1.7-20.8-4.9c-3.8-3.2-5.6-9.1-5.6-17.6v-0.6
		h3.9c0.1,5.6,1.5,9.5,4.1,11.5c2.7,2,8,3.1,15.9,3.1h10.9c11.4,0,19.2,1.3,23.3,3.7s7,6.9,8.5,13.4c1.6-6.5,4.5-10.9,8.7-13.3
		s12.1-3.6,23.6-3.5h11c8,0,13.4-1,16.2-3s4.2-5.9,4.3-11.4L677.4,388.2z"/>
</g>
<text transform="matrix(6.123234e-17 -1 1 6.123234e-17 47.3379 281.3555)" class="st3 st4 st5">сотни</text>
<text transform="matrix(6.123234e-17 -1 1 6.123234e-17 97.7905 281.3555)" class="st3 st4 st5">десятки</text>
<text transform="matrix(6.123234e-17 -1 1 6.123234e-17 152.4258 283.1826)" class="st3 st4 st5">единицы</text>
<text transform="matrix(6.123234e-17 -1 1 6.123234e-17 224.7607 280.4414)" class="st3 st4 st5">сотни</text>
<text transform="matrix(6.123234e-17 -1 1 6.123234e-17 275.2134 280.4414)" class="st3 st4 st5">десятки</text>
<text transform="matrix(6.123234e-17 -1 1 6.123234e-17 329.8486 282.2686)" class="st3 st4 st5">единицы</text>
<text transform="matrix(6.123234e-17 -1 1 6.123234e-17 402.1836 279.5273)" class="st3 st4 st5">сотни</text>
<text transform="matrix(6.123234e-17 -1 1 6.123234e-17 452.6362 279.5273)" class="st3 st4 st5">десятки</text>
<text transform="matrix(6.123234e-17 -1 1 6.123234e-17 507.2715 281.3555)" class="st3 st4 st5">единицы</text>
<text transform="matrix(6.123234e-17 -1 1 6.123234e-17 579.6064 278.6133)" class="st3 st4 st5">сотни</text>
<text transform="matrix(6.123234e-17 -1 1 6.123234e-17 630.0591 278.6133)" class="st3 st4 st5">десятки</text>
<text transform="matrix(6.123234e-17 -1 1 6.123234e-17 684.6943 280.4414)" class="st3 st4 st5">единицы</text>
<text transform="matrix(1 0 0 1 49.103 462.6797)" class="st4 st6">класс </text>
<text transform="matrix(1 0 0 1 9.703 496.2797)" class="st4 st6">миллиардов</text>
<text transform="matrix(1 0 0 1 226.5259 462.6797)" class="st4 st6">класс </text>
<text transform="matrix(1 0 0 1 193.9259 496.2797)" class="st4 st6">миллионов</text>
<text transform="matrix(1 0 0 1 403.5311 462.6797)" class="st4 st6">класс </text>
<text transform="matrix(1 0 0 1 404.1311 496.2797)" class="st4 st6">тысяч</text>
<text transform="matrix(1 0 0 1 574.0699 462.9873)" class="st4 st6">класс </text>
<text transform="matrix(1 0 0 1 564.8699 496.5873)" class="st4 st6">единиц</text>
</svg>
