<?xml version="1.0" encoding="utf-8"?>
<!-- Generator: Adobe Illustrator 26.0.3, SVG Export Plug-In . SVG Version: 6.00 Build 0)  -->
<svg version="1.1" id="Слой_1" xmlns="http://www.w3.org/2000/svg" xmlns:xlink="http://www.w3.org/1999/xlink" x="0px" y="0px"
	 viewBox="0 0 617.2 386" enable-background="new 0 0 617.2 386" xml:space="preserve">
<g id="фон">
</g>
<g id="Слой_1_00000037669356819251724510000000430858841767555985_">
	<g>
		<g>
			<g>
				<path id="XMLID_00000085950885036735414740000015742055956580783289_" fill="#CF0A0A" d="M157.5,116.3c0,0-36-17.2-61.7-9.9
					c-25.7,7.3-100.3,21.4-82.3,151.3s106,131.7,116.2,129.5c7.4-1.7,22.6-4.9,30.3-5.3c10.1-0.5,25.5,4.8,35.6,5.3
					c39.4,1.9,114.9-29.1,113.6-161.6c-1.3-132.4-102.9-119.1-102.9-119.1L157.5,116.3z"/>
			</g>
			<g>
				<g>
					<g>
						<g>
							<g>
								<defs>
									<path id="SVGID_1_" d="M157.5,116.3c0,0-36-17.2-61.7-9.9c-25.7,7.3-100.3,21.4-82.3,151.3s106,131.7,116.2,129.5
										c7.4-1.7,22.6-4.9,30.3-5.3c10.1-0.5,25.5,4.8,35.6,5.3c39.4,1.9,114.9-29.1,113.6-161.6
										c-1.3-132.4-102.9-119.1-102.9-119.1L157.5,116.3z"/>
								</defs>
								<clipPath id="SVGID_00000032608723166999984110000011204689253090275986_">
									<use xlink:href="#SVGID_1_"  overflow="visible"/>
								</clipPath>
								<path clip-path="url(#SVGID_00000032608723166999984110000011204689253090275986_)" fill="#970707" d="M122.5,100
									c0,0,12.2,28.2,22.5,31.9s21.4-7.7,28.6-10.3c7-2.8,16.4-8.3,34.3-7.4s64.7,14,74.1,44.1s3.7,119.1-10.3,143.5
									s-86.3,54.4-106,59s-99.1,5.4-99.1,5.4l-20.9,84.6l361.1-67.5L382.3,56.1L122.5,100z"/>
							</g>
						</g>
					</g>
				</g>
			</g>
			<g>
				<g>
					<g>
						<g>
							<g>
								<defs>
									<path id="SVGID_00000060006075908891386720000018076602401252134555_" d="M157.5,116.3c0,0-36-17.2-61.7-9.9
										c-25.7,7.3-100.3,21.4-82.3,151.3s106,131.7,116.2,129.5c7.4-1.7,22.6-4.9,30.3-5.3c10.1-0.5,25.5,4.8,35.6,5.3
										c39.4,1.9,114.9-29.1,113.6-161.6c-1.3-132.4-102.9-119.1-102.9-119.1L157.5,116.3z"/>
								</defs>
								<clipPath id="SVGID_00000030453717629331774460000011009629745288993211_">
									<use xlink:href="#SVGID_00000060006075908891386720000018076602401252134555_"  overflow="visible"/>
								</clipPath>
								
									<path opacity="0.36" clip-path="url(#SVGID_00000030453717629331774460000011009629745288993211_)" fill="#FFFFFF" enable-background="new    " d="
									M85.8,182.6c-7.3,20.7-13,52.8-24.9,48.6s-25.7-43.3-18.4-63.9c7.3-20.7,22.9-33.9,34.8-29.7
									C89.2,141.9,93.1,162,85.8,182.6z"/>
							</g>
						</g>
					</g>
				</g>
			</g>
		</g>
		<path fill="#41270F" d="M118.5,41.9c0.5,1.2,6,5.7,11.6,15c5.3,8.5,24,65.5,24,65.5h5.2c0,0-18-45.4-24.8-67.8
			C127.9,32.3,115.8,36.4,118.5,41.9z"/>
		<path fill="#4F7E06" d="M201.9,21.7c0,0-11.1,31.1-21,36.4c-9.8,5.2-37.3,25.3-37.3,25.3s6-43.9,15.5-54.3
			C168.5,18.8,201.9,21.7,201.9,21.7z"/>
	</g>
	<g>
		<g>
			<g>
				<path id="XMLID_00000052806653593771889620000013472412435152253315_" fill="#D00000" d="M518.6,185.3c0,0-24-16.7-43.4-14.3
					c-19.5,2.3-74.8,3.8-76.9,99.7c-2.1,95.7,55.3,114,62.9,113.4c5.6-0.4,19.2-6,24.8-5.4c7.3,0.8,21.6,4.9,28.7,6.5
					c28.2,5.8,86.3-7.7,100.7-103.4s-60.4-98-60.4-98L518.6,185.3z"/>
			</g>
			<g>
				<g>
					<g>
						<g>
							<g>
								<defs>
									<path id="SVGID_00000084496199224073482080000011832703370601864636_" d="M518.6,185.3c0,0-24-16.7-43.4-14.3
										c-19.5,2.3-74.8,3.8-76.9,99.7c-2.1,95.7,55.3,114,62.9,113.4c5.6-0.4,19.2-6,24.8-5.4c7.3,0.8,21.6,4.9,28.7,6.5
										c28.2,5.8,86.3-7.7,100.7-103.4s-60.4-98-60.4-98L518.6,185.3z"/>
								</defs>
								<clipPath id="SVGID_00000109715768500251891180000000044752286546620069_">
									<use xlink:href="#SVGID_00000084496199224073482080000011832703370601864636_"  overflow="visible"/>
								</clipPath>
								<path clip-path="url(#SVGID_00000109715768500251891180000000044752286546620069_)" fill="#980000" d="M495.3,169.5
									c0,0,5.6,21.7,12.6,25.7c7,3.8,16.4-3,21.8-4.2s12.8-4.1,25.5-1.5s45,17.6,48.3,40.4s-11.1,86.3-24.1,102.3
									s-68.6,29.3-83.3,30.3S424,355,424,355l-24.9,58.6l268.3-6.8l20.4-238.9L495.3,169.5z"/>
							</g>
						</g>
					</g>
				</g>
			</g>
			<g>
				<g>
					<g>
						<g>
							<g>
								<defs>
									<path id="SVGID_00000165218393093880159890000017513273994927674814_" d="M518.6,185.3c0,0-24-16.7-43.4-14.3
										c-19.5,2.3-74.8,3.8-76.9,99.7c-2.1,95.7,55.3,114,62.9,113.4c5.6-0.4,19.2-6,24.8-5.4c7.3,0.8,21.6,4.9,28.7,6.5
										c28.2,5.8,86.3-7.7,100.7-103.4s-60.4-98-60.4-98L518.6,185.3z"/>
								</defs>
								<clipPath id="SVGID_00000108276738774630814100000002396392204625713539_">
									<use xlink:href="#SVGID_00000165218393093880159890000017513273994927674814_"  overflow="visible"/>
								</clipPath>
								
									<path opacity="0.36" clip-path="url(#SVGID_00000108276738774630814100000002396392204625713539_)" fill="#FFFFFF" enable-background="new    " d="
									M453.9,233.7c-7.3,9-16.1,24-20.9,20c-4.9-4-4-25.3,3.4-34.3s17.2-13.1,22.1-9.1C463.3,214.2,461.3,224.7,453.9,233.7z"/>
							</g>
						</g>
					</g>
				</g>
			</g>
			<g>
				<g>
					<g>
						<g>
							<g>
								<defs>
									<path id="SVGID_00000132780662009793915790000012741298966391231397_" d="M518.6,185.3c0,0-24-16.7-43.4-14.3
										c-19.5,2.3-74.8,3.8-76.9,99.7c-2.1,95.7,55.3,114,62.9,113.4c5.6-0.4,19.2-6,24.8-5.4c7.3,0.8,21.6,4.9,28.7,6.5
										c28.2,5.8,86.3-7.7,100.7-103.4s-60.4-98-60.4-98L518.6,185.3z"/>
								</defs>
								<clipPath id="SVGID_00000005226758059105550880000006504957125673984132_">
									<use xlink:href="#SVGID_00000132780662009793915790000012741298966391231397_"  overflow="visible"/>
								</clipPath>
								
									<path opacity="0.36" clip-path="url(#SVGID_00000005226758059105550880000006504957125673984132_)" fill="#FFFFFF" enable-background="new    " d="
									M439.6,276.2c-1.7-0.3-4.6,1.2-4-3c0.7-4.2,4.5-12.4,6.4-12.2c1.7,0.3,2.6,3.8,2,8.1S441.5,276.5,439.6,276.2z"/>
							</g>
						</g>
					</g>
				</g>
			</g>
		</g>
		<path fill="#42260D" d="M566.4,137.3c-0.8,0.8-7,3-14.3,8.7c-6.6,5.2-33.4,43.2-33.4,43.2l-5.6-0.9c0,0,24.6-29.7,34.4-44.6
			C557.4,128.7,570,133.8,566.4,137.3z"/>
		<path fill="#5F9D00" d="M610.4,151.4c0,0-19.5-8.9-29.7-6s-40.5,8.6-40.5,8.6s18.9,18,30.4,17.7
			C582.2,171.5,610.4,151.4,610.4,151.4z"/>
	</g>
	<g>
		<g>
			<g>
				<path id="XMLID_00000091017690886273474730000004683794767781391537_" fill="#EE0000" d="M351.6,116.8c0,0-36.1-17.1-62-9.8
					c-25.8,7.3-100.7,21.3-82.6,150.4S313.6,388.3,323.8,386c7.4-1.7,22.8-4.9,30.4-5.3c10.1-0.5,25.7,4.8,35.7,5.3
					c39.6,1.7,115.4-29,114.1-160.6S400.8,107,400.8,107L351.6,116.8z"/>
			</g>
			<g>
				<g>
					<g>
						<g>
							<g>
								<defs>
									<path id="SVGID_00000089564581589192238130000012414499251021006990_" d="M351.6,116.8c0,0-36.1-17.1-62-9.8
										c-25.8,7.3-100.7,21.3-82.6,150.4S313.6,388.3,323.8,386c7.4-1.7,22.8-4.9,30.4-5.3c10.1-0.5,25.7,4.8,35.7,5.3
										c39.6,1.7,115.4-29,114.1-160.6S400.8,107,400.8,107L351.6,116.8z"/>
								</defs>
								<clipPath id="SVGID_00000098909561864208755800000005593884573261461383_">
									<use xlink:href="#SVGID_00000089564581589192238130000012414499251021006990_"  overflow="visible"/>
								</clipPath>
								<path clip-path="url(#SVGID_00000098909561864208755800000005593884573261461383_)" fill="#B60000" d="M316.4,100.6
									c0,0,12.3,27.9,22.6,31.6s21.6-7.5,28.7-10.3s16.5-8.3,34.4-7.4s65,14,74.4,43.8s3.7,118.3-10.3,142.6
									c-14.2,24.2-86.7,54-106.4,58.8c-19.7,4.8-99.5,5.4-99.5,5.4l-21,84.1L602,382.1L577.4,57L316.4,100.6z"/>
							</g>
						</g>
					</g>
				</g>
			</g>
			<g>
				<g>
					<g>
						<g>
							<g>
								<defs>
									<path id="SVGID_00000047049228199300616890000012051480037727116456_" d="M351.6,116.8c0,0-36.1-17.1-62-9.8
										c-25.8,7.3-100.7,21.3-82.6,150.4S313.6,388.3,323.8,386c7.4-1.7,22.8-4.9,30.4-5.3c10.1-0.5,25.7,4.8,35.7,5.3
										c39.6,1.7,115.4-29,114.1-160.6S400.8,107,400.8,107L351.6,116.8z"/>
								</defs>
								<clipPath id="SVGID_00000043415946788949406520000004579275626254075520_">
									<use xlink:href="#SVGID_00000047049228199300616890000012051480037727116456_"  overflow="visible"/>
								</clipPath>
								
									<path opacity="0.36" clip-path="url(#SVGID_00000043415946788949406520000004579275626254075520_)" fill="#FFFFFF" enable-background="new    " d="
									M274.3,195.8c-7.9,13.8-16.7,35.7-24.1,31.5s-10.9-33.1-2.9-46.9c7.9-13.8,20.5-21.3,27.9-17.1
									C282.8,167.6,282.2,182.2,274.3,195.8z"/>
							</g>
						</g>
					</g>
				</g>
			</g>
			<g>
				<g>
					<g>
						<g>
							<g>
								<defs>
									<path id="SVGID_00000066503927501688893880000000810838108589374391_" d="M351.6,116.8c0,0-36.1-17.1-62-9.8
										c-25.8,7.3-100.7,21.3-82.6,150.4S313.6,388.3,323.8,386c7.4-1.7,22.8-4.9,30.4-5.3c10.1-0.5,25.7,4.8,35.7,5.3
										c39.6,1.7,115.4-29,114.1-160.6S400.8,107,400.8,107L351.6,116.8z"/>
								</defs>
								<clipPath id="SVGID_00000059279947917711203900000005802127908034380202_">
									<use xlink:href="#SVGID_00000066503927501688893880000000810838108589374391_"  overflow="visible"/>
								</clipPath>
								
									<path opacity="0.36" clip-path="url(#SVGID_00000059279947917711203900000005802127908034380202_)" fill="#FFFFFF" enable-background="new    " d="
									M264.1,256c-2.5,0-6.1,2.5-6.1-3.3s3.4-17.7,5.8-17.7c2.5,0,4.5,4.6,4.5,10.5C268.5,251.3,266.6,256,264.1,256z"/>
							</g>
						</g>
					</g>
				</g>
			</g>
		</g>
		<path fill="#603813" d="M406,42c-0.9,1.2-8.9,5.6-17.5,14.8c-7.8,8.5-35.9,65.1-35.9,65.1h-7.8c0,0,27-45.1,37.1-67.4
			C392,32.2,410,36.5,406,42z"/>
		<path fill="#5F9D00" d="M281.4,22c0,0,16.7,31,31.4,36.1c14.7,5.2,55.7,25,55.7,25s-9-43.7-23-54S281.4,22,281.4,22z"/>
	</g>
</g>
</svg>
