<?xml version="1.0" encoding="utf-8"?>
<!-- Generator: Adobe Illustrator 26.0.3, SVG Export Plug-In . SVG Version: 6.00 Build 0)  -->
<svg version="1.1" id="Слой_1" xmlns="http://www.w3.org/2000/svg" xmlns:xlink="http://www.w3.org/1999/xlink" x="0px" y="0px"
	 viewBox="0 0 1920 1080" style="enable-background:new 0 0 1920 1080;" xml:space="preserve">
<style type="text/css">
	.st0{opacity:0.12;fill:#FF9039;enable-background:new    ;}
</style>
<g id="фон">
	<circle class="st0" cx="0" cy="48.6" r="275.3"/>
	<circle class="st0" cx="1977.1" cy="1162.2" r="275.3"/>
	<circle class="st0" cx="1968.6" cy="-112.4" r="275.3"/>
	<circle class="st0" cx="1229.3" cy="1162.2" r="127.5"/>
	<circle class="st0" cx="12.5" cy="1051" r="127.5"/>
	<circle class="st0" cx="263.7" cy="914.9" r="78.7"/>
	<circle class="st0" cx="327.8" cy="718.4" r="29.2"/>
	<circle class="st0" cx="1283.8" cy="211" r="29.2"/>
	<circle class="st0" cx="930.8" cy="540" r="29.2"/>
	<circle class="st0" cx="1024.3" cy="816.4" r="29.2"/>
	<circle class="st0" cx="155.8" cy="421.6" r="29.2"/>
	<circle class="st0" cx="1572.5" cy="886.9" r="29.2"/>
	<circle class="st0" cx="481.9" cy="1083.5" r="78.7"/>
	<circle class="st0" cx="1868.7" cy="250.7" r="39.7"/>
	<circle class="st0" cx="1441.7" cy="0" r="39.7"/>
	<circle class="st0" cx="541.3" cy="55" r="39.7"/>
	<circle class="st0" cx="1865.9" cy="816.4" r="39.7"/>
	<circle class="st0" cx="1752" cy="450.8" r="74.2"/>
	<circle class="st0" cx="687" cy="886.9" r="74.2"/>
	<circle class="st0" cx="1367.5" cy="578.4" r="74.2"/>
	<circle class="st0" cx="1627.6" cy="133.7" r="74.2"/>
	<circle class="st0" cx="538.6" cy="364.6" r="74.2"/>
	<circle class="st0" cx="40.6" cy="668.9" r="57.9"/>
</g>
<g id="Слой_1_00000050639528313333399610000013421230432136242064_">
</g>
</svg>
