<?xml version="1.0" encoding="utf-8"?>
<!-- Generator: Adobe Illustrator 26.0.3, SVG Export Plug-In . SVG Version: 6.00 Build 0)  -->
<svg version="1.1" id="Слой_1" xmlns="http://www.w3.org/2000/svg" xmlns:xlink="http://www.w3.org/1999/xlink" x="0px" y="0px"
	 viewBox="0 0 588.1 386" enable-background="new 0 0 588.1 386" xml:space="preserve">
<g id="фон">
</g>
<g>
	<g>
		<g>
			<g>
				<path id="XMLID_00000098219590588566617590000000585763384823272621_" fill="#999D08" d="M324.4,65.7c0,0-35.9-4.8-44.9,5
					s-29.8,52.3-43.4,63.4s-73.6,55-74.9,102s6.8,68.3,30.2,92.2c23.3,23.9,43.3,55.6,91.1,58.7s102.9-5.1,115.6-15.5
					s85-81.4,63.2-145.1c-21.7-63.7-40.3-37-57.3-72.5c-16.9-35.4-10.5-57.4-27.4-72.1C359.7,67.2,324.4,65.7,324.4,65.7z"/>
			</g>
			<g>
				<g>
					<defs>
						<path id="SVGID_00000018942633690426856490000010928585935102090941_" d="M324.4,65.7c0,0-35.9-4.8-44.9,5
							s-29.8,52.3-43.4,63.4s-73.6,55-74.9,102s6.8,68.3,30.2,92.2c23.3,23.9,43.3,55.6,91.1,58.7s102.9-5.1,115.6-15.5
							s85-81.4,63.2-145.1c-21.7-63.7-40.3-37-57.3-72.5c-16.9-35.4-10.5-57.4-27.4-72.1C359.7,67.2,324.4,65.7,324.4,65.7z"/>
					</defs>
					<clipPath id="SVGID_00000057111432365217829030000001766980036588673453_">
						<use xlink:href="#SVGID_00000018942633690426856490000010928585935102090941_"  overflow="visible"/>
					</clipPath>
					<path clip-path="url(#SVGID_00000057111432365217829030000001766980036588673453_)" fill="#897B08" d="M278.5,59
						c0,0,13.3,26.1,28.7,28.8c15.4,2.7,23.5-10.8,36.8-8.1c13.3,2.7,13.3,5.4,21.5,14.4s-6.1,45.1,20.5,65.8s40.9,61.3,38.9,94.6
						S390.1,357.2,374.7,368s-88,20.6-88,20.6l-2,27.1c0,0,232.3-33.3,242.6-32.4S559,186,559,183.3S443.3-10.4,443.3-10.4L278.5,59
						z"/>
				</g>
			</g>
			<g>
				<g>
					<defs>
						<path id="SVGID_00000039093041890138182530000017026670137031390870_" d="M324.4,65.7c0,0-35.9-4.8-44.9,5
							s-29.8,52.3-43.4,63.4s-73.6,55-74.9,102s6.8,68.3,30.2,92.2c23.3,23.9,43.3,55.6,91.1,58.7s102.9-5.1,115.6-15.5
							s85-81.4,63.2-145.1c-21.7-63.7-40.3-37-57.3-72.5c-16.9-35.4-10.5-57.4-27.4-72.1C359.7,67.2,324.4,65.7,324.4,65.7z"/>
					</defs>
					<clipPath id="SVGID_00000074440390167577210150000013651065669451086722_">
						<use xlink:href="#SVGID_00000039093041890138182530000017026670137031390870_"  overflow="visible"/>
					</clipPath>
					
						<path opacity="0.46" clip-path="url(#SVGID_00000074440390167577210150000013651065669451086722_)" fill="#FFFFFF" enable-background="new    " d="
						M235.7,161.4c-5.6,11.1-28.2,26.6-20.7,29.5s42.3-7.9,47.9-19s1.1-29.9-6.4-32.8C249,136.2,241.3,150.3,235.7,161.4z"/>
				</g>
			</g>
			<g>
				<g>
					<defs>
						<path id="SVGID_00000036968739306624941660000015356835460476016317_" d="M324.4,65.7c0,0-35.9-4.8-44.9,5
							s-29.8,52.3-43.4,63.4s-73.6,55-74.9,102s6.8,68.3,30.2,92.2c23.3,23.9,43.3,55.6,91.1,58.7s102.9-5.1,115.6-15.5
							s85-81.4,63.2-145.1c-21.7-63.7-40.3-37-57.3-72.5c-16.9-35.4-10.5-57.4-27.4-72.1C359.7,67.2,324.4,65.7,324.4,65.7z"/>
					</defs>
					<clipPath id="SVGID_00000062171454362709483040000006681672591268175521_">
						<use xlink:href="#SVGID_00000036968739306624941660000015356835460476016317_"  overflow="visible"/>
					</clipPath>
					
						<path opacity="0.46" clip-path="url(#SVGID_00000062171454362709483040000006681672591268175521_)" fill="#FFFFFF" enable-background="new    " d="
						M190.6,210.2c-2.2,4.5-9.2,11.5-7.5,12.2s11.4-5.3,13.6-9.8c2.2-4.5,2.5-11.2,0.8-11.9C195.8,200,192.8,205.7,190.6,210.2z"/>
				</g>
			</g>
		</g>
		<g>
			<path fill="#512107" d="M320.9,77.1c-9.9-10.4-19.2-21.5-26.4-34c-7.3-13.1-4.9-29.2,0.1-42.6l2.2,0.9
				c-2.3,6.5-3.7,13.5-3.9,20.4c-0.4,12.1,3.5,18.9,10.4,28.3c6.3,8.4,13.3,16.4,20.8,23.7L320.9,77.1L320.9,77.1z"/>
		</g>
	</g>
	<g>
		<g>
			<g>
				<path id="SVGID_1_" fill="#B9BE0A" d="M140.2,108.7c0,0-30.8-4.1-38.5,4.3s-25.6,44.9-37.3,54.4S1.2,214.6,0.1,254.9
					S6,313.5,26,334s37.1,47.7,78.1,50.4c41,2.7,88.3-4.4,99.1-13.3c10.9-8.9,72.9-69.8,54.2-124.5s-34.6-31.7-49.1-62.2
					s-9-49.2-23.5-61.8C170.5,110,140.2,108.7,140.2,108.7z"/>
			</g>
			<g>
				<g>
					<defs>
						<path id="SVGID_00000006671576023072824370000014010799066094512558_" d="M140.2,108.7c0,0-30.8-4.1-38.5,4.3
							s-25.6,44.9-37.3,54.4S1.2,214.6,0.1,254.9S6,313.5,26,334s37.1,47.7,78.1,50.4c41,2.7,88.3-4.4,99.1-13.3
							c10.9-8.9,72.9-69.8,54.2-124.5s-34.6-31.7-49.1-62.2s-9-49.2-23.5-61.8C170.5,110,140.2,108.7,140.2,108.7z"/>
					</defs>
					<clipPath id="SVGID_00000096037847947228011380000009935016612162743169_">
						<use xlink:href="#SVGID_00000006671576023072824370000014010799066094512558_"  overflow="visible"/>
					</clipPath>
					<path clip-path="url(#SVGID_00000096037847947228011380000009935016612162743169_)" fill="#AA980A" d="M100.8,102.9
						c0,0,11.4,22.4,24.6,24.7s20.2-9.3,31.6-7s11.4,4.6,18.4,12.4c7,7.7-5.3,38.7,17.6,56.4c22.8,17.8,35.1,52.6,33.4,81.2
						s-29.9,88.1-43,97.4c-13.2,9.3-75.5,17.7-75.5,17.7l-1.8,23.3c0,0,199.3-28.6,208.1-27.8c8.8,0.8,27.2-169.3,27.2-171.6
						S242.2,43.4,242.2,43.4L100.8,102.9z"/>
				</g>
			</g>
			<g>
				<g>
					<defs>
						<path id="SVGID_00000001623197445360868050000001230988481988744071_" d="M140.2,108.7c0,0-30.8-4.1-38.5,4.3
							s-25.6,44.9-37.3,54.4S1.2,214.6,0.1,254.9S6,313.5,26,334s37.1,47.7,78.1,50.4c41,2.7,88.3-4.4,99.1-13.3
							c10.9-8.9,72.9-69.8,54.2-124.5s-34.6-31.7-49.1-62.2s-9-49.2-23.5-61.8C170.5,110,140.2,108.7,140.2,108.7z"/>
					</defs>
					<clipPath id="SVGID_00000148626557303735732830000018058520844654002579_">
						<use xlink:href="#SVGID_00000001623197445360868050000001230988481988744071_"  overflow="visible"/>
					</clipPath>
					
						<path opacity="0.46" clip-path="url(#SVGID_00000148626557303735732830000018058520844654002579_)" fill="#FFFFFF" enable-background="new    " d="
						M64.1,190.8c-4.8,9.5-24.2,22.8-17.8,25.3s36.3-6.7,41.1-16.3c4.8-9.5,0.9-25.7-5.5-28.2C75.5,169.2,68.9,181.3,64.1,190.8z"/>
				</g>
			</g>
			<g>
				<g>
					<defs>
						<path id="SVGID_00000168810273873712174320000012974206475951771549_" d="M140.2,108.7c0,0-30.8-4.1-38.5,4.3
							s-25.6,44.9-37.3,54.4S1.2,214.6,0.1,254.9S6,313.5,26,334s37.1,47.7,78.1,50.4c41,2.7,88.3-4.4,99.1-13.3
							c10.9-8.9,72.9-69.8,54.2-124.5s-34.6-31.7-49.1-62.2s-9-49.2-23.5-61.8C170.5,110,140.2,108.7,140.2,108.7z"/>
					</defs>
					<clipPath id="SVGID_00000049918776607956714500000009925970270662559378_">
						<use xlink:href="#SVGID_00000168810273873712174320000012974206475951771549_"  overflow="visible"/>
					</clipPath>
					
						<path opacity="0.46" clip-path="url(#SVGID_00000049918776607956714500000009925970270662559378_)" fill="#FFFFFF" enable-background="new    " d="
						M25.4,232.6c-1.9,3.8-7.9,9.9-6.4,10.5s9.8-4.6,11.7-8.4c1.9-3.8,2.1-9.6,0.7-10.2C29.9,223.9,27.3,228.8,25.4,232.6z"/>
				</g>
			</g>
		</g>
		<g>
			<path fill="#722E0A" d="M136.8,115.6c3.7-4.4,7.3-9,10.7-13.7c3.3-4.8,6.5-9.7,9-14.8c2.4-5.1,3.1-10.8,3-16.5
				c-0.2-5.7-1.1-11.5-2.7-17l2.3-0.8c3.6,11.3,5.4,24.5,0.7,35.7c-5.1,10.9-11.9,20.7-19.3,30.1
				C140.3,118.6,136.8,115.6,136.8,115.6L136.8,115.6z"/>
		</g>
	</g>
	<g>
		<g>
			<g>
				<path id="SVGID_00000139281968232715860580000002358721520460645303_" fill="#B9BE0A" d="M482.2,152.1c0,0-24.5-1.8-30.1,5.8
					c-5.5,7.6-17.2,39.6-25.9,48.3s-46.7,43.6-44.9,78c1.8,34.4,8.5,49.6,25.6,65.9c17.1,16.4,32.4,38.5,64.9,38.6
					s69.3-8.6,77.3-16.8c8-8.1,52.9-63.5,34.6-109s-29.4-25.1-42.8-50.2s-10.3-41.4-22.6-51.4C506.2,151.5,482.2,152.1,482.2,152.1z
					"/>
			</g>
			<g>
				<g>
					<defs>
						<path id="SVGID_00000105407621385489400710000004615966782322755480_" d="M482.2,152.1c0,0-24.5-1.8-30.1,5.8
							c-5.5,7.6-17.2,39.6-25.9,48.3s-46.7,43.6-44.9,78c1.8,34.4,8.5,49.6,25.6,65.9c17.1,16.4,32.4,38.5,64.9,38.6
							s69.3-8.6,77.3-16.8c8-8.1,52.9-63.5,34.6-109s-29.4-25.1-42.8-50.2s-10.3-41.4-22.6-51.4
							C506.2,151.5,482.2,152.1,482.2,152.1z"/>
					</defs>
					<clipPath id="SVGID_00000052097326214036272070000009664861732160451474_">
						<use xlink:href="#SVGID_00000105407621385489400710000004615966782322755480_"  overflow="visible"/>
					</clipPath>
					<path clip-path="url(#SVGID_00000052097326214036272070000009664861732160451474_)" fill="#AA980A" d="M450.8,149.3
						c0,0,10.5,18.5,21,19.7s15.3-9,24.5-7.7s9.3,3.3,15.4,9.5c6,6.2-1.6,33.2,17.6,47.1s31.2,42.8,31.7,67.3
						c0.5,24.5-17.7,76.7-27.5,85.3c-9.8,8.6-58.4,19.2-58.4,19.2l0.1,19.9c0,0,155.3-35.3,162.2-35.2c7,0.2,10.3-145.7,10.2-147.6
						c-0.2-2-89.2-136.1-89.2-136.1L450.8,149.3z"/>
				</g>
			</g>
			<g>
				<g>
					<defs>
						<path id="SVGID_00000068677267272852038820000006900592385983510401_" d="M482.2,152.1c0,0-24.5-1.8-30.1,5.8
							c-5.5,7.6-17.2,39.6-25.9,48.3s-46.7,43.6-44.9,78c1.8,34.4,8.5,49.6,25.6,65.9c17.1,16.4,32.4,38.5,64.9,38.6
							s69.3-8.6,77.3-16.8c8-8.1,52.9-63.5,34.6-109s-29.4-25.1-42.8-50.2s-10.3-41.4-22.6-51.4
							C506.2,151.5,482.2,152.1,482.2,152.1z"/>
					</defs>
					<clipPath id="SVGID_00000059295954241410844600000015967908723937526172_">
						<use xlink:href="#SVGID_00000068677267272852038820000006900592385983510401_"  overflow="visible"/>
					</clipPath>
					
						<path opacity="0.46" clip-path="url(#SVGID_00000059295954241410844600000015967908723937526172_)" fill="#FFFFFF" enable-background="new    " d="
						M427.7,226.2c-3.1,8.4-17.6,20.8-12.3,22.6s28.2-7.7,31.3-16.1c3.1-8.4-1-21.9-6.2-23.7S430.8,217.8,427.7,226.2z"/>
				</g>
			</g>
			<g>
				<g>
					<defs>
						<path id="SVGID_00000060016456191905657610000014845187991331102877_" d="M482.2,152.1c0,0-24.5-1.8-30.1,5.8
							c-5.5,7.6-17.2,39.6-25.9,48.3s-46.7,43.6-44.9,78c1.8,34.4,8.5,49.6,25.6,65.9c17.1,16.4,32.4,38.5,64.9,38.6
							s69.3-8.6,77.3-16.8c8-8.1,52.9-63.5,34.6-109s-29.4-25.1-42.8-50.2s-10.3-41.4-22.6-51.4
							C506.2,151.5,482.2,152.1,482.2,152.1z"/>
					</defs>
					<clipPath id="SVGID_00000118372093931008122400000010273773654050704817_">
						<use xlink:href="#SVGID_00000060016456191905657610000014845187991331102877_"  overflow="visible"/>
					</clipPath>
					
						<path opacity="0.46" clip-path="url(#SVGID_00000118372093931008122400000010273773654050704817_)" fill="#FFFFFF" enable-background="new    " d="
						M399.9,263.9c-1.3,3.4-5.5,8.9-4.4,9.3s7.4-4.4,8.7-7.8c1.3-3.4,1-8.3-0.1-8.7C402.8,256.3,401.1,260.6,399.9,263.9z"/>
				</g>
			</g>
		</g>
		<g>
			<path fill="#722E0A" d="M479.6,158c4.1-6,7.9-12.4,11-19c1-2.2,2-4.5,2.8-6.7c1.5-4.3,1.7-9.2,1.2-14s-1.6-9.6-3.2-14.1l2.2-0.9
				c3.6,9.6,5.9,19.9,3.1,30.1c-0.8,2.5-1.7,4.8-2.7,7.1c-3,7-6.6,13.5-10.6,20C483.4,160.6,479.6,158,479.6,158L479.6,158z"/>
		</g>
	</g>
	<g>
		<g>
			<g>
				<path id="XMLID_00000164473200414129671270000015995207133219294102_" fill="#CAD00B" d="M286.8,241.3c0,0-19.3-4.8-24.8-1
					s-19.6,21.7-27.8,25.8c-8.1,4.1-43.7,19.8-47.4,41.1c-3.7,21.4-0.6,31.7,10.6,44.3s20.1,28.5,45.9,33.4
					c25.9,4.9,56.5,5.1,64,1.3s51.5-31,43.7-61.6s-19.7-19.8-26.6-37.2c-7-17.4-2.1-26.9-10.3-34.9
					C305.9,244.6,286.8,241.3,286.8,241.3z"/>
			</g>
			<g>
				<g>
					<defs>
						<path id="SVGID_00000068655381617100368090000001349346942342003601_" d="M286.8,241.3c0,0-19.3-4.8-24.8-1
							s-19.6,21.7-27.8,25.8c-8.1,4.1-43.7,19.8-47.4,41.1c-3.7,21.4-0.6,31.7,10.6,44.3s20.1,28.5,45.9,33.4
							c25.9,4.9,56.5,5.1,64,1.3s51.5-31,43.7-61.6s-19.7-19.8-26.6-37.2c-7-17.4-2.1-26.9-10.3-34.9
							C305.9,244.6,286.8,241.3,286.8,241.3z"/>
					</defs>
					<clipPath id="SVGID_00000036960158760487076140000001567685688110257029_">
						<use xlink:href="#SVGID_00000068655381617100368090000001349346942342003601_"  overflow="visible"/>
					</clipPath>
					<path clip-path="url(#SVGID_00000036960158760487076140000001567685688110257029_)" fill="#C1AD0B" d="M262.2,234.9
						c0,0,5.6,12.9,13.8,15.2s13.5-3.2,20.6-1s6.9,3.4,10.8,8.1c3.9,4.7-6.2,20.1,7,31.5s18.4,30.9,15.2,46S304.1,379,295,382.9
						s-49.3,3-49.3,3l-2.8,12.2c0,0,128.9,1.6,134.4,2.8c5.5,1.2,29.9-87.7,30.1-89c0.2-1.2-50.8-96.8-50.8-96.8L262.2,234.9z"/>
				</g>
			</g>
			<g>
				<g>
					<defs>
						<path id="SVGID_00000102521610460583300120000011381801543240748722_" d="M286.8,241.3c0,0-19.3-4.8-24.8-1
							s-19.6,21.7-27.8,25.8c-8.1,4.1-43.7,19.8-47.4,41.1c-3.7,21.4-0.6,31.7,10.6,44.3s20.1,28.5,45.9,33.4
							c25.9,4.9,56.5,5.1,64,1.3s51.5-31,43.7-61.6s-19.7-19.8-26.6-37.2c-7-17.4-2.1-26.9-10.3-34.9
							C305.9,244.6,286.8,241.3,286.8,241.3z"/>
					</defs>
					<clipPath id="SVGID_00000116228253227000267340000005105982228962508727_">
						<use xlink:href="#SVGID_00000102521610460583300120000011381801543240748722_"  overflow="visible"/>
					</clipPath>
					
						<path opacity="0.46" clip-path="url(#SVGID_00000116228253227000267340000005105982228962508727_)" fill="#FFFFFF" enable-background="new    " d="
						M232.3,278.6c-3.8,4.7-17.1,10.1-13.2,12c3.9,1.9,23.6-0.5,27.3-5.2c3.8-4.7,2.5-13.6-1.4-15.4
						C241.1,268.1,236.1,273.9,232.3,278.6z"/>
				</g>
			</g>
			<g>
				<g>
					<defs>
						<path id="SVGID_00000181076717845069776470000008911226701454195097_" d="M286.8,241.3c0,0-19.3-4.8-24.8-1
							s-19.6,21.7-27.8,25.8c-8.1,4.1-43.7,19.8-47.4,41.1c-3.7,21.4-0.6,31.7,10.6,44.3s20.1,28.5,45.9,33.4
							c25.9,4.9,56.5,5.1,64,1.3s51.5-31,43.7-61.6s-19.7-19.8-26.6-37.2c-7-17.4-2.1-26.9-10.3-34.9
							C305.9,244.6,286.8,241.3,286.8,241.3z"/>
					</defs>
					<clipPath id="SVGID_00000165209072128752656580000004299548874403146646_">
						<use xlink:href="#SVGID_00000181076717845069776470000008911226701454195097_"  overflow="visible"/>
					</clipPath>
					
						<path opacity="0.46" clip-path="url(#SVGID_00000165209072128752656580000004299548874403146646_)" fill="#FFFFFF" enable-background="new    " d="
						M204.6,297.6c-1.5,1.9-5.7,4.6-4.9,5c0.9,0.4,6.6-1.6,8.1-3.5s2.1-4.9,1.2-5.4C208.1,293.3,206.1,295.7,204.6,297.6z"/>
				</g>
			</g>
		</g>
		<g>
			<path fill="#983D0D" d="M282.8,245.7c0.3-11.6,1.6-23.1,4.6-34.3l2.3,0.5c-1.6,8.4-2.6,16.7-2.4,25.2c0,2.8,0,5.7,0.1,8.5
				L282.8,245.7L282.8,245.7z"/>
		</g>
	</g>
</g>
</svg>
