<?xml version="1.0" encoding="utf-8"?>
<!-- Generator: Adobe Illustrator 26.0.3, SVG Export Plug-In . SVG Version: 6.00 Build 0)  -->
<svg version="1.1" id="Слой_1" xmlns="http://www.w3.org/2000/svg" xmlns:xlink="http://www.w3.org/1999/xlink" x="0px" y="0px"
	 viewBox="0 0 1920 529.3" style="enable-background:new 0 0 1920 529.3;" xml:space="preserve">
<style type="text/css">
	.st0{fill:#8C604E;}
	.st1{fill:#DE8800;}
	.st2{clip-path:url(#SVGID_00000091720600018938482080000011493824717812662954_);fill:#C36800;}
	.st3{fill:#FFFCE6;}
	.st4{fill:#C01000;}
	.st5{clip-path:url(#SVGID_00000163795567151411096600000016923257256998241693_);fill:#FBFFC3;}
	.st6{clip-path:url(#SVGID_00000171721779462712665340000011206280402625461913_);fill:#FBFFC3;}
	.st7{clip-path:url(#SVGID_00000030465691395776036530000008595926818872109987_);fill:#FBFFC3;}
	.st8{fill:#777571;}
	.st9{fill:#B37200;}
	.st10{fill:#7F16FF;}
	.st11{fill:#004964;}
	.st12{clip-path:url(#SVGID_00000131348072670895609560000001979675840818994343_);fill:#534964;}
	.st13{clip-path:url(#XMLID_00000011717451633694496050000015056557614495524992_);fill:#459D00;}
	.st14{fill:#00063C;}
	.st15{fill:#2D0000;}
	.st16{fill:#00E600;}
	.st17{fill:#009200;}
	.st18{fill:#007400;}
	.st19{fill:#004C00;}
</style>
<rect x="341" y="291.5" class="st0" width="1238.1" height="145.8"/>

<g>
	<path class="st14" d="M403.9,387.4v-12.3h-21v-4l20.2-28.9h6.6v28.1h6.3v4.8h-6.3v12.3H403.9z M403.9,370.3v-15.1
		c0-2.4,0.1-4.7,0.2-7.1h-0.2c-1.4,2.6-2.5,4.6-3.8,6.7L389,370.2v0.1H403.9z"/>
	<path class="st14" d="M420.2,375.9c0-5.7,3.4-9.8,9-12.1l-0.1-0.2c-5-2.4-7.2-6.3-7.2-10.2c0-7.2,6.1-12.1,14-12.1
		c8.8,0,13.2,5.5,13.2,11.1c0,3.8-1.9,7.9-7.5,10.6v0.2c5.6,2.2,9.1,6.2,9.1,11.7c0,7.9-6.8,13.2-15.4,13.2
		C425.9,388.2,420.2,382.6,420.2,375.9z M444.5,375.7c0-5.5-3.8-8.2-10-9.9c-5.3,1.5-8.2,5-8.2,9.3c-0.2,4.6,3.3,8.6,9.1,8.6
		C441,383.7,444.5,380.3,444.5,375.7z M427.7,353c0,4.5,3.4,7,8.6,8.4c3.9-1.3,6.9-4.1,6.9-8.2c0-3.6-2.2-7.4-7.7-7.4
		C430.5,345.8,427.7,349.1,427.7,353z"/>
	<path class="st14" d="M471.7,359.3c0-2.6,1.7-4.4,4.2-4.4s4,1.8,4.1,4.4c0,2.4-1.6,4.3-4.2,4.3
		C473.4,363.6,471.7,361.7,471.7,359.3z M471.7,383.9c0-2.6,1.7-4.4,4.2-4.4s4,1.8,4.1,4.4c0,2.4-1.6,4.3-4.2,4.3
		C473.4,388.2,471.7,386.3,471.7,383.9z"/>
	<path class="st14" d="M526.3,346.5c-1.3-0.1-2.9,0-4.6,0.3c-9.6,1.6-14.7,8.6-15.7,16.1h0.2c2.2-2.9,5.9-5.2,10.9-5.2
		c8,0,13.7,5.8,13.7,14.6c0,8.3-5.6,16-15,16c-9.7,0-16-7.5-16-19.3c0-8.9,3.2-16,7.7-20.4c3.8-3.7,8.8-6,14.5-6.7
		c1.8-0.3,3.3-0.3,4.5-0.3v4.9H526.3z M524.5,372.6c0-6.5-3.7-10.4-9.3-10.4c-3.7,0-7.1,2.3-8.8,5.6c-0.4,0.7-0.7,1.6-0.7,2.7
		c0.1,7.5,3.6,13,10,13C521,383.5,524.5,379.1,524.5,372.6z"/>
	<path class="st14" d="M550.6,364v-4.2h36v4.2H550.6z M550.6,377.6v-4.2h36v4.2H550.6z"/>
</g>
<g>
	<path class="st14" d="M783.8,375.9c0-5.7,3.4-9.8,9-12.1l-0.1-0.2c-5-2.4-7.2-6.3-7.2-10.2c0-7.2,6.1-12.1,14-12.1
		c8.8,0,13.2,5.5,13.2,11.1c0,3.8-1.9,7.9-7.5,10.6v0.2c5.6,2.2,9.1,6.2,9.1,11.7c0,7.9-6.8,13.2-15.4,13.2
		C789.5,388.2,783.8,382.6,783.8,375.9z M808.2,375.7c0-5.5-3.8-8.2-10-9.9c-5.3,1.5-8.2,5-8.2,9.3c-0.2,4.6,3.3,8.6,9.1,8.6
		C804.6,383.7,808.2,380.3,808.2,375.7z M791.3,353c0,4.5,3.4,7,8.6,8.4c3.9-1.3,6.9-4.1,6.9-8.2c0-3.6-2.2-7.4-7.7-7.4
		C794.1,345.8,791.3,349.1,791.3,353z"/>
	<path class="st14" d="M845.9,346.5c-1.3-0.1-2.9,0-4.6,0.3c-9.6,1.6-14.7,8.6-15.7,16.1h0.2c2.2-2.9,5.9-5.2,10.9-5.2
		c8,0,13.7,5.8,13.7,14.6c0,8.3-5.6,16-15,16c-9.7,0-16-7.5-16-19.3c0-8.9,3.2-16,7.7-20.4c3.8-3.7,8.8-6,14.5-6.7
		c1.8-0.3,3.3-0.3,4.5-0.3v4.9H845.9z M844.2,372.6c0-6.5-3.7-10.4-9.3-10.4c-3.7,0-7.1,2.3-8.8,5.6c-0.4,0.7-0.7,1.6-0.7,2.7
		c0.1,7.5,3.6,13,10,13C840.6,383.5,844.2,379.1,844.2,372.6z"/>
	<path class="st14" d="M871.1,359.3c0-2.6,1.7-4.4,4.2-4.4s4,1.8,4.1,4.4c0,2.4-1.6,4.3-4.2,4.3
		C872.8,363.6,871.1,361.7,871.1,359.3z M871.1,383.9c0-2.6,1.7-4.4,4.2-4.4s4,1.8,4.1,4.4c0,2.4-1.6,4.3-4.2,4.3
		C872.8,388.2,871.1,386.3,871.1,383.9z"/>
	<path class="st14" d="M899.8,387.4v-3.8l4.8-4.7c11.6-11,16.8-16.9,16.9-23.7c0-4.6-2.2-8.8-9-8.8c-4.1,0-7.5,2.1-9.6,3.8l-2-4.3
		c3.1-2.6,7.6-4.6,12.8-4.6c9.8,0,13.9,6.7,13.9,13.2c0,8.4-6.1,15.1-15.6,24.3l-3.6,3.3v0.1h20.3v5.1h-28.9V387.4z"/>
	<path class="st14" d="M950,364v-4.2h36v4.2H950z M950,377.6v-4.2h36v4.2H950z"/>
</g>
<g>
	<path class="st14" d="M1190.1,347.9L1190.1,347.9l-8,4.2l-1.2-4.7l9.9-5.3h5.2v45.3h-5.9V347.9z"/>
	<path class="st14" d="M1212.5,387.4v-3.8l4.8-4.7c11.6-11,16.8-16.9,16.9-23.7c0-4.6-2.2-8.8-9-8.8c-4.1,0-7.5,2.1-9.6,3.8l-2-4.3
		c3.1-2.6,7.6-4.6,12.8-4.6c9.8,0,13.9,6.7,13.9,13.2c0,8.4-6.1,15.1-15.6,24.3l-3.6,3.3v0.1h20.3v5.1h-28.9V387.4z"/>
	<path class="st14" d="M1299.2,359.3c0-2.6,1.7-4.4,4.2-4.4c2.4,0,4,1.8,4.1,4.4c0,2.4-1.6,4.3-4.2,4.3
		C1300.9,363.6,1299.2,361.7,1299.2,359.3z M1299.2,383.9c0-2.6,1.7-4.4,4.2-4.4c2.4,0,4,1.8,4.1,4.4c0,2.4-1.6,4.3-4.2,4.3
		C1300.9,388.2,1299.2,386.3,1299.2,383.9z"/>
	<path class="st14" d="M1355,347.3h-17.3l-1.7,11.6c1-0.1,2-0.3,3.7-0.3c3.5,0,7,0.8,9.8,2.4c3.6,2,6.5,5.9,6.5,11.6
		c0,8.8-7,15.5-16.9,15.5c-4.9,0-9.1-1.4-11.3-2.8l1.5-4.7c1.9,1.1,5.6,2.5,9.7,2.5c5.8,0,10.7-3.8,10.7-9.8c-0.1-5.9-4-10-13-10
		c-2.6,0-4.6,0.3-6.3,0.5l2.9-21.7h21.7L1355,347.3L1355,347.3z"/>
	<path class="st14" d="M1278.8,347.9h-17.3l-1.7,11.6c1-0.1,2-0.3,3.7-0.3c3.5,0,7,0.8,9.8,2.4c3.6,2,6.5,5.9,6.5,11.6
		c0,8.8-7,15.5-16.9,15.5c-4.9,0-9.1-1.4-11.3-2.8l1.5-4.7c1.9,1.1,5.6,2.5,9.7,2.5c5.8,0,10.7-3.8,10.7-9.8c-0.1-5.9-4-10-13-10
		c-2.6,0-4.6,0.3-6.3,0.5l2.9-21.7h21.7L1278.8,347.9L1278.8,347.9z"/>
	<path class="st14" d="M1378.1,364v-4.2h36v4.2H1378.1z M1378.1,377.6v-4.2h36v4.2H1378.1z"/>
</g>
<rect x="617.6" y="291.5" class="st15" width="145.8" height="145.8"/>
<rect x="1016.6" y="291.5" class="st15" width="145.8" height="145.8"/>
<rect x="1433.3" y="291.5" class="st15" width="145.8" height="145.8"/>
<ellipse class="st16" cx="1578.6" cy="149.3" rx="37.3" ry="125.6"/>
<ellipse class="st17" cx="1582.9" cy="153.7" rx="30.4" ry="102.2"/>
<ellipse class="st18" cx="1586.5" cy="153.7" rx="21.9" ry="73.7"/>
<ellipse class="st19" cx="1593.9" cy="153.7" rx="11" ry="36.9"/>
</svg>
