<?xml version="1.0" encoding="utf-8"?>
<!-- Generator: Adobe Illustrator 26.0.3, SVG Export Plug-In . SVG Version: 6.00 Build 0)  -->
<svg version="1.1" id="Слой_1" xmlns="http://www.w3.org/2000/svg" xmlns:xlink="http://www.w3.org/1999/xlink" x="0px" y="0px"
	 viewBox="0 0 1920 386" style="enable-background:new 0 0 1920 386;" xml:space="preserve">
<rect x="336.2" y="0" style="fill:#A38C5D;" width="1368.5" height="386"/>
<polygon style="fill:#A3533D;" points="960,0 1208.5,0 1621.9,388.4 1381.3,386 "/>
<polygon style="fill:#A3533D;" points="307.5,0.8 345,0.8 768,388.4 728.7,386.6 "/>
<polygon style="fill:#A3533D;" points="883.3,1.2 920.3,0.8 1340.8,386 1319.2,386 "/>
<polygon style="fill:#A3533D;" points="240,7.2 246.6,0 670.4,388.4 656.1,388.4 "/>
<circle style="fill:#69254C;" cx="671.3" cy="63" r="24.1"/>
<circle style="fill:#69254C;" cx="674" cy="164.4" r="24.1"/>
<text transform="matrix(1 0 0 1 977.4248 154.0145)" style="fill:#69254C; font-size:152.8634px;">8</text>
<text transform="matrix(1 0 0 1 835.0439 240.2692)" style="fill:#69254C; font-size:152.8634px;">4</text>
<line style="fill:none;stroke:#69254C;stroke-width:8;stroke-miterlimit:10;" x1="904.9" y1="178.4" x2="975.4" y2="138"/>
<line style="fill:none;stroke:#69254C;stroke-width:8;stroke-miterlimit:10;" x1="705.4" y1="312.1" x2="830.7" y2="240.3"/>
<line style="fill:none;stroke:#69254C;stroke-width:8;stroke-miterlimit:10;" x1="1121.4" y1="159.1" x2="1060.8" y2="139.2"/>
<text transform="matrix(1 0 0 1 1130.8741 240.2689)" style="fill:#69254C; font-size:152.8634px;">2</text>
<text transform="matrix(1 0 0 1 616.803 362.9065)" style="fill:#69254C; font-size:152.8634px;">2</text>
</svg>
