<?xml version="1.0" encoding="utf-8"?>
<!-- Generator: Adobe Illustrator 26.0.3, SVG Export Plug-In . SVG Version: 6.00 Build 0)  -->
<svg version="1.1" id="Слой_1" xmlns="http://www.w3.org/2000/svg" xmlns:xlink="http://www.w3.org/1999/xlink" x="0px" y="0px"
	 viewBox="0 0 1920 386" style="enable-background:new 0 0 1920 386;" xml:space="preserve">
<style type="text/css">
	.st0{fill:#C07100;}
	.st1{fill:#015900;}
	.st2{fill:#D67100;}
	.st3{opacity:0.49;fill:#009AB0;}
</style>
<g id="фон">
</g>
<polygon class="st0" points="1010.6,390.9 673.7,233.8 726.4,167 "/>
<polygon class="st1" points="698.7,202.1 636.3,197.1 643.3,175.8 597.6,167.2 610.2,143.5 595.5,140.5 549,131.2 651.6,159.6 
	666.8,175.8 683,185.2 "/>
<polygon class="st0" points="911.9,402.5 968.6,187 1082.6,193.4 "/>
<polygon class="st1" points="1022.6,190 1000.7,157.3 1032.6,154.4 1023.2,129 1060.9,128.2 1058.2,120 1049.4,93.9 1058.2,153.7 
	1043.4,166.2 1038.2,177.1 "/>
<polygon class="st2" points="802.1,383.3 1291.2,179.4 1307.5,234.9 "/>
<polygon class="st0" points="968.7,389.8 1204,102.1 1255.8,169.6 "/>
<polygon class="st3" points="1274.5,243.2 684.1,238 771.4,385.2 1166.1,385.2 "/>
<polygon class="st1" points="1228.5,134.1 1248.8,74.8 1267.7,86.9 1287.3,44.7 1307.2,62.8 1313.7,49.3 1334.2,6.5 1281.4,98.9 
	1262,109.7 1248.8,123.1 "/>
<polygon class="st1" points="1287,205.8 1319.3,181.9 1331.7,196 1359.1,181.1 1370.7,198.9 1379.6,194.2 1407.8,179.4 1339.9,208 
	1321,206 1306.6,208 "/>
</svg>
