<?xml version="1.0" encoding="utf-8"?>
<!-- Generator: Adobe Illustrator 26.0.3, SVG Export Plug-In . SVG Version: 6.00 Build 0)  -->
<svg version="1.1" id="Слой_1" xmlns="http://www.w3.org/2000/svg" xmlns:xlink="http://www.w3.org/1999/xlink" x="0px" y="0px"
	 viewBox="0 0 1920 386" style="enable-background:new 0 0 1920 386;" xml:space="preserve">
<style type="text/css">
	.st0{fill:#BDB690;}
	.st1{fill:#BDA25E;}
	.st2{fill:#840000;}
	.st3{clip-path:url(#XMLID_00000110439637863596531700000005241311692241868714_);fill:#E66F00;}
	.st4{clip-path:url(#XMLID_00000110439637863596531700000005241311692241868714_);fill:#963D00;}
	.st5{clip-path:url(#XMLID_00000035503790253295087480000012670336395855062191_);fill:#FFF2D1;}
	.st6{clip-path:url(#XMLID_00000035503790253295087480000012670336395855062191_);fill:#DBDEA9;}
	.st7{fill:#231700;}
	.st8{fill:#5C2600;}
	.st9{clip-path:url(#XMLID_00000109025187630025497760000000577046468418704817_);fill:#E66F00;}
	.st10{fill:#FFF3AA;}
	.st11{fill:#E5DDAA;}
	.st12{fill:#B84D00;}
	.st13{fill:#FBFFA2;}
	.st14{clip-path:url(#SVGID_00000044139151212307885070000006797575750058871220_);fill:#EFF38B;}
	.st15{clip-path:url(#XMLID_00000026141831383726502880000010013640166488672445_);fill:#E66F00;}
	.st16{clip-path:url(#XMLID_00000026141831383726502880000010013640166488672445_);fill:#AF2F00;}
	.st17{fill:#002501;}
	.st18{fill:#6C0F00;}
	.st19{fill:#ECDDA2;}
	.st20{fill:#EFF38B;}
</style>
<g>
	<rect x="336.2" class="st0" width="1368.5" height="386"/>
	
		<rect x="1179.8" y="-321.4" transform="matrix(0.6755 -0.7373 0.7373 0.6755 288.8185 985.0654)" class="st1" width="167.8" height="971.5"/>
	
		<rect x="618.6" y="-205.6" transform="matrix(0.6755 -0.7373 0.7373 0.6755 -1.7284 556.3786)" class="st1" width="25.3" height="971.5"/>
	
		<rect x="596.6" y="-154" transform="matrix(0.6755 -0.7373 0.7373 0.6755 -49.4492 551.0911)" class="st1" width="9.7" height="971.5"/>
</g>
<g>
	<path class="st2" d="M543.1,146.4v-4.1l5.2-5.1c12.6-12,18.2-18.3,18.3-25.7c0-5-2.4-9.6-9.8-9.6c-4.5,0-8.2,2.3-10.4,4.2l-2.1-4.7
		c3.4-2.9,8.2-5,13.9-5c10.6,0,15.1,7.3,15.1,14.3c0,9.1-6.6,16.4-16.9,26.4l-3.9,3.6v0.2h22.1v5.5H543.1z"/>
	<path class="st2" d="M603.5,106.1v17.8h17.1v4.5h-17.1v17.9h-4.8v-17.9h-17.1v-4.5h17.1v-17.8H603.5z"/>
	<path class="st2" d="M627,146.4v-4.1l5.2-5.1c12.6-12,18.2-18.3,18.3-25.7c0-5-2.4-9.6-9.8-9.6c-4.5,0-8.2,2.3-10.4,4.2l-2.1-4.7
		c3.4-2.9,8.2-5,13.9-5c10.6,0,15.1,7.3,15.1,14.3c0,9.1-6.6,16.4-16.9,26.4l-3.9,3.6v0.2h22.1v5.5H627z"/>
	<path class="st2" d="M687.4,106.1v17.8h17.1v4.5h-17.1v17.9h-4.8v-17.9h-17.1v-4.5h17.1v-17.8H687.4z"/>
	<path class="st2" d="M710.9,146.4v-4.1l5.2-5.1c12.6-12,18.2-18.3,18.3-25.7c0-5-2.4-9.6-9.8-9.6c-4.5,0-8.2,2.3-10.4,4.2l-2.1-4.7
		c3.4-2.9,8.2-5,13.9-5c10.6,0,15.1,7.3,15.1,14.3c0,9.1-6.6,16.4-16.9,26.4l-3.9,3.6v0.2h22.1v5.5H710.9z"/>
	<path class="st2" d="M771.3,106.1v17.8h17.1v4.5h-17.1v17.9h-4.8v-17.9h-17.1v-4.5h17.1v-17.8H771.3z"/>
	<path class="st2" d="M794.8,146.4v-4.1l5.2-5.1c12.6-12,18.2-18.3,18.3-25.7c0-5-2.4-9.6-9.8-9.6c-4.5,0-8.2,2.3-10.4,4.2l-2.1-4.7
		c3.4-2.9,8.2-5,13.9-5c10.6,0,15.1,7.3,15.1,14.3c0,9.1-6.6,16.4-16.9,26.4l-3.9,3.6v0.2h22.1v5.5H794.8z"/>
	<path class="st2" d="M855.2,106.1v17.8h17.1v4.5h-17.1v17.9h-4.8v-17.9h-17.1v-4.5h17.1v-17.8H855.2z"/>
	<path class="st2" d="M878.7,146.4v-4.1l5.2-5.1c12.6-12,18.2-18.3,18.3-25.7c0-5-2.4-9.6-9.8-9.6c-4.5,0-8.2,2.3-10.4,4.2l-2.1-4.7
		c3.4-2.9,8.2-5,13.9-5c10.6,0,15.1,7.3,15.1,14.3c0,9.1-6.6,16.4-16.9,26.4l-3.9,3.6v0.2h22.1v5.5H878.7z"/>
	<path class="st2" d="M939.1,106.1v17.8h17.1v4.5h-17.1v17.9h-4.8v-17.9h-17.1v-4.5h17.1v-17.8H939.1z"/>
	<path class="st2" d="M962.6,146.4v-4.1l5.2-5.1c12.6-12,18.2-18.3,18.3-25.7c0-5-2.4-9.6-9.8-9.6c-4.5,0-8.2,2.3-10.4,4.2l-2.1-4.7
		c3.4-2.9,8.2-5,13.9-5c10.6,0,15.1,7.3,15.1,14.3c0,9.1-6.6,16.4-16.9,26.4l-3.9,3.6v0.2H994v5.5H962.6z"/>
</g>
<g>
	<path class="st2" d="M754,232.6c-0.4-22.3-22.2-25-41.7-24.6c-15.6,0.3-31.1,1.9-46.7,3.4c-15.6,1.6-30.5,3.1-46.1,3.4
		c-51.2,1-73.2-17.4-73.8-44l-0.1-6.6l30.6-0.6l0.1,5.6c0.4,18.5,18.3,24.4,48.3,23.8c12.8-0.2,26.1-1.4,39.5-3
		c13.9-1.5,27.2-2.7,42.2-3c35.6-1,53.6,7.4,60.5,21.4l1.1,0c5.8-14.2,24.6-23.4,60.2-23.8c15-0.3,28.9,0.4,42.3,1.4
		c13.9,1,26.7,1.7,40.1,1.4c31.1-0.6,48.3-8.2,47.9-25.7l-0.1-5.6l30.6-0.6l0.1,6.6c0.5,26-19.1,45.8-75.3,46.9
		c-15,0.3-30.6-0.7-45.7-1.6c-15-1-30.1-1.9-45.1-1.6c-17.2,0.3-41.1,3.9-40.7,26.2L754,232.6z"/>
</g>
<g>
	<path class="st2" d="M784,274.7c-2.1-0.1-4.7,0-7.6,0.5c-15.9,2.7-24.4,14.3-26.1,26.7h0.3c3.6-4.7,9.8-8.7,18.1-8.7
		c13.3,0,22.6,9.6,22.6,24.2c0,13.7-9.4,26.4-24.9,26.4c-16,0-26.5-12.5-26.5-32c0-14.8,5.3-26.4,12.7-33.8
		c6.2-6.1,14.5-9.9,24-11.1c3-0.5,5.5-0.6,7.4-0.6V274.7z M781.1,318c0-10.7-6.1-17.2-15.5-17.2c-6.1,0-11.8,3.8-14.5,9.2
		c-0.7,1.2-1.2,2.7-1.2,4.5c0.2,12.3,5.9,21.5,16.5,21.5C775.2,336,781.1,328.7,781.1,318z"/>
	<path class="st2" d="M832.9,286.7l8,12c2.1,3.1,3.8,6,5.7,9.1h0.3c1.8-3.3,3.7-6.2,5.5-9.2l7.8-11.9h11l-19,27l19.6,28.9h-11.5
		L852,330c-2.2-3.2-4-6.3-6-9.7h-0.2c-1.8,3.3-3.8,6.3-5.9,9.7l-8.1,12.6h-11.2l19.9-28.5l-18.9-27.4H832.9z"/>
	<path class="st2" d="M902.8,342.6v-6.2l8-7.7c19.2-18.2,27.8-27.9,27.9-39.2c0-7.6-3.7-14.7-14.9-14.7c-6.8,0-12.5,3.5-15.9,6.3
		l-3.2-7.2c5.2-4.4,12.6-7.6,21.2-7.6c16.2,0,23,11.1,23,21.8c0,13.9-10,25-25.9,40.3l-6,5.5v0.2h33.7v8.4H902.8z"/>
</g>
<g>
	<defs>
		<path id="XMLID_00000132788015740553543780000016590230940006558375_" d="M1406.4,341c-9.5,135.1-41.2,165.7-92.1,165.7
			s-84.3-58-92.1-165.7c-5.9-82.6-14.3-105.6,1.8-122.1c18.3-18.8,63.3-25.2,90.3-25.2c27.4,0,65.9,6.1,84.2,25.2
			C1414.2,235.2,1412.4,256.7,1406.4,341z"/>
	</defs>
	<use xlink:href="#XMLID_00000132788015740553543780000016590230940006558375_"  style="overflow:visible;fill:#B84D00;"/>
	<clipPath id="XMLID_00000171707236935265651470000004648105662781452429_">
		<use xlink:href="#XMLID_00000132788015740553543780000016590230940006558375_"  style="overflow:visible;"/>
	</clipPath>
	<path style="clip-path:url(#XMLID_00000171707236935265651470000004648105662781452429_);fill:#E66F00;" d="M1286.6,185.2
		c-8,4.5-83.9,72.2-83.9,72.2l-16.3-50L1286.6,185.2z"/>
	<path style="clip-path:url(#XMLID_00000171707236935265651470000004648105662781452429_);fill:#963D00;" d="M1337.7,449.4
		c8.8-19.4,56.5-255.3,56.5-255.3l100.5,81.4L1337.7,449.4z"/>
</g>
<g>
	<g>
		<defs>
			<ellipse id="XMLID_00000173854452850114070020000011682855650201857983_" cx="1101.3" cy="51.9" rx="40.6" ry="37.2"/>
		</defs>
		<use xlink:href="#XMLID_00000173854452850114070020000011682855650201857983_"  style="overflow:visible;fill:#FFF261;"/>
		<clipPath id="XMLID_00000030473075694956986360000008179606692043410825_">
			<use xlink:href="#XMLID_00000173854452850114070020000011682855650201857983_"  style="overflow:visible;"/>
		</clipPath>
		<path style="clip-path:url(#XMLID_00000030473075694956986360000008179606692043410825_);fill:#FFF2D1;" d="M1056.5,26.8
			c-4.3,11.8-16.4,21.2-4.6,38.6s19.3,26.2,22,8.5c2.6-17.7,3.3-50,3.3-50s-10.9-20.6-15.8-8.8S1056.5,26.8,1056.5,26.8z"/>
		<path style="clip-path:url(#XMLID_00000030473075694956986360000008179606692043410825_);fill:#DBDEA9;" d="M1101.7,96.4
			c11.7,8.4,38.7-20.1,43.7-27.5c19.3-28.5-35.9-65.1-35.9-65.1s21.3,29.7,17.4,51.3C1123.8,72.3,1096.5,92.6,1101.7,96.4z"/>
	</g>
	<path class="st7" d="M1111.7,94.9c0-7.3-5.8-7.5-11.2-7.5c-5.4,0-10.8,0.8-10.8,8.1s-0.2,15.4,11,15.4
		C1111.9,110.8,1111.7,102.2,1111.7,94.9z"/>
	<path class="st8" d="M1123.7,87.1c0-7.3-11.5-7.5-22.4-7.5s-21.5,0.8-21.5,8.1s-0.4,15.4,22,15.4
		C1124.1,103.1,1123.7,94.4,1123.7,87.1z"/>
</g>
<g>
	<defs>
		<path id="XMLID_00000028316973887659373710000017471350290197126286_" d="M1235.9,209.8c0,0-58.2,61-64.5,59.1
			c-6.3-1.9-44.5-79.7-44.5-79.7l-42.7,6.5c0,0,56,109.4,66.9,125.3c10.9,15.9,70.9-13.7,70.9-13.7L1235.9,209.8z"/>
	</defs>
	<use xlink:href="#XMLID_00000028316973887659373710000017471350290197126286_"  style="overflow:visible;fill:#B84D00;"/>
	<clipPath id="XMLID_00000001638988379812456440000002035519987299594890_">
		<use xlink:href="#XMLID_00000028316973887659373710000017471350290197126286_"  style="overflow:visible;"/>
	</clipPath>
	<path style="clip-path:url(#XMLID_00000001638988379812456440000002035519987299594890_);fill:#E66F00;" d="M1256.2,198.1
		l-41.4,59.3l-43.3,11.4c0,0,16.9-58.9,21.6-61.5S1256.2,198.1,1256.2,198.1z"/>
</g>
<path class="st10" d="M1126.9,189.1c0,0-7.2-69.7-15.9-68.1c-6.3,1.1,0,42.6,0,42.6s7.2-18.4-14.3-20.1
	c-21.5-1.8-25.1,13.4-25.1,20.1s12.7,32,12.7,32L1126.9,189.1z"/>
<path class="st11" d="M1336.4,196c0,0,12.3-63,3.4-64.1c-6.3-0.7-12.4,40.8-12.4,40.8s12.2-15.5-7.9-23.4s-27.9,5.5-29.9,12
	c-2,6.5,2.9,34.3,2.9,34.3s16.1,12,23.5,11.8C1322.9,207.2,1336.4,196,1336.4,196z"/>
<polygon class="st12" points="1483.6,386 1398.6,218.9 1407.4,325.7 1441.1,386 "/>
<g>
	<g>
		<path id="XMLID_00000154427834788791435610000009539882508643633553_" class="st13" d="M1366.4,107.1
			c-3.5,41.3-19.9,78.1-54.1,78.1s-47.6-30.2-55.1-73.9c-4.7-27.8,6.6-51.8,25.2-64.2c8.7-5.9,19-9.1,29.9-9.1
			C1346.5,37.9,1370,64.5,1366.4,107.1z"/>
	</g>
	<g>
		<defs>
			<path id="SVGID_1_" d="M1366.4,107.1c-3.5,41.3-19.9,78.1-54.1,78.1s-47.6-30.2-55.1-73.9c-4.7-27.8,6.6-51.8,25.2-64.2
				c8.7-5.9,19-9.1,29.9-9.1C1346.5,37.9,1370,64.5,1366.4,107.1z"/>
		</defs>
		<use xlink:href="#SVGID_1_"  style="overflow:visible;fill:#FFF3AA;"/>
		<clipPath id="SVGID_00000006676500984835884140000016448760329864359101_">
			<use xlink:href="#SVGID_1_"  style="overflow:visible;"/>
		</clipPath>
		<path style="clip-path:url(#SVGID_00000006676500984835884140000016448760329864359101_);fill:#EFF38B;" d="M1287.3,25.1
			c0,0-16.1,55.4-19.6,69.3c-3.5,13.9,0.5,34.4,6.5,50.1c6,15.7,10.5,21.8,23.4,33.2c13,11.4,67.6-4.1,67.6-4.1l-92.8,27.5
			l-95.4-82.5L1287.3,25.1z"/>
	</g>
</g>
<g>
	<defs>
		<path id="XMLID_00000166661279307511360310000005144690166906264509_" d="M1256.2,104.1c0,0-13.2-41.1-1.2-59.9
			s64.9-23.9,77.2-23.3c12.3,0.7,37.6,34.9,40.4,53.4c2.7,18.5-6.2,32.7-6.2,32.7S1355,78.6,1350,70.3s-43.2-14.1-55.5-11.4
			c-12.3,2.7-30,27.2-31.7,34C1261,99.7,1256.2,104.1,1256.2,104.1z"/>
	</defs>
	<use xlink:href="#XMLID_00000166661279307511360310000005144690166906264509_"  style="overflow:visible;fill:#E63900;"/>
	<clipPath id="XMLID_00000134212951538271512860000013761063490212403354_">
		<use xlink:href="#XMLID_00000166661279307511360310000005144690166906264509_"  style="overflow:visible;"/>
	</clipPath>
	<path style="clip-path:url(#XMLID_00000134212951538271512860000013761063490212403354_);fill:#E66F00;" d="M1316.1,10.4
		c-21.9,14.8-35.1,17-33.3,30.2c1.8,13.3,10.4,9.7-4.1,29.2c-14.5,19.5-34,17.8-36.8,22.3S1214.8,38,1214.8,38L1316.1,10.4z"/>
	<path style="clip-path:url(#XMLID_00000134212951538271512860000013761063490212403354_);fill:#AF2F00;" d="M1338.6,144.8
		c10-34.2,21.7-45.3,8.7-63c-13-17.7-52.1-26.3-20.2-44c30.3-16.9,81-29.7,80.2-37.8s11.9,44.6,11.9,44.6L1338.6,144.8z"/>
</g>
<path class="st17" d="M1294.5,103.1c0,2.2-3.2,6.4-7.9,4c-3.9-2-7.9-1.8-7.9-4s3.5-4,7.9-4C1291,99.1,1294.5,100.9,1294.5,103.1z"/>
<path class="st17" d="M1326.3,102.4c0,2.2,3.2,6.4,7.9,4c3.9-2,7.9-1.8,7.9-4c0-2.2-3.5-4-7.9-4S1326.3,100.2,1326.3,102.4z"/>
<path class="st18" d="M1290,155.3c0,0,5.2,16,17.7,16.9c5.7,0.4,19.5-19.9,19.5-19.9L1290,155.3z"/>
<polygon class="st19" points="1308.1,91.3 1302.5,140.1 1314.4,131.9 "/>
<ellipse class="st10" cx="1365.7" cy="111.6" rx="8.3" ry="19.5"/>
<ellipse transform="matrix(0.975 -0.2222 0.2222 0.975 5.6834 281.9811)" class="st20" cx="1256.2" cy="115.7" rx="8.3" ry="19.5"/>
</svg>
