<?xml version="1.0" encoding="utf-8"?>
<!-- Generator: Adobe Illustrator 26.0.3, SVG Export Plug-In . SVG Version: 6.00 Build 0)  -->
<svg version="1.1" id="Слой_1" xmlns="http://www.w3.org/2000/svg" xmlns:xlink="http://www.w3.org/1999/xlink" x="0px" y="0px"
	 viewBox="0 0 1920 386" enable-background="new 0 0 1920 386" xml:space="preserve">
<g>
	<g>
		<rect x="336.2" fill="#BDB690" width="1368.5" height="386"/>
		
			<rect x="1179.7" y="-321.3" transform="matrix(0.6755 -0.7373 0.7373 0.6755 288.7199 985.0248)" fill="#BDA25E" width="167.8" height="971.5"/>
		
			<rect x="618.6" y="-205.5" transform="matrix(0.6755 -0.7373 0.7373 0.6755 -1.8322 556.345)" fill="#BDA25E" width="25.3" height="971.5"/>
		
			<rect x="596.6" y="-154" transform="matrix(0.6755 -0.7373 0.7373 0.6755 -49.4539 551.0846)" fill="#BDA25E" width="9.7" height="971.5"/>
	</g>
	<g>
		<path fill="#840000" d="M543.1,146.4v-4.1l5.2-5.1c12.6-12,18.2-18.3,18.3-25.7c0-5-2.4-9.6-9.8-9.6c-4.5,0-8.2,2.3-10.4,4.2
			l-2.1-4.7c3.4-2.9,8.2-5,13.9-5c10.6,0,15.1,7.3,15.1,14.3c0,9.1-6.6,16.4-16.9,26.4l-3.9,3.6v0.2h22.1v5.5H543.1z"/>
		<path fill="#840000" d="M603.5,106.1v17.8h17.1v4.5h-17.1v17.9h-4.8v-17.9h-17.1v-4.5h17.1v-17.8
			C598.7,106.1,603.5,106.1,603.5,106.1z"/>
		<path fill="#840000" d="M627,146.4v-4.1l5.2-5.1c12.6-12,18.2-18.3,18.3-25.7c0-5-2.4-9.6-9.8-9.6c-4.5,0-8.2,2.3-10.4,4.2
			l-2.1-4.7c3.4-2.9,8.2-5,13.9-5c10.6,0,15.1,7.3,15.1,14.3c0,9.1-6.6,16.4-16.9,26.4l-3.9,3.6v0.2h22.1v5.5H627z"/>
		<path fill="#840000" d="M687.4,106.1v17.8h17.1v4.5h-17.1v17.9h-4.8v-17.9h-17.1v-4.5h17.1v-17.8
			C682.6,106.1,687.4,106.1,687.4,106.1z"/>
		<path fill="#840000" d="M710.9,146.4v-4.1l5.2-5.1c12.6-12,18.2-18.3,18.3-25.7c0-5-2.4-9.6-9.8-9.6c-4.5,0-8.2,2.3-10.4,4.2
			l-2.1-4.7c3.4-2.9,8.2-5,13.9-5c10.6,0,15.1,7.3,15.1,14.3c0,9.1-6.6,16.4-16.9,26.4l-3.9,3.6v0.2h22.1v5.5H710.9z"/>
		<path fill="#840000" d="M771.3,106.1v17.8h17.1v4.5h-17.1v17.9h-4.8v-17.9h-17.1v-4.5h17.1v-17.8
			C766.5,106.1,771.3,106.1,771.3,106.1z"/>
		<path fill="#840000" d="M794.8,146.4v-4.1l5.2-5.1c12.6-12,18.2-18.3,18.3-25.7c0-5-2.4-9.6-9.8-9.6c-4.5,0-8.2,2.3-10.4,4.2
			l-2.1-4.7c3.4-2.9,8.2-5,13.9-5c10.6,0,15.1,7.3,15.1,14.3c0,9.1-6.6,16.4-16.9,26.4l-3.9,3.6v0.2h22.1v5.5H794.8z"/>
		<path fill="#840000" d="M855.2,106.1v17.8h17.1v4.5h-17.1v17.9h-4.8v-17.9h-17.1v-4.5h17.1v-17.8
			C850.4,106.1,855.2,106.1,855.2,106.1z"/>
		<path fill="#840000" d="M878.7,146.4v-4.1l5.2-5.1c12.6-12,18.2-18.3,18.3-25.7c0-5-2.4-9.6-9.8-9.6c-4.5,0-8.2,2.3-10.4,4.2
			l-2.1-4.7c3.4-2.9,8.2-5,13.9-5c10.6,0,15.1,7.3,15.1,14.3c0,9.1-6.6,16.4-16.9,26.4l-3.9,3.6v0.2h22.1v5.5H878.7z"/>
		<path fill="#840000" d="M939.1,106.1v17.8h17.1v4.5h-17.1v17.9h-4.8v-17.9h-17.1v-4.5h17.1v-17.8
			C934.3,106.1,939.1,106.1,939.1,106.1z"/>
		<path fill="#840000" d="M962.6,146.4v-4.1l5.2-5.1c12.6-12,18.2-18.3,18.3-25.7c0-5-2.4-9.6-9.8-9.6c-4.5,0-8.2,2.3-10.4,4.2
			l-2.1-4.7c3.4-2.9,8.2-5,13.9-5c10.6,0,15.1,7.3,15.1,14.3c0,9.1-6.6,16.4-16.9,26.4l-3.9,3.6v0.2h22v5.5H962.6z"/>
	</g>
	<g>
		<path fill="#840000" d="M754,232.6c-0.4-22.3-22.2-25-41.7-24.6c-15.6,0.3-31.1,1.9-46.7,3.4c-15.6,1.6-30.5,3.1-46.1,3.4
			c-51.2,1-73.2-17.4-73.8-44l-0.1-6.6l30.6-0.6l0.1,5.6c0.4,18.5,18.3,24.4,48.3,23.8c12.8-0.2,26.1-1.4,39.5-3
			c13.9-1.5,27.2-2.7,42.2-3c35.6-1,53.6,7.4,60.5,21.4h1.1c5.8-14.2,24.6-23.4,60.2-23.8c15-0.3,28.9,0.4,42.3,1.4
			c13.9,1,26.7,1.7,40.1,1.4c31.1-0.6,48.3-8.2,47.9-25.7l-0.1-5.6l30.6-0.6l0.1,6.6c0.5,26-19.1,45.8-75.3,46.9
			c-15,0.3-30.6-0.7-45.7-1.6c-15-1-30.1-1.9-45.1-1.6c-17.2,0.3-41.1,3.9-40.7,26.2L754,232.6z"/>
	</g>
	<g>
		<path fill="#840000" d="M784,274.7c-2.1-0.1-4.7,0-7.6,0.5c-15.9,2.7-24.4,14.3-26.1,26.7h0.3c3.6-4.7,9.8-8.7,18.1-8.7
			c13.3,0,22.6,9.6,22.6,24.2c0,13.7-9.4,26.4-24.9,26.4c-16,0-26.5-12.5-26.5-32c0-14.8,5.3-26.4,12.7-33.8
			c6.2-6.1,14.5-9.9,24-11.1c3-0.5,5.5-0.6,7.4-0.6V274.7z M781.1,318c0-10.7-6.1-17.2-15.5-17.2c-6.1,0-11.8,3.8-14.5,9.2
			c-0.7,1.2-1.2,2.7-1.2,4.5c0.2,12.3,5.9,21.5,16.5,21.5C775.2,336,781.1,328.7,781.1,318z"/>
		<path fill="#840000" d="M832.9,286.7l8,12c2.1,3.1,3.8,6,5.7,9.1h0.3c1.8-3.3,3.7-6.2,5.5-9.2l7.8-11.9h11l-19,27l19.6,28.9h-11.5
			L852,330c-2.2-3.2-4-6.3-6-9.7h-0.2c-1.8,3.3-3.8,6.3-5.9,9.7l-8.1,12.6h-11.2l19.9-28.5l-18.9-27.4H832.9z"/>
		<path fill="#840000" d="M902.8,342.6v-6.2l8-7.7c19.2-18.2,27.8-27.9,27.9-39.2c0-7.6-3.7-14.7-14.9-14.7
			c-6.8,0-12.5,3.5-15.9,6.3l-3.2-7.2c5.2-4.4,12.6-7.6,21.2-7.6c16.2,0,23,11.1,23,21.8c0,13.9-10,25-25.9,40.3l-6,5.5v0.2h33.7
			v8.4h-47.9L902.8,342.6L902.8,342.6z"/>
	</g>
	<g>
		<g>
			<path id="XMLID_00000132788015740553543780000016590230940006558375_" fill="#B84D00" d="M1406.4,341
				c-9.5,135.1-41.2,165.7-92.1,165.7s-84.3-58-92.1-165.7c-5.9-82.6-14.3-105.6,1.8-122.1c18.3-18.8,63.3-25.2,90.3-25.2
				c27.4,0,65.9,6.1,84.2,25.2C1414.2,235.2,1412.4,256.7,1406.4,341z"/>
		</g>
		<g>
			<g>
				<g>
					<g>
						<defs>
							<path id="SVGID_00000146487183368926282550000003049620506609324435_" d="M1406.4,341c-9.5,135.1-41.2,165.7-92.1,165.7
								s-84.3-58-92.1-165.7c-5.9-82.6-14.3-105.6,1.8-122.1c18.3-18.8,63.3-25.2,90.3-25.2c27.4,0,65.9,6.1,84.2,25.2
								C1414.2,235.2,1412.4,256.7,1406.4,341z"/>
						</defs>
						<clipPath id="SVGID_00000048487567104815496870000007119701397584704166_">
							<use xlink:href="#SVGID_00000146487183368926282550000003049620506609324435_"  overflow="visible"/>
						</clipPath>
						<path clip-path="url(#SVGID_00000048487567104815496870000007119701397584704166_)" fill="#E66F00" d="M1286.6,185.2
							c-8,4.5-83.9,72.2-83.9,72.2l-16.3-50L1286.6,185.2z"/>
					</g>
				</g>
			</g>
		</g>
		<g>
			<g>
				<g>
					<g>
						<defs>
							<path id="SVGID_00000069385553107423296520000000457678117166838146_" d="M1406.4,341c-9.5,135.1-41.2,165.7-92.1,165.7
								s-84.3-58-92.1-165.7c-5.9-82.6-14.3-105.6,1.8-122.1c18.3-18.8,63.3-25.2,90.3-25.2c27.4,0,65.9,6.1,84.2,25.2
								C1414.2,235.2,1412.4,256.7,1406.4,341z"/>
						</defs>
						<clipPath id="SVGID_00000111873462138212676250000007453717188472517262_">
							<use xlink:href="#SVGID_00000069385553107423296520000000457678117166838146_"  overflow="visible"/>
						</clipPath>
						<path clip-path="url(#SVGID_00000111873462138212676250000007453717188472517262_)" fill="#963D00" d="M1337.7,449.4
							c8.8-19.4,56.5-255.3,56.5-255.3l100.5,81.4L1337.7,449.4z"/>
					</g>
				</g>
			</g>
		</g>
	</g>
	<g>
		<g>
			<path id="XMLID_00000028316973887659373710000017471350290197126286_" fill="#B84D00" d="M1235.9,209.8c0,0-58.2,61-64.5,59.1
				s-44.5-79.7-44.5-79.7l-42.7,6.5c0,0,56,109.4,66.9,125.3s70.9-13.7,70.9-13.7L1235.9,209.8z"/>
		</g>
		<g>
			<g>
				<g>
					<g>
						<defs>
							<path id="SVGID_00000003820059529155649380000008750909191461036687_" d="M1235.9,209.8c0,0-58.2,61-64.5,59.1
								s-44.5-79.7-44.5-79.7l-42.7,6.5c0,0,56,109.4,66.9,125.3s70.9-13.7,70.9-13.7L1235.9,209.8z"/>
						</defs>
						<clipPath id="SVGID_00000137824770156555673100000014557219255959976331_">
							<use xlink:href="#SVGID_00000003820059529155649380000008750909191461036687_"  overflow="visible"/>
						</clipPath>
						<path clip-path="url(#SVGID_00000137824770156555673100000014557219255959976331_)" fill="#E66F00" d="M1256.2,198.1
							l-41.4,59.3l-43.3,11.4c0,0,16.9-58.9,21.6-61.5S1256.2,198.1,1256.2,198.1z"/>
					</g>
				</g>
			</g>
		</g>
	</g>
	<path fill="#FFF3AA" d="M1126.9,189.1c0,0-7.2-69.7-15.9-68.1c-6.3,1.1,0,42.6,0,42.6s7.2-18.4-14.3-20.1
		c-21.5-1.8-25.1,13.4-25.1,20.1s12.7,32,12.7,32L1126.9,189.1z"/>
	<path fill="#E5DDAA" d="M1336.4,196c0,0,12.3-63,3.4-64.1c-6.3-0.7-12.4,40.8-12.4,40.8s12.2-15.5-7.9-23.4s-27.9,5.5-29.9,12
		s2.9,34.3,2.9,34.3s16.1,12,23.5,11.8C1322.9,207.2,1336.4,196,1336.4,196z"/>
	<polygon fill="#B84D00" points="1483.6,386 1398.6,218.9 1407.4,325.7 1441.1,386 	"/>
	<g>
		<g>
			<path id="XMLID_00000154427834788791435610000009539882508643633553_" fill="#FBFFA2" d="M1366.4,107.1
				c-3.5,41.3-19.9,78.1-54.1,78.1s-47.6-30.2-55.1-73.9c-4.7-27.8,6.6-51.8,25.2-64.2c8.7-5.9,19-9.1,29.9-9.1
				C1346.5,37.9,1370,64.5,1366.4,107.1z"/>
		</g>
		<g>
			<g>
				<path id="SVGID_1_" fill="#FFF3AA" d="M1366.4,107.1c-3.5,41.3-19.9,78.1-54.1,78.1s-47.6-30.2-55.1-73.9
					c-4.7-27.8,6.6-51.8,25.2-64.2c8.7-5.9,19-9.1,29.9-9.1C1346.5,37.9,1370,64.5,1366.4,107.1z"/>
			</g>
			<g>
				<g>
					<g>
						<g>
							<defs>
								<path id="SVGID_00000145055236650552516710000017637497386151610013_" d="M1366.4,107.1c-3.5,41.3-19.9,78.1-54.1,78.1
									s-47.6-30.2-55.1-73.9c-4.7-27.8,6.6-51.8,25.2-64.2c8.7-5.9,19-9.1,29.9-9.1C1346.5,37.9,1370,64.5,1366.4,107.1z"/>
							</defs>
							<clipPath id="SVGID_00000031185088826543569680000017455686555442159796_">
								<use xlink:href="#SVGID_00000145055236650552516710000017637497386151610013_"  overflow="visible"/>
							</clipPath>
							<path clip-path="url(#SVGID_00000031185088826543569680000017455686555442159796_)" fill="#EFF38B" d="M1287.3,25.1
								c0,0-16.1,55.4-19.6,69.3s0.5,34.4,6.5,50.1s10.5,21.8,23.4,33.2c13,11.4,67.6-4.1,67.6-4.1l-92.8,27.5l-95.4-82.5
								L1287.3,25.1z"/>
						</g>
					</g>
				</g>
			</g>
		</g>
	</g>
	<g>
		<g>
			<path id="XMLID_00000166661279307511360310000005144690166906264509_" fill="#E63900" d="M1256.2,104.1c0,0-13.2-41.1-1.2-59.9
				s64.9-23.9,77.2-23.3c12.3,0.7,37.6,34.9,40.4,53.4c2.7,18.5-6.2,32.7-6.2,32.7S1355,78.6,1350,70.3s-43.2-14.1-55.5-11.4
				c-12.3,2.7-30,27.2-31.7,34C1261,99.7,1256.2,104.1,1256.2,104.1z"/>
		</g>
		<g>
			<g>
				<g>
					<g>
						<defs>
							<path id="SVGID_00000085249388469034519690000014351491960340863404_" d="M1256.2,104.1c0,0-13.2-41.1-1.2-59.9
								s64.9-23.9,77.2-23.3c12.3,0.7,37.6,34.9,40.4,53.4c2.7,18.5-6.2,32.7-6.2,32.7S1355,78.6,1350,70.3s-43.2-14.1-55.5-11.4
								c-12.3,2.7-30,27.2-31.7,34C1261,99.7,1256.2,104.1,1256.2,104.1z"/>
						</defs>
						<clipPath id="SVGID_00000080923930321901394720000000022161821111979705_">
							<use xlink:href="#SVGID_00000085249388469034519690000014351491960340863404_"  overflow="visible"/>
						</clipPath>
						<path clip-path="url(#SVGID_00000080923930321901394720000000022161821111979705_)" fill="#E66F00" d="M1316.1,10.4
							c-21.9,14.8-35.1,17-33.3,30.2c1.8,13.3,10.4,9.7-4.1,29.2s-34,17.8-36.8,22.3S1214.8,38,1214.8,38L1316.1,10.4z"/>
					</g>
				</g>
			</g>
		</g>
		<g>
			<g>
				<g>
					<g>
						<defs>
							<path id="SVGID_00000101085899276238562450000008227187054697847961_" d="M1256.2,104.1c0,0-13.2-41.1-1.2-59.9
								s64.9-23.9,77.2-23.3c12.3,0.7,37.6,34.9,40.4,53.4c2.7,18.5-6.2,32.7-6.2,32.7S1355,78.6,1350,70.3s-43.2-14.1-55.5-11.4
								c-12.3,2.7-30,27.2-31.7,34C1261,99.7,1256.2,104.1,1256.2,104.1z"/>
						</defs>
						<clipPath id="SVGID_00000160888140053124258570000008232660057948094355_">
							<use xlink:href="#SVGID_00000101085899276238562450000008227187054697847961_"  overflow="visible"/>
						</clipPath>
						<path clip-path="url(#SVGID_00000160888140053124258570000008232660057948094355_)" fill="#AF2F00" d="M1338.6,144.8
							c10-34.2,21.7-45.3,8.7-63s-52.1-26.3-20.2-44c30.3-16.9,81-29.7,80.2-37.8s11.9,44.6,11.9,44.6L1338.6,144.8z"/>
					</g>
				</g>
			</g>
		</g>
	</g>
	<path fill="#002501" d="M1294.5,103.1c0,2.2-3.2,6.4-7.9,4c-3.9-2-7.9-1.8-7.9-4s3.5-4,7.9-4S1294.5,100.9,1294.5,103.1z"/>
	<path fill="#002501" d="M1326.3,102.4c0,2.2,3.2,6.4,7.9,4c3.9-2,7.9-1.8,7.9-4s-3.5-4-7.9-4S1326.3,100.2,1326.3,102.4z"/>
	<path fill="#6C0F00" d="M1290,155.3c0,0,5.2,16,17.7,16.9c5.7,0.4,19.5-19.9,19.5-19.9L1290,155.3z"/>
	
		<radialGradient id="SVGID_00000158720978148215314750000002591360823327293824_" cx="1100.2" cy="24.1" r="225.1" gradientTransform="matrix(1 0 0 -1 0 76)" gradientUnits="userSpaceOnUse">
		<stop  offset="0" style="stop-color:#F6C500;stop-opacity:0.7"/>
		<stop  offset="0.2465" style="stop-color:#F3D611;stop-opacity:0.2"/>
		<stop  offset="0.6083" style="stop-color:#EEE926;stop-opacity:0.287"/>
		<stop  offset="0.8508" style="stop-color:#EDF02D;stop-opacity:0"/>
	</radialGradient>
	<circle fill="url(#SVGID_00000158720978148215314750000002591360823327293824_)" cx="1100.2" cy="51.9" r="225.1"/>
	<polygon fill="#ECDDA2" points="1308.1,91.3 1302.5,140.1 1314.4,131.9 	"/>
	<ellipse fill="#FFF3AA" cx="1365.7" cy="111.6" rx="8.3" ry="19.5"/>
	
		<ellipse transform="matrix(0.975 -0.2222 0.2222 0.975 5.695 282.0199)" fill="#EFF38B" cx="1256.2" cy="115.7" rx="8.3" ry="19.5"/>
	<g>
		<g>
			<g>
				
					<ellipse id="XMLID_00000173854452850114070020000011682855650201857983_" fill="#FFF261" cx="1090.8" cy="47.1" rx="33.4" ry="37.2"/>
			</g>
			<g>
				<g>
					<g>
						<g>
							<defs>
								<ellipse id="SVGID_00000089560606677530403640000018023450157032486538_" cx="1090.8" cy="47.1" rx="33.4" ry="37.2"/>
							</defs>
							<clipPath id="SVGID_00000036225354665285649240000006529227872256774839_">
								<use xlink:href="#SVGID_00000089560606677530403640000018023450157032486538_"  overflow="visible"/>
							</clipPath>
							<path clip-path="url(#SVGID_00000036225354665285649240000006529227872256774839_)" fill="#FFF2D1" d="M1053.9,22
								c-3.5,11.8-13.5,21.2-3.8,38.6s15.9,26.2,18.1,8.5c2.1-17.7,2.7-50,2.7-50s-9-20.6-13-8.8C1053.9,22.1,1053.9,22,1053.9,22z"
								/>
						</g>
					</g>
				</g>
			</g>
			<g>
				<g>
					<g>
						<g>
							<defs>
								<ellipse id="SVGID_00000080172442278507981400000009656999981875010692_" cx="1090.8" cy="47.1" rx="33.4" ry="37.2"/>
							</defs>
							<clipPath id="SVGID_00000146476525439844519600000003463384970798741412_">
								<use xlink:href="#SVGID_00000080172442278507981400000009656999981875010692_"  overflow="visible"/>
							</clipPath>
							<path clip-path="url(#SVGID_00000146476525439844519600000003463384970798741412_)" fill="#DBDEA9" d="M1091.1,91.6
								c9.6,8.4,31.9-20.1,36-27.5C1143,35.6,1097.5-1,1097.5-1s17.5,29.7,14.3,51.3C1109.3,67.5,1086.8,87.8,1091.1,91.6z"/>
						</g>
					</g>
				</g>
			</g>
		</g>
		<path fill="#231700" d="M1099.3,90.1c0-7.3-4.8-7.5-9.2-7.5s-8.9,0.8-8.9,8.1s-0.2,15.4,9.1,15.4
			C1099.5,106,1099.3,97.4,1099.3,90.1z"/>
		<path fill="#5C2600" d="M1109.2,82.3c0-7.3-9.5-7.5-18.4-7.5s-17.7,0.8-17.7,8.1s-0.3,15.4,18.1,15.4
			C1109.5,98.3,1109.2,89.6,1109.2,82.3z"/>
	</g>
</g>
</svg>
