<?xml version="1.0" encoding="utf-8"?>
<!-- Generator: Adobe Illustrator 26.0.3, SVG Export Plug-In . SVG Version: 6.00 Build 0)  -->
<svg version="1.1" id="Слой_1" xmlns="http://www.w3.org/2000/svg" xmlns:xlink="http://www.w3.org/1999/xlink" x="0px" y="0px"
	 viewBox="0 0 1920 1080" style="enable-background:new 0 0 1920 1080;" xml:space="preserve">
<style type="text/css">
	.st0{opacity:0.12;fill:#FF9039;enable-background:new    ;}
	.st1{opacity:6.000000e-02;fill:#FF9039;enable-background:new    ;}
</style>
<circle class="st0" cx="1977.1" cy="1162.2" r="275.3"/>
<circle class="st0" cx="1968.6" cy="-112.4" r="275.3"/>
<circle class="st0" cx="1229.3" cy="1162.2" r="127.5"/>
<circle class="st0" cx="12.5" cy="1051" r="127.5"/>
<circle class="st0" cx="1283.8" cy="211" r="29.2"/>
<circle class="st1" cx="895.9" cy="490.3" r="29.2"/>
<ellipse transform="matrix(0.4641 -0.8858 0.8858 0.4641 -142.9158 1396.5825)" class="st1" cx="1082.7" cy="816.4" rx="29.2" ry="29.2"/>
<circle class="st0" cx="481.9" cy="1083.5" r="78.7"/>
<circle class="st0" cx="1868.7" cy="250.7" r="39.7"/>
<circle class="st0" cx="1441.7" cy="0" r="39.7"/>
<circle class="st0" cx="1865.9" cy="816.4" r="39.7"/>
<circle class="st0" cx="1752" cy="450.8" r="74.2"/>
<circle class="st0" cx="687" cy="886.9" r="74.2"/>
<g id="Слой_1_00000050639528313333399610000013421230432136242064_">
</g>
<circle class="st1" cx="849.5" cy="181.8" r="31.4"/>
<path class="st0" d="M357,718.4c0-16.1-13.1-29.2-29.2-29.2c-14.4,0-26.4,10.5-28.8,24.2L98,676.7c0.3-2.6,0.5-5.2,0.5-7.8
	c0-32-25.9-57.9-57.9-57.9c-32,0-57.9,25.9-57.9,57.9s25.9,57.9,57.9,57.9c23.3,0,43.3-13.7,52.5-33.6L299,723
	c1.7,10.7,9.2,19.5,19.3,22.9l-30.6,93.9c-7.6-2.4-15.6-3.7-24-3.7c-43.5,0-78.7,35.2-78.7,78.7s35.2,78.7,78.7,78.7
	c43.5,0,78.7-35.2,78.7-78.7c0-28.9-15.6-54.2-38.8-67.8l25.1-99.5C344.4,747.1,357,734.2,357,718.4z"/>
<path class="st0" d="M563.4,294.7L548.9,94c18.3-3.5,32.1-19.6,32.1-39c0-21.9-17.8-39.7-39.7-39.7S501.6,33.1,501.6,55
	c0,20.6,15.7,37.5,35.8,39.5l8,196.2c-2.2-0.2-4.5-0.3-6.8-0.3c-26.2,0-49.2,13.6-62.4,34.1L223.9,208.8
	c32.3-45.1,51.4-100.4,51.4-160.2c0-152-123.3-275.3-275.3-275.3S-275.3-103.4-275.3,48.6S-152,323.9,0,323.9
	c85,0,161.1-38.6,211.6-99.2l259.7,108.7c-4.4,9.5-6.9,20.1-6.9,31.2c0,41,33.2,74.2,74.2,74.2c41,0,74.2-33.2,74.2-74.2
	C612.8,332.3,592.2,304.9,563.4,294.7z"/>
<path class="st0" d="M1618.9,299.7l2.2-17.6l-6.6-0.8c0-0.1,0-0.1,0-0.2c0-1.6-0.1-3.1-0.2-4.7l6.6-1.2l-3.1-17.4l-6.7,1.2
	c-0.5-1.6-1-3.1-1.6-4.6l6.1-3.1l-8.1-15.7l-6.3,3.2c-0.9-1.3-1.9-2.6-2.8-3.8l5.1-5l-12.4-12.6l-5.3,5.2c-1.2-1-2.5-1.9-3.8-2.8
	l3.6-6.6l-15.6-8.4l-3.7,6.9c-1.4-0.5-2.8-1-4.3-1.5l1.5-7.7l-17.4-3.5l-1.6,8.1c-1.4-0.1-2.9-0.1-4.3-0.1c0,0-0.1,0-0.1,0l-0.8-8.3
	l-17.6,1.8l0.9,8.6c-1.4,0.3-2.8,0.7-4.1,1.1l-3.4-8l-16.3,6.9l3.5,8.3c-1.2,0.7-2.4,1.4-3.5,2.2l-5.9-7l-13.5,11.4l6,7.2
	c-0.9,1-1.8,2-2.7,3.1l-7.9-5.1l-9.6,14.9l8,5.2c-0.6,1.2-1.1,2.4-1.6,3.7l-9.2-2.6l-4.8,17l9.2,2.6c-0.2,1.3-0.4,2.6-0.5,4
	l-9.6,0.3l0.5,17.7l9.5-0.3c0.2,1.3,0.4,2.7,0.7,4l-9,3l5.7,16.8l8.8-3c0.6,1.2,1.2,2.5,1.8,3.7l-7.5,5.4l10.4,14.4l7.3-5.3
	c0.9,1,1.9,2.1,2.9,3l-5.4,7.2l14.1,10.7l5.2-6.9c1.2,0.7,2.5,1.4,3.8,2.1l-2.9,8.1l16.6,6l2.8-7.7c1.4,0.4,2.9,0.7,4.3,0.9
	l-0.4,8.1l17.7,0.8l0.4-7.8c1.5-0.1,3-0.2,4.6-0.4l1.9,7.5l17.1-4.4l-1.8-7.1c1.5-0.5,2.9-1.1,4.3-1.8l3.8,6.2l15.1-9.3l-3.7-6
	c1.3-1,2.5-2,3.7-3l5.2,4.6l11.7-13.3l-5.1-4.5c0.9-1.3,1.8-2.7,2.7-4.1l6.1,2.8l7.2-16.1l-6-2.7c0.5-1.6,0.9-3.1,1.3-4.7
	L1618.9,299.7z"/>
<path class="st0" d="M1639.4,158.3l-0.3-10.8l-4.1,0.1c0,0,0-0.1,0-0.1c-0.1-1-0.3-1.9-0.5-2.8l3.9-1.3l-3.5-10.2l-3.9,1.3
	c-0.4-0.9-0.9-1.8-1.4-2.6l3.4-2.4l-6.4-8.8l-3.5,2.5c-0.7-0.7-1.4-1.4-2.1-2l2.6-3.5l-8.7-6.5l-2.7,3.6c-0.8-0.5-1.7-0.9-2.5-1.3
	l1.5-4.3l-10.2-3.7l-1.6,4.5c-0.9-0.2-1.8-0.4-2.7-0.5l0.2-4.8l-10.8-0.5l-0.2,5c-0.9,0.1-1.7,0.2-2.6,0.3c0,0,0,0-0.1,0l-1.3-4.9
	l-10.5,2.7l1.3,5.1c-0.8,0.3-1.6,0.7-2.4,1.1l-2.8-4.6l-9.2,5.7l2.9,4.7c-0.7,0.5-1.3,1.1-1.9,1.7l-4.2-3.7l-7.1,8.1l4.3,3.8
	c-0.5,0.7-0.9,1.4-1.3,2.1l-5.3-2.3l-4.4,9.9l5.3,2.4c-0.2,0.8-0.4,1.6-0.6,2.4l-5.8-0.7l-1.3,10.7l5.8,0.7c0,0.8,0,1.6,0.1,2.5
	l-5.8,1l1.9,10.7l5.7-1c0.2,0.8,0.5,1.6,0.8,2.3l-5.2,2.7l5,9.6l5.1-2.6c0.5,0.7,0.9,1.4,1.4,2.1l-4,4l7.6,7.7l3.9-3.9
	c0.7,0.5,1.3,1.1,2,1.6l-2.6,4.8l9.5,5.1l2.5-4.7c0.8,0.3,1.6,0.6,2.5,0.9l-1,5.1l10.6,2.1l1-4.9c0.9,0.1,1.8,0.1,2.7,0.2l0.5,4.9
	l10.8-1.1l-0.5-4.7c0.9-0.2,1.8-0.4,2.7-0.7l1.8,4.3l10-4.2l-1.8-4.1c0.8-0.5,1.7-1,2.5-1.5l2.9,3.4l8.3-7l-2.8-3.3
	c0.7-0.7,1.3-1.4,2-2.2l3.6,2.3l5.8-9.1l-3.5-2.2c0.4-0.9,0.9-1.8,1.2-2.7l4,1.1l2.9-10.4l-3.9-1.1c0.2-1,0.3-2,0.4-3L1639.4,158.3z
	"/>
<path class="st0" d="M178.8,465.1l1.2-7.3l-2.7-0.4c0,0,0,0,0-0.1c0-0.7,0-1.3,0-2l2.7-0.4l-1-7.3l-2.8,0.4
	c-0.2-0.7-0.4-1.3-0.6-1.9l2.6-1.2l-3.1-6.7l-2.7,1.2c-0.4-0.6-0.7-1.1-1.1-1.6l2.2-2l-4.9-5.5l-2.3,2.1c-0.5-0.4-1-0.8-1.5-1.2
	l1.6-2.7l-6.3-3.8l-1.7,2.8c-0.6-0.2-1.2-0.5-1.8-0.7l0.8-3.2l-7.2-1.7l-0.8,3.3c-0.6-0.1-1.2-0.1-1.8-0.1c0,0,0,0,0,0l-0.2-3.5
	l-7.3,0.5l0.2,3.6c-0.6,0.1-1.2,0.3-1.7,0.4l-1.3-3.4l-6.9,2.6l1.3,3.5c-0.5,0.3-1,0.6-1.5,0.9l-2.3-3l-5.8,4.5l2.4,3.1
	c-0.4,0.4-0.8,0.8-1.2,1.2l-3.2-2.2l-4.2,6l3.2,2.3c-0.3,0.5-0.5,1-0.7,1.5l-3.8-1.2l-2.2,7l3.8,1.2c-0.1,0.5-0.2,1.1-0.3,1.6l-4,0
	l-0.1,7.4l4,0c0.1,0.6,0.1,1.1,0.2,1.7l-3.8,1.1l2.1,7.1l3.7-1.1c0.2,0.5,0.5,1,0.7,1.6l-3.2,2.1l4.1,6.1l3.1-2.1
	c0.4,0.4,0.8,0.9,1.1,1.3l-2.4,2.9l5.7,4.7l2.3-2.8c0.5,0.3,1,0.6,1.5,0.9l-1.3,3.3l6.8,2.8l1.3-3.2c0.6,0.2,1.2,0.3,1.8,0.5
	l-0.3,3.4l7.3,0.6l0.3-3.2c0.6,0,1.3,0,1.9-0.1l0.7,3.1l7.2-1.6l-0.6-3c0.6-0.2,1.2-0.4,1.8-0.7l1.5,2.6l6.4-3.6l-1.4-2.5
	c0.5-0.4,1.1-0.8,1.6-1.2l2.1,2l5.1-5.3l-2-1.9c0.4-0.5,0.8-1.1,1.2-1.6l2.5,1.2l3.3-6.6l-2.5-1.2c0.2-0.6,0.4-1.3,0.6-1.9
	L178.8,465.1z"/>
<path class="st0" d="M1572.5,857.7c-5.8,0-11.2,1.7-15.7,4.6l-146.1-193.7c14.6-13.6,23.8-32.9,23.8-54.4c0-41-33.2-74.2-74.2-74.2
	s-74.2,33.2-74.2,74.2c0,41,33.2,74.2,74.2,74.2c12.6,0,24.4-3.1,34.8-8.6l154.1,189.7c-3.6,4.9-5.8,10.9-5.8,17.4
	c0,16.1,13.1,29.2,29.2,29.2s29.2-13.1,29.2-29.2S1588.6,857.7,1572.5,857.7z"/>
</svg>
